# Blender 4.3.0
# www.blender.org
mtllib 2k_poly_crash_right_hand.mtl
o right_hand
v -0.574856 0.983024 -0.351712
v -0.479832 1.222973 -0.400993
v -0.554187 0.974344 -0.384238
v -0.519523 1.234831 -0.346281
v -0.556931 0.978937 -0.324197
v -0.519523 1.234831 -0.346281
v -0.574856 0.983024 -0.351712
v -0.498450 1.233791 -0.294559
v -0.479933 1.301141 -0.288218
v -0.505556 1.304188 -0.335694
v -0.463323 1.348616 -0.285994
v -0.468537 1.388061 -0.324948
v -0.404466 1.567059 -0.230979
v -0.417523 1.581156 -0.300466
v -0.493163 0.938640 -0.310302
v -0.567258 0.901563 -0.277458
v -0.538689 0.907933 -0.276158
v -0.564890 0.942034 -0.303297
v -0.611874 0.901592 -0.303889
v -0.578438 0.950281 -0.345039
v -0.574856 0.983024 -0.351712
v -0.554187 0.974344 -0.384238
v -0.561236 0.921712 -0.423640
v -0.526614 0.967079 -0.388600
v -0.535267 0.940936 -0.411840
v -0.510539 0.960290 -0.361822
v -0.495864 0.932573 -0.365866
v -0.526470 0.964869 -0.319893
v -0.556931 0.978937 -0.324197
v -0.479832 1.222973 -0.400993
v -0.424427 1.225804 -0.390709
v -0.468740 1.285383 -0.398335
v -0.406878 1.279649 -0.387416
v -0.454065 1.337076 -0.400819
v -0.388333 1.361832 -0.379530
v -0.432660 1.376666 -0.386997
v -0.383148 1.555028 -0.400299
v -0.338821 1.506469 -0.394133
v -0.332235 1.766306 -0.383271
v -0.635951 0.617995 -0.251994
v -0.630434 0.642607 -0.252788
v -0.678617 0.659838 -0.271680
v -0.692454 0.610412 -0.271824
v -0.646972 0.631066 -0.309479
v -0.656143 0.611770 -0.306590
v -0.683297 0.548118 -0.275651
v -0.650770 0.554473 -0.316513
v -0.688858 0.491297 -0.277471
v -0.655392 0.502780 -0.318375
v -0.650351 0.479858 -0.289923
v -0.642364 0.503141 -0.250362
v -0.644126 0.557073 -0.244382
v -0.656143 0.611770 -0.306590
v -0.646972 0.631066 -0.309479
v -0.606256 0.635789 -0.297751
v -0.611773 0.615583 -0.296783
v -0.630434 0.642607 -0.252788
v -0.635951 0.617995 -0.251994
v -0.600825 0.570433 -0.303008
v -0.644126 0.557073 -0.244382
v -0.606386 0.514234 -0.305969
v -0.642364 0.503141 -0.250362
v -0.650351 0.479858 -0.289923
v -0.655392 0.502780 -0.318375
v -0.650770 0.554473 -0.316513
v -0.650842 0.606975 -0.380382
v -0.641628 0.632150 -0.379949
v -0.613694 0.611929 -0.360710
v -0.617391 0.600764 -0.361894
v -0.651796 0.628149 -0.323142
v -0.660130 0.597644 -0.326160
v -0.623833 0.602627 -0.361620
v -0.617391 0.600764 -0.361894
v -0.660130 0.597644 -0.326160
v -0.623833 0.602627 -0.361620
v -0.646307 0.546876 -0.325439
v -0.613882 0.507503 -0.372915
v -0.655753 0.481664 -0.341399
v -0.654367 0.470383 -0.370026
v -0.664030 0.492626 -0.399735
v -0.659393 0.554372 -0.397698
v -0.650842 0.606975 -0.380382
v -0.650222 0.618010 -0.459503
v -0.629872 0.684117 -0.454188
v -0.650381 0.702042 -0.469758
v -0.651594 0.641307 -0.488838
v -0.624036 0.698228 -0.493575
v -0.607947 0.642838 -0.524340
v -0.662745 0.609892 -0.495293
v -0.627214 0.609488 -0.520006
v -0.643405 0.586147 -0.494918
v -0.650468 0.593152 -0.475189
v -0.660130 0.597644 -0.326160
v -0.651796 0.628149 -0.323142
v -0.695415 0.654754 -0.344272
v -0.700037 0.614904 -0.346020
v -0.641628 0.632150 -0.379949
v -0.650842 0.606975 -0.380382
v -0.690114 0.537675 -0.359019
v -0.659393 0.554372 -0.397698
v -0.693913 0.477966 -0.366111
v -0.664030 0.492626 -0.399735
v -0.654367 0.470383 -0.370026
v -0.655753 0.481664 -0.341399
v -0.646307 0.546876 -0.325439
v -0.652996 0.621620 -0.400083
v -0.640891 0.647879 -0.392688
v -0.682662 0.686110 -0.413774
v -0.691097 0.644788 -0.422455
v -0.635230 0.664387 -0.442561
v -0.637194 0.630388 -0.450404
v -0.683081 0.586263 -0.440220
v -0.633728 0.601847 -0.464876
v -0.685941 0.536216 -0.446055
v -0.637469 0.557333 -0.468530
v -0.649096 0.528677 -0.446114
v -0.662442 0.537979 -0.416505
v -0.654917 0.576644 -0.405253
v -0.637194 0.630388 -0.450404
v -0.635230 0.664387 -0.442561
v -0.601505 0.658047 -0.407073
v -0.612626 0.643964 -0.411132
v -0.640891 0.647879 -0.392688
v -0.652996 0.621620 -0.400083
v -0.606430 0.578088 -0.426355
v -0.654917 0.576644 -0.405253
v -0.599208 0.558113 -0.436697
v -0.662442 0.537979 -0.416505
v -0.649096 0.528677 -0.446114
v -0.637469 0.557333 -0.468530
v -0.633728 0.601847 -0.464876
v -0.607947 0.642838 -0.524340
v -0.624036 0.698228 -0.493575
v -0.595135 0.686919 -0.471144
v -0.587971 0.641350 -0.484505
v -0.629872 0.684117 -0.454188
v -0.650222 0.618010 -0.459503
v -0.601924 0.599479 -0.492752
v -0.650468 0.593152 -0.475189
v -0.643405 0.586147 -0.494918
v -0.627214 0.609488 -0.520006
v -0.498450 1.233791 -0.294559
v -0.448562 1.227306 -0.283856
v -0.398588 1.223045 -0.328371
v -0.374540 1.314804 -0.322205
v -0.291966 1.495679 -0.341934
v -0.270821 1.559057 -0.344549
v -0.252146 1.677205 -0.386333
v -0.381227 1.652954 -0.216868
v -0.343948 1.762869 -0.188025
v -0.404466 1.567059 -0.230979
v -0.357511 1.518139 -0.232280
v -0.463323 1.348616 -0.285994
v -0.426348 1.303640 -0.276952
v -0.479933 1.301141 -0.288218
v -0.388839 1.307236 -0.293793
v -0.310440 1.486233 -0.285663
v -0.282694 1.569587 -0.278398
v -0.353669 1.660652 -0.399506
v -0.383148 1.555028 -0.400299
v -0.432660 1.376666 -0.386997
v -0.383148 1.555028 -0.400299
v -0.468537 1.388061 -0.324948
v -0.454065 1.337076 -0.400819
v -0.505556 1.304188 -0.335694
v -0.468740 1.285383 -0.398335
v -0.257057 1.634596 -0.347293
v -0.638233 0.857511 -0.340633
v -0.618070 0.861540 -0.286846
v -0.609882 0.868834 -0.412562
v -0.281004 1.726370 -0.406049
v -0.496038 0.647128 -0.258465
v -0.504502 0.708310 -0.268590
v -0.457402 0.745733 -0.260732
v -0.436979 0.687295 -0.250752
v -0.491835 0.770821 -0.224884
v -0.480482 0.699976 -0.205775
v -0.541563 0.753547 -0.224147
v -0.540379 0.694545 -0.207638
v -0.508632 0.654898 -0.179777
v -0.483616 0.626459 -0.229087
v -0.436372 0.647474 -0.211365
v -0.470025 0.667493 -0.184355
v -0.468119 0.640484 -0.180268
v -0.666817 0.755338 -0.400818
v -0.640891 0.647879 -0.392688
v -0.647159 0.675942 -0.380671
v -0.682662 0.686110 -0.413774
v -0.651696 0.716167 -0.435397
v -0.635230 0.664387 -0.442561
v -0.572212 0.976698 -0.240280
v -0.567258 0.901563 -0.277458
v -0.538689 0.907933 -0.276158
v -0.601114 0.973231 -0.262884
v -0.611874 0.901592 -0.303889
v -0.612813 0.931981 -0.304756
v -0.665734 0.731203 -0.272734
v -0.675931 0.740837 -0.335635
v -0.636991 0.657715 -0.318578
v -0.638233 0.857511 -0.340633
v -0.618070 0.861540 -0.286846
v -0.619500 0.773118 -0.260111
v -0.504502 0.708310 -0.268590
v -0.456780 0.788067 -0.280708
v -0.457402 0.745733 -0.260732
v -0.514179 0.748838 -0.300134
v -0.460030 0.784875 -0.311429
v -0.543975 0.762863 -0.320369
v -0.589631 0.716644 -0.294617
v -0.623010 0.699138 -0.248831
v -0.606256 0.635789 -0.297751
v -0.630434 0.642607 -0.252788
v -0.665734 0.731203 -0.272734
v -0.630434 0.642607 -0.252788
v -0.623010 0.699138 -0.248831
v -0.678617 0.659838 -0.271680
v -0.636991 0.657715 -0.318578
v -0.646972 0.631066 -0.309479
v -0.675931 0.740837 -0.335635
v -0.651796 0.628149 -0.323142
v -0.636991 0.657715 -0.318578
v -0.695415 0.654754 -0.344272
v -0.641628 0.632150 -0.379949
v -0.647159 0.675942 -0.380671
v -0.637251 0.940633 -0.335882
v -0.683427 0.999316 -0.343767
v -0.666037 0.930103 -0.350526
v -0.650987 1.006957 -0.330754
v -0.453401 0.971310 -0.359179
v -0.533476 0.944821 -0.414974
v -0.496819 0.994160 -0.426846
v -0.494073 0.936415 -0.369029
v -0.476265 0.969000 -0.289778
v -0.493163 0.938640 -0.310302
v -0.572212 0.976698 -0.240280
v -0.538689 0.907933 -0.276158
v -0.466154 0.894688 -0.290674
v -0.498291 0.825273 -0.225043
v -0.491835 0.770821 -0.224884
v -0.575911 0.785424 -0.478583
v -0.595135 0.686919 -0.471144
v -0.624036 0.698228 -0.493575
v -0.550563 0.766142 -0.447515
v -0.561236 0.921712 -0.423640
v -0.508893 0.846837 -0.432855
v -0.533476 0.944821 -0.414974
v -0.598862 1.001021 -0.413963
v -0.496819 0.994160 -0.426846
v -0.561236 0.921712 -0.423640
v -0.593286 0.922174 -0.410742
v -0.609882 0.868834 -0.412562
v -0.633584 0.763383 -0.455473
v -0.575911 0.785424 -0.478583
v -0.650381 0.702042 -0.469758
v -0.575911 0.785424 -0.478583
v -0.624036 0.698228 -0.493575
v -0.633584 0.763383 -0.455473
v -0.651696 0.716167 -0.435397
v -0.629872 0.684117 -0.454188
v -0.613694 0.611929 -0.360710
v -0.636991 0.657715 -0.318578
v -0.651796 0.628149 -0.323142
v -0.577614 0.713134 -0.351394
v -0.641628 0.632150 -0.379949
v -0.647159 0.675942 -0.380671
v -0.566319 0.733803 -0.395721
v -0.640891 0.647879 -0.392688
v -0.601505 0.658047 -0.407073
v -0.635230 0.664387 -0.442561
v -0.651696 0.716167 -0.435397
v -0.629872 0.684117 -0.454188
v -0.593286 0.922174 -0.410742
v -0.608624 0.995171 -0.390795
v -0.598862 1.001021 -0.413963
v -0.608725 0.934769 -0.397425
v -0.623010 0.699138 -0.248831
v -0.514179 0.748838 -0.300134
v -0.541058 0.840626 -0.369737
v -0.457532 0.871059 -0.328963
v -0.646972 0.631066 -0.309479
v -0.637251 0.940633 -0.335882
v -0.601114 0.973231 -0.262884
v -0.650987 1.006957 -0.330754
v -0.612813 0.931981 -0.304756
v -0.666817 0.755338 -0.400818
v -0.651696 0.716167 -0.435397
v -0.647159 0.675942 -0.380671
v -0.544539 0.790999 -0.237738
v -0.619500 0.773118 -0.260111
v -0.514179 0.748838 -0.300134
v -0.567258 0.901563 -0.277458
v -0.538689 0.907933 -0.276158
v -0.498291 0.825273 -0.225043
v -0.491835 0.770821 -0.224884
v -0.541563 0.753547 -0.224147
v -0.504502 0.708310 -0.268590
v -0.519523 1.234831 -0.346281
v -0.519523 1.234831 -0.346281
v -0.519523 1.234831 -0.346281
v -0.498450 1.233791 -0.294559
v -0.479933 1.301141 -0.288218
v -0.479933 1.301141 -0.288218
v -0.505556 1.304188 -0.335694
v -0.505556 1.304188 -0.335694
v -0.397057 1.670041 -0.287034
v -0.578438 0.950281 -0.345039
v -0.578438 0.950281 -0.345039
v -0.578438 0.950281 -0.345039
v -0.578438 0.950281 -0.345039
v -0.578438 0.950281 -0.345039
v -0.574856 0.983024 -0.351712
v -0.574856 0.983024 -0.351712
v -0.554187 0.974344 -0.384238
v -0.554187 0.974344 -0.384238
v -0.554187 0.974344 -0.384238
v -0.561236 0.921712 -0.423640
v -0.561236 0.921712 -0.423640
v -0.561236 0.921712 -0.423640
v -0.561236 0.921712 -0.423640
v -0.526470 0.964869 -0.319893
v -0.526470 0.964869 -0.319893
v -0.526470 0.964869 -0.319893
v -0.526470 0.964869 -0.319893
v -0.526470 0.964869 -0.319893
v -0.526470 0.964869 -0.319893
v -0.556931 0.978937 -0.324197
v -0.556931 0.978937 -0.324197
v -0.556931 0.978937 -0.324197
v -0.432660 1.376666 -0.386997
v -0.383148 1.555028 -0.400299
v -0.383148 1.555028 -0.400299
v -0.368228 1.781371 -0.268374
v -0.274129 1.846323 -0.258755
v -0.646972 0.631066 -0.309479
v -0.656143 0.611770 -0.306590
v -0.656143 0.611770 -0.306590
v -0.644126 0.557073 -0.244382
v -0.644126 0.557073 -0.244382
v -0.606386 0.514234 -0.305969
v -0.606386 0.514234 -0.305969
v -0.606386 0.514234 -0.305969
v -0.606386 0.514234 -0.305969
v -0.642364 0.503141 -0.250362
v -0.613694 0.611929 -0.360710
v -0.613694 0.611929 -0.360710
v -0.617391 0.600764 -0.361894
v -0.617391 0.600764 -0.361894
v -0.651796 0.628149 -0.323142
v -0.646307 0.546876 -0.325439
v -0.646307 0.546876 -0.325439
v -0.613882 0.507503 -0.372915
v -0.613882 0.507503 -0.372915
v -0.613882 0.507503 -0.372915
v -0.613882 0.507503 -0.372915
v -0.655753 0.481664 -0.341399
v -0.650381 0.702042 -0.469758
v -0.650381 0.702042 -0.469758
v -0.659393 0.554372 -0.397698
v -0.659393 0.554372 -0.397698
v -0.693913 0.477966 -0.366111
v -0.693913 0.477966 -0.366111
v -0.693913 0.477966 -0.366111
v -0.693913 0.477966 -0.366111
v -0.664030 0.492626 -0.399735
v -0.682662 0.686110 -0.413774
v -0.682662 0.686110 -0.413774
v -0.691097 0.644788 -0.422455
v -0.691097 0.644788 -0.422455
v -0.691097 0.644788 -0.422455
v -0.691097 0.644788 -0.422455
v -0.691097 0.644788 -0.422455
v -0.635230 0.664387 -0.442561
v -0.649096 0.528677 -0.446114
v -0.662442 0.537979 -0.416505
v -0.662442 0.537979 -0.416505
v -0.652996 0.621620 -0.400083
v -0.652996 0.621620 -0.400083
v -0.606430 0.578088 -0.426355
v -0.606430 0.578088 -0.426355
v -0.606430 0.578088 -0.426355
v -0.606430 0.578088 -0.426355
v -0.606430 0.578088 -0.426355
v -0.606430 0.578088 -0.426355
v -0.654917 0.576644 -0.405253
v -0.654917 0.576644 -0.405253
v -0.595135 0.686919 -0.471144
v -0.595135 0.686919 -0.471144
v -0.587971 0.641350 -0.484505
v -0.587971 0.641350 -0.484505
v -0.587971 0.641350 -0.484505
v -0.587971 0.641350 -0.484505
v -0.587971 0.641350 -0.484505
v -0.629872 0.684117 -0.454188
v -0.498450 1.233791 -0.294559
v -0.498450 1.233791 -0.294559
v -0.498450 1.233791 -0.294559
v -0.448562 1.227306 -0.283856
v -0.448562 1.227306 -0.283856
v -0.448562 1.227306 -0.283856
v -0.448562 1.227306 -0.283856
v -0.398588 1.223045 -0.328371
v -0.398588 1.223045 -0.328371
v -0.398588 1.223045 -0.328371
v -0.398588 1.223045 -0.328371
v -0.398588 1.223045 -0.328371
v -0.398588 1.223045 -0.328371
v -0.398588 1.223045 -0.328371
v -0.374540 1.314804 -0.322205
v -0.374540 1.314804 -0.322205
v -0.374540 1.314804 -0.322205
v -0.374540 1.314804 -0.322205
v -0.374540 1.314804 -0.322205
v -0.291966 1.495679 -0.341934
v -0.291966 1.495679 -0.341934
v -0.291966 1.495679 -0.341934
v -0.291966 1.495679 -0.341934
v -0.426348 1.303640 -0.276952
v -0.426348 1.303640 -0.276952
v -0.426348 1.303640 -0.276952
v -0.426348 1.303640 -0.276952
v -0.426348 1.303640 -0.276952
v -0.426348 1.303640 -0.276952
v -0.479933 1.301141 -0.288218
v -0.388839 1.307236 -0.293793
v -0.388839 1.307236 -0.293793
v -0.388839 1.307236 -0.293793
v -0.388839 1.307236 -0.293793
v -0.388839 1.307236 -0.293793
v -0.310440 1.486233 -0.285663
v -0.310440 1.486233 -0.285663
v -0.310440 1.486233 -0.285663
v -0.310440 1.486233 -0.285663
v -0.310440 1.486233 -0.285663
v -0.505556 1.304188 -0.335694
v -0.505556 1.304188 -0.335694
v -0.505556 1.304188 -0.335694
v -0.468740 1.285383 -0.398335
v -0.638233 0.857511 -0.340633
v -0.638233 0.857511 -0.340633
v -0.638233 0.857511 -0.340633
v -0.491835 0.770821 -0.224884
v -0.491835 0.770821 -0.224884
v -0.480482 0.699976 -0.205775
v -0.480482 0.699976 -0.205775
v -0.480482 0.699976 -0.205775
v -0.480482 0.699976 -0.205775
v -0.480482 0.699976 -0.205775
v -0.541563 0.753547 -0.224147
v -0.541563 0.753547 -0.224147
v -0.651696 0.716167 -0.435397
v -0.665734 0.731203 -0.272734
v -0.665734 0.731203 -0.272734
v -0.665734 0.731203 -0.272734
v -0.665734 0.731203 -0.272734
v -0.675931 0.740837 -0.335635
v -0.675931 0.740837 -0.335635
v -0.675931 0.740837 -0.335635
v -0.638233 0.857511 -0.340633
v -0.638233 0.857511 -0.340633
v -0.638233 0.857511 -0.340633
v -0.618070 0.861540 -0.286846
v -0.618070 0.861540 -0.286846
v -0.618070 0.861540 -0.286846
v -0.619500 0.773118 -0.260111
v -0.619500 0.773118 -0.260111
v -0.619500 0.773118 -0.260111
v -0.665734 0.731203 -0.272734
v -0.665734 0.731203 -0.272734
v -0.630434 0.642607 -0.252788
v -0.678617 0.659838 -0.271680
v -0.678617 0.659838 -0.271680
v -0.636991 0.657715 -0.318578
v -0.453401 0.971310 -0.359179
v -0.453401 0.971310 -0.359179
v -0.533476 0.944821 -0.414974
v -0.533476 0.944821 -0.414974
v -0.494073 0.936415 -0.369029
v -0.494073 0.936415 -0.369029
v -0.494073 0.936415 -0.369029
v -0.494073 0.936415 -0.369029
v -0.494073 0.936415 -0.369029
v -0.494073 0.936415 -0.369029
v -0.494073 0.936415 -0.369029
v -0.476265 0.969000 -0.289778
v -0.476265 0.969000 -0.289778
v -0.466154 0.894688 -0.290674
v -0.466154 0.894688 -0.290674
v -0.466154 0.894688 -0.290674
v -0.466154 0.894688 -0.290674
v -0.498291 0.825273 -0.225043
v -0.498291 0.825273 -0.225043
v -0.498291 0.825273 -0.225043
v -0.457402 0.745733 -0.260732
v -0.457402 0.745733 -0.260732
v -0.613694 0.611929 -0.360710
v -0.613694 0.611929 -0.360710
v -0.636991 0.657715 -0.318578
v -0.636991 0.657715 -0.318578
v -0.636991 0.657715 -0.318578
v -0.636991 0.657715 -0.318578
v -0.577614 0.713134 -0.351394
v -0.577614 0.713134 -0.351394
v -0.577614 0.713134 -0.351394
v -0.577614 0.713134 -0.351394
v -0.577614 0.713134 -0.351394
v -0.577614 0.713134 -0.351394
v -0.641628 0.632150 -0.379949
v -0.508893 0.846837 -0.432855
v -0.508893 0.846837 -0.432855
v -0.508893 0.846837 -0.432855
v -0.508893 0.846837 -0.432855
v -0.566319 0.733803 -0.395721
v -0.566319 0.733803 -0.395721
v -0.566319 0.733803 -0.395721
v -0.566319 0.733803 -0.395721
v -0.566319 0.733803 -0.395721
v -0.566319 0.733803 -0.395721
v -0.566319 0.733803 -0.395721
v -0.566319 0.733803 -0.395721
v -0.566319 0.733803 -0.395721
v -0.601505 0.658047 -0.407073
v -0.635230 0.664387 -0.442561
v -0.623010 0.699138 -0.248831
v -0.541058 0.840626 -0.369737
v -0.541058 0.840626 -0.369737
v -0.541058 0.840626 -0.369737
v -0.541058 0.840626 -0.369737
v -0.541058 0.840626 -0.369737
v -0.457532 0.871059 -0.328963
v -0.457532 0.871059 -0.328963
v -0.457532 0.871059 -0.328963
v -0.457532 0.871059 -0.328963
v -0.457532 0.871059 -0.328963
v -0.514179 0.748838 -0.300134
v -0.504502 0.708310 -0.268590
v -0.683297 0.548118 -0.275651
v -0.683297 0.548118 -0.275651
v -0.683297 0.548118 -0.275651
v -0.683297 0.548118 -0.275651
v -0.683297 0.548118 -0.275651
v -0.650770 0.554473 -0.316513
v -0.650770 0.554473 -0.316513
v -0.656143 0.611770 -0.306590
v -0.656143 0.611770 -0.306590
v -0.606256 0.635789 -0.297751
v -0.606256 0.635789 -0.297751
v -0.611773 0.615583 -0.296783
v -0.611773 0.615583 -0.296783
v -0.611773 0.615583 -0.296783
v -0.611773 0.615583 -0.296783
v -0.611773 0.615583 -0.296783
v -0.650351 0.479858 -0.289923
v -0.655392 0.502780 -0.318375
v -0.655392 0.502780 -0.318375
v -0.650770 0.554473 -0.316513
v -0.650770 0.554473 -0.316513
v -0.660130 0.597644 -0.326160
v -0.654367 0.470383 -0.370026
v -0.664030 0.492626 -0.399735
v -0.664030 0.492626 -0.399735
v -0.651594 0.641307 -0.488838
v -0.651594 0.641307 -0.488838
v -0.651594 0.641307 -0.488838
v -0.651594 0.641307 -0.488838
v -0.651594 0.641307 -0.488838
v -0.624036 0.698228 -0.493575
v -0.660130 0.597644 -0.326160
v -0.660130 0.597644 -0.326160
v -0.695415 0.654754 -0.344272
v -0.695415 0.654754 -0.344272
v -0.700037 0.614904 -0.346020
v -0.700037 0.614904 -0.346020
v -0.700037 0.614904 -0.346020
v -0.700037 0.614904 -0.346020
v -0.700037 0.614904 -0.346020
v -0.654367 0.470383 -0.370026
v -0.655753 0.481664 -0.341399
v -0.655753 0.481664 -0.341399
v -0.646307 0.546876 -0.325439
v -0.646307 0.546876 -0.325439
v -0.637194 0.630388 -0.450404
v -0.637194 0.630388 -0.450404
v -0.683081 0.586263 -0.440220
v -0.683081 0.586263 -0.440220
v -0.683081 0.586263 -0.440220
v -0.683081 0.586263 -0.440220
v -0.683081 0.586263 -0.440220
v -0.654917 0.576644 -0.405253
v -0.654917 0.576644 -0.405253
v -0.599208 0.558113 -0.436697
v -0.599208 0.558113 -0.436697
v -0.599208 0.558113 -0.436697
v -0.599208 0.558113 -0.436697
v -0.637469 0.557333 -0.468530
v -0.637469 0.557333 -0.468530
v -0.633728 0.601847 -0.464876
v -0.650222 0.618010 -0.459503
v -0.650222 0.618010 -0.459503
v -0.601924 0.599479 -0.492752
v -0.601924 0.599479 -0.492752
v -0.601924 0.599479 -0.492752
v -0.601924 0.599479 -0.492752
v -0.627214 0.609488 -0.520006
v -0.627214 0.609488 -0.520006
v -0.338821 1.506469 -0.394133
v -0.338821 1.506469 -0.394133
v -0.338821 1.506469 -0.394133
v -0.338821 1.506469 -0.394133
v -0.338821 1.506469 -0.394133
v -0.338821 1.506469 -0.394133
v -0.540379 0.694545 -0.207638
v -0.540379 0.694545 -0.207638
v -0.540379 0.694545 -0.207638
v -0.540379 0.694545 -0.207638
v -0.540379 0.694545 -0.207638
v -0.436372 0.647474 -0.211365
v -0.436372 0.647474 -0.211365
v -0.436372 0.647474 -0.211365
v -0.436372 0.647474 -0.211365
v -0.470025 0.667493 -0.184355
v -0.470025 0.667493 -0.184355
v -0.470025 0.667493 -0.184355
v -0.470025 0.667493 -0.184355
v -0.270821 1.559057 -0.344549
v -0.270821 1.559057 -0.344549
v -0.270821 1.559057 -0.344549
v -0.270821 1.559057 -0.344549
v -0.270821 1.559057 -0.344549
v -0.285077 1.673521 -0.193644
v -0.319553 1.599037 -0.220277
v -0.404466 1.567059 -0.230979
v -0.404466 1.567059 -0.230979
v -0.651696 0.716167 -0.435397
v -0.651696 0.716167 -0.435397
v -0.651696 0.716167 -0.435397
v -0.637251 0.940633 -0.335882
v -0.601114 0.973231 -0.262884
v -0.666817 0.755338 -0.400818
v -0.666817 0.755338 -0.400818
v -0.666817 0.755338 -0.400818
v -0.666817 0.755338 -0.400818
v -0.567258 0.901563 -0.277458
v -0.538689 0.907933 -0.276158
v -0.514179 0.748838 -0.300134
v -0.514179 0.748838 -0.300134
v -0.514179 0.748838 -0.300134
v -0.514179 0.748838 -0.300134
v -0.460030 0.784875 -0.311429
v -0.460030 0.784875 -0.311429
v -0.460030 0.784875 -0.311429
v -0.460030 0.784875 -0.311429
v -0.543975 0.762863 -0.320369
v -0.543975 0.762863 -0.320369
v -0.543975 0.762863 -0.320369
v -0.543975 0.762863 -0.320369
v -0.543975 0.762863 -0.320369
v -0.589631 0.716644 -0.294617
v -0.589631 0.716644 -0.294617
v -0.589631 0.716644 -0.294617
v -0.589631 0.716644 -0.294617
v -0.589631 0.716644 -0.294617
v -0.623010 0.699138 -0.248831
v -0.623010 0.699138 -0.248831
v -0.695415 0.654754 -0.344272
v -0.641628 0.632150 -0.379949
v -0.561236 0.921712 -0.423640
v -0.561236 0.921712 -0.423640
v -0.561236 0.921712 -0.423640
v -0.533476 0.944821 -0.414974
v -0.598862 1.001021 -0.413963
v -0.598862 1.001021 -0.413963
v -0.561236 0.921712 -0.423640
v -0.561236 0.921712 -0.423640
v -0.561236 0.921712 -0.423640
v -0.561236 0.921712 -0.423640
v -0.282694 1.569587 -0.278398
v -0.282694 1.569587 -0.278398
v -0.282694 1.569587 -0.278398
v -0.282694 1.569587 -0.278398
v -0.282694 1.569587 -0.278398
v -0.526614 0.967079 -0.388600
v -0.526614 0.967079 -0.388600
v -0.526614 0.967079 -0.388600
v -0.526614 0.967079 -0.388600
v -0.526614 0.967079 -0.388600
v -0.526614 0.967079 -0.388600
v -0.479832 1.222973 -0.400993
v -0.479832 1.222973 -0.400993
v -0.424427 1.225804 -0.390709
v -0.424427 1.225804 -0.390709
v -0.424427 1.225804 -0.390709
v -0.424427 1.225804 -0.390709
v -0.468740 1.285383 -0.398335
v -0.468740 1.285383 -0.398335
v -0.297426 1.613350 -0.396169
v -0.279531 1.821437 -0.191910
v -0.688858 0.491297 -0.277471
v -0.688858 0.491297 -0.277471
v -0.688858 0.491297 -0.277471
v -0.688858 0.491297 -0.277471
v -0.642364 0.503141 -0.250362
v -0.642364 0.503141 -0.250362
v -0.644126 0.557073 -0.244382
v -0.644126 0.557073 -0.244382
v -0.607947 0.642838 -0.524340
v -0.607947 0.642838 -0.524340
v -0.662745 0.609892 -0.495293
v -0.662745 0.609892 -0.495293
v -0.662745 0.609892 -0.495293
v -0.662745 0.609892 -0.495293
v -0.650468 0.593152 -0.475189
v -0.650468 0.593152 -0.475189
v -0.662442 0.537979 -0.416505
v -0.572212 0.976698 -0.240280
v -0.567258 0.901563 -0.277458
v -0.567258 0.901563 -0.277458
v -0.567258 0.901563 -0.277458
v -0.567258 0.901563 -0.277458
v -0.601114 0.973231 -0.262884
v -0.601114 0.973231 -0.262884
v -0.593286 0.922174 -0.410742
v -0.650381 0.702042 -0.469758
v -0.650381 0.702042 -0.469758
v -0.650381 0.702042 -0.469758
v -0.575911 0.785424 -0.478583
v -0.633584 0.763383 -0.455473
v -0.651696 0.716167 -0.435397
v -0.498291 0.825273 -0.225043
v -0.508632 0.654898 -0.179777
v -0.508632 0.654898 -0.179777
v -0.508632 0.654898 -0.179777
v -0.508632 0.654898 -0.179777
v -0.432660 1.376666 -0.386997
v -0.432660 1.376666 -0.386997
v -0.468537 1.388061 -0.324948
v -0.468537 1.388061 -0.324948
v -0.454065 1.337076 -0.400819
v -0.454065 1.337076 -0.400819
v -0.655392 0.502780 -0.318375
v -0.630434 0.642607 -0.252788
v -0.623833 0.602627 -0.361620
v -0.623833 0.602627 -0.361620
v -0.623833 0.602627 -0.361620
v -0.623833 0.602627 -0.361620
v -0.641628 0.632150 -0.379949
v -0.633728 0.601847 -0.464876
v -0.633728 0.601847 -0.464876
v -0.637194 0.630388 -0.450404
v -0.637194 0.630388 -0.450404
v -0.637194 0.630388 -0.450404
v -0.601505 0.658047 -0.407073
v -0.601505 0.658047 -0.407073
v -0.612626 0.643964 -0.411132
v -0.612626 0.643964 -0.411132
v -0.612626 0.643964 -0.411132
v -0.612626 0.643964 -0.411132
v -0.649096 0.528677 -0.446114
v -0.650468 0.593152 -0.475189
v -0.574856 0.983024 -0.351712
v -0.479832 1.222973 -0.400993
v -0.479832 1.222973 -0.400993
v -0.479832 1.222973 -0.400993
v -0.519523 1.234831 -0.346281
v -0.463323 1.348616 -0.285994
v -0.463323 1.348616 -0.285994
v -0.493163 0.938640 -0.310302
v -0.493163 0.938640 -0.310302
v -0.493163 0.938640 -0.310302
v -0.493163 0.938640 -0.310302
v -0.567258 0.901563 -0.277458
v -0.567258 0.901563 -0.277458
v -0.564890 0.942034 -0.303297
v -0.564890 0.942034 -0.303297
v -0.564890 0.942034 -0.303297
v -0.564890 0.942034 -0.303297
v -0.564890 0.942034 -0.303297
v -0.535267 0.940936 -0.411840
v -0.535267 0.940936 -0.411840
v -0.495864 0.932573 -0.365866
v -0.495864 0.932573 -0.365866
v -0.406878 1.279649 -0.387416
v -0.406878 1.279649 -0.387416
v -0.406878 1.279649 -0.387416
v -0.406878 1.279649 -0.387416
v -0.406878 1.279649 -0.387416
v -0.647159 0.675942 -0.380671
v -0.647159 0.675942 -0.380671
v -0.491835 0.770821 -0.224884
v -0.611874 0.901592 -0.303889
v -0.611874 0.901592 -0.303889
v -0.493163 0.938640 -0.310302
v -0.493163 0.938640 -0.310302
v -0.493163 0.938640 -0.310302
v -0.493163 0.938640 -0.310302
v -0.493163 0.938640 -0.310302
v -0.575911 0.785424 -0.478583
v -0.575911 0.785424 -0.478583
v -0.595135 0.686919 -0.471144
v -0.595135 0.686919 -0.471144
v -0.595135 0.686919 -0.471144
v -0.550563 0.766142 -0.447515
v -0.550563 0.766142 -0.447515
v -0.550563 0.766142 -0.447515
v -0.550563 0.766142 -0.447515
v -0.550563 0.766142 -0.447515
v -0.609882 0.868834 -0.412562
v -0.609882 0.868834 -0.412562
v -0.609882 0.868834 -0.412562
v -0.666817 0.755338 -0.400818
v -0.666817 0.755338 -0.400818
v -0.640891 0.647879 -0.392688
v -0.682662 0.686110 -0.413774
v -0.682662 0.686110 -0.413774
v -0.606256 0.635789 -0.297751
v -0.606256 0.635789 -0.297751
v -0.606256 0.635789 -0.297751
v -0.637251 0.940633 -0.335882
v -0.683427 0.999316 -0.343767
v -0.572212 0.976698 -0.240280
v -0.633584 0.763383 -0.455473
v -0.633584 0.763383 -0.455473
v -0.633584 0.763383 -0.455473
v -0.593286 0.922174 -0.410742
v -0.608624 0.995171 -0.390795
v -0.541563 0.753547 -0.224147
v -0.468537 1.388061 -0.324948
v -0.468537 1.388061 -0.324948
v -0.611874 0.901592 -0.303889
v -0.611874 0.901592 -0.303889
v -0.611874 0.901592 -0.303889
v -0.510539 0.960290 -0.361822
v -0.510539 0.960290 -0.361822
v -0.510539 0.960290 -0.361822
v -0.510539 0.960290 -0.361822
v -0.454065 1.337076 -0.400819
v -0.454065 1.337076 -0.400819
v -0.483616 0.626459 -0.229087
v -0.483616 0.626459 -0.229087
v -0.483616 0.626459 -0.229087
v -0.483616 0.626459 -0.229087
v -0.635951 0.617995 -0.251994
v -0.635951 0.617995 -0.251994
v -0.678617 0.659838 -0.271680
v -0.678617 0.659838 -0.271680
v -0.692454 0.610412 -0.271824
v -0.692454 0.610412 -0.271824
v -0.692454 0.610412 -0.271824
v -0.692454 0.610412 -0.271824
v -0.692454 0.610412 -0.271824
v -0.650351 0.479858 -0.289923
v -0.635951 0.617995 -0.251994
v -0.635951 0.617995 -0.251994
v -0.600825 0.570433 -0.303008
v -0.600825 0.570433 -0.303008
v -0.600825 0.570433 -0.303008
v -0.600825 0.570433 -0.303008
v -0.600825 0.570433 -0.303008
v -0.623833 0.602627 -0.361620
v -0.617391 0.600764 -0.361894
v -0.659393 0.554372 -0.397698
v -0.627214 0.609488 -0.520006
v -0.650842 0.606975 -0.380382
v -0.650842 0.606975 -0.380382
v -0.690114 0.537675 -0.359019
v -0.690114 0.537675 -0.359019
v -0.690114 0.537675 -0.359019
v -0.690114 0.537675 -0.359019
v -0.690114 0.537675 -0.359019
v -0.685941 0.536216 -0.446055
v -0.685941 0.536216 -0.446055
v -0.685941 0.536216 -0.446055
v -0.685941 0.536216 -0.446055
v -0.643405 0.586147 -0.494918
v -0.357511 1.518139 -0.232280
v -0.357511 1.518139 -0.232280
v -0.357511 1.518139 -0.232280
v -0.357511 1.518139 -0.232280
v -0.357511 1.518139 -0.232280
v -0.496038 0.647128 -0.258465
v -0.496038 0.647128 -0.258465
v -0.496038 0.647128 -0.258465
v -0.496038 0.647128 -0.258465
v -0.496038 0.647128 -0.258465
v -0.504502 0.708310 -0.268590
v -0.504502 0.708310 -0.268590
v -0.457402 0.745733 -0.260732
v -0.457402 0.745733 -0.260732
v -0.436979 0.687295 -0.250752
v -0.436979 0.687295 -0.250752
v -0.436979 0.687295 -0.250752
v -0.436979 0.687295 -0.250752
v -0.436979 0.687295 -0.250752
v -0.468119 0.640484 -0.180268
v -0.468119 0.640484 -0.180268
v -0.468119 0.640484 -0.180268
v -0.640891 0.647879 -0.392688
v -0.538689 0.907933 -0.276158
v -0.538689 0.907933 -0.276158
v -0.643405 0.586147 -0.494918
v -0.637469 0.557333 -0.468530
v -0.640891 0.647879 -0.392688
v -0.404466 1.567059 -0.230979
v -0.404466 1.567059 -0.230979
v -0.404466 1.567059 -0.230979
v -0.388333 1.361832 -0.379530
v -0.388333 1.361832 -0.379530
v -0.388333 1.361832 -0.379530
v -0.388333 1.361832 -0.379530
v -0.388333 1.361832 -0.379530
v -0.463323 1.348616 -0.285994
v -0.463323 1.348616 -0.285994
v -0.504502 0.708310 -0.268590
v -0.456780 0.788067 -0.280708
v -0.456780 0.788067 -0.280708
v -0.456780 0.788067 -0.280708
v -0.456780 0.788067 -0.280708
v -0.456780 0.788067 -0.280708
v -0.456780 0.788067 -0.280708
v -0.675931 0.740837 -0.335635
v -0.675931 0.740837 -0.335635
v -0.675931 0.740837 -0.335635
v -0.651796 0.628149 -0.323142
v -0.544539 0.790999 -0.237738
v -0.544539 0.790999 -0.237738
v -0.544539 0.790999 -0.237738
v -0.544539 0.790999 -0.237738
v -0.544539 0.790999 -0.237738
v -0.544539 0.790999 -0.237738
v -0.544539 0.790999 -0.237738
v -0.619500 0.773118 -0.260111
v -0.607947 0.642838 -0.524340
v -0.607947 0.642838 -0.524340
v -0.650842 0.606975 -0.380382
v -0.650842 0.606975 -0.380382
v -0.652996 0.621620 -0.400083
v -0.652996 0.621620 -0.400083
v -0.650222 0.618010 -0.459503
v -0.650222 0.618010 -0.459503
v -0.255006 1.815428 -0.391345
v -0.556931 0.978937 -0.324197
vn -0.7763 0.1836 -0.6030
vn -0.7588 0.2449 -0.6035
vn -0.8014 0.2017 -0.5631
vn -0.9121 0.1657 0.3750
vn -0.8726 0.1028 0.4775
vn -0.8146 0.1670 0.5555
vn -0.9033 0.2133 0.3723
vn -0.8395 0.2717 0.4705
vn -0.8436 0.3168 0.4337
vn -0.9365 0.1759 0.3035
vn -0.9490 0.2224 0.2234
vn -0.9412 0.2113 0.2638
vn -0.9670 0.2386 -0.0891
vn 0.1078 0.4722 0.8749
vn -0.4408 0.5012 0.7446
vn -0.2115 0.8500 0.4825
vn -0.7135 0.4554 0.5325
vn -0.8407 0.5397 -0.0444
vn -0.7938 0.4948 -0.3536
vn -0.1610 -0.0184 -0.9868
vn -0.1894 0.6866 -0.7019
vn 0.8621 -0.3435 -0.3725
vn 0.7151 0.4559 -0.5299
vn 0.7942 -0.2690 -0.5449
vn 0.8641 0.4163 0.2829
vn 0.8396 -0.4040 0.3631
vn 0.1820 0.0095 -0.9832
vn 0.8864 -0.2657 -0.3792
vn 0.1646 -0.0939 -0.9819
vn 0.9163 -0.1721 -0.3616
vn 0.2297 0.2078 -0.9508
vn 0.8212 -0.3282 -0.4669
vn 0.1121 -0.0238 -0.9934
vn 0.6983 -0.2830 -0.6575
vn -0.6125 0.4713 -0.6345
vn -0.3461 0.1619 0.9241
vn -0.3305 0.1043 0.9380
vn -0.6760 0.1913 -0.7116
vn -0.7845 0.0337 -0.6192
vn -0.5988 -0.1365 0.7892
vn -0.7832 0.0922 -0.6149
vn -0.5078 0.0221 0.8612
vn -0.3947 -0.7484 -0.5330
vn -0.0853 -0.8511 0.5181
vn -0.6052 -0.1072 0.7888
vn 0.1969 0.1852 -0.9628
vn 0.2955 -0.2773 -0.9142
vn 0.8479 -0.2082 0.4875
vn 0.8619 -0.1779 0.4748
vn 0.8077 -0.0348 0.5886
vn 0.2022 0.1817 -0.9624
vn 0.2393 0.0275 -0.9706
vn 0.6527 -0.7031 0.2820
vn 0.3243 -0.7077 -0.6276
vn 0.5805 0.1679 -0.7968
vn 0.4785 -0.1603 -0.8633
vn 0.6323 -0.2455 0.7348
vn 0.6720 0.1931 0.7150
vn -0.2675 -0.9493 0.1651
vn -0.2703 -0.8759 -0.3998
vn 0.7333 -0.0327 -0.6791
vn 0.4311 0.1507 -0.8896
vn 0.6555 -0.6912 0.3041
vn 0.5081 -0.6021 -0.6160
vn -0.9987 0.0042 0.0501
vn -0.5443 0.1006 0.8328
vn -0.6307 0.2440 -0.7367
vn -0.9993 -0.0131 0.0364
vn -0.6180 0.2368 -0.7496
vn -0.5557 0.2168 -0.8026
vn -0.7815 0.1531 0.6048
vn -0.5179 -0.4335 -0.7375
vn -0.7739 -0.6311 -0.0529
vn -0.4832 -0.1192 0.8674
vn -0.4230 0.0259 0.9058
vn -0.5213 0.0976 -0.8478
vn -0.5368 0.2105 -0.8171
vn -0.8059 0.2992 -0.5109
vn -0.5674 -0.2071 0.7970
vn -0.5379 -0.0656 0.8404
vn -0.2097 -0.8142 -0.5414
vn -0.1417 -0.9233 0.3570
vn -0.5900 -0.1103 0.7999
vn -0.5379 -0.0736 0.8398
vn -0.4724 -0.0303 0.8809
vn -0.3995 0.2279 -0.8879
vn -0.5041 0.3411 -0.7934
vn -0.7842 -0.2761 0.5557
vn -0.4574 0.1109 -0.8823
vn -0.7816 -0.0280 0.6232
vn -0.1201 -0.5810 -0.8050
vn 0.7959 0.2064 -0.5692
vn 0.7302 0.1132 -0.6737
vn 0.4083 -0.5355 0.7393
vn 0.4514 -0.4285 0.7827
vn 0.3802 -0.3259 0.8656
vn 0.5348 0.5329 -0.6558
vn 0.3961 -0.8098 0.4329
vn 0.4931 -0.6513 -0.5768
vn 0.8099 -0.0199 -0.5862
vn 0.8552 0.3132 -0.4129
vn 0.8668 0.2609 -0.4249
vn 0.6437 0.5059 -0.5743
vn 0.7684 -0.4964 -0.4039
vn 0.4295 -0.2030 0.8800
vn 0.3513 -0.5021 0.7902
vn 0.7108 -0.0997 -0.6962
vn 0.2606 -0.8766 0.4045
vn 0.2814 -0.7863 -0.5500
vn -0.2130 -0.0264 0.9767
vn 0.6027 -0.3619 0.7112
vn 0.8888 -0.2584 0.3785
vn 0.8685 -0.3593 0.3414
vn 0.9209 -0.2968 0.2525
vn 0.9652 -0.1686 0.2001
vn 0.8715 -0.1426 -0.4691
vn -0.6678 0.0167 0.7442
vn -0.5247 0.2770 0.8050
vn -0.1768 -0.1953 0.9647
vn 0.5938 -0.3422 0.7282
vn -0.2069 0.0266 0.9780
vn 0.4170 -0.2227 0.8812
vn -0.2040 -0.0360 0.9783
vn 0.6342 -0.2741 0.7230
vn -0.5401 0.1381 -0.8302
vn -0.8928 0.2520 -0.3734
vn -0.6814 0.5407 -0.4933
vn -0.9023 0.2229 -0.3690
vn -0.8047 0.4102 -0.4291
vn -0.8155 0.2055 -0.5410
vn -0.8265 0.1698 -0.5367
vn 0.9794 -0.1786 -0.0941
vn -0.9066 0.2761 0.3192
vn -0.7420 0.6425 -0.1913
vn 0.1430 0.0605 -0.9879
vn 0.4911 -0.6010 -0.6305
vn -0.8235 -0.2017 -0.5303
vn 0.7858 0.3605 0.5025
vn 0.6829 0.5190 0.5142
vn -0.0745 0.5322 0.8434
vn -0.8334 -0.1644 -0.5277
vn -0.0740 0.5331 0.8428
vn -0.3099 -0.8831 0.3521
vn 0.3531 -0.9230 0.1531
vn 0.6733 0.1569 0.7226
vn -0.7185 0.2833 -0.6352
vn -0.4873 -0.0516 0.8717
vn -0.9721 -0.2319 0.0346
vn -0.5360 -0.0539 -0.8425
vn -0.5333 -0.4032 0.7437
vn -0.4655 0.4065 0.7862
vn 0.0573 -0.4397 0.8963
vn -0.9572 -0.0213 0.2885
vn -0.3900 0.1569 0.9074
vn -0.9302 0.3090 0.1981
vn -0.9089 -0.4084 0.0848
vn -0.9504 0.3043 -0.0652
vn 0.3770 0.1221 0.9181
vn 0.5401 -0.4328 -0.7218
vn 0.9938 -0.0492 -0.1000
vn 0.4430 -0.3879 -0.8082
vn 0.2257 -0.5282 -0.8186
vn 0.7502 -0.6309 0.1978
vn 0.5224 -0.0745 -0.8494
vn 0.8617 -0.1472 0.4857
vn 0.2961 -0.4061 -0.8645
vn -0.7394 0.1237 -0.6619
vn -0.3405 0.0753 0.9372
vn -0.4867 0.0028 0.8736
vn -0.7457 0.0525 -0.6642
vn -0.9065 -0.1212 -0.4045
vn -0.4323 0.0074 0.9017
vn -0.3477 0.0294 0.9371
vn -0.3395 -0.1422 0.9298
vn -0.3906 -0.1862 0.9016
vn 0.6157 -0.7677 0.1773
vn 0.6092 -0.5015 -0.6142
vn 0.5875 -0.5738 -0.5707
vn 0.8805 0.4730 -0.0316
vn 0.3090 -0.6447 0.6992
vn 0.8675 0.4863 -0.1048
vn 0.6357 -0.0901 0.7666
vn 0.2608 0.5967 0.7589
vn 0.9821 0.1012 0.1587
vn 0.8333 0.1236 0.5388
vn 0.7492 0.0907 0.6561
vn 0.8085 0.1431 -0.5708
vn 0.4425 -0.2099 0.8719
vn 0.5616 -0.1707 -0.8096
vn 0.3135 -0.4291 0.8471
vn 0.0476 0.1547 -0.9868
vn 0.8286 -0.4093 0.3820
vn 0.1466 0.1881 -0.9712
vn -0.3734 -0.0642 -0.9255
vn -0.1332 -0.1373 -0.9815
vn -0.4645 0.3737 -0.8029
vn -0.3675 0.1457 -0.9185
vn -0.8185 0.3646 -0.4440
vn -0.7344 -0.6372 0.2338
vn -0.4549 0.3183 -0.8317
vn -0.5688 0.4340 -0.6986
vn -0.9426 0.2947 -0.1572
vn 0.5120 -0.1040 -0.8527
vn 0.5561 -0.3916 0.7331
vn 0.7246 -0.6613 0.1942
vn 0.3733 0.0319 -0.9272
vn 0.3738 -0.2933 0.8799
vn 0.8389 -0.5429 -0.0394
vn 0.3961 -0.3133 0.8631
vn 0.3676 0.2412 -0.8982
vn 0.3637 -0.8358 -0.4112
vn -0.6087 0.0876 -0.7886
vn -0.9110 -0.0809 -0.4043
vn 0.9604 -0.1742 -0.2176
vn 0.4853 -0.1878 -0.8539
vn -0.7870 -0.3151 0.5303
vn -0.8348 -0.2122 0.5080
vn -0.8562 0.1142 -0.5038
vn -0.9396 -0.2819 -0.1941
vn -0.9094 -0.3680 -0.1938
vn -0.3323 0.2577 0.9073
vn 0.0265 -0.8223 0.5685
vn -0.4521 0.2988 0.8404
vn -0.2464 -0.0264 0.9688
vn -0.1015 0.3322 0.9377
vn -0.8512 -0.2375 -0.4681
vn -0.9683 0.2438 -0.0539
vn -0.9271 0.1696 0.3344
vn -0.8458 -0.0161 -0.5332
vn -0.8762 0.3584 -0.3221
vn -0.6159 0.7105 0.3403
vn 0.0303 0.5964 -0.8021
vn 0.0607 0.4099 0.9101
vn -0.1732 -0.0745 0.9821
vn -0.2178 -0.0690 0.9735
vn 0.6239 -0.2851 0.7277
vn 0.6347 0.7642 -0.1143
vn 0.1294 -0.1094 -0.9855
vn 0.0206 -0.1074 -0.9940
vn -0.8254 0.5645 0.0126
vn 0.3895 0.9146 0.1088
vn -0.6792 0.2179 -0.7009
vn -0.6893 -0.0570 -0.7222
vn 0.8113 -0.1105 0.5741
vn 0.8421 -0.0322 0.5384
vn 0.4737 -0.0637 -0.8784
vn 0.6106 -0.2807 0.7405
vn 0.8339 0.0218 0.5515
vn 0.6791 -0.2658 0.6842
vn -0.8020 0.1205 -0.5850
vn -0.7619 0.0784 -0.6429
vn -0.5354 -0.0676 0.8419
vn -0.4078 0.2667 -0.8732
vn -0.4038 0.2146 -0.8893
vn -0.1956 -0.9574 0.2126
vn -0.7823 -0.0288 0.6222
vn 0.3508 -0.1794 0.9191
vn 0.3991 -0.1215 0.9088
vn 0.3872 -0.3097 0.8684
vn 0.4431 -0.1874 0.8767
vn 0.4531 -0.3152 0.8339
vn 0.4172 -0.2016 0.8862
vn 0.9160 -0.2174 -0.3370
vn 0.6521 -0.3699 -0.6618
vn 0.6917 -0.2586 -0.6743
vn 0.8888 -0.3995 0.2247
vn -0.3358 -0.0875 0.9378
vn 0.9204 -0.3253 0.2170
vn 0.7279 0.2849 0.6237
vn -0.0722 0.2489 0.9658
vn -0.0542 0.2680 0.9619
vn 0.6988 0.5368 0.4728
vn -0.8835 0.3560 0.3045
vn -0.4684 0.2626 0.8436
vn -0.8697 0.4074 -0.2787
vn -0.3788 0.2735 0.8842
vn 0.5968 -0.5240 -0.6077
vn 0.5048 0.4440 -0.7403
vn 0.4944 -0.2363 -0.8365
vn 0.8723 -0.4889 0.0050
vn 0.2580 0.5217 0.8132
vn 0.8465 0.2170 0.4862
vn 0.6599 -0.2987 0.6895
vn 0.5347 -0.8098 -0.2414
vn 0.8895 -0.4567 -0.0145
vn 0.8608 -0.3030 0.4089
vn 0.6882 -0.2159 -0.6926
vn -0.7860 0.0965 -0.6107
vn 0.2234 -0.1074 -0.9688
vn 0.8736 0.1479 0.4636
vn 0.2575 0.0118 -0.9662
vn -0.5964 0.3592 -0.7178
vn -0.4414 0.0118 0.8972
vn -0.5642 0.0660 -0.8230
vn -0.4754 0.1286 -0.8703
vn 0.0326 -0.0317 -0.9990
vn -0.7592 -0.6483 -0.0575
vn 0.5012 -0.6047 -0.6190
vn 0.0667 0.1539 0.9858
vn 0.7945 -0.1660 -0.5841
vn 0.5668 -0.1984 0.7996
vn 0.2904 -0.3613 0.8861
vn -0.0705 -0.1431 0.9872
vn -0.0844 -0.1074 0.9906
vn -0.1132 0.3152 0.9422
vn 0.5578 -0.8296 0.0272
vn 0.2383 -0.5979 -0.7653
vn 0.2131 -0.6277 -0.7488
vn 0.3872 -0.9194 -0.0692
vn 0.8265 -0.1905 0.5297
vn -0.4839 0.1951 -0.8531
vn -0.6042 0.4131 -0.6814
vn 0.9646 -0.1529 0.2147
vn 0.5939 -0.5002 0.6301
vn 0.6652 -0.4052 0.6272
vn 0.8641 0.1429 -0.4825
vn 0.1859 -0.0814 -0.9792
vn 0.1741 0.0035 -0.9847
vn 0.4294 -0.1880 -0.8833
vn 0.3883 0.6244 0.6778
vn -0.4708 -0.3839 0.7943
vn -0.8070 -0.5863 -0.0713
vn -0.8082 0.2793 -0.5186
vn 0.7878 -0.5332 -0.3085
vn 0.1072 0.5306 0.8408
vn 0.2999 0.0238 -0.9537
vn 0.7003 -0.1887 -0.6885
vn -0.3408 0.0927 0.9356
vn 0.2576 -0.1230 -0.9584
vn 0.1946 -0.0987 -0.9759
vn -0.9577 0.1876 0.2180
vn 0.4645 0.6801 -0.5672
vt 0.758134 0.905388
vt 0.760374 0.931664
vt 0.769494 0.923003
vt 0.798721 0.995729
vt 0.779014 0.894070
vt 0.798481 0.894169
vt 0.778854 0.995729
vt 0.800801 0.974472
vt 0.780134 0.986872
vt 0.798081 0.986675
vt 0.785414 0.978606
vt 0.781814 0.979491
vt 0.777014 0.988348
vt 0.754774 0.979787
vt 0.750614 0.992400
vt 0.771334 0.987364
vt 0.763334 0.993170
vt 0.754534 0.995040
vt 0.762054 0.989332
vt 0.759654 0.930778
vt 0.760214 0.932254
vt 0.759734 0.931073
vt 0.759014 0.929302
vt 0.758934 0.929006
vt 0.758374 0.927530
vt 0.757734 0.925857
vt 0.758294 0.927333
vt 0.757894 0.926349
vt 0.758774 0.928514
vt 0.758694 0.928416
vt 0.759494 0.930384
vt 0.759414 0.930187
vt 0.758054 0.926841
vt 0.758294 0.927235
vt 0.758134 0.926940
vt 0.758294 0.927432
vt 0.758454 0.927727
vt 0.758214 0.927137
vt 0.758134 0.926841
vt 0.758134 0.927038
vt 0.757974 0.926546
vt 0.771974 0.913654
vt 0.768774 0.920937
vt 0.768134 0.920051
vt 0.772694 0.917492
vt 0.774374 0.909324
vt 0.775494 0.909127
vt 0.775334 0.923298
vt 0.773094 0.919854
vt 0.768534 0.912965
vt 0.774934 0.917591
vt 0.775094 0.917886
vt 0.766854 0.988840
vt 0.762214 0.988939
vt 0.760054 0.967091
vt 0.767654 0.967387
vt 0.764294 0.948000
vt 0.767974 0.948295
vt 0.783494 0.966895
vt 0.783414 0.938552
vt 0.798561 0.963844
vt 0.794801 0.940127
vt 0.800401 0.964434
vt 0.795441 0.991891
vt 0.783734 0.994155
vt 0.778054 0.938651
vt 0.777814 0.938355
vt 0.778614 0.939438
vt 0.778694 0.939536
vt 0.781574 0.943768
vt 0.778294 0.938946
vt 0.782054 0.944555
vt 0.781654 0.943965
vt 0.779094 0.940127
vt 0.777254 0.937470
vt 0.777334 0.937667
vt 0.778214 0.941505
vt 0.778294 0.941603
vt 0.779494 0.943276
vt 0.779414 0.943178
vt 0.781894 0.946720
vt 0.781654 0.946425
vt 0.786054 0.946622
vt 0.786054 0.946524
vt 0.788534 0.949968
vt 0.779414 0.943276
vt 0.781734 0.946425
vt 0.778694 0.942193
vt 0.780694 0.945047
vt 0.778854 0.942390
vt 0.777014 0.939733
vt 0.777094 0.939930
vt 0.784774 0.944752
vt 0.775254 0.995729
vt 0.760134 0.989136
vt 0.759414 0.972012
vt 0.777414 0.963844
vt 0.769254 0.949476
vt 0.787254 0.939635
vt 0.788374 0.965418
vt 0.799921 0.943473
vt 0.799921 0.961285
vt 0.797761 0.980180
vt 0.767654 0.987856
vt 0.761894 0.990120
vt 0.759494 0.968666
vt 0.768534 0.968469
vt 0.768054 0.949870
vt 0.772854 0.949279
vt 0.786614 0.964828
vt 0.787494 0.937470
vt 0.796961 0.966304
vt 0.799601 0.943079
vt 0.799681 0.966304
vt 0.795201 0.985888
vt 0.781414 0.992482
vt 0.773174 0.985593
vt 0.768054 0.988348
vt 0.761414 0.970142
vt 0.769654 0.968469
vt 0.769334 0.943079
vt 0.775654 0.943473
vt 0.786054 0.964041
vt 0.788374 0.936190
vt 0.797681 0.963155
vt 0.798241 0.938651
vt 0.800321 0.961187
vt 0.796801 0.988643
vt 0.786534 0.992088
vt 0.779974 0.937962
vt 0.780534 0.938749
vt 0.782934 0.942193
vt 0.782694 0.941800
vt 0.783974 0.943571
vt 0.783414 0.942784
vt 0.781654 0.940324
vt 0.783094 0.942292
vt 0.780934 0.939340
vt 0.782294 0.941209
vt 0.780214 0.938355
vt 0.778694 0.936190
vt 0.779014 0.936584
vt 0.778774 0.934321
vt 0.781254 0.937568
vt 0.783094 0.940028
vt 0.781974 0.938552
vt 0.784374 0.941800
vt 0.783974 0.941209
vt 0.781334 0.937667
vt 0.782694 0.939536
vt 0.781094 0.937470
vt 0.779094 0.934813
vt 0.759894 0.931467
vt 0.760054 0.931959
vt 0.759334 0.929990
vt 0.759414 0.930286
vt 0.759094 0.929400
vt 0.759014 0.929105
vt 0.761174 0.934813
vt 0.761574 0.935895
vt 0.761654 0.936092
vt 0.761174 0.934714
vt 0.760934 0.934222
vt 0.760054 0.931860
vt 0.759974 0.931762
vt 0.759894 0.931565
vt 0.760134 0.932155
vt 0.756774 0.904699
vt 0.783174 0.941701
vt 0.769094 0.942882
vt 0.766774 0.921527
vt 0.751654 0.894169
vt 0.763414 0.995827
vt 0.759974 0.894070
vt 0.751574 0.998400
vt 0.772774 0.894070
vt 0.776054 0.995729
vt 0.775814 0.894070
vt 0.760054 0.931762
vt 0.768694 0.913359
vt 0.767734 0.911096
vt 0.796561 0.956660
vt 0.795841 0.955676
vt 0.796401 0.956463
vt 0.797121 0.957447
vt 0.798881 0.959907
vt 0.800161 0.961777
vt 0.798881 0.960006
vt 0.800001 0.961580
vt 0.801921 0.964336
vt 0.798561 0.959514
vt 0.799841 0.961285
vt 0.801681 0.963844
vt 0.675654 0.852700
vt 0.574614 0.872300
vt 0.672774 0.872600
vt 0.573814 0.852400
vt 0.671014 0.871300
vt 0.573574 0.871200
vt 0.622214 0.871200
vt 0.617174 0.870900
vt 0.617334 0.870900
vt 0.619094 0.871000
vt 0.613494 0.870600
vt 0.613334 0.870600
vt 0.617734 0.870900
vt 0.609094 0.870400
vt 0.611414 0.870500
vt 0.608374 0.870300
vt 0.615814 0.870800
vt 0.619494 0.871000
vt 0.644054 0.837300
vt 0.641894 0.837300
vt 0.645574 0.837400
vt 0.638214 0.837300
vt 0.636214 0.837300
vt 0.634454 0.837200
vt 0.639174 0.837300
vt 0.647494 0.837400
vt 0.638534 0.837300
vt 0.646774 0.837400
vt 0.559414 0.856700
vt 0.648534 0.875500
vt 0.559494 0.875900
vt 0.648534 0.856700
vt 0.559414 0.835700
vt 0.648534 0.836100
vt 0.677814 0.854100
vt 0.572454 0.874000
vt 0.670934 0.874100
vt 0.573894 0.853900
vt 0.573094 0.872600
vt 0.670934 0.872600
vt 0.637254 0.819100
vt 0.634614 0.819100
vt 0.632534 0.819100
vt 0.638854 0.819100
vt 0.627414 0.837200
vt 0.617094 0.837100
vt 0.614934 0.837000
vt 0.625574 0.837200
vt 0.640134 0.837300
vt 0.636374 0.837300
vt 0.649094 0.837400
vt 0.642614 0.837300
vt 0.640054 0.837300
vt 0.652054 0.837400
vt 0.605414 0.836900
vt 0.606694 0.837000
vt 0.602534 0.836900
vt 0.611094 0.837000
vt 0.615494 0.837000
vt 0.613894 0.837000
vt 0.598294 0.869700
vt 0.598374 0.869700
vt 0.596694 0.869600
vt 0.597094 0.869600
vt 0.598854 0.869700
vt 0.598534 0.869700
vt 0.592694 0.869400
vt 0.589574 0.869200
vt 0.569094 0.849400
vt 0.648534 0.866300
vt 0.569094 0.865200
vt 0.648534 0.850500
vt 0.648534 0.834300
vt 0.569094 0.832900
vt 0.626934 0.837200
vt 0.634694 0.837200
vt 0.633814 0.837200
vt 0.628774 0.837200
vt 0.623414 0.837100
vt 0.623254 0.837100
vt 0.620614 0.837100
vt 0.621094 0.837100
vt 0.618454 0.837100
vt 0.611894 0.837000
vt 0.613254 0.837000
vt 0.609814 0.837000
vt 0.617814 0.837100
vt 0.621414 0.837100
vt 0.617174 0.837100
vt 0.620214 0.837100
vt 0.621014 0.871100
vt 0.614134 0.870700
vt 0.625414 0.837100
vt 0.633014 0.837200
vt 0.586454 0.924500
vt 0.599414 0.935800
vt 0.595174 0.922600
vt 0.587014 0.935400
vt 0.600134 0.869800
vt 0.595414 0.869500
vt 0.602934 0.870000
vt 0.611014 0.858200
vt 0.716614 0.875700
vt 0.611014 0.871600
vt 0.735414 0.854100
vt 0.713894 0.834000
vt 0.611014 0.839100
vt 0.575094 0.839600
vt 0.575094 0.859600
vt 0.575094 0.874900
s 1
usemtl mat_0-crash.jpg.003
f 939/1/332 171/2/135 39/3/35
f 759/4/3 760/5/3 3/6/3
f 1/4/1 763/7/1 761/5/1
f 940/8/6 297/9/6 7/10/6
f 300/11/4 298/9/4 5/8/4
f 301/12/7 299/9/7 8/11/7
f 302/12/5 303/13/5 6/9/5
f 764/14/8 304/13/8 9/12/8
f 765/14/9 826/15/9 10/13/9
f 902/16/10 827/15/10 11/14/10
f 903/16/11 14/17/13 12/15/11
f 904/16/331 305/18/227 14/17/13
f 149/19/117 305/18/227 13/16/12
f 766/20/16 770/21/16 17/21/16
f 772/22/325 771/21/325 767/20/325
f 773/22/15 828/22/15 16/21/15
f 774/22/231 310/23/231 830/22/231
f 311/24/228 306/23/228 775/22/228
f 313/25/229 307/23/229 312/24/229
f 314/25/230 316/26/230 308/23/230
f 681/27/232 319/26/232 315/25/232
f 682/27/21 777/28/21 23/26/21
f 831/29/316 778/28/316 683/27/316
f 833/29/23 780/30/23 25/28/23
f 325/31/25 27/30/25 834/29/25
f 324/31/237 768/20/237 779/30/237
f 326/32/233 769/20/233 320/31/233
f 29/32/14 776/22/14 15/20/14
f 21/24/17 18/22/17 327/32/17
f 687/33/20 684/27/20 22/25/20
f 688/33/317 689/34/317 685/27/317
f 693/35/27 691/34/27 30/33/27
f 694/35/318 781/36/318 692/34/318
f 835/33/29 782/36/29 32/35/29
f 836/33/326 905/37/326 783/36/326
f 36/36/31 907/37/31 34/33/31
f 330/33/238 908/37/238 329/36/238
f 331/33/239 605/38/239 909/37/239
f 159/39/125 609/38/33 37/33/33
f 159/39/125 695/40/319 610/38/296
f 159/39/125 171/41/135 695/40/319
f 39/25/35 171/41/135 159/39/125
f 305/42/227 39/43/35 159/44/125
f 305/42/227 332/45/240 39/43/35
f 149/46/117 332/45/240 305/42/227
f 150/47/118 332/45/240 149/46/117
f 696/48/320 332/45/240 150/47/118
f 333/49/241 332/45/240 696/48/320
f 333/49/241 39/43/35 332/45/240
f 333/49/241 939/50/332 39/43/35
f 629/51/301 696/48/320 150/52/118
f 333/49/241 696/48/320 629/51/301
f 841/53/37 41/54/37 843/55/37
f 845/56/328 842/53/328 844/55/328
f 847/56/38 42/55/38 44/57/38
f 848/56/242 334/57/242 335/58/242
f 536/59/243 849/56/243 336/58/243
f 537/59/39 45/58/39 541/60/39
f 697/61/288 538/59/288 542/60/288
f 698/61/41 47/60/41 739/62/41
f 699/61/43 49/62/43 850/63/43
f 700/61/44 50/63/44 702/64/44
f 539/59/42 48/61/42 701/64/42
f 540/59/45 51/64/45 703/65/45
f 846/56/40 46/59/40 52/65/40
f 43/56/36 704/65/36 40/53/36
f 543/66/47 54/67/47 545/68/47
f 547/69/289 544/66/289 546/68/289
f 548/69/48 55/68/48 740/70/48
f 549/69/49 57/70/49 851/70/49
f 853/71/290 550/69/290 852/70/290
f 854/71/50 58/70/50 60/72/50
f 339/66/244 855/71/244 337/72/244
f 340/66/245 338/72/245 343/73/245
f 341/66/53 62/73/53 552/74/53
f 342/66/54 63/74/54 553/75/54
f 856/71/52 61/66/52 64/75/52
f 857/71/291 554/75/291 556/76/291
f 551/69/51 59/71/51 65/76/51
f 56/69/46 555/76/46 53/66/46
f 933/77/56 67/78/56 68/79/56
f 346/80/246 934/77/246 344/79/246
f 347/80/247 345/79/247 348/81/247
f 69/80/57 70/81/57 557/82/57
f 858/83/60 859/84/60 74/85/60
f 741/86/58 71/82/58 76/87/58
f 351/88/248 743/86/248 349/87/248
f 352/88/249 350/87/249 355/89/249
f 353/88/63 78/89/63 558/90/63
f 354/88/64 79/90/64 559/91/64
f 744/86/62 77/88/62 80/91/62
f 75/86/61 560/91/61 860/92/61
f 742/86/55 81/92/55 66/77/55
f 73/84/59 72/83/59 82/93/59
f 938/94/66 84/95/66 356/96/66
f 561/97/65 83/94/65 357/96/65
f 562/97/67 85/96/67 566/98/67
f 563/97/69 87/98/69 705/99/69
f 707/100/292 564/97/292 706/99/292
f 708/100/70 88/99/70 861/101/70
f 709/100/72 90/101/72 899/102/72
f 710/100/73 91/102/73 712/103/73
f 565/97/71 89/100/71 711/103/71
f 86/97/68 92/103/68 937/94/68
f 567/104/75 94/105/75 569/106/75
f 571/107/293 568/104/293 570/106/293
f 573/107/76 95/106/76 745/108/76
f 574/107/77 97/108/77 862/109/77
f 864/110/294 575/107/294 863/109/294
f 865/110/78 98/109/78 100/111/78
f 360/112/250 866/110/250 358/111/250
f 361/112/251 359/111/251 364/113/251
f 362/112/81 102/113/81 576/114/81
f 363/112/82 103/114/82 577/115/82
f 867/110/80 101/112/80 104/115/80
f 868/110/83 578/115/83 105/116/83
f 572/107/79 99/110/79 580/116/79
f 96/107/74 579/116/74 93/104/74
f 935/117/85 107/118/85 108/119/85
f 367/120/252 936/117/252 365/119/252
f 368/120/253 366/119/253 372/121/253
f 369/120/86 110/121/86 581/122/86
f 583/123/254 370/120/254 582/122/254
f 584/123/87 111/122/87 746/124/87
f 869/125/295 585/123/295 747/124/295
f 870/125/89 113/124/89 900/126/89
f 871/125/91 115/126/91 116/127/91
f 872/125/255 373/127/255 374/128/255
f 586/123/90 114/125/90 117/128/90
f 587/123/256 375/128/256 588/129/256
f 371/120/88 112/123/88 589/129/88
f 109/120/84 118/129/84 106/117/84
f 748/130/93 120/131/93 751/132/93
f 753/133/324 749/130/324 752/132/324
f 754/133/94 121/132/94 901/134/94
f 755/133/95 123/134/95 124/135/95
f 378/136/257 756/133/257 376/135/257
f 379/136/258 377/135/258 384/137/258
f 590/138/259 380/136/259 385/137/259
f 591/138/96 126/137/96 713/139/96
f 592/138/98 128/139/98 757/140/98
f 593/138/99 129/140/99 595/141/99
f 381/136/97 127/138/97 594/141/97
f 382/136/100 130/141/100 596/142/100
f 383/136/101 131/142/101 750/130/101
f 122/133/92 125/136/92 119/130/92
f 932/143/103 133/144/103 134/145/103
f 388/146/102 132/143/102 386/145/102
f 389/146/260 387/145/260 393/147/260
f 390/146/105 136/147/105 597/148/105
f 599/149/261 391/146/261 598/148/261
f 600/149/106 137/148/106 758/150/106
f 601/149/108 139/150/108 873/151/108
f 602/149/109 140/151/109 604/152/109
f 392/146/107 138/149/107 603/152/107
f 135/146/104 141/152/104 931/143/104
f 321/31/234 394/153/234 328/32/234
f 322/31/235 397/154/235 395/153/235
f 323/31/236 401/155/236 398/154/236
f 832/29/26 405/155/26 28/31/26
f 686/27/24 403/155/24 26/29/24
f 690/34/22 402/155/22 24/27/22
f 784/36/28 404/155/28 31/34/28
f 785/36/263 411/156/263 406/155/263
f 906/37/30 412/156/30 33/36/30
f 606/38/32 410/156/32 35/37/32
f 607/38/264 413/157/264 408/156/264
f 608/38/265 624/23/265 414/157/265
f 695/40/319 628/23/34 38/38/34
f 695/40/319 167/158/132 625/23/300
f 695/40/319 148/36/116 167/158/132
f 171/41/135 148/36/116 695/40/319
f 149/159/117 629/160/301 150/161/118
f 149/159/117 630/162/302 629/160/301
f 631/163/303 630/162/302 149/159/117
f 632/163/304 874/163/304 630/162/302
f 910/164/119 875/163/119 151/163/119
f 911/164/267 421/21/267 876/163/267
f 423/165/121 417/21/121 153/164/121
f 396/153/123 420/21/123 155/165/123
f 400/154/110 422/21/110 142/153/110
f 399/154/262 424/166/262 418/21/262
f 407/155/111 428/166/111 143/154/111
f 409/156/112 425/166/112 144/155/112
f 415/157/113 426/166/113 145/156/113
f 416/157/266 430/164/266 427/166/266
f 627/23/114 431/164/114 146/157/114
f 626/23/268 676/167/268 432/164/268
f 167/158/132 678/167/115 147/23/115
f 629/160/301 677/167/313 167/158/132
f 630/162/302 679/167/314 629/160/301
f 878/163/315 680/167/315 630/162/302
f 877/163/124 433/164/124 158/167/124
f 419/21/120 429/164/120 152/163/120
f 154/21/122 156/166/122 157/164/122
f 159/168/125 14/169/13 305/170/227
f 160/171/126 14/169/13 159/168/125
f 733/172/128 14/173/13 162/174/128
f 734/172/323 735/175/323 14/173/13
f 737/176/127 736/175/127 161/172/127
f 738/176/129 436/177/129 163/175/129
f 437/178/130 434/177/130 164/176/130
f 762/5/131 435/177/131 166/178/131
f 2/5/2 4/7/2 165/177/2
f 148/36/116 939/50/332 333/49/241
f 629/51/301 167/158/132 148/36/116
f 829/22/133 439/157/133 169/179/133
f 309/23/18 438/157/18 19/22/18
f 317/26/19 168/157/19 20/23/19
f 318/26/134 170/28/134 440/157/134
f 148/36/116 333/49/241 629/51/301
f 148/180/116 171/181/135 939/50/332
f 879/182/329 884/183/329 886/184/329
f 888/185/330 880/182/330 887/184/330
f 889/185/138 174/184/138 176/186/138
f 443/187/269 890/185/269 441/186/269
f 444/187/270 442/186/270 448/188/270
f 611/189/271 445/187/271 449/188/271
f 615/189/141 178/188/141 885/183/141
f 614/189/137 173/183/137 881/182/137
f 729/190/297 612/189/297 882/182/297
f 837/191/322 730/190/322 883/182/322
f 840/191/136 172/182/136 891/185/136
f 617/192/298 838/191/298 892/185/298
f 616/192/139 175/185/139 446/187/139
f 620/193/272 618/192/272 447/187/272
f 621/193/140 177/187/140 613/189/140
f 622/193/142 179/189/142 731/190/142
f 893/190/299 623/193/299 732/190/299
f 894/190/143 180/190/143 839/191/143
f 895/190/144 181/191/144 619/192/144
f 183/193/145 184/190/145 182/192/145
f 809/194/148 811/195/148 187/196/148
f 810/194/147 812/197/147 186/195/147
f 189/198/146 813/197/146 185/194/146
f 450/198/149 190/199/149 188/197/149
f 714/200/152 715/201/152 193/202/152
f 719/203/150 717/201/150 191/200/150
f 720/203/321 789/204/321 718/201/321
f 196/205/153 790/204/153 194/203/153
f 451/206/156 455/207/156 199/208/156
f 452/206/155 458/209/155 198/207/155
f 453/206/273 461/210/273 460/209/273
f 464/211/274 463/210/274 454/206/274
f 716/201/276 462/210/276 465/211/276
f 192/201/151 195/204/151 201/210/151
f 912/212/161 913/213/161 205/214/161
f 206/215/159 916/213/159 203/212/159
f 644/215/306 648/216/306 917/213/306
f 645/215/307 652/217/307 649/216/307
f 646/215/308 657/218/308 656/217/308
f 662/219/309 658/218/309 647/215/309
f 663/219/310 814/220/310 659/218/310
f 212/221/165 815/220/165 210/219/165
f 467/222/169 469/223/169 215/224/169
f 468/222/168 470/225/168 214/223/168
f 472/226/167 471/225/167 213/222/167
f 217/226/170 218/227/170 216/225/170
f 919/228/173 922/229/173 221/230/173
f 920/228/172 222/231/172 220/229/172
f 921/228/311 665/232/311 664/231/311
f 224/233/171 223/232/171 219/228/171
f 817/234/175 818/235/175 227/236/175
f 225/234/174 228/237/174 226/235/174
f 473/238/178 475/239/178 231/240/178
f 474/238/277 477/241/277 476/239/277
f 484/242/176 481/241/176 229/238/176
f 485/242/280 791/243/280 482/241/280
f 819/244/180 793/243/180 233/242/180
f 897/245/182 794/243/182 235/244/182
f 898/245/281 488/246/281 795/243/281
f 490/247/183 486/246/183 236/245/183
f 238/247/185 915/213/185 489/246/185
f 491/247/282 494/214/282 918/213/282
f 239/247/186 493/214/186 492/247/186
f 796/248/189 798/249/189 242/250/189
f 797/248/327 801/251/327 799/249/327
f 668/252/187 802/251/187 240/248/187
f 244/252/191 511/253/191 803/251/191
f 667/252/278 478/241/278 510/253/278
f 230/239/177 483/241/177 666/252/177
f 669/254/195 670/255/195 248/256/195
f 672/257/193 671/255/193 246/254/193
f 673/257/194 721/258/194 247/255/194
f 674/257/197 807/259/197 250/258/197
f 675/257/312 820/260/312 808/259/312
f 253/261/196 822/260/196 249/257/196
f 722/262/201 725/263/201 256/264/201
f 723/262/200 726/265/200 255/263/200
f 724/262/202 727/266/202 257/265/202
f 259/267/199 258/266/199 254/262/199
f 495/268/204 497/269/204 262/270/204
f 496/268/283 501/271/283 498/269/283
f 507/272/203 503/271/203 260/268/203
f 786/273/206 504/271/206 264/272/206
f 787/273/284 514/274/284 505/271/284
f 896/275/207 516/274/207 265/273/207
f 268/276/209 517/274/209 267/275/209
f 522/277/287 518/274/287 521/276/287
f 633/278/210 519/274/210 269/277/210
f 270/278/211 804/251/211 515/274/211
f 635/278/190 800/249/190 243/251/190
f 271/279/188 241/249/188 634/278/188
f 823/280/213 824/281/213 274/282/213
f 272/280/212 275/283/212 273/281/212
f 523/284/154 466/211/154 197/206/154
f 276/284/158 277/285/158 202/211/158
f 508/253/285 512/274/285 805/251/285
f 509/253/286 524/286/286 520/274/286
f 479/241/192 528/286/192 245/253/192
f 480/241/279 530/287/279 526/286/279
f 792/243/179 532/287/179 232/241/179
f 487/246/181 529/287/181 234/243/181
f 914/213/184 533/287/184 237/246/184
f 651/216/160 531/287/160 204/213/160
f 650/216/215 525/286/215 279/287/215
f 655/217/162 527/286/162 207/216/162
f 654/217/214 513/274/214 278/286/214
f 653/217/208 502/271/208 266/274/208
f 661/218/163 506/271/163 208/217/163
f 660/218/205 500/269/205 263/271/205
f 816/220/164 261/269/164 209/218/164
f 211/220/166 280/243/166 499/269/166
f 636/288/217 637/289/217 283/290/217
f 281/288/216 284/291/216 282/289/216
f 640/292/218 821/260/218 286/293/218
f 285/292/198 251/259/198 252/260/198
f 639/292/275 459/209/275 806/259/275
f 638/292/157 456/207/157 200/209/157
f 287/294/219 457/207/219 641/292/219
f 923/295/222 930/296/222 290/297/222
f 924/295/221 291/298/221 289/296/221
f 925/295/305 643/299/305 642/298/305
f 926/295/223 728/300/223 292/299/223
f 927/295/224 788/301/224 293/300/224
f 928/295/225 825/302/225 294/301/225
f 929/295/226 296/303/226 295/302/226
f 534/297/220 535/303/220 288/295/220
