# Blender 4.3.0
# www.blender.org
mtllib 2k_poly_crash_left_hand.mtl
o left_hand
v 0.576705 0.901578 -0.277852
v 0.501599 0.939593 -0.310682
v 0.547270 0.908857 -0.276523
v 0.573557 0.942973 -0.303706
v 0.620512 0.902516 -0.304356
v 0.586715 0.950295 -0.345505
v 0.646655 0.857525 -0.341172
v 0.627228 0.861555 -0.287283
v 0.567995 0.921726 -0.424164
v 0.616987 0.868849 -0.413100
v 0.562146 0.974358 -0.384719
v 0.583855 0.983977 -0.352192
v 0.564934 0.978951 -0.324649
v 0.535527 0.965822 -0.320316
v 0.507348 1.234759 -0.294938
v 0.457792 1.227335 -0.284149
v 0.434871 1.304578 -0.277230
v 0.489034 1.301184 -0.288583
v 0.471557 1.349584 -0.286316
v 0.366452 1.518168 -0.232498
v 0.414361 1.568012 -0.231242
v 0.328870 1.599975 -0.220481
v 0.391555 1.653893 -0.217116
v 0.354219 1.763807 -0.188200
v 0.414361 1.568012 -0.231242
v 0.426176 1.582123 -0.300773
v 0.391555 1.653893 -0.217116
v 0.487286 1.223016 -0.401459
v 0.583855 0.983977 -0.352192
v 0.562146 0.974358 -0.384719
v 0.527742 1.235799 -0.346733
v 0.527742 1.235799 -0.346733
v 0.564934 0.978951 -0.324649
v 0.583855 0.983977 -0.352192
v 0.507348 1.234759 -0.294938
v 0.489034 1.301184 -0.288583
v 0.514079 1.305156 -0.336088
v 0.514079 1.305156 -0.336088
v 0.476266 1.286365 -0.398743
v 0.461490 1.338058 -0.401228
v 0.476482 1.388105 -0.325313
v 0.440518 1.377648 -0.387361
v 0.426176 1.582123 -0.300773
v 0.414361 1.568012 -0.231242
v 0.476482 1.388105 -0.325313
v 0.426176 1.582123 -0.300773
v 0.471557 1.349584 -0.286316
v 0.426176 1.582123 -0.300773
v 0.361079 1.660710 -0.399826
v 0.390558 1.555085 -0.400678
v 0.390558 1.555085 -0.400678
v 0.354219 1.763807 -0.188200
v 0.615081 0.635775 -0.298174
v 0.655422 0.631066 -0.309974
v 0.664680 0.611756 -0.307071
v 0.620628 0.615569 -0.297235
v 0.658989 0.555383 -0.317008
v 0.609477 0.570418 -0.303446
v 0.664492 0.502765 -0.318871
v 0.614951 0.513295 -0.306421
v 0.659408 0.478905 -0.290403
v 0.651739 0.503127 -0.250785
v 0.652750 0.557983 -0.244805
v 0.645268 0.617981 -0.252417
v 0.639736 0.642607 -0.253240
v 0.621480 0.611914 -0.361205
v 0.648807 0.632150 -0.380487
v 0.658932 0.606960 -0.380964
v 0.625149 0.600750 -0.362404
v 0.659827 0.628134 -0.323638
v 0.668984 0.597630 -0.326671
v 0.668984 0.597630 -0.326671
v 0.625149 0.600750 -0.362404
v 0.631590 0.602613 -0.362144
v 0.654252 0.546861 -0.325934
v 0.631590 0.602613 -0.362144
v 0.621292 0.507488 -0.373439
v 0.663221 0.481649 -0.341937
v 0.661849 0.470354 -0.370608
v 0.671525 0.492597 -0.400303
v 0.666947 0.554357 -0.398310
v 0.601345 0.686919 -0.471755
v 0.630463 0.698228 -0.494258
v 0.613405 0.642823 -0.525037
v 0.594686 0.641350 -0.485101
v 0.632817 0.609488 -0.520689
v 0.608379 0.599464 -0.493377
v 0.648849 0.586133 -0.495630
v 0.656533 0.593138 -0.475886
v 0.656779 0.617995 -0.460171
v 0.636601 0.684117 -0.454827
v 0.391555 1.653893 -0.217116
v 0.354219 1.763807 -0.188200
v 0.283114 1.847262 -0.258944
v 0.503491 0.933526 -0.366289
v 0.518296 0.960305 -0.362245
v 0.542387 0.941904 -0.412335
v 0.534458 0.968017 -0.389066
v 0.487286 1.223016 -0.401459
v 0.431260 1.225847 -0.391102
v 0.476266 1.286365 -0.398743
v 0.414722 1.279678 -0.387794
v 0.461490 1.338058 -0.401228
v 0.395512 1.362800 -0.379850
v 0.440518 1.377648 -0.387361
v 0.390558 1.555085 -0.400678
v 0.346448 1.507436 -0.394409
v 0.288226 1.726413 -0.406311
v 0.259051 1.678172 -0.386581
v 0.278131 1.559086 -0.344753
v 0.299362 1.496618 -0.342153
v 0.382571 1.315758 -0.322481
v 0.406432 1.223998 -0.328677
v 0.396841 1.308175 -0.294071
v 0.319569 1.487172 -0.285852
v 0.291130 1.570511 -0.278559
v 0.466444 0.746643 -0.261054
v 0.513299 0.708310 -0.268926
v 0.505167 0.647128 -0.258801
v 0.445414 0.687295 -0.251015
v 0.501094 0.770821 -0.225206
v 0.490334 0.700886 -0.206039
v 0.550837 0.753561 -0.224469
v 0.550173 0.694545 -0.207931
v 0.519278 0.654898 -0.180070
v 0.492717 0.626459 -0.229394
v 0.446021 0.647474 -0.211642
v 0.479602 0.667493 -0.184619
v 0.477825 0.641394 -0.180532
v 0.689739 0.686110 -0.414429
v 0.647695 0.647864 -0.393269
v 0.660477 0.621620 -0.400679
v 0.696975 0.644788 -0.423153
v 0.662224 0.577568 -0.405850
v 0.690244 0.586248 -0.440904
v 0.670341 0.537964 -0.417144
v 0.692916 0.536188 -0.446739
v 0.655132 0.528648 -0.446768
v 0.644661 0.558272 -0.469184
v 0.640125 0.602786 -0.465501
v 0.644040 0.630373 -0.451058
v 0.642321 0.664387 -0.443186
v 0.657544 0.702042 -0.470426
v 0.636601 0.684117 -0.454827
v 0.656779 0.617995 -0.460171
v 0.658165 0.641292 -0.489549
v 0.656533 0.593138 -0.475886
v 0.668203 0.609878 -0.496020
v 0.648849 0.586133 -0.495630
v 0.632817 0.609488 -0.520689
v 0.613405 0.642823 -0.525037
v 0.630463 0.698228 -0.494258
v 0.608769 0.658032 -0.407612
v 0.642321 0.664387 -0.443186
v 0.644040 0.630373 -0.451058
v 0.619761 0.643964 -0.411685
v 0.647695 0.647864 -0.393269
v 0.660477 0.621620 -0.400679
v 0.613087 0.578073 -0.426937
v 0.662224 0.577568 -0.405850
v 0.605562 0.558098 -0.437293
v 0.670341 0.537964 -0.417144
v 0.655132 0.528648 -0.446768
v 0.644661 0.558272 -0.469184
v 0.640125 0.602786 -0.465501
v 0.687328 0.660733 -0.272147
v 0.639736 0.642607 -0.253240
v 0.645268 0.617981 -0.252417
v 0.700153 0.609445 -0.276509
v 0.652750 0.557983 -0.244805
v 0.691834 0.548031 -0.279065
v 0.651739 0.503127 -0.250785
v 0.698290 0.491283 -0.277967
v 0.659408 0.478905 -0.290403
v 0.664492 0.502765 -0.318871
v 0.658989 0.555383 -0.317008
v 0.664680 0.611756 -0.307071
v 0.655422 0.631066 -0.309974
v 0.703692 0.654754 -0.344869
v 0.659827 0.628134 -0.323638
v 0.668984 0.597630 -0.326671
v 0.707303 0.614861 -0.349722
v 0.654252 0.546861 -0.325934
v 0.697943 0.537632 -0.360685
v 0.663221 0.481649 -0.341937
v 0.701511 0.477952 -0.366693
v 0.661849 0.470354 -0.370608
v 0.671525 0.492597 -0.400303
v 0.666947 0.554357 -0.398310
v 0.658932 0.606960 -0.380964
v 0.648807 0.632150 -0.380487
v 0.576705 0.901578 -0.277852
v 0.580966 0.977622 -0.240631
v 0.547270 0.908857 -0.276523
v 0.611008 0.973246 -0.263264
v 0.620512 0.902516 -0.304356
v 0.621422 0.931996 -0.305179
v 0.542372 0.939145 -0.413533
v 0.461230 0.971339 -0.359558
v 0.503462 0.994174 -0.427313
v 0.503477 0.930782 -0.367517
v 0.567995 0.921726 -0.424164
v 0.515349 0.847776 -0.433335
v 0.567619 0.754832 -0.448544
v 0.592939 0.773103 -0.479670
v 0.601345 0.686919 -0.471755
v 0.630463 0.698228 -0.494258
v 0.642321 0.664387 -0.443186
v 0.573961 0.733803 -0.396230
v 0.658988 0.716167 -0.436022
v 0.608769 0.658032 -0.407612
v 0.647695 0.647864 -0.393269
v 0.655249 0.676867 -0.381252
v 0.585704 0.713134 -0.351846
v 0.648807 0.632150 -0.380487
v 0.621480 0.611914 -0.361205
v 0.645153 0.657715 -0.319059
v 0.659827 0.628134 -0.323638
v 0.627228 0.861555 -0.287283
v 0.628572 0.773132 -0.260520
v 0.611008 0.973246 -0.263264
v 0.645817 0.940662 -0.336406
v 0.659697 1.007925 -0.331278
v 0.621422 0.931996 -0.305179
v 0.485336 0.969014 -0.290129
v 0.501599 0.939593 -0.310682
v 0.580966 0.977622 -0.240631
v 0.547270 0.908857 -0.276523
v 0.474272 0.894703 -0.291010
v 0.507521 0.825273 -0.225350
v 0.466126 0.788081 -0.281044
v 0.465375 0.871998 -0.329343
v 0.548569 0.840641 -0.370218
v 0.636601 0.684117 -0.454827
v 0.632428 0.699138 -0.249239
v 0.615081 0.635775 -0.298174
v 0.639736 0.642607 -0.253240
v 0.598558 0.716644 -0.295054
v 0.522947 0.748838 -0.300528
v 0.552108 0.762877 -0.320807
v 0.468423 0.784875 -0.311779
v 0.639736 0.642607 -0.253240
v 0.675339 0.731203 -0.273230
v 0.632428 0.699138 -0.249239
v 0.687328 0.660733 -0.272147
v 0.645153 0.657715 -0.319059
v 0.655422 0.631066 -0.309974
v 0.592939 0.773103 -0.479670
v 0.657544 0.702042 -0.470426
v 0.630463 0.698228 -0.494258
v 0.640270 0.763397 -0.456113
v 0.658988 0.716167 -0.436022
v 0.636601 0.684117 -0.454827
v 0.606820 1.001050 -0.414501
v 0.542372 0.939145 -0.413533
v 0.503462 0.994174 -0.427313
v 0.567995 0.921726 -0.424164
v 0.601345 0.922188 -0.411295
v 0.616987 0.868849 -0.413100
v 0.640270 0.763397 -0.456113
v 0.592939 0.773103 -0.479670
v 0.659827 0.628134 -0.323638
v 0.684497 0.740851 -0.336189
v 0.645153 0.657715 -0.319059
v 0.703692 0.654754 -0.344869
v 0.648807 0.632150 -0.380487
v 0.655249 0.676867 -0.381252
v 0.616396 0.996139 -0.391334
v 0.601345 0.922188 -0.411295
v 0.606820 1.001050 -0.414501
v 0.616295 0.935707 -0.397963
v 0.647695 0.647864 -0.393269
v 0.674271 0.755338 -0.401415
v 0.655249 0.676867 -0.381252
v 0.689739 0.686110 -0.414429
v 0.658988 0.716167 -0.436022
v 0.642321 0.664387 -0.443186
v 0.674271 0.755338 -0.401415
v 0.658988 0.716167 -0.436022
v 0.646655 0.857525 -0.341172
v 0.684497 0.740851 -0.336189
v 0.655249 0.676867 -0.381252
v 0.466444 0.746643 -0.261054
v 0.501094 0.770821 -0.225206
v 0.513299 0.708310 -0.268926
v 0.655422 0.631066 -0.309974
v 0.675339 0.731203 -0.273230
v 0.645153 0.657715 -0.319059
v 0.632428 0.699138 -0.249239
v 0.522947 0.748838 -0.300528
v 0.691733 0.999345 -0.344321
v 0.645817 0.940662 -0.336406
v 0.674141 0.930132 -0.351095
v 0.659697 1.007925 -0.331278
v 0.554303 0.790999 -0.238060
v 0.522947 0.748838 -0.300528
v 0.628572 0.773132 -0.260520
v 0.513299 0.708310 -0.268926
v 0.550837 0.753561 -0.224469
v 0.501094 0.770821 -0.225206
v 0.507521 0.825273 -0.225350
v 0.547270 0.908857 -0.276523
v 0.576705 0.901578 -0.277852
v 0.457792 1.227335 -0.284149
v 0.457792 1.227335 -0.284149
v 0.457792 1.227335 -0.284149
v 0.457792 1.227335 -0.284149
v 0.434871 1.304578 -0.277230
v 0.434871 1.304578 -0.277230
v 0.434871 1.304578 -0.277230
v 0.434871 1.304578 -0.277230
v 0.434871 1.304578 -0.277230
v 0.434871 1.304578 -0.277230
v 0.628572 0.773132 -0.260520
v 0.628572 0.773132 -0.260520
v 0.628572 0.773132 -0.260520
v 0.675339 0.731203 -0.273230
v 0.675339 0.731203 -0.273230
v 0.675339 0.731203 -0.273230
v 0.675339 0.731203 -0.273230
v 0.295203 1.674460 -0.193804
v 0.514079 1.305156 -0.336088
v 0.514079 1.305156 -0.336088
v 0.514079 1.305156 -0.336088
v 0.476266 1.286365 -0.398743
v 0.461490 1.338058 -0.401228
v 0.461490 1.338058 -0.401228
v 0.476482 1.388105 -0.325313
v 0.476482 1.388105 -0.325313
v 0.620628 0.615569 -0.297235
v 0.620628 0.615569 -0.297235
v 0.620628 0.615569 -0.297235
v 0.620628 0.615569 -0.297235
v 0.620628 0.615569 -0.297235
v 0.658989 0.555383 -0.317008
v 0.658989 0.555383 -0.317008
v 0.609477 0.570418 -0.303446
v 0.609477 0.570418 -0.303446
v 0.609477 0.570418 -0.303446
v 0.609477 0.570418 -0.303446
v 0.609477 0.570418 -0.303446
v 0.645268 0.617981 -0.252417
v 0.645268 0.617981 -0.252417
v 0.639736 0.642607 -0.253240
v 0.671525 0.492597 -0.400303
v 0.671525 0.492597 -0.400303
v 0.666947 0.554357 -0.398310
v 0.648849 0.586133 -0.495630
v 0.656533 0.593138 -0.475886
v 0.534458 0.968017 -0.389066
v 0.534458 0.968017 -0.389066
v 0.534458 0.968017 -0.389066
v 0.534458 0.968017 -0.389066
v 0.534458 0.968017 -0.389066
v 0.534458 0.968017 -0.389066
v 0.487286 1.223016 -0.401459
v 0.487286 1.223016 -0.401459
v 0.431260 1.225847 -0.391102
v 0.431260 1.225847 -0.391102
v 0.431260 1.225847 -0.391102
v 0.431260 1.225847 -0.391102
v 0.390558 1.555085 -0.400678
v 0.390558 1.555085 -0.400678
v 0.346448 1.507436 -0.394409
v 0.346448 1.507436 -0.394409
v 0.346448 1.507436 -0.394409
v 0.346448 1.507436 -0.394409
v 0.346448 1.507436 -0.394409
v 0.346448 1.507436 -0.394409
v 0.278131 1.559086 -0.344753
v 0.278131 1.559086 -0.344753
v 0.278131 1.559086 -0.344753
v 0.278131 1.559086 -0.344753
v 0.278131 1.559086 -0.344753
v 0.299362 1.496618 -0.342153
v 0.299362 1.496618 -0.342153
v 0.299362 1.496618 -0.342153
v 0.299362 1.496618 -0.342153
v 0.406432 1.223998 -0.328677
v 0.406432 1.223998 -0.328677
v 0.406432 1.223998 -0.328677
v 0.406432 1.223998 -0.328677
v 0.406432 1.223998 -0.328677
v 0.406432 1.223998 -0.328677
v 0.406432 1.223998 -0.328677
v 0.396841 1.308175 -0.294071
v 0.396841 1.308175 -0.294071
v 0.396841 1.308175 -0.294071
v 0.396841 1.308175 -0.294071
v 0.396841 1.308175 -0.294071
v 0.319569 1.487172 -0.285852
v 0.319569 1.487172 -0.285852
v 0.319569 1.487172 -0.285852
v 0.319569 1.487172 -0.285852
v 0.319569 1.487172 -0.285852
v 0.291130 1.570511 -0.278559
v 0.291130 1.570511 -0.278559
v 0.291130 1.570511 -0.278559
v 0.291130 1.570511 -0.278559
v 0.291130 1.570511 -0.278559
v 0.501094 0.770821 -0.225206
v 0.501094 0.770821 -0.225206
v 0.490334 0.700886 -0.206039
v 0.490334 0.700886 -0.206039
v 0.490334 0.700886 -0.206039
v 0.490334 0.700886 -0.206039
v 0.490334 0.700886 -0.206039
v 0.550837 0.753561 -0.224469
v 0.550837 0.753561 -0.224469
v 0.692916 0.536188 -0.446739
v 0.692916 0.536188 -0.446739
v 0.692916 0.536188 -0.446739
v 0.692916 0.536188 -0.446739
v 0.655132 0.528648 -0.446768
v 0.644661 0.558272 -0.469184
v 0.640125 0.602786 -0.465501
v 0.640125 0.602786 -0.465501
v 0.656779 0.617995 -0.460171
v 0.656779 0.617995 -0.460171
v 0.658165 0.641292 -0.489549
v 0.658165 0.641292 -0.489549
v 0.658165 0.641292 -0.489549
v 0.658165 0.641292 -0.489549
v 0.658165 0.641292 -0.489549
v 0.656533 0.593138 -0.475886
v 0.656533 0.593138 -0.475886
v 0.608769 0.658032 -0.407612
v 0.608769 0.658032 -0.407612
v 0.644040 0.630373 -0.451058
v 0.644040 0.630373 -0.451058
v 0.644040 0.630373 -0.451058
v 0.619761 0.643964 -0.411685
v 0.619761 0.643964 -0.411685
v 0.619761 0.643964 -0.411685
v 0.619761 0.643964 -0.411685
v 0.647695 0.647864 -0.393269
v 0.605562 0.558098 -0.437293
v 0.605562 0.558098 -0.437293
v 0.605562 0.558098 -0.437293
v 0.605562 0.558098 -0.437293
v 0.670341 0.537964 -0.417144
v 0.655132 0.528648 -0.446768
v 0.644661 0.558272 -0.469184
v 0.644661 0.558272 -0.469184
v 0.691834 0.548031 -0.279065
v 0.691834 0.548031 -0.279065
v 0.691834 0.548031 -0.279065
v 0.691834 0.548031 -0.279065
v 0.691834 0.548031 -0.279065
v 0.651739 0.503127 -0.250785
v 0.651739 0.503127 -0.250785
v 0.698290 0.491283 -0.277967
v 0.698290 0.491283 -0.277967
v 0.698290 0.491283 -0.277967
v 0.698290 0.491283 -0.277967
v 0.658989 0.555383 -0.317008
v 0.658989 0.555383 -0.317008
v 0.664680 0.611756 -0.307071
v 0.664680 0.611756 -0.307071
v 0.703692 0.654754 -0.344869
v 0.703692 0.654754 -0.344869
v 0.668984 0.597630 -0.326671
v 0.668984 0.597630 -0.326671
v 0.707303 0.614861 -0.349722
v 0.707303 0.614861 -0.349722
v 0.707303 0.614861 -0.349722
v 0.707303 0.614861 -0.349722
v 0.707303 0.614861 -0.349722
v 0.661849 0.470354 -0.370608
v 0.671525 0.492597 -0.400303
v 0.648807 0.632150 -0.380487
v 0.620512 0.902516 -0.304356
v 0.620512 0.902516 -0.304356
v 0.567619 0.754832 -0.448544
v 0.567619 0.754832 -0.448544
v 0.567619 0.754832 -0.448544
v 0.567619 0.754832 -0.448544
v 0.567619 0.754832 -0.448544
v 0.592939 0.773103 -0.479670
v 0.592939 0.773103 -0.479670
v 0.601345 0.686919 -0.471755
v 0.601345 0.686919 -0.471755
v 0.601345 0.686919 -0.471755
v 0.573961 0.733803 -0.396230
v 0.573961 0.733803 -0.396230
v 0.573961 0.733803 -0.396230
v 0.573961 0.733803 -0.396230
v 0.573961 0.733803 -0.396230
v 0.573961 0.733803 -0.396230
v 0.573961 0.733803 -0.396230
v 0.573961 0.733803 -0.396230
v 0.573961 0.733803 -0.396230
v 0.658988 0.716167 -0.436022
v 0.658988 0.716167 -0.436022
v 0.658988 0.716167 -0.436022
v 0.647695 0.647864 -0.393269
v 0.655249 0.676867 -0.381252
v 0.655249 0.676867 -0.381252
v 0.632428 0.699138 -0.249239
v 0.627228 0.861555 -0.287283
v 0.627228 0.861555 -0.287283
v 0.627228 0.861555 -0.287283
v 0.547270 0.908857 -0.276523
v 0.547270 0.908857 -0.276523
v 0.474272 0.894703 -0.291010
v 0.474272 0.894703 -0.291010
v 0.474272 0.894703 -0.291010
v 0.474272 0.894703 -0.291010
v 0.507521 0.825273 -0.225350
v 0.507521 0.825273 -0.225350
v 0.507521 0.825273 -0.225350
v 0.615081 0.635775 -0.298174
v 0.615081 0.635775 -0.298174
v 0.615081 0.635775 -0.298174
v 0.598558 0.716644 -0.295054
v 0.598558 0.716644 -0.295054
v 0.598558 0.716644 -0.295054
v 0.598558 0.716644 -0.295054
v 0.598558 0.716644 -0.295054
v 0.658988 0.716167 -0.436022
v 0.640270 0.763397 -0.456113
v 0.640270 0.763397 -0.456113
v 0.640270 0.763397 -0.456113
v 0.616396 0.996139 -0.391334
v 0.601345 0.922188 -0.411295
v 0.674271 0.755338 -0.401415
v 0.674271 0.755338 -0.401415
v 0.689739 0.686110 -0.414429
v 0.689739 0.686110 -0.414429
v 0.658988 0.716167 -0.436022
v 0.674271 0.755338 -0.401415
v 0.674271 0.755338 -0.401415
v 0.674271 0.755338 -0.401415
v 0.674271 0.755338 -0.401415
v 0.684497 0.740851 -0.336189
v 0.684497 0.740851 -0.336189
v 0.684497 0.740851 -0.336189
v 0.513299 0.708310 -0.268926
v 0.550837 0.753561 -0.224469
v 0.664492 0.502765 -0.318871
v 0.664492 0.502765 -0.318871
v 0.656779 0.617995 -0.460171
v 0.656779 0.617995 -0.460171
v 0.376924 1.782338 -0.268621
v 0.391555 1.653893 -0.217116
v 0.354219 1.763807 -0.188200
v 0.262647 1.816425 -0.391564
v 0.576705 0.901578 -0.277852
v 0.576705 0.901578 -0.277852
v 0.501599 0.939593 -0.310682
v 0.501599 0.939593 -0.310682
v 0.501599 0.939593 -0.310682
v 0.501599 0.939593 -0.310682
v 0.573557 0.942973 -0.303706
v 0.573557 0.942973 -0.303706
v 0.573557 0.942973 -0.303706
v 0.573557 0.942973 -0.303706
v 0.573557 0.942973 -0.303706
v 0.620512 0.902516 -0.304356
v 0.620512 0.902516 -0.304356
v 0.620512 0.902516 -0.304356
v 0.567995 0.921726 -0.424164
v 0.567995 0.921726 -0.424164
v 0.567995 0.921726 -0.424164
v 0.567995 0.921726 -0.424164
v 0.562146 0.974358 -0.384719
v 0.562146 0.974358 -0.384719
v 0.562146 0.974358 -0.384719
v 0.489034 1.301184 -0.288583
v 0.471557 1.349584 -0.286316
v 0.471557 1.349584 -0.286316
v 0.366452 1.518168 -0.232498
v 0.366452 1.518168 -0.232498
v 0.366452 1.518168 -0.232498
v 0.366452 1.518168 -0.232498
v 0.366452 1.518168 -0.232498
v 0.527742 1.235799 -0.346733
v 0.339226 1.766349 -0.383533
v 0.382571 1.315758 -0.322481
v 0.382571 1.315758 -0.322481
v 0.382571 1.315758 -0.322481
v 0.382571 1.315758 -0.322481
v 0.382571 1.315758 -0.322481
v 0.666947 0.554357 -0.398310
v 0.666947 0.554357 -0.398310
v 0.542387 0.941904 -0.412335
v 0.542387 0.941904 -0.412335
v 0.476266 1.286365 -0.398743
v 0.476266 1.286365 -0.398743
v 0.304966 1.614318 -0.396446
v 0.550173 0.694545 -0.207931
v 0.550173 0.694545 -0.207931
v 0.550173 0.694545 -0.207931
v 0.550173 0.694545 -0.207931
v 0.550173 0.694545 -0.207931
v 0.446021 0.647474 -0.211642
v 0.446021 0.647474 -0.211642
v 0.446021 0.647474 -0.211642
v 0.446021 0.647474 -0.211642
v 0.479602 0.667493 -0.184619
v 0.479602 0.667493 -0.184619
v 0.479602 0.667493 -0.184619
v 0.479602 0.667493 -0.184619
v 0.689739 0.686110 -0.414429
v 0.689739 0.686110 -0.414429
v 0.660477 0.621620 -0.400679
v 0.660477 0.621620 -0.400679
v 0.696975 0.644788 -0.423153
v 0.696975 0.644788 -0.423153
v 0.696975 0.644788 -0.423153
v 0.696975 0.644788 -0.423153
v 0.696975 0.644788 -0.423153
v 0.642321 0.664387 -0.443186
v 0.668203 0.609878 -0.496020
v 0.668203 0.609878 -0.496020
v 0.668203 0.609878 -0.496020
v 0.668203 0.609878 -0.496020
v 0.613405 0.642823 -0.525037
v 0.613405 0.642823 -0.525037
v 0.630463 0.698228 -0.494258
v 0.659408 0.478905 -0.290403
v 0.501094 0.770821 -0.225206
v 0.585704 0.713134 -0.351846
v 0.585704 0.713134 -0.351846
v 0.585704 0.713134 -0.351846
v 0.585704 0.713134 -0.351846
v 0.585704 0.713134 -0.351846
v 0.585704 0.713134 -0.351846
v 0.648807 0.632150 -0.380487
v 0.611008 0.973246 -0.263264
v 0.645817 0.940662 -0.336406
v 0.466126 0.788081 -0.281044
v 0.466126 0.788081 -0.281044
v 0.466126 0.788081 -0.281044
v 0.466126 0.788081 -0.281044
v 0.466126 0.788081 -0.281044
v 0.466126 0.788081 -0.281044
v 0.465375 0.871998 -0.329343
v 0.465375 0.871998 -0.329343
v 0.465375 0.871998 -0.329343
v 0.465375 0.871998 -0.329343
v 0.465375 0.871998 -0.329343
v 0.687328 0.660733 -0.272147
v 0.687328 0.660733 -0.272147
v 0.645153 0.657715 -0.319059
v 0.503491 0.933526 -0.366289
v 0.503491 0.933526 -0.366289
v 0.414722 1.279678 -0.387794
v 0.414722 1.279678 -0.387794
v 0.414722 1.279678 -0.387794
v 0.414722 1.279678 -0.387794
v 0.414722 1.279678 -0.387794
v 0.648849 0.586133 -0.495630
v 0.613087 0.578073 -0.426937
v 0.613087 0.578073 -0.426937
v 0.613087 0.578073 -0.426937
v 0.613087 0.578073 -0.426937
v 0.613087 0.578073 -0.426937
v 0.613087 0.578073 -0.426937
v 0.640125 0.602786 -0.465501
v 0.664492 0.502765 -0.318871
v 0.654252 0.546861 -0.325934
v 0.654252 0.546861 -0.325934
v 0.658932 0.606960 -0.380964
v 0.658932 0.606960 -0.380964
v 0.552108 0.762877 -0.320807
v 0.552108 0.762877 -0.320807
v 0.552108 0.762877 -0.320807
v 0.552108 0.762877 -0.320807
v 0.552108 0.762877 -0.320807
v 0.564934 0.978951 -0.324649
v 0.564934 0.978951 -0.324649
v 0.564934 0.978951 -0.324649
v 0.535527 0.965822 -0.320316
v 0.535527 0.965822 -0.320316
v 0.535527 0.965822 -0.320316
v 0.535527 0.965822 -0.320316
v 0.535527 0.965822 -0.320316
v 0.535527 0.965822 -0.320316
v 0.414361 1.568012 -0.231242
v 0.527742 1.235799 -0.346733
v 0.527742 1.235799 -0.346733
v 0.527742 1.235799 -0.346733
v 0.564934 0.978951 -0.324649
v 0.507348 1.234759 -0.294938
v 0.489034 1.301184 -0.288583
v 0.489034 1.301184 -0.288583
v 0.514079 1.305156 -0.336088
v 0.514079 1.305156 -0.336088
v 0.440518 1.377648 -0.387361
v 0.440518 1.377648 -0.387361
v 0.426176 1.582123 -0.300773
v 0.265189 1.634625 -0.347512
v 0.614951 0.513295 -0.306421
v 0.614951 0.513295 -0.306421
v 0.614951 0.513295 -0.306421
v 0.614951 0.513295 -0.306421
v 0.652750 0.557983 -0.244805
v 0.652750 0.557983 -0.244805
v 0.621480 0.611914 -0.361205
v 0.621480 0.611914 -0.361205
v 0.658932 0.606960 -0.380964
v 0.658932 0.606960 -0.380964
v 0.658932 0.606960 -0.380964
v 0.625149 0.600750 -0.362404
v 0.625149 0.600750 -0.362404
v 0.625149 0.600750 -0.362404
v 0.659827 0.628134 -0.323638
v 0.601345 0.686919 -0.471755
v 0.601345 0.686919 -0.471755
v 0.613405 0.642823 -0.525037
v 0.613405 0.642823 -0.525037
v 0.594686 0.641350 -0.485101
v 0.594686 0.641350 -0.485101
v 0.594686 0.641350 -0.485101
v 0.594686 0.641350 -0.485101
v 0.594686 0.641350 -0.485101
v 0.636601 0.684117 -0.454827
v 0.542372 0.939145 -0.413533
v 0.542372 0.939145 -0.413533
v 0.461230 0.971339 -0.359558
v 0.461230 0.971339 -0.359558
v 0.503477 0.930782 -0.367517
v 0.503477 0.930782 -0.367517
v 0.503477 0.930782 -0.367517
v 0.503477 0.930782 -0.367517
v 0.503477 0.930782 -0.367517
v 0.503477 0.930782 -0.367517
v 0.503477 0.930782 -0.367517
v 0.567995 0.921726 -0.424164
v 0.567995 0.921726 -0.424164
v 0.567995 0.921726 -0.424164
v 0.621480 0.611914 -0.361205
v 0.621480 0.611914 -0.361205
v 0.645153 0.657715 -0.319059
v 0.645153 0.657715 -0.319059
v 0.645153 0.657715 -0.319059
v 0.645153 0.657715 -0.319059
v 0.522947 0.748838 -0.300528
v 0.522947 0.748838 -0.300528
v 0.522947 0.748838 -0.300528
v 0.522947 0.748838 -0.300528
v 0.606820 1.001050 -0.414501
v 0.606820 1.001050 -0.414501
v 0.542372 0.939145 -0.413533
v 0.567995 0.921726 -0.424164
v 0.567995 0.921726 -0.424164
v 0.567995 0.921726 -0.424164
v 0.567995 0.921726 -0.424164
v 0.601345 0.922188 -0.411295
v 0.659827 0.628134 -0.323638
v 0.684497 0.740851 -0.336189
v 0.684497 0.740851 -0.336189
v 0.684497 0.740851 -0.336189
v 0.703692 0.654754 -0.344869
v 0.466444 0.746643 -0.261054
v 0.466444 0.746643 -0.261054
v 0.513299 0.708310 -0.268926
v 0.691733 0.999345 -0.344321
v 0.645817 0.940662 -0.336406
v 0.507521 0.825273 -0.225350
v 0.461490 1.338058 -0.401228
v 0.461490 1.338058 -0.401228
v 0.519278 0.654898 -0.180070
v 0.519278 0.654898 -0.180070
v 0.519278 0.654898 -0.180070
v 0.519278 0.654898 -0.180070
v 0.662224 0.577568 -0.405850
v 0.662224 0.577568 -0.405850
v 0.644040 0.630373 -0.451058
v 0.644040 0.630373 -0.451058
v 0.632817 0.609488 -0.520689
v 0.660477 0.621620 -0.400679
v 0.660477 0.621620 -0.400679
v 0.687328 0.660733 -0.272147
v 0.687328 0.660733 -0.272147
v 0.645268 0.617981 -0.252417
v 0.645268 0.617981 -0.252417
v 0.700153 0.609445 -0.276509
v 0.700153 0.609445 -0.276509
v 0.700153 0.609445 -0.276509
v 0.700153 0.609445 -0.276509
v 0.700153 0.609445 -0.276509
v 0.655422 0.631066 -0.309974
v 0.697943 0.537632 -0.360685
v 0.697943 0.537632 -0.360685
v 0.697943 0.537632 -0.360685
v 0.697943 0.537632 -0.360685
v 0.697943 0.537632 -0.360685
v 0.659408 0.478905 -0.290403
v 0.654252 0.546861 -0.325934
v 0.654252 0.546861 -0.325934
v 0.631590 0.602613 -0.362144
v 0.631590 0.602613 -0.362144
v 0.631590 0.602613 -0.362144
v 0.631590 0.602613 -0.362144
v 0.631590 0.602613 -0.362144
v 0.621292 0.507488 -0.373439
v 0.621292 0.507488 -0.373439
v 0.621292 0.507488 -0.373439
v 0.621292 0.507488 -0.373439
v 0.663221 0.481649 -0.341937
v 0.583855 0.983977 -0.352192
v 0.583855 0.983977 -0.352192
v 0.414361 1.568012 -0.231242
v 0.414361 1.568012 -0.231242
v 0.426176 1.582123 -0.300773
v 0.547270 0.908857 -0.276523
v 0.485336 0.969014 -0.290129
v 0.485336 0.969014 -0.290129
v 0.468423 0.784875 -0.311779
v 0.468423 0.784875 -0.311779
v 0.468423 0.784875 -0.311779
v 0.468423 0.784875 -0.311779
v 0.648807 0.632150 -0.380487
v 0.576705 0.901578 -0.277852
v 0.576705 0.901578 -0.277852
v 0.576705 0.901578 -0.277852
v 0.576705 0.901578 -0.277852
v 0.580966 0.977622 -0.240631
v 0.611008 0.973246 -0.263264
v 0.611008 0.973246 -0.263264
v 0.642321 0.664387 -0.443186
v 0.608769 0.658032 -0.407612
v 0.548569 0.840641 -0.370218
v 0.548569 0.840641 -0.370218
v 0.548569 0.840641 -0.370218
v 0.548569 0.840641 -0.370218
v 0.548569 0.840641 -0.370218
v 0.592939 0.773103 -0.479670
v 0.657544 0.702042 -0.470426
v 0.657544 0.702042 -0.470426
v 0.657544 0.702042 -0.470426
v 0.640270 0.763397 -0.456113
v 0.576705 0.901578 -0.277852
v 0.586715 0.950295 -0.345505
v 0.586715 0.950295 -0.345505
v 0.586715 0.950295 -0.345505
v 0.586715 0.950295 -0.345505
v 0.586715 0.950295 -0.345505
v 0.328870 1.599975 -0.220481
v 0.328870 1.599975 -0.220481
v 0.328870 1.599975 -0.220481
v 0.328870 1.599975 -0.220481
v 0.651739 0.503127 -0.250785
v 0.632817 0.609488 -0.520689
v 0.632817 0.609488 -0.520689
v 0.395512 1.362800 -0.379850
v 0.395512 1.362800 -0.379850
v 0.395512 1.362800 -0.379850
v 0.395512 1.362800 -0.379850
v 0.395512 1.362800 -0.379850
v 0.466444 0.746643 -0.261054
v 0.466444 0.746643 -0.261054
v 0.513299 0.708310 -0.268926
v 0.513299 0.708310 -0.268926
v 0.505167 0.647128 -0.258801
v 0.505167 0.647128 -0.258801
v 0.505167 0.647128 -0.258801
v 0.505167 0.647128 -0.258801
v 0.505167 0.647128 -0.258801
v 0.445414 0.687295 -0.251015
v 0.445414 0.687295 -0.251015
v 0.445414 0.687295 -0.251015
v 0.445414 0.687295 -0.251015
v 0.445414 0.687295 -0.251015
v 0.492717 0.626459 -0.229394
v 0.492717 0.626459 -0.229394
v 0.492717 0.626459 -0.229394
v 0.492717 0.626459 -0.229394
v 0.477825 0.641394 -0.180532
v 0.477825 0.641394 -0.180532
v 0.477825 0.641394 -0.180532
v 0.690244 0.586248 -0.440904
v 0.690244 0.586248 -0.440904
v 0.690244 0.586248 -0.440904
v 0.690244 0.586248 -0.440904
v 0.690244 0.586248 -0.440904
v 0.663221 0.481649 -0.341937
v 0.663221 0.481649 -0.341937
v 0.554303 0.790999 -0.238060
v 0.554303 0.790999 -0.238060
v 0.554303 0.790999 -0.238060
v 0.554303 0.790999 -0.238060
v 0.554303 0.790999 -0.238060
v 0.554303 0.790999 -0.238060
v 0.554303 0.790999 -0.238060
v 0.522947 0.748838 -0.300528
v 0.628572 0.773132 -0.260520
v 0.515349 0.847776 -0.433335
v 0.515349 0.847776 -0.433335
v 0.515349 0.847776 -0.433335
v 0.515349 0.847776 -0.433335
v 0.501599 0.939593 -0.310682
v 0.501599 0.939593 -0.310682
v 0.501599 0.939593 -0.310682
v 0.501599 0.939593 -0.310682
v 0.501599 0.939593 -0.310682
v 0.580966 0.977622 -0.240631
v 0.616987 0.868849 -0.413100
v 0.616987 0.868849 -0.413100
v 0.616987 0.868849 -0.413100
v 0.646655 0.857525 -0.341172
v 0.646655 0.857525 -0.341172
v 0.646655 0.857525 -0.341172
v 0.615081 0.635775 -0.298174
v 0.615081 0.635775 -0.298174
v 0.664680 0.611756 -0.307071
v 0.664680 0.611756 -0.307071
v 0.668984 0.597630 -0.326671
v 0.661849 0.470354 -0.370608
v 0.608379 0.599464 -0.493377
v 0.608379 0.599464 -0.493377
v 0.608379 0.599464 -0.493377
v 0.608379 0.599464 -0.493377
v 0.646655 0.857525 -0.341172
v 0.646655 0.857525 -0.341172
v 0.646655 0.857525 -0.341172
v 0.507348 1.234759 -0.294938
v 0.507348 1.234759 -0.294938
v 0.507348 1.234759 -0.294938
v 0.391555 1.653893 -0.217116
v 0.391555 1.653893 -0.217116
v 0.518296 0.960305 -0.362245
v 0.518296 0.960305 -0.362245
v 0.518296 0.960305 -0.362245
v 0.518296 0.960305 -0.362245
v 0.440518 1.377648 -0.387361
v 0.670341 0.537964 -0.417144
v 0.670341 0.537964 -0.417144
v 0.662224 0.577568 -0.405850
v 0.662224 0.577568 -0.405850
v 0.652750 0.557983 -0.244805
v 0.652750 0.557983 -0.244805
v 0.701511 0.477952 -0.366693
v 0.701511 0.477952 -0.366693
v 0.701511 0.477952 -0.366693
v 0.701511 0.477952 -0.366693
v 0.639736 0.642607 -0.253240
v 0.675339 0.731203 -0.273230
v 0.675339 0.731203 -0.273230
v 0.471557 1.349584 -0.286316
v 0.471557 1.349584 -0.286316
v 0.657544 0.702042 -0.470426
v 0.657544 0.702042 -0.470426
v 0.487286 1.223016 -0.401459
v 0.487286 1.223016 -0.401459
v 0.487286 1.223016 -0.401459
v 0.583855 0.983977 -0.352192
v 0.414361 1.568012 -0.231242
v 0.476482 1.388105 -0.325313
v 0.476482 1.388105 -0.325313
v 0.632428 0.699138 -0.249239
v 0.632428 0.699138 -0.249239
v 0.647695 0.647864 -0.393269
v 0.288761 1.821451 -0.192042
v 0.406128 1.670994 -0.287297
vn 0.4406 0.4994 0.7459
vn -0.0363 0.3856 0.9220
vn 0.2327 0.8569 0.4600
vn -0.1070 0.4809 0.8702
vn 0.9103 0.2774 0.3074
vn 0.9366 0.1430 0.3199
vn 0.7891 0.4927 -0.3668
vn -0.0114 0.5989 -0.8008
vn 0.7390 0.6421 -0.2037
vn 0.8363 -0.0376 -0.5470
vn 0.6772 0.4846 0.5537
vn 0.1776 -0.0740 0.9813
vn -0.6173 -0.2849 0.7333
vn 0.2027 -0.0377 0.9785
vn -0.4125 -0.2020 0.8883
vn -0.5977 -0.3432 0.7246
vn 0.2068 0.0289 0.9780
vn 0.1789 -0.1962 0.9641
vn -0.6638 -0.3980 0.6332
vn 0.0706 -0.1436 0.9871
vn -0.5919 -0.4953 0.6359
vn 0.1929 -0.1878 0.9631
vn 0.9457 0.2104 0.2476
vn 0.9616 0.1864 0.2012
vn 0.8214 0.1663 -0.5456
vn 0.7692 0.1847 -0.6118
vn 0.7873 0.1977 -0.5840
vn 0.8766 0.1005 0.4706
vn 0.9167 0.1641 0.3642
vn 0.7986 0.1654 0.5788
vn 0.9071 0.2155 0.3615
vn 0.8390 0.2811 0.4658
vn 0.7523 0.2422 -0.6127
vn 0.8096 0.2050 -0.5501
vn 0.6882 0.5359 -0.4892
vn 0.8108 0.2755 -0.5164
vn 0.8972 0.2241 -0.3805
vn 0.9412 0.1733 0.2901
vn 0.9531 0.2210 0.2068
vn 0.8425 0.3262 0.4286
vn 0.8883 0.2510 -0.3846
vn 0.4585 0.1924 -0.8676
vn -0.0718 -0.0151 0.9973
vn -0.8437 -0.2086 0.4947
vn -0.2995 -0.2807 -0.9119
vn -0.1983 0.1895 -0.9616
vn -0.2623 0.0067 -0.9650
vn -0.8698 0.1501 0.4701
vn -0.3104 -0.7005 -0.6426
vn -0.8107 -0.1077 0.5754
vn -0.6490 -0.6985 0.3015
vn -0.8370 -0.0440 0.5454
vn -0.8070 -0.0258 0.5900
vn -0.6088 -0.2798 0.7423
vn -0.4774 -0.1756 -0.8609
vn 0.2675 -0.9485 0.1696
vn -0.6212 -0.2600 0.7393
vn -0.6597 0.2020 0.7238
vn 0.2690 -0.8733 -0.4062
vn -0.6777 -0.2618 0.6872
vn -0.4306 0.1522 -0.8896
vn -0.6548 -0.6920 0.3039
vn -0.5080 -0.6018 -0.6163
vn -0.5770 0.1751 -0.7978
vn -0.4371 -0.1934 0.8784
vn -0.6405 0.5141 -0.5705
vn -0.7760 -0.5017 -0.3822
vn -0.2892 -0.7855 -0.5471
vn -0.4529 -0.3130 0.8348
vn -0.3532 -0.4974 0.7924
vn 0.9213 0.2305 0.3132
vn 0.6109 0.7162 0.3375
vn -0.3851 0.9157 0.1153
vn -0.7137 0.4726 -0.5169
vn -0.8275 -0.4011 0.3929
vn -0.8651 0.1607 -0.4751
vn -0.7903 -0.2650 -0.5524
vn -0.1812 0.0106 -0.9834
vn -0.8669 -0.3498 -0.3551
vn -0.1644 -0.0942 -0.9819
vn -0.8964 -0.2530 -0.3640
vn -0.2285 0.2118 -0.9502
vn -0.9183 -0.1784 -0.3535
vn -0.1282 -0.1101 -0.9856
vn -0.8284 -0.3268 -0.4549
vn -0.0620 0.0164 -0.9979
vn -0.8751 -0.1450 -0.4618
vn -0.9131 -0.2988 0.2776
vn -0.8681 -0.3625 0.3393
vn -0.8894 -0.2568 0.3782
vn -0.8844 -0.3933 0.2514
vn -0.9130 -0.3323 0.2366
vn -0.7803 0.3627 0.5096
vn 0.8184 -0.1981 -0.5395
vn -0.4879 -0.6035 -0.6307
vn -0.6809 0.5097 0.5260
vn 0.0819 0.5193 0.8506
vn 0.8284 -0.1598 -0.5369
vn 0.0732 0.5346 0.8419
vn 0.2855 -0.8887 0.3587
vn -0.3478 -0.9210 0.1755
vn -0.6747 0.1588 0.7208
vn 0.4124 0.2568 -0.8741
vn 0.4659 -0.0228 0.8845
vn 0.5569 -0.0750 0.8272
vn 0.7830 -0.0168 0.6217
vn 0.4067 0.2220 -0.8862
vn 0.1914 -0.9601 0.2037
vn 0.4704 0.1269 -0.8733
vn 0.1150 -0.5732 -0.8113
vn 0.4633 0.1199 -0.8781
vn 0.4056 0.2255 -0.8858
vn 0.9990 -0.0037 0.0442
vn 0.5397 0.0971 0.8362
vn 0.6218 0.2409 -0.7452
vn 0.7722 -0.6307 -0.0768
vn 0.5914 0.3396 -0.7313
vn 0.5183 -0.4345 -0.7366
vn 0.5563 0.2194 -0.8015
vn 0.6090 0.2336 -0.7580
vn -0.4116 -0.5352 0.7377
vn -0.7328 0.1180 -0.6701
vn -0.7976 0.2115 -0.5649
vn -0.4510 -0.4391 0.7771
vn -0.3925 -0.1226 0.9116
vn -0.3714 -0.3242 0.8700
vn -0.5339 0.5389 -0.6516
vn -0.3900 -0.8020 0.4524
vn -0.4894 -0.6296 -0.6034
vn -0.8081 -0.0337 -0.5881
vn 0.6510 0.2245 -0.7251
vn 0.3320 0.1059 0.9373
vn 0.4179 0.1654 0.8933
vn 0.6425 -0.0947 0.7604
vn 0.6496 -0.0564 -0.7582
vn 0.0972 -0.8406 0.5328
vn 0.7611 0.0741 -0.6444
vn 0.4074 -0.7344 -0.5428
vn 0.7808 0.1035 -0.6161
vn 0.7592 0.0379 -0.6498
vn 0.6470 0.1996 -0.7359
vn 0.4944 0.1489 -0.8564
vn 0.4180 0.0352 0.9078
vn 0.5583 -0.1502 0.8159
vn 0.6043 -0.1105 0.7891
vn 0.5354 0.0547 -0.8428
vn 0.1416 -0.9233 0.3570
vn 0.7903 0.1080 -0.6031
vn 0.7604 0.0772 -0.6448
vn 0.5040 0.2184 -0.8356
vn 0.4671 0.4043 0.7863
vn 0.5135 -0.4003 0.7590
vn -0.0672 -0.4356 0.8976
vn 0.9649 -0.0225 0.2618
vn 0.4826 -0.3906 0.7839
vn -0.6039 -0.5192 -0.6048
vn -0.6577 -0.7251 0.2041
vn -0.6004 -0.5660 -0.5650
vn -0.8210 -0.4222 0.3844
vn -0.7976 0.0889 -0.5966
vn -0.8743 -0.4776 -0.0860
vn -0.3018 -0.4391 0.8462
vn -0.5741 -0.1302 -0.8083
vn -0.4367 -0.2084 0.8751
vn -0.6913 -0.2139 -0.6902
vn -0.8375 -0.5454 -0.0324
vn -0.3993 -0.3129 0.8618
vn -0.3724 0.0378 -0.9273
vn -0.7255 -0.6571 0.2048
vn -0.5200 -0.1054 -0.8476
vn -0.5553 -0.3892 0.7349
vn 0.4654 0.2629 0.8452
vn 0.3812 0.2731 0.8832
vn 0.7859 -0.3318 0.5218
vn 0.8426 -0.2116 0.4953
vn -0.8586 -0.5100 0.0507
vn -0.8642 0.4921 -0.1048
vn -0.6345 -0.0897 0.7677
vn -0.8676 0.4894 -0.0885
vn -0.8479 0.2250 0.4800
vn -0.9964 -0.0488 -0.0694
vn -0.4894 -0.1888 -0.8514
vn -0.9614 -0.1773 -0.2102
vn -0.3869 -0.9198 -0.0654
vn -0.5308 -0.0759 -0.8441
vn -0.8578 -0.1458 0.4928
vn -0.5573 -0.8291 0.0448
vn -0.7455 -0.6332 0.2079
vn -0.2274 -0.5296 -0.8172
vn 0.3441 0.0729 0.9361
vn 0.7351 0.1148 -0.6682
vn 0.4873 0.0012 0.8732
vn 0.7406 0.0571 -0.6695
vn 0.4740 0.3244 -0.8186
vn 0.7270 -0.6454 0.2344
vn 0.5650 0.4214 -0.7094
vn 0.9390 0.3025 -0.1636
vn 0.3600 -0.0628 -0.9308
vn -0.2353 0.2302 -0.9443
vn 0.1315 -0.1523 -0.9795
vn 0.4735 0.3768 -0.7961
vn 0.3551 0.1354 -0.9250
vn 0.8654 0.4066 -0.2929
vn 0.8141 0.3642 -0.4524
vn 0.4329 0.0056 0.9014
vn 0.9086 -0.1376 -0.3943
vn 0.3487 0.0280 0.9368
vn 0.4770 0.1928 -0.8575
vn 0.6195 0.0846 -0.7804
vn 0.9152 -0.0796 -0.3952
vn 0.4881 -0.0547 0.8711
vn 0.7198 0.2802 -0.6351
vn 0.9700 -0.2418 -0.0261
vn 0.5364 -0.0562 -0.8421
vn 0.8510 0.1197 -0.5113
vn 0.8864 0.3587 0.2927
vn 0.9328 0.3104 0.1832
vn 0.9367 -0.2808 -0.2092
vn -0.7457 0.0898 0.6602
vn -0.5445 -0.4313 -0.7194
vn -0.2998 -0.4093 -0.8617
vn 0.9071 -0.4152 0.0683
vn 0.3889 0.1586 0.9075
vn -0.3757 0.1205 0.9189
vn 0.3406 -0.1412 0.9295
vn 0.3960 -0.1886 0.8987
vn 0.3360 0.2579 0.9059
vn 0.9053 -0.3734 -0.2024
vn 0.1010 0.3312 0.9381
vn 0.2441 -0.0263 0.9694
vn 0.4492 0.3013 0.8411
vn 0.1203 0.3145 0.9416
vn 0.2160 -0.0233 0.9761
vn -0.5970 -0.3623 0.7158
vn 0.2220 -0.0685 0.9726
vn 0.3393 -0.0875 0.9366
vn -0.4123 -0.2186 0.8844
vn -0.5602 -0.1980 0.8044
vn 0.7984 0.4181 -0.4333
vn -0.2075 0.1834 -0.9609
vn -0.8585 -0.1768 0.4815
vn -0.2255 -0.1069 -0.9684
vn -0.2381 0.0277 -0.9708
vn -0.7362 -0.0328 -0.6760
vn -0.2643 -0.8719 0.4122
vn 0.1592 -0.0185 -0.9871
vn -0.1852 -0.0818 -0.9793
vn 0.2193 0.6854 -0.6944
vn -0.1758 0.0065 -0.9844
vn -0.0243 -0.1083 -0.9938
vn -0.1151 -0.0241 -0.9931
vn -0.0336 -0.0321 -0.9989
vn -0.6944 -0.2821 -0.6619
vn -0.6892 -0.2624 -0.6754
vn -0.6503 -0.3713 -0.6628
vn -0.9636 -0.1572 0.2164
vn -0.7973 -0.1579 -0.5826
vn -0.9180 -0.2163 -0.3324
vn -0.6348 -0.2797 0.7203
vn -0.9630 -0.1466 0.2260
vn -0.7199 0.2843 0.6331
vn 0.0735 0.2531 0.9647
vn 0.0589 0.2688 0.9614
vn -0.7004 0.5310 0.4769
vn 0.7940 -0.0284 0.6073
vn 0.5027 0.3439 -0.7931
vn 0.9993 -0.0264 0.0262
vn 0.8032 0.1373 0.5797
vn -0.7913 -0.5299 -0.3050
vn -0.8594 0.3275 -0.3926
vn -0.3467 -0.1781 0.9209
vn -0.3776 -0.3101 0.8725
vn 0.5170 0.0753 0.8526
vn 0.6374 -0.1180 0.7614
vn 0.5326 -0.0545 0.8446
vn 0.5880 -0.1831 0.7879
vn 0.2094 -0.8141 -0.5416
vn -0.7293 -0.1328 -0.6712
vn -0.3325 -0.8883 -0.3168
vn -0.0308 0.1445 -0.9890
vn -0.3694 0.2430 -0.8970
vn -0.3579 -0.2763 0.8919
vn -0.5268 -0.8153 -0.2403
vn -0.8565 -0.3049 0.4163
vn -0.2619 0.5167 0.8151
vn -0.2658 0.5921 0.7607
vn -0.8324 0.1143 0.5423
vn -0.9806 0.0911 0.1736
vn -0.8228 -0.1888 0.5361
vn -0.2147 -0.6310 -0.7455
vn 0.5998 0.4122 -0.6859
vn 0.9491 0.3044 -0.0812
vn 0.8497 -0.2476 -0.4654
vn -0.4294 -0.2022 0.8802
vn 0.8227 0.5685 0.0006
vn 0.9467 0.2069 0.2470
vn -0.4618 0.6836 -0.5652
vn -0.1066 0.5209 0.8470
vn -0.6268 0.7720 -0.1056
vn 0.6208 0.7154 0.3207
vn 0.8396 0.5395 -0.0631
vn 0.8755 0.3483 -0.3349
vn 0.0849 -0.1065 0.9907
vn 0.6089 0.4410 -0.6594
vn 0.7977 0.2950 -0.5260
vn -0.4235 -0.1615 -0.8914
vn 0.7612 -0.6444 -0.0728
vn -0.5063 -0.6102 -0.6094
vn -0.0626 0.1586 0.9854
vn 0.5577 -0.0768 0.8265
vn 0.7846 -0.2608 0.5625
vn 0.0972 -0.8407 0.5328
vn -0.6581 -0.2966 0.6920
vn -0.4537 -0.3900 -0.8013
vn -0.4963 -0.2231 -0.8390
vn -0.8544 0.4278 0.2948
vn -0.3008 0.0216 -0.9534
vn -0.2403 -0.6014 -0.7619
vn 0.8886 0.2580 -0.3793
vn -0.9795 -0.1822 -0.0856
vn -0.4720 -0.0607 -0.8795
vn -0.8809 0.2470 -0.4038
vn -0.7227 -0.1012 -0.6837
vn -0.6071 -0.5134 -0.6065
vn -0.5430 0.4727 -0.6941
vn 0.7965 -0.5988 -0.0837
vn 0.4049 0.0235 0.9141
vn 0.5386 -0.0525 0.8409
vn -0.8305 0.0238 0.5565
vn -0.3012 -0.6524 0.6955
vn 0.1739 -0.2614 0.9494
vn -0.2619 -0.1236 -0.9571
vn -0.1924 -0.0970 -0.9765
vn -0.0260 -0.8225 0.5682
vn -0.3928 0.6192 0.6799
vn 0.9669 0.2456 -0.0688
vt 0.760294 0.932549
vt 0.759734 0.931073
vt 0.760374 0.932648
vt 0.759894 0.931467
vt 0.759894 0.931368
vt 0.759174 0.929597
vt 0.759254 0.929794
vt 0.760134 0.932155
vt 0.757814 0.926152
vt 0.758054 0.926645
vt 0.758534 0.927825
vt 0.759094 0.929302
vt 0.759494 0.930483
vt 0.759574 0.930679
vt 0.759974 0.931762
vt 0.760214 0.932254
vt 0.760134 0.932057
vt 0.761014 0.934419
vt 0.761094 0.934419
vt 0.761254 0.934911
vt 0.761254 0.935009
vt 0.761654 0.935994
vt 0.761734 0.936289
vt 0.755094 0.995827
vt 0.771894 0.987659
vt 0.764374 0.994056
vt 0.762614 0.989529
vt 0.779654 0.894070
vt 0.799521 0.995729
vt 0.799281 0.894169
vt 0.779574 0.995729
vt 0.780854 0.987856
vt 0.801601 0.975555
vt 0.798961 0.987758
vt 0.786214 0.979590
vt 0.782534 0.980377
vt 0.777734 0.989234
vt 0.776694 0.995729
vt 0.776454 0.894070
vt 0.773414 0.894070
vt 0.752214 0.998400
vt 0.752214 0.894169
vt 0.763974 0.995827
vt 0.771894 0.988151
vt 0.751254 0.993300
vt 0.763974 0.994056
vt 0.755414 0.980672
vt 0.784134 0.942193
vt 0.757574 0.905092
vt 0.777494 0.943374
vt 0.767654 0.922019
vt 0.760454 0.894070
vt 0.775494 0.923495
vt 0.775094 0.917787
vt 0.775254 0.918083
vt 0.773174 0.920051
vt 0.768614 0.913162
vt 0.768854 0.913457
vt 0.767894 0.911292
vt 0.768694 0.912473
vt 0.778534 0.939143
vt 0.777734 0.938060
vt 0.777974 0.938355
vt 0.778534 0.939241
vt 0.777254 0.937371
vt 0.778134 0.938651
vt 0.777174 0.937174
vt 0.779014 0.939930
vt 0.781574 0.943670
vt 0.781974 0.944260
vt 0.781494 0.943571
vt 0.781494 0.943473
vt 0.780054 0.944063
vt 0.778774 0.942390
vt 0.778774 0.942292
vt 0.779974 0.943965
vt 0.782454 0.947508
vt 0.782294 0.947212
vt 0.789094 0.950854
vt 0.786614 0.947311
vt 0.786614 0.947409
vt 0.779254 0.942981
vt 0.781254 0.945835
vt 0.779414 0.943178
vt 0.777574 0.940521
vt 0.777654 0.940717
vt 0.783654 0.940816
vt 0.781894 0.938454
vt 0.779414 0.935206
vt 0.782614 0.939438
vt 0.779814 0.935698
vt 0.781974 0.938552
vt 0.781814 0.938355
vt 0.783414 0.940422
vt 0.784614 0.942095
vt 0.785094 0.942686
vt 0.768934 0.921133
vt 0.772134 0.913851
vt 0.768294 0.920346
vt 0.772934 0.917787
vt 0.774534 0.909619
vt 0.775654 0.909423
vt 0.758774 0.928613
vt 0.758854 0.928810
vt 0.758454 0.927629
vt 0.758214 0.927038
vt 0.758374 0.927530
vt 0.758214 0.927235
vt 0.758534 0.928022
vt 0.758294 0.927333
vt 0.758214 0.927137
vt 0.758454 0.927727
vt 0.758054 0.926743
vt 0.759094 0.929400
vt 0.759414 0.930286
vt 0.760214 0.932352
vt 0.796801 0.957054
vt 0.796321 0.956365
vt 0.797041 0.957349
vt 0.797521 0.958038
vt 0.799281 0.960596
vt 0.800641 0.962466
vt 0.799361 0.960695
vt 0.800481 0.962269
vt 0.802401 0.965025
vt 0.799041 0.960203
vt 0.800241 0.961876
vt 0.802081 0.964533
vt 0.802401 0.964926
vt 0.761974 0.971028
vt 0.768614 0.989234
vt 0.773734 0.986479
vt 0.770294 0.969453
vt 0.787094 0.992974
vt 0.786694 0.964926
vt 0.797441 0.989529
vt 0.798321 0.964041
vt 0.800961 0.961974
vt 0.798801 0.939438
vt 0.789014 0.936978
vt 0.776214 0.944359
vt 0.769894 0.943866
vt 0.760054 0.972898
vt 0.760774 0.990120
vt 0.775974 0.996713
vt 0.778134 0.964828
vt 0.798481 0.981164
vt 0.789094 0.966304
vt 0.800561 0.962171
vt 0.800561 0.944359
vt 0.787894 0.940521
vt 0.769974 0.950362
vt 0.783494 0.942981
vt 0.781094 0.939536
vt 0.780534 0.938749
vt 0.783254 0.942587
vt 0.784534 0.944359
vt 0.784054 0.943670
vt 0.782214 0.941111
vt 0.783654 0.943178
vt 0.781494 0.940028
vt 0.782854 0.942095
vt 0.780854 0.939143
vt 0.779334 0.936978
vt 0.779574 0.937371
vt 0.759974 0.967190
vt 0.762134 0.989136
vt 0.766774 0.989037
vt 0.767334 0.966993
vt 0.783654 0.994351
vt 0.783254 0.966698
vt 0.795361 0.992088
vt 0.798481 0.963942
vt 0.800401 0.964336
vt 0.794801 0.939832
vt 0.783334 0.938257
vt 0.767894 0.948098
vt 0.764214 0.947803
vt 0.760054 0.969552
vt 0.762454 0.991005
vt 0.768134 0.988742
vt 0.768934 0.969060
vt 0.781974 0.993269
vt 0.787094 0.965517
vt 0.795761 0.986774
vt 0.797601 0.967190
vt 0.800241 0.967190
vt 0.800161 0.943866
vt 0.788054 0.938257
vt 0.773414 0.950066
vt 0.768534 0.950657
vt 0.618214 0.870900
vt 0.623334 0.871200
vt 0.618374 0.870900
vt 0.620214 0.871100
vt 0.614614 0.870700
vt 0.614454 0.870700
vt 0.618774 0.837100
vt 0.628534 0.837200
vt 0.616134 0.837100
vt 0.627174 0.837200
vt 0.616854 0.837100
vt 0.615094 0.837000
vt 0.612374 0.837000
vt 0.606694 0.837000
vt 0.608134 0.837000
vt 0.604054 0.836900
vt 0.613494 0.837000
vt 0.621974 0.837100
vt 0.614774 0.837000
vt 0.619974 0.837100
vt 0.622614 0.837100
vt 0.624854 0.837100
vt 0.630134 0.837200
vt 0.625014 0.837100
vt 0.628454 0.837200
vt 0.636294 0.837300
vt 0.635414 0.837300
vt 0.616934 0.870900
vt 0.620614 0.871100
vt 0.600134 0.936300
vt 0.587174 0.925000
vt 0.595974 0.923100
vt 0.587654 0.936000
vt 0.641334 0.837300
vt 0.637574 0.837300
vt 0.650534 0.837400
vt 0.643974 0.837300
vt 0.641174 0.837300
vt 0.653334 0.837400
vt 0.643014 0.837300
vt 0.634134 0.837200
vt 0.626774 0.837200
vt 0.611334 0.837000
vt 0.649094 0.837400
vt 0.640054 0.837300
vt 0.648374 0.837400
vt 0.640614 0.837300
vt 0.639494 0.837300
vt 0.635814 0.837300
vt 0.637414 0.837300
vt 0.648534 0.876300
vt 0.559414 0.857400
vt 0.559494 0.876700
vt 0.648534 0.857500
vt 0.559414 0.836400
vt 0.648534 0.836800
vt 0.648534 0.867000
vt 0.569094 0.850300
vt 0.569094 0.866000
vt 0.648534 0.851300
vt 0.648534 0.835100
vt 0.569094 0.833700
vt 0.599494 0.869800
vt 0.599574 0.869800
vt 0.597574 0.869700
vt 0.598134 0.869700
vt 0.599894 0.869800
vt 0.599654 0.869800
vt 0.593814 0.869400
vt 0.590534 0.869200
vt 0.572534 0.874200
vt 0.677894 0.854300
vt 0.671014 0.874300
vt 0.573974 0.854100
vt 0.573174 0.872800
vt 0.671014 0.872800
vt 0.622934 0.837100
vt 0.619254 0.837100
vt 0.618694 0.837100
vt 0.621734 0.837100
vt 0.574694 0.872500
vt 0.675734 0.852900
vt 0.672854 0.872800
vt 0.573894 0.852600
vt 0.671174 0.871500
vt 0.573654 0.871400
vt 0.601334 0.869900
vt 0.596614 0.869600
vt 0.609574 0.870400
vt 0.610294 0.870400
vt 0.604134 0.870100
vt 0.646694 0.837400
vt 0.645334 0.837400
vt 0.637974 0.837300
vt 0.618934 0.871000
vt 0.612614 0.870600
vt 0.622214 0.871200
vt 0.615014 0.870700
vt 0.637574 0.819100
vt 0.639974 0.819100
vt 0.635414 0.819100
vt 0.641654 0.819100
vt 0.611014 0.858900
vt 0.611014 0.872300
vt 0.717734 0.876600
vt 0.575094 0.875600
vt 0.575094 0.860300
vt 0.575174 0.840200
vt 0.611014 0.839800
vt 0.714934 0.834700
vt 0.736454 0.854900
s 1
usemtl mat_0-crash.jpg.002
f 548/1/3 550/2/3 3/3/3
f 549/1/298 554/4/298 552/2/298
f 559/5/1 555/4/1 1/1/1
f 560/5/300 836/6/300 556/4/300
f 561/5/301 916/7/301 837/6/301
f 8/8/5 917/7/5 5/5/5
f 562/9/9 918/7/9 10/10/9
f 565/9/7 838/6/7 7/7/7
f 566/11/302 839/6/302 563/9/302
f 803/12/10 840/6/10 11/11/10
f 804/12/6 557/4/6 6/6/6
f 672/13/11 558/4/11 12/12/11
f 671/13/4 553/2/4 4/4/4
f 673/13/2 674/14/2 2/2/2
f 919/15/12 677/14/12 13/13/12
f 920/15/235 307/16/235 678/14/235
f 921/15/233 308/1/233 304/16/233
f 569/17/14 309/1/14 15/15/14
f 570/8/17 310/1/17 18/17/17
f 571/8/236 572/18/236 311/1/236
f 805/19/18 574/18/18 19/8/18
f 806/19/303 841/20/303 575/18/303
f 922/21/20 843/20/20 21/19/20
f 923/21/331 321/22/238 844/20/331
f 24/23/22 321/22/238 23/21/22
f 957/24/336 680/25/24 26/26/24
f 957/24/336 27/27/23 25/25/23
f 946/28/27 949/29/27 30/30/27
f 31/31/26 29/29/26 947/28/26
f 681/32/30 684/33/30 34/34/30
f 682/32/29 685/35/29 33/33/29
f 683/32/31 686/36/31 35/35/31
f 32/32/28 688/37/28 36/36/28
f 948/28/33 38/38/33 577/31/33
f 325/39/25 322/38/25 28/28/25
f 326/40/34 323/38/34 39/39/34
f 327/40/239 328/41/239 324/38/239
f 690/42/35 329/41/35 40/40/35
f 807/43/36 41/41/36 691/42/36
f 950/44/39 951/45/39 46/46/39
f 943/47/38 45/45/38 44/44/38
f 47/47/40 689/37/40 952/45/40
f 687/36/32 37/37/32 942/47/32
f 692/48/319 49/49/42 957/50/336
f 48/48/41 50/51/41 49/49/42
f 42/42/37 51/52/37 43/43/37
f 956/53/335 321/54/238 52/55/43
f 94/56/73 547/57/297 109/58/87
f 547/57/297 108/59/86 109/58/87
f 578/60/304 108/59/86 547/57/297
f 693/12/320 321/54/238 109/58/87
f 94/56/73 109/58/87 321/54/238
f 321/54/238 956/53/335 94/56/73
f 906/61/45 54/62/45 908/63/45
f 334/64/242 907/61/242 909/63/242
f 330/64/46 55/63/46 335/65/46
f 337/66/240 331/64/240 336/65/240
f 338/66/47 57/65/47 540/67/47
f 694/63/243 339/66/243 541/67/243
f 695/63/49 59/67/49 790/68/49
f 696/63/51 61/68/51 845/69/51
f 697/63/52 62/69/52 699/70/52
f 340/66/50 60/63/50 698/70/50
f 341/66/53 63/70/53 64/71/53
f 332/64/48 58/66/48 342/71/48
f 333/64/241 343/71/241 344/72/241
f 53/61/44 56/64/44 65/72/44
f 700/73/55 67/74/55 702/75/55
f 701/73/321 703/75/321 705/76/321
f 708/77/54 66/73/54 706/76/54
f 910/78/57 70/77/57 707/76/57
f 72/79/59 73/80/59 74/81/59
f 791/78/58 71/78/58 793/76/58
f 792/78/329 795/76/329 798/82/329
f 802/83/60 75/78/60 799/82/60
f 911/84/62 78/83/62 800/82/62
f 80/85/63 79/84/63 801/82/63
f 346/85/61 77/82/61 796/76/61
f 347/86/244 345/85/244 797/76/244
f 704/75/64 81/86/64 794/76/64
f 68/75/56 76/76/56 69/76/56
f 709/87/66 83/88/66 711/89/66
f 713/90/322 710/87/322 712/89/322
f 714/90/67 84/89/67 846/91/67
f 912/92/323 715/90/323 847/91/323
f 913/92/68 86/91/68 88/93/68
f 914/92/245 348/93/245 349/94/245
f 915/92/70 89/94/70 542/95/70
f 716/90/69 87/92/69 90/95/69
f 717/90/294 543/95/294 718/96/294
f 82/87/65 85/90/65 91/96/65
f 578/97/304 957/98/336 49/99/42
f 544/100/295 957/98/336 578/97/304
f 544/100/295 545/101/296 957/98/336
f 544/100/295 546/102/71 92/101/71
f 544/100/295 956/53/335 93/102/72
f 544/100/295 94/56/73 956/53/335
f 578/97/304 94/56/73 544/100/295
f 547/57/297 94/56/73 578/97/304
f 675/14/299 646/103/299 551/2/299
f 924/104/316 647/103/316 676/14/316
f 925/104/74 587/10/74 95/103/74
f 355/105/76 97/10/76 926/104/76
f 353/105/248 564/9/248 586/10/248
f 354/105/8 567/11/8 9/9/8
f 350/105/246 356/106/246 568/11/246
f 358/107/247 357/106/247 351/105/247
f 359/107/78 588/108/78 99/106/78
f 648/105/249 589/108/249 360/107/249
f 649/105/80 762/106/80 101/108/80
f 848/109/317 763/106/317 650/105/317
f 849/109/82 928/105/82 103/106/82
f 850/109/84 106/106/84 105/105/84
f 364/110/250 362/106/250 851/109/250
f 365/110/251 49/106/42 363/106/251
f 590/111/306 49/106/42 366/110/252
f 590/111/306 578/112/304 49/106/42
f 590/111/306 108/113/86 578/112/304
f 590/111/306 109/107/87 108/113/86
f 590/111/306 693/12/320 109/107/87
f 590/111/306 374/114/257 693/12/320
f 367/110/253 373/114/253 590/111/306
f 368/110/254 375/6/254 370/114/254
f 369/110/255 579/13/255 376/6/255
f 852/109/85 583/13/85 107/110/85
f 651/105/83 582/13/83 104/109/83
f 652/105/258 381/115/258 580/13/258
f 361/107/81 382/115/81 102/105/81
f 352/105/79 379/115/79 100/107/79
f 927/104/77 384/115/77 98/105/77
f 679/14/75 385/115/75 96/104/75
f 306/16/13 380/115/13 14/14/13
f 305/16/234 386/15/234 383/115/234
f 312/1/15 388/15/15 16/16/15
f 313/1/237 393/17/237 390/15/237
f 573/18/16 394/17/16 17/1/16
f 576/18/259 398/116/259 395/17/259
f 842/20/19 399/116/19 20/18/19
f 321/22/238 396/116/21 22/20/21
f 693/12/320 400/116/260 321/22/238
f 372/114/256 397/116/256 693/12/320
f 371/114/92 391/17/92 116/116/92
f 378/6/88 392/17/88 110/114/88
f 377/6/91 387/15/91 115/17/91
f 581/13/89 389/15/89 111/6/89
f 112/13/90 113/115/90 114/15/90
f 853/117/332 855/118/332 857/119/332
f 854/117/333 858/119/333 862/120/333
f 121/121/93 117/117/93 863/120/93
f 401/121/261 864/120/261 403/122/261
f 408/123/262 402/121/262 404/122/262
f 409/123/263 405/122/263 591/124/263
f 856/118/98 123/123/98 594/124/98
f 859/119/94 118/118/94 595/124/94
f 860/119/307 592/124/307 764/125/307
f 861/119/326 765/125/326 867/126/326
f 865/120/95 119/119/95 870/126/95
f 866/120/308 868/126/308 597/127/308
f 406/122/96 120/120/96 596/127/96
f 407/122/264 598/127/264 600/128/264
f 593/124/97 122/122/97 601/128/97
f 766/125/99 124/124/99 602/128/99
f 871/129/309 767/125/309 603/128/309
f 873/129/102 128/128/102 599/127/102
f 872/129/101 127/127/101 869/126/101
f 125/125/100 129/129/100 126/126/100
f 604/130/104 131/131/104 606/132/104
f 608/133/310 605/130/310 607/132/310
f 609/133/105 132/132/105 768/134/105
f 874/135/311 610/133/311 769/134/311
f 875/135/106 134/134/106 929/136/106
f 413/137/265 876/135/265 930/136/265
f 410/137/108 136/136/108 414/138/108
f 411/137/110 138/138/110 415/139/110
f 412/137/111 139/139/111 416/140/111
f 877/135/109 137/137/109 140/140/109
f 878/135/266 417/140/266 770/141/266
f 611/133/107 135/135/107 141/141/107
f 612/133/112 771/141/112 142/142/112
f 130/130/103 133/133/103 613/142/103
f 945/143/114 144/144/114 145/145/114
f 420/146/113 143/143/113 418/145/113
f 421/146/267 419/145/267 425/147/267
f 614/148/268 422/146/268 426/147/268
f 615/148/116 147/147/116 653/149/116
f 616/148/118 149/149/118 772/150/118
f 617/148/119 150/150/119 619/151/119
f 423/146/117 148/148/117 618/151/117
f 424/146/120 151/151/120 620/152/120
f 944/143/115 146/146/115 152/152/115
f 427/153/122 154/154/122 429/155/122
f 428/153/269 430/155/269 432/156/269
f 436/157/121 153/153/121 433/156/121
f 773/158/124 157/157/124 434/156/124
f 774/158/271 435/156/271 655/159/271
f 931/160/125 158/158/125 656/159/125
f 932/160/272 657/159/272 440/161/272
f 441/162/126 160/160/126 437/161/126
f 442/163/128 162/162/128 438/161/128
f 443/164/129 163/163/129 439/161/129
f 164/164/127 161/161/127 658/159/127
f 165/165/130 444/164/130 659/159/130
f 431/155/270 660/165/270 654/159/270
f 155/155/123 159/159/123 156/156/123
f 775/166/132 167/167/132 777/168/132
f 779/169/327 776/166/327 778/168/327
f 780/169/133 168/168/133 933/170/133
f 449/171/274 781/169/274 934/170/274
f 445/171/134 170/170/134 450/172/134
f 452/173/273 446/171/273 451/172/273
f 453/173/136 172/172/136 621/174/312
f 454/173/138 174/174/138 661/175/138
f 455/173/139 175/175/139 457/176/139
f 447/171/137 173/173/137 456/176/137
f 448/171/140 176/176/140 458/177/140
f 782/169/135 171/171/135 177/177/135
f 783/169/141 459/177/141 178/178/141
f 166/166/131 169/169/131 784/178/131
f 460/179/143 180/180/143 462/181/143
f 464/182/275 461/179/275 463/181/275
f 467/182/144 181/181/144 662/183/144
f 785/184/276 468/182/276 663/183/276
f 788/184/145 183/183/145 879/185/145
f 935/186/328 789/184/328 880/185/328
f 936/186/147 185/185/147 187/187/147
f 937/186/277 469/187/277 470/188/277
f 938/186/149 188/188/149 584/189/149
f 786/184/148 186/186/148 189/189/148
f 787/184/305 585/189/305 664/190/305
f 465/182/146 184/184/146 665/190/146
f 466/182/150 190/190/150 191/191/150
f 179/179/142 182/182/142 471/191/142
f 816/192/153 820/193/153 194/194/153
f 817/192/152 821/195/152 193/193/152
f 196/196/155 822/195/155 818/192/155
f 472/196/154 197/197/154 195/195/154
f 719/198/158 721/199/158 200/200/158
f 720/198/324 723/201/324 722/199/324
f 730/202/156 724/201/156 198/198/156
f 731/202/325 890/203/325 725/201/325
f 732/202/280 478/204/280 891/203/280
f 479/205/160 474/204/160 202/202/160
f 480/205/278 481/206/278 475/204/278
f 207/207/163 482/206/163 205/205/163
f 823/208/281 485/209/281 495/210/281
f 824/211/165 486/209/165 208/208/165
f 212/212/167 487/209/167 211/211/167
f 497/213/282 488/209/282 496/212/282
f 498/213/283 623/214/283 489/209/283
f 629/215/168 625/214/168 213/213/168
f 733/216/170 626/214/170 215/215/170
f 734/216/313 735/217/313 627/214/313
f 218/218/171 737/217/171 216/216/171
f 501/219/173 819/192/173 220/220/173
f 500/219/151 473/196/151 192/192/151
f 630/221/175 631/222/175 223/223/175
f 221/221/174 224/224/174 222/222/174
f 726/201/157 809/225/157 199/199/157
f 894/226/176 225/225/176 727/201/176
f 895/226/330 899/227/330 810/225/330
f 896/226/178 228/228/178 227/227/178
f 505/229/285 503/228/285 897/226/285
f 506/229/286 509/230/286 504/228/286
f 507/229/287 632/231/287 510/230/287
f 508/229/288 638/232/288 635/231/288
f 898/226/179 642/232/179 229/229/179
f 728/201/177 641/232/177 226/226/177
f 729/201/315 825/233/315 640/232/315
f 893/203/159 829/233/159 201/201/159
f 892/203/284 490/209/284 828/233/284
f 476/204/161 484/209/161 203/203/161
f 477/204/279 493/210/279 492/209/279
f 483/206/162 494/210/162 204/204/162
f 206/206/164 234/234/164 210/210/164
f 953/235/186 512/236/186 237/237/186
f 954/235/289 515/238/289 513/236/289
f 739/239/184 517/238/184 235/235/184
f 741/239/290 667/240/290 518/238/290
f 811/241/318 668/240/318 742/239/318
f 939/242/192 940/243/192 244/244/192
f 245/245/190 941/243/190 242/242/190
f 643/245/191 645/246/191 243/243/191
f 247/247/193 246/246/193 644/245/193
f 830/248/196 831/249/196 250/250/196
f 834/251/194 832/249/194 248/248/194
f 252/252/197 833/249/197 251/251/197
f 520/252/195 253/253/195 249/249/195
f 743/254/200 745/255/200 256/256/200
f 744/254/199 746/257/199 255/255/199
f 750/258/198 747/257/198 254/254/198
f 900/259/202 748/257/202 258/258/202
f 523/260/291 749/257/291 901/259/291
f 521/260/201 261/261/201 257/257/201
f 751/262/207 752/263/207 264/264/207
f 755/265/205 753/263/205 262/262/205
f 815/266/208 754/263/208 265/265/208
f 266/266/206 267/267/206 263/263/206
f 524/268/210 525/269/210 270/270/210
f 268/268/209 271/271/209 269/269/209
f 955/272/213 526/273/213 274/274/213
f 528/275/211 527/273/211 272/272/211
f 529/275/212 530/276/212 273/273/212
f 277/277/214 276/276/214 275/275/214
f 522/260/215 531/278/215 279/279/215
f 902/259/204 278/278/204 260/260/204
f 903/280/203 534/278/203 259/259/203
f 537/281/292 532/278/292 904/280/292
f 535/281/218 282/282/218 533/278/218
f 511/230/219 756/283/219 284/230/219
f 633/231/180 283/283/180 230/230/180
f 634/231/314 758/284/314 757/283/314
f 636/231/220 740/239/220 285/284/220
f 637/231/187 812/241/187 239/239/187
f 639/232/181 813/241/181 231/231/181
f 827/233/182 814/241/182 232/232/182
f 826/233/189 669/240/189 241/241/189
f 491/209/183 670/240/183 233/233/183
f 624/214/166 666/240/166 209/209/166
f 628/214/188 516/238/188 240/240/188
f 217/217/169 519/238/169 214/214/169
f 738/217/185 236/236/185 238/238/185
f 286/285/221 514/236/221 736/217/221
f 536/281/222 318/286/222 288/287/222
f 905/280/217 320/286/217 281/281/217
f 502/219/216 287/286/216 280/280/216
f 314/220/172 317/286/172 219/219/172
f 315/220/223 289/288/223 319/286/223
f 290/289/224 499/288/224 316/220/224
f 759/290/226 760/291/226 293/292/226
f 291/290/225 294/293/225 292/291/225
f 881/294/334 888/295/334 889/296/334
f 882/294/228 298/297/228 296/295/228
f 883/294/293 539/298/293 538/297/293
f 884/294/229 622/299/229 299/298/229
f 885/294/230 761/300/230 300/299/230
f 886/294/231 808/301/231 301/300/231
f 887/294/232 835/302/232 302/301/232
f 297/296/227 303/302/227 295/294/227
