# Blender 4.3.0
# www.blender.org
mtllib bat.mtl
o SWFSBNCH8U7VBGEGU8VTQH4BC
v -0.265139 0.745653 -0.025417
v -0.227496 0.814086 0.004295
v -0.238388 0.819845 -0.062690
v -0.244150 0.750365 0.013220
v -0.172832 0.777384 -0.012068
v -0.196434 0.719362 -0.028728
v -0.172832 0.777384 -0.012068
v -0.197976 0.719362 -0.000599
v -0.265139 0.745653 -0.025417
v -0.171008 0.777384 -0.066606
v -0.268798 0.736978 0.013220
v -0.265139 0.745653 -0.025417
v -0.289788 0.732266 -0.025417
v -0.209266 0.697664 -0.002778
v -0.193223 0.685920 -0.014663
v -0.207391 0.696799 -0.027822
v -0.309730 0.696495 0.065940
v -0.207391 0.696799 -0.027822
v -0.193223 0.685920 -0.014663
v -0.249257 0.650929 0.062633
v -0.249257 0.650929 0.062633
v -0.197976 0.719362 -0.000599
v -0.265139 0.745653 -0.025417
v -0.249257 0.650929 0.062633
v 0.227496 0.814086 0.004293
v 0.265139 0.745653 -0.025419
v 0.238388 0.819845 -0.062692
v 0.172832 0.777384 -0.012070
v 0.244150 0.750365 0.013218
v 0.196434 0.719362 -0.028730
v 0.172832 0.777384 -0.012070
v 0.171008 0.777384 -0.066608
v 0.268798 0.736978 0.013218
v 0.209266 0.697664 -0.002780
v 0.197976 0.719362 -0.000601
v 0.193223 0.685920 -0.014665
v 0.197976 0.719362 -0.000601
v 0.207391 0.696799 -0.027824
v 0.309730 0.696495 0.065938
v 0.289788 0.732266 -0.025419
v 0.207391 0.696799 -0.027824
v 0.193223 0.685920 -0.014665
v 0.249257 0.650929 0.062631
v 0.249257 0.650929 0.062631
v 0.249257 0.650929 0.062631
v -0.265139 0.745653 -0.025417
v -0.265139 0.745653 -0.025417
v -0.265139 0.745653 -0.025417
v -0.265139 0.745653 -0.025417
v -0.074452 1.522888 0.163040
v -0.170713 1.511219 0.097577
v -0.156206 1.441027 0.154655
v 0.000001 1.378284 0.217039
v -0.069263 1.443751 0.202890
v -0.061685 1.369368 0.185453
v -0.132329 1.304280 0.176427
v -0.181902 1.257704 0.125253
v -0.078831 1.222403 0.170207
v -0.228230 1.256601 -0.064825
v -0.185894 1.295972 -0.178997
v -0.170268 1.189199 -0.135776
v -0.204400 1.506570 -0.106989
v -0.239952 1.412617 -0.093433
v -0.254336 1.379867 0.028473
v -0.206936 1.437331 0.092407
v -0.131346 1.189130 -0.188582
v -0.084721 1.530381 -0.185349
v -0.187415 1.445469 -0.169585
v -0.185454 1.215434 -0.075949
v -0.228948 1.246337 0.028385
v -0.248733 1.272493 0.030322
v -0.077591 1.579426 -0.104100
v 0.000000 1.610166 0.028472
v -0.000000 1.590277 -0.117164
v -0.195393 1.311349 0.116798
v -0.243203 1.330558 -0.075792
v -0.247266 1.330775 0.033225
v -0.338213 1.840879 -0.129186
v -0.303795 1.803838 -0.060439
v -0.309702 1.849071 -0.112538
v -0.201243 1.369418 0.101909
v -0.076569 1.568008 0.098479
v -0.169277 1.554979 0.028473
v -0.085095 1.304781 0.253187
v -0.077806 1.340055 0.207436
v -0.090469 1.306346 0.197896
v -0.141123 1.366910 0.150488
v -0.000001 1.270101 -0.252168
v -0.092584 1.368104 -0.248585
v -0.000001 1.368104 -0.262492
v -0.096964 1.471989 -0.236865
v -0.186703 1.382629 -0.181900
v -0.237808 1.489361 0.028473
v -0.252621 1.432148 0.028473
v -0.031269 1.338832 0.270085
v -0.072248 1.341174 0.261025
v -0.056042 1.239903 0.243932
v -0.059644 1.240367 0.187785
v 0.000001 1.203295 0.193287
v 0.000001 1.218547 0.193103
v 0.000001 1.326467 0.272562
v 0.000001 1.360013 0.242803
v -0.043991 1.354514 0.234693
v -0.083406 1.188208 0.153616
v 0.000000 1.145474 0.087628
v 0.000001 1.177088 0.172119
v 0.000000 1.576523 0.103746
v -0.180523 1.545843 -0.073726
v -0.098622 1.189130 -0.235734
v -0.096512 1.274659 -0.234815
v -0.000001 1.475911 -0.245512
v -0.286631 1.840211 -0.101525
v -0.259035 1.803719 -0.034546
v -0.077813 1.595908 0.028472
v 0.000001 1.450225 0.208258
v -0.180523 1.545843 -0.073726
v -0.169277 1.554979 0.028473
v -0.237808 1.489361 0.028473
v -0.378242 1.798668 -0.122060
v -0.308195 1.774578 -0.147765
v -0.309702 1.849071 -0.112538
v -0.404084 1.689331 -0.107425
v -0.254336 1.379867 0.028473
v -0.347609 1.420818 -0.024012
v -0.204400 1.506570 -0.106989
v -0.378242 1.798668 -0.122060
v -0.338213 1.840879 -0.129186
v -0.404084 1.689331 -0.107425
v -0.403724 1.550207 -0.073390
v -0.273560 1.448677 -0.018165
v -0.403724 1.550207 -0.073390
v -0.347609 1.420818 -0.024012
v -0.252621 1.432148 0.028473
v 0.000001 1.218108 0.254372
v -0.154169 1.209828 0.104819
v -0.093527 1.181650 0.073369
v -0.254336 1.379867 0.028473
v 0.000000 1.008513 0.088650
v -0.116112 1.094651 0.049032
v -0.122188 1.008513 0.061509
v -0.197703 1.008513 -0.039331
v -0.187875 1.094651 -0.042832
v -0.197704 1.008513 -0.153803
v -0.187876 1.094651 -0.151577
v -0.122189 1.008513 -0.246412
v 0.000000 0.905381 0.057443
v -0.111409 0.905381 0.029901
v -0.180263 0.905381 -0.048974
v -0.180264 0.905381 -0.144159
v -0.111410 0.905381 -0.221165
v -0.068853 0.838048 -0.012128
v 0.000000 0.838048 0.007805
v -0.111409 0.838048 -0.064315
v -0.111409 0.838048 -0.128820
v -0.068854 0.838048 -0.181007
v -0.000001 0.905381 -0.250578
v -0.000001 0.838048 -0.200940
v -0.000000 0.813804 -0.096566
v 0.000000 1.146612 0.062672
v 0.000000 1.094651 0.078749
v -0.095771 1.178327 0.027158
v -0.185454 1.215434 -0.075949
v -0.143510 1.163228 -0.005105
v -0.178184 1.146612 -0.059524
v -0.146480 1.146612 -0.192581
v -0.171995 1.146612 -0.133610
v -0.098622 1.189130 -0.235734
v -0.000001 1.146612 -0.257529
v -0.113464 1.146612 -0.228608
v -0.157771 1.209082 0.024679
v -0.276990 1.167529 -0.076488
v -0.171995 1.146612 -0.133610
v -0.178184 1.146612 -0.059524
v -0.254474 1.203154 -0.128133
v -0.171995 1.146612 -0.133610
v -0.276990 1.167529 -0.132700
v -0.185454 1.215434 -0.075949
v -0.170268 1.189199 -0.135776
v -0.259521 1.188588 -0.076328
v -0.392846 1.279494 -0.149050
v -0.383433 1.300427 -0.113178
v -0.375732 1.298044 -0.148244
v -0.395347 1.283676 -0.113056
v -0.547410 1.395076 -0.165493
v -0.527762 1.432167 -0.164098
v -0.517956 1.385840 -0.165975
v -1.023733 1.282613 -0.144159
v -0.818823 1.330217 -0.160294
v -0.823805 1.336941 -0.141646
v -1.023630 1.289169 -0.162290
v -0.818823 1.330217 -0.160294
v -1.027239 1.274938 -0.161967
v -0.830134 1.343970 -0.159124
v -1.023630 1.289169 -0.162290
v -0.180263 0.905381 -0.048974
v -0.180264 0.905381 -0.144159
v -0.111409 0.838048 -0.064315
v -0.111409 0.838048 -0.128820
v -0.547409 1.395076 -0.136446
v -0.547410 1.395076 -0.165493
v -0.615834 1.401547 -0.163674
v -0.830134 1.343970 -0.159124
v -0.615834 1.401547 -0.163674
v -0.598794 1.404114 -0.138264
v -0.839542 1.403732 -0.138263
v -0.527762 1.432167 -0.164098
v -0.848255 1.413510 -0.164097
v -0.848255 1.413510 -0.164097
v -0.830953 1.393455 -0.163673
v -0.598794 1.404114 -0.138264
v -0.520162 1.422229 -0.137841
v -0.615834 1.401547 -0.163674
v -1.221198 1.153961 -0.138262
v -1.231350 1.160670 -0.164096
v -1.208721 1.146907 -0.163672
v -1.208721 1.146907 -0.163672
v -1.243084 1.121744 -0.138261
v -1.250001 1.124403 -0.164095
v -1.250001 1.124403 -0.164095
v -1.245129 1.103824 -0.163671
v -0.839258 1.092102 -0.141358
v -0.517956 1.385840 -0.165975
v -0.514117 1.395869 -0.135963
v -0.547409 1.395076 -0.136446
v -0.830655 1.087540 -0.160582
v -0.547410 1.395076 -0.165493
v -0.849547 1.097181 -0.160272
v -0.926081 0.934851 -0.141358
v -0.830655 1.087540 -0.160582
v -0.933477 0.949608 -0.160272
v -0.918714 0.929070 -0.160582
v -0.933477 0.949608 -0.160272
v -0.943114 0.873647 -0.141358
v -0.918714 0.929070 -0.160582
v -0.947883 0.883579 -0.160272
v -0.945281 0.854805 -0.160582
v -0.947883 0.883579 -0.160272
v -0.516479 0.914131 -0.142572
v -0.517956 1.385840 -0.165975
v -0.527436 0.912958 -0.159160
v -0.497345 1.373428 -0.135587
v -0.514117 1.395869 -0.135963
v -0.527436 0.912958 -0.159160
v -0.494305 1.359850 -0.166355
v -0.506531 0.914131 -0.159367
v -0.494305 1.359850 -0.166355
v -0.502114 0.758012 -0.159160
v -0.502114 0.758012 -0.159160
v -0.479939 0.744844 -0.159367
v -0.489223 0.759181 -0.142572
v -0.506531 0.914131 -0.159367
v -0.462712 1.345867 -0.166668
v -0.480203 1.412720 -0.164098
v -0.444064 1.360235 -0.167132
v -0.457162 1.371409 -0.137841
v -0.480202 1.412720 -0.137841
v -0.469110 1.356564 -0.135270
v -0.298829 1.012090 -0.135271
v -0.494305 1.359850 -0.166355
v -0.308439 1.008451 -0.166356
v -0.497345 1.373428 -0.135587
v -0.308439 1.008451 -0.166356
v -0.289876 1.014483 -0.166669
v -0.462712 1.345867 -0.166668
v -0.201874 0.787457 -0.153088
v -0.201874 0.787457 -0.153088
v -0.178624 0.776684 -0.153402
v -0.190289 0.783939 -0.124791
v -0.289876 1.014483 -0.166669
v -0.501242 1.437879 -0.137841
v -0.527762 1.432167 -0.164098
v -0.520162 1.422229 -0.137841
v -0.453435 1.498268 -0.150971
v -0.472710 1.452702 -0.141644
v -0.472710 1.452702 -0.160295
v -0.453435 1.498268 -0.150971
v -0.472710 1.452702 -0.160295
v -0.500268 1.477222 -0.160295
v -0.484921 1.466785 -0.141644
v -0.500268 1.477222 -0.160295
v -0.480202 1.412720 -0.137841
v -0.519338 1.450997 -0.164098
v -0.480203 1.412720 -0.164098
v -0.519338 1.450997 -0.164098
v -0.146480 1.146612 -0.192581
v -0.444064 1.360235 -0.167132
v -0.113464 1.146612 -0.228608
v -0.098622 1.189130 -0.235734
v -0.444064 1.360235 -0.167132
v -0.480203 1.412720 -0.164098
v -0.131346 1.189130 -0.188582
v -0.457162 1.371409 -0.137841
v -0.480203 1.412720 -0.164098
v -0.480202 1.412720 -0.137841
v -0.520162 1.422229 -0.137841
v -0.547410 1.395076 -0.165493
v -0.527762 1.432167 -0.164098
v -0.514117 1.395869 -0.135963
v -0.494305 1.359850 -0.166355
v -0.517956 1.385840 -0.165975
v -1.245129 1.103824 -0.163671
v -0.945281 0.854805 -0.160582
v -0.479939 0.744844 -0.159367
v -0.178624 0.776684 -0.153402
v -0.093527 1.181650 0.073369
v 0.000000 1.145474 0.087628
v -0.041932 1.158833 0.115991
v -0.093527 1.181650 0.073369
v 0.000000 1.081286 0.096250
v 0.000000 1.137097 0.134382
v 0.000001 1.177088 0.172119
v -0.520162 1.422229 -0.137841
v -0.462712 1.345867 -0.166668
v -0.392846 1.279494 -0.149050
v -0.444064 1.360235 -0.167132
v -0.469110 1.356564 -0.135270
v -0.830655 1.087540 -0.160582
v -0.527436 0.912958 -0.159160
v -0.517956 1.385840 -0.165975
v -0.945281 0.854805 -0.160582
v -0.918714 0.929070 -0.160582
v -0.830953 1.393455 -0.163673
v -0.830134 1.343970 -0.159124
v -0.615834 1.401547 -0.163674
v -1.023630 1.289169 -0.162290
v -0.818823 1.330217 -0.160294
v -0.849547 1.097181 -0.160272
v -0.547410 1.395076 -0.165493
v -0.933477 0.949608 -0.160272
v -1.027239 1.274938 -0.161967
v -1.208721 1.146907 -0.163672
v -1.245129 1.103824 -0.163671
v -0.506531 0.914131 -0.159367
v -0.308439 1.008451 -0.166356
v -0.494305 1.359850 -0.166355
v -0.201874 0.787457 -0.153088
v -0.479939 0.744844 -0.159367
v -0.289876 1.014483 -0.166669
v -0.444064 1.360235 -0.167132
v -0.462712 1.345867 -0.166668
v -0.113464 1.146612 -0.228608
v -0.178624 0.776684 -0.153402
v -0.076473 0.729335 -0.203439
v -0.276990 1.167529 -0.132700
v -0.170268 1.189199 -0.135776
v -0.131346 1.189130 -0.188582
v -0.122189 1.008513 -0.246412
v -0.116113 1.094651 -0.237721
v -0.116113 1.094651 -0.237721
v -0.000001 1.008513 -0.272562
v -0.000001 1.094651 -0.267003
v -0.000001 1.146612 -0.257529
v -0.154169 1.209828 0.104819
v -0.157771 1.209082 0.024679
v 0.170713 1.511219 0.097575
v 0.074454 1.522888 0.163040
v 0.156208 1.441027 0.154653
v 0.069265 1.443751 0.202890
v 0.061687 1.369368 0.185453
v 0.181902 1.257704 0.125251
v 0.132331 1.304280 0.176427
v 0.078833 1.222403 0.170207
v 0.185892 1.295972 -0.178999
v 0.228230 1.256601 -0.064827
v 0.170268 1.189199 -0.135778
v 0.239952 1.412617 -0.093435
v 0.204400 1.506570 -0.106991
v 0.254336 1.379867 0.028471
v 0.206936 1.437331 0.092405
v 0.131344 1.189130 -0.188582
v 0.187413 1.445469 -0.169587
v 0.084719 1.530381 -0.185349
v 0.185454 1.215434 -0.075951
v 0.228948 1.246337 0.028383
v 0.248733 1.272493 0.030320
v 0.077591 1.579426 -0.104100
v 0.195393 1.311349 0.116796
v 0.247266 1.330775 0.033223
v 0.243203 1.330558 -0.075794
v 0.303795 1.803838 -0.060441
v 0.338213 1.840879 -0.129188
v 0.309702 1.849071 -0.112540
v 0.252621 1.432148 0.028471
v 0.169277 1.554979 0.028471
v 0.076569 1.568008 0.098479
v 0.085097 1.304781 0.253187
v 0.077808 1.340055 0.207436
v 0.072250 1.341174 0.261025
v 0.141125 1.366910 0.150486
v 0.201243 1.369418 0.101907
v 0.092582 1.368104 -0.248585
v 0.186701 1.382629 -0.181902
v 0.096962 1.471989 -0.236865
v 0.237808 1.489361 0.028471
v 0.031271 1.338832 0.270085
v 0.090471 1.306346 0.197896
v 0.056044 1.239903 0.243932
v 0.059646 1.240367 0.187785
v 0.000001 1.360013 0.242803
v 0.044843 1.355369 0.232323
v 0.083408 1.188208 0.153616
v 0.093527 1.181650 0.073369
v 0.000001 1.527528 0.168943
v 0.180523 1.545843 -0.073728
v 0.098620 1.189130 -0.235734
v -0.000001 1.189130 -0.250635
v -0.000001 1.538827 -0.196589
v 0.286631 1.840211 -0.101527
v 0.259035 1.803719 -0.034548
v 0.077813 1.595908 0.028472
v 0.180523 1.545843 -0.073728
v 0.169277 1.554979 0.028471
v 0.378242 1.798668 -0.122062
v 0.309702 1.849071 -0.112540
v 0.308194 1.774578 -0.147767
v 0.404084 1.689331 -0.107427
v 0.347609 1.420818 -0.024014
v 0.254336 1.379867 0.028471
v 0.204400 1.506570 -0.106991
v 0.338213 1.840879 -0.129188
v 0.378242 1.798668 -0.122062
v 0.404084 1.689331 -0.107427
v 0.403724 1.550207 -0.073392
v 0.403724 1.550207 -0.073392
v 0.273560 1.448677 -0.018167
v 0.347609 1.420818 -0.024014
v 0.252621 1.432148 0.028471
v 0.237808 1.489361 0.028471
v 0.154169 1.209828 0.104817
v 0.254336 1.379867 0.028471
v 0.074570 1.345942 0.203022
v 0.116112 1.094651 0.049032
v 0.122188 1.008513 0.061509
v 0.197703 1.008513 -0.039333
v 0.187875 1.094651 -0.042834
v 0.197702 1.008513 -0.153805
v 0.187874 1.094651 -0.151579
v 0.122187 1.008513 -0.246412
v 0.116111 1.094651 -0.237721
v 0.111409 0.905381 0.029901
v 0.180263 0.905381 -0.048976
v 0.180262 0.905381 -0.144161
v 0.111408 0.905381 -0.221165
v 0.068853 0.838048 -0.012128
v 0.111409 0.838048 -0.064315
v 0.111409 0.838048 -0.128820
v 0.068852 0.838048 -0.181007
v 0.095771 1.178327 0.027158
v 0.185454 1.215434 -0.075951
v 0.143510 1.163228 -0.005107
v 0.178184 1.146612 -0.059526
v 0.171995 1.146612 -0.133612
v 0.146478 1.146612 -0.192583
v 0.098620 1.189130 -0.235734
v 0.113462 1.146612 -0.228608
v 0.157771 1.209082 0.024677
v 0.276990 1.167529 -0.076490
v 0.171995 1.146612 -0.133612
v 0.276990 1.167529 -0.132702
v 0.254474 1.203154 -0.128135
v 0.171995 1.146612 -0.133612
v 0.170268 1.189199 -0.135778
v 0.185454 1.215434 -0.075951
v 0.259521 1.188588 -0.076330
v 0.178184 1.146612 -0.059526
v 0.392844 1.279494 -0.149052
v 0.276990 1.167529 -0.132702
v 0.383433 1.300427 -0.113180
v 0.375730 1.298044 -0.148246
v 0.395347 1.283676 -0.113058
v 0.527760 1.432167 -0.164102
v 0.547408 1.395076 -0.165497
v 0.517954 1.385840 -0.165979
v 0.818821 1.330217 -0.160300
v 1.023733 1.282613 -0.144167
v 0.823803 1.336941 -0.141652
v 1.023628 1.289169 -0.162298
v 0.818821 1.330217 -0.160300
v 0.830132 1.343970 -0.159130
v 0.830132 1.343970 -0.159130
v 0.180263 0.905381 -0.048976
v 0.180262 0.905381 -0.144161
v 0.111409 0.838048 -0.064315
v 0.111409 0.838048 -0.064315
v 0.111409 0.838048 -0.128820
v 0.547409 1.395076 -0.136450
v 0.615832 1.401547 -0.163678
v 0.615832 1.401547 -0.163678
v 0.598794 1.404114 -0.138268
v 0.839541 1.403732 -0.138269
v 0.527760 1.432167 -0.164102
v 0.520162 1.422229 -0.137845
v 0.848253 1.413510 -0.164103
v 0.527760 1.432167 -0.164102
v 0.598794 1.404114 -0.138268
v 0.615832 1.401547 -0.163678
v 1.221197 1.153961 -0.138270
v 0.848253 1.413510 -0.164103
v 1.208719 1.146907 -0.163680
v 0.830951 1.393455 -0.163679
v 1.208719 1.146907 -0.163680
v 0.830951 1.393455 -0.163679
v 1.243083 1.121744 -0.138270
v 1.231348 1.160670 -0.164104
v 1.249999 1.124403 -0.164105
v 1.231348 1.160670 -0.164104
v 0.517954 1.385840 -0.165979
v 0.839256 1.092102 -0.141364
v 0.514117 1.395869 -0.135967
v 0.547409 1.395076 -0.136450
v 0.830653 1.087540 -0.160588
v 0.547408 1.395076 -0.165497
v 0.830653 1.087540 -0.160588
v 0.926079 0.934851 -0.141364
v 0.933475 0.949608 -0.160278
v 0.849545 1.097181 -0.160278
v 0.933475 0.949608 -0.160278
v 0.849545 1.097181 -0.160278
v 0.918712 0.929070 -0.160588
v 0.943112 0.873647 -0.141364
v 0.947881 0.883579 -0.160278
v 0.918712 0.929070 -0.160588
v 0.947881 0.883579 -0.160278
v 0.516477 0.914131 -0.142576
v 0.517954 1.385840 -0.165979
v 0.514117 1.395869 -0.135967
v 0.497345 1.373428 -0.135591
v 0.527434 0.912958 -0.159164
v 0.494303 1.359850 -0.166359
v 0.517954 1.385840 -0.165979
v 0.494303 1.359850 -0.166359
v 0.502112 0.758012 -0.159164
v 0.527434 0.912958 -0.159164
v 0.502112 0.758012 -0.159164
v 0.506529 0.914131 -0.159371
v 0.506529 0.914131 -0.159371
v 0.489221 0.759181 -0.142576
v 0.480201 1.412720 -0.164102
v 0.462710 1.345867 -0.166672
v 0.444062 1.360235 -0.167136
v 0.480201 1.412720 -0.137845
v 0.457161 1.371409 -0.137845
v 0.469110 1.356564 -0.135274
v 0.298828 1.012090 -0.135273
v 0.494303 1.359850 -0.166359
v 0.497345 1.373428 -0.135591
v 0.308437 1.008451 -0.166358
v 0.494303 1.359850 -0.166359
v 0.462710 1.345867 -0.166672
v 0.201872 0.787457 -0.153090
v 0.308437 1.008451 -0.166358
v 0.201872 0.787457 -0.153090
v 0.289874 1.014483 -0.166671
v 0.289874 1.014483 -0.166671
v 0.190289 0.783939 -0.124793
v 0.501242 1.437879 -0.137845
v 0.527760 1.432167 -0.164102
v 0.519336 1.450997 -0.164102
v 0.472708 1.452702 -0.141648
v 0.453433 1.498268 -0.150975
v 0.472708 1.452702 -0.160299
v 0.472708 1.452702 -0.160299
v 0.453433 1.498268 -0.150975
v 0.500266 1.477222 -0.160299
v 0.484919 1.466785 -0.141648
v 0.500266 1.477222 -0.160299
v 0.480201 1.412720 -0.137845
v 0.519336 1.450997 -0.164102
v 0.146478 1.146612 -0.192583
v 0.444062 1.360235 -0.167136
v 0.457161 1.371409 -0.137845
v 0.444062 1.360235 -0.167136
v 0.098620 1.189130 -0.235734
v 0.480201 1.412720 -0.164102
v 0.131344 1.189130 -0.188582
v 0.480201 1.412720 -0.137845
v 0.480201 1.412720 -0.164102
v 0.520162 1.422229 -0.137845
v 0.547408 1.395076 -0.165497
v 0.520162 1.422229 -0.137845
v 0.514117 1.395869 -0.135967
v 0.517954 1.385840 -0.165979
v 1.245127 1.103824 -0.163680
v 1.249999 1.124403 -0.164105
v 0.945279 0.854805 -0.160588
v 0.479937 0.744844 -0.159371
v 0.178622 0.776684 -0.153404
v 0.093527 1.181650 0.073369
v 0.000000 1.145474 0.087628
v 0.041932 1.158833 0.115991
v 0.093527 1.181650 0.073369
v 0.520162 1.422229 -0.137845
v 0.480201 1.412720 -0.164102
v 0.462710 1.345867 -0.166672
v 0.469110 1.356564 -0.135274
v 0.444062 1.360235 -0.167136
v 0.462710 1.345867 -0.166672
v 0.457161 1.371409 -0.137845
v 0.830653 1.087540 -0.160588
v 0.527434 0.912958 -0.159164
v 0.918712 0.929070 -0.160588
v 0.945279 0.854805 -0.160588
v 0.830132 1.343970 -0.159130
v 0.830951 1.393455 -0.163679
v 0.615832 1.401547 -0.163678
v 1.023628 1.289169 -0.162298
v 0.818821 1.330217 -0.160300
v 0.849545 1.097181 -0.160278
v 1.027237 1.274938 -0.161975
v 0.933475 0.949608 -0.160278
v 1.245127 1.103824 -0.163680
v 1.208719 1.146907 -0.163680
v 0.506529 0.914131 -0.159371
v 0.308437 1.008451 -0.166358
v 0.479937 0.744844 -0.159371
v 0.201872 0.787457 -0.153090
v 0.444062 1.360235 -0.167136
v 0.289874 1.014483 -0.166671
v 0.462710 1.345867 -0.166672
v 0.113462 1.146612 -0.228608
v 0.076471 0.729335 -0.203439
v 0.178622 0.776684 -0.153404
v 0.170268 1.189199 -0.135778
v 0.122187 1.008513 -0.246412
v 0.116111 1.094651 -0.237721
v 0.096510 1.274659 -0.234815
v -0.000001 0.656955 -0.221165
v 0.154169 1.209828 0.104817
v 0.157771 1.209082 0.024677
v 0.077256 1.202937 0.174571
v 0.067055 1.214474 0.154083
v 0.068205 1.198326 0.164805
v 0.093117 1.210731 0.156566
v 0.080087 1.221193 0.168257
v 0.073046 1.176674 0.179186
v 0.086311 1.195726 0.166532
v 0.043993 1.354514 0.234693
v 0.077808 1.340055 0.207436
v -0.044841 1.355369 0.232323
v -0.077806 1.340055 0.207436
v -0.074568 1.345942 0.203022
v -0.077254 1.202937 0.174571
v -0.067053 1.214474 0.154083
v -0.080085 1.221193 0.168257
v -0.093115 1.210731 0.156566
v -0.086309 1.195726 0.166532
v -0.073044 1.176674 0.179186
v -0.068203 1.198326 0.164805
v -0.000001 1.189130 -0.250635
v -1.027239 1.274938 -0.161967
v -0.111409 0.838048 -0.064315
v -0.830953 1.393455 -0.163673
v -1.231350 1.160670 -0.164096
v -1.245129 1.103824 -0.163671
v -0.849547 1.097181 -0.160272
v -0.945281 0.854805 -0.160582
v -0.517956 1.385840 -0.165975
v -0.479939 0.744844 -0.159367
v -0.178624 0.776684 -0.153402
v -0.480203 1.412720 -0.164098
v -0.113464 1.146612 -0.228608
v -0.098622 1.189130 -0.235734
v -0.514117 1.395869 -0.135963
v -0.462712 1.345867 -0.166668
v -0.457162 1.371409 -0.137841
v -0.502114 0.758012 -0.159160
v -0.947883 0.883579 -0.160272
v 1.027237 1.274938 -0.161975
v 1.027237 1.274938 -0.161975
v 1.023628 1.289169 -0.162298
v 0.547408 1.395076 -0.165497
v 1.245127 1.103824 -0.163680
v 1.245127 1.103824 -0.163680
v 0.945279 0.854805 -0.160588
v 0.945279 0.854805 -0.160588
v 0.479937 0.744844 -0.159371
v 0.479937 0.744844 -0.159371
v 0.178622 0.776684 -0.153404
v 0.178622 0.776684 -0.153404
v 0.480201 1.412720 -0.164102
v 0.113462 1.146612 -0.228608
v 0.113462 1.146612 -0.228608
v 0.098620 1.189130 -0.235734
v 0.514117 1.395869 -0.135967
v 0.392844 1.279494 -0.149052
v 0.517954 1.385840 -0.165979
v 0.502112 0.758012 -0.159164
v 0.547408 1.395076 -0.165497
v 0.947881 0.883579 -0.160278
v 0.494303 1.359850 -0.166359
v 0.131344 1.189130 -0.188582
vn -0.8928 0.4127 0.1807
vn -0.3530 0.4448 0.8231
vn -0.8772 0.0983 -0.4700
vn -0.2255 0.2221 0.9486
vn 0.3879 0.1675 0.9063
vn 0.6403 -0.3483 -0.6846
vn 0.8606 -0.5083 0.0320
vn 0.9855 -0.1607 0.0540
vn -0.2190 -0.4643 -0.8582
vn 0.3151 -0.7361 -0.5990
vn -0.1861 0.7820 0.5948
vn -0.4718 0.8688 0.1504
vn -0.7611 0.1877 -0.6209
vn 0.5486 -0.4159 0.7253
vn 0.9009 -0.0919 -0.4242
vn 0.0918 -0.3795 -0.9206
vn -0.7160 -0.0550 0.6959
vn -0.1185 -0.9926 0.0254
vn -0.2956 -0.8483 0.4392
vn -0.4680 -0.7460 -0.4737
vn 0.6469 0.3754 0.6637
vn 0.2711 -0.1182 0.9553
vn -0.0535 -0.0141 -0.9985
vn 0.4327 0.5208 0.7359
vn 0.3530 0.4448 0.8231
vn 0.6591 0.4060 -0.6330
vn 0.8772 0.0983 -0.4700
vn -0.3879 0.1675 0.9063
vn 0.2255 0.2221 0.9486
vn -0.6403 -0.3483 -0.6846
vn -0.8606 -0.5083 0.0320
vn -0.3151 -0.7361 -0.5990
vn 0.1861 0.7820 0.5948
vn -0.5486 -0.4159 0.7253
vn -0.2711 -0.1182 0.9553
vn -0.9009 -0.0919 -0.4242
vn -0.9855 -0.1607 0.0540
vn -0.0918 -0.3795 -0.9206
vn 0.7160 -0.0550 0.6959
vn 0.7610 0.1877 -0.6209
vn 0.1185 -0.9926 0.0254
vn 0.2957 -0.8483 0.4392
vn 0.4680 -0.7460 -0.4737
vn -0.6469 0.3754 0.6637
vn -0.4327 0.5208 0.7359
vn -0.8566 0.2842 0.4307
vn -0.2734 -0.3513 -0.8955
vn -0.0163 0.0300 -0.9994
vn -0.2970 0.6116 0.7333
vn -0.6072 0.5590 0.5647
vn -0.6078 0.1352 0.7825
vn -0.0000 0.6620 0.7495
vn -0.3331 0.1273 0.9342
vn -0.5653 0.4307 0.7035
vn -0.5689 0.0129 0.8223
vn -0.6809 -0.3625 0.6364
vn -0.4238 -0.3971 0.8140
vn -0.8675 -0.4500 -0.2118
vn -0.7511 -0.1614 -0.6401
vn -0.8188 -0.3962 -0.4155
vn -0.6937 0.5250 -0.4931
vn -0.9461 0.1537 -0.2849
vn -0.9488 -0.0067 0.3159
vn -0.7812 0.1594 0.6036
vn -0.7315 -0.1914 -0.6545
vn -0.3256 0.7215 -0.6111
vn -0.7115 0.2932 -0.6385
vn -0.6412 -0.7630 0.0814
vn -0.6850 -0.7139 0.1457
vn -0.9315 -0.2982 0.2082
vn -0.2763 0.9106 -0.3073
vn -0.0000 0.9900 0.1413
vn -0.0000 0.9371 -0.3492
vn -0.7578 0.0205 0.6521
vn -0.9542 -0.1058 -0.2798
vn -0.9574 -0.0377 0.2864
vn -0.5284 0.6083 0.5923
vn -0.4658 0.4540 0.7596
vn -0.3665 0.6816 0.6333
vn -0.7580 0.0180 0.6520
vn -0.2805 0.8377 0.4685
vn -0.4899 0.8320 0.2604
vn -0.7958 -0.1189 0.5938
vn -0.7422 0.5744 0.3452
vn -0.7609 -0.1821 0.6227
vn -0.5371 0.0463 0.8422
vn -0.0000 -0.0613 -0.9981
vn -0.3535 0.0001 -0.9354
vn -0.0000 0.0253 -0.9997
vn -0.3653 0.3980 -0.8415
vn -0.7347 0.0298 -0.6777
vn -0.7456 0.3903 0.5402
vn -0.8129 0.1090 0.5721
vn -0.1141 0.5872 0.8014
vn -0.4717 0.7044 0.5305
vn -0.5830 -0.6258 0.5182
vn -0.5676 -0.5823 0.5820
vn -0.0000 -0.4000 0.9165
vn -0.0000 -0.6225 0.7827
vn -0.0000 0.1512 0.9885
vn 0.0276 0.8234 0.5667
vn -0.3052 0.8815 0.3604
vn -0.4283 -0.6886 0.5851
vn -0.0000 -0.9680 0.2509
vn -0.0000 -0.7812 0.6243
vn -0.0000 0.8701 0.4929
vn -0.4220 0.8517 -0.3107
vn -0.5382 0.0145 -0.8427
vn -0.4093 -0.0936 -0.9076
vn -0.0000 0.4022 -0.9155
vn 0.5623 0.8232 -0.0786
vn 0.3991 0.5921 0.7001
vn -0.2755 0.9516 0.1365
vn -0.0000 0.2957 0.9553
vn 0.8484 0.2422 -0.4706
vn 0.4038 0.4066 0.8195
vn -0.6889 0.1220 0.7145
vn -0.6027 0.3913 0.6954
vn 0.2192 0.1052 -0.9700
vn 0.4517 0.3889 -0.8030
vn -0.5963 0.2037 0.7765
vn 0.0534 -0.7390 -0.6716
vn -0.0967 -0.6040 -0.7911
vn 0.1446 -0.2766 -0.9501
vn -0.3349 0.0311 -0.9417
vn 0.0812 0.3029 -0.9496
vn -0.2289 -0.1940 -0.9539
vn -0.2208 -0.3082 -0.9253
vn -0.5599 0.2433 0.7920
vn -0.3548 0.1371 0.9248
vn -0.2058 0.3558 0.9116
vn -0.8912 0.1116 0.4397
vn -0.0000 -0.7866 0.6175
vn -0.5535 -0.7162 0.4250
vn -0.3702 -0.9209 0.1219
vn -0.6185 0.3151 0.7199
vn -0.0000 -0.0785 0.9969
vn -0.5233 0.2088 0.8261
vn -0.5357 -0.0667 0.8418
vn -0.9431 -0.0395 0.3300
vn -0.9319 0.1692 0.3208
vn -0.9390 -0.0411 -0.3416
vn -0.9257 0.1935 -0.3250
vn -0.7719 -0.0545 -0.6335
vn -0.0000 -0.4497 0.8932
vn -0.4876 -0.4647 0.7391
vn -0.8526 -0.3406 0.3963
vn -0.8501 -0.3394 -0.4027
vn -0.5643 -0.5006 -0.6565
vn -0.2915 -0.8284 0.4783
vn -0.0000 -0.8074 0.5900
vn -0.3752 -0.8899 0.2595
vn -0.3757 -0.8887 -0.2627
vn -0.2952 -0.8253 -0.4814
vn -0.0000 -0.6008 -0.7994
vn -0.0000 -0.8074 -0.5900
vn -0.0000 -1.0000 -0.0000
vn -0.0000 -0.5653 0.8249
vn -0.0000 0.2029 0.9792
vn -0.6283 -0.4635 0.6248
vn -0.8307 -0.2011 0.5192
vn -0.7089 0.2980 0.6393
vn -0.9298 0.1981 0.3101
vn -0.8040 0.1993 -0.5603
vn -0.9304 0.2478 -0.2702
vn -0.2269 -0.0273 -0.9735
vn -0.0000 0.0997 -0.9950
vn -0.5513 0.0602 -0.8321
vn -0.4359 -0.8981 0.0588
vn -0.4440 -0.6107 0.6556
vn -0.2014 -0.9794 -0.0115
vn -0.2444 -0.6958 0.6754
vn 0.2233 0.6978 -0.6806
vn -0.0660 0.0004 -0.9978
vn 0.0939 0.0680 -0.9933
vn -0.0887 0.8839 0.4592
vn -0.0100 0.4332 -0.9012
vn -0.0574 0.5066 0.8603
vn 0.1401 -0.0840 -0.9866
vn 0.3120 0.6052 0.7324
vn 0.5641 0.5004 -0.6568
vn -0.5963 -0.4030 0.6943
vn -0.0115 0.0156 -0.9998
vn 0.0047 0.0221 -0.9997
vn -0.0002 0.0282 -0.9996
vn 0.0453 -0.2849 0.9575
vn 0.2101 -0.9058 0.3679
vn -0.0276 -0.0247 0.9993
vn 0.0143 -0.0225 -0.9996
vn -0.0245 0.0609 -0.9978
vn 0.0151 -0.0265 -0.9995
vn -0.2350 0.8710 0.4314
vn -0.2625 0.9079 0.3268
vn -0.4774 0.6688 0.5700
vn -0.7463 -0.1170 -0.6553
vn 0.7132 -0.7009 0.0064
vn 0.0527 -0.7509 -0.6584
vn 0.1024 -0.4563 0.8839
vn 0.2324 -0.9726 -0.0000
vn -0.0125 0.0063 -0.9999
vn -0.0172 0.0707 -0.9973
vn -0.2843 0.9524 0.1098
vn -0.1072 0.3173 0.9422
vn -0.0033 0.1719 0.9851
vn -0.0543 0.9285 0.3673
vn -0.3069 0.8518 0.4245
vn 0.0060 -0.0158 -0.9999
vn 0.0039 -0.0178 -0.9998
vn 0.0005 -0.3279 0.9447
vn -0.0516 0.8809 0.4704
vn 0.0035 -0.9933 0.1159
vn -0.0829 0.1198 0.9893
vn -0.6692 0.6321 0.3908
vn 0.0121 -0.0126 -0.9998
vn 0.6005 -0.6599 0.4516
vn -0.2954 -0.3396 0.8930
vn -0.9537 0.1342 0.2691
vn 0.0179 -0.0139 -0.9997
vn 0.0190 -0.0161 -0.9997
vn -0.0256 0.0417 0.9988
vn 0.6725 -0.7219 0.1630
vn 0.3163 -0.3181 0.8937
vn -0.3323 0.3205 0.8870
vn -0.0149 0.0029 -0.9999
vn -0.7195 0.6943 0.0165
vn -0.6838 0.5202 0.5117
vn -0.0413 -0.0617 0.9972
vn 0.7061 -0.5502 0.4457
vn -0.0131 0.0057 -0.9999
vn -0.0152 0.0049 -0.9999
vn -0.7693 0.3251 0.5500
vn -0.1016 -0.4068 0.9078
vn 0.8464 -0.3455 0.4053
vn -0.0230 0.0080 -0.9997
vn -0.0240 0.0086 -0.9997
vn -0.9384 0.1240 0.3224
vn -0.0260 0.0053 0.9996
vn -0.9908 0.0036 0.1356
vn -0.8313 -0.0558 0.5530
vn 0.3719 -0.0296 0.9278
vn -0.8421 -0.0033 0.5393
vn -0.0098 -0.0086 -0.9999
vn -0.0308 -0.0138 -0.9994
vn -0.0094 -0.0085 -0.9999
vn 0.9911 -0.0426 0.1260
vn -0.7036 -0.4220 0.5717
vn -0.0103 -0.0016 -0.9999
vn 0.1359 -0.3336 0.9329
vn 0.8609 0.0684 0.5042
vn -0.0172 0.0111 -0.9998
vn 0.0031 0.0355 -0.9994
vn -0.0453 0.0265 -0.9986
vn 0.1258 0.0702 0.9896
vn 0.0462 0.0504 0.9977
vn 0.2565 0.1358 0.9570
vn 0.0205 0.0276 0.9994
vn -0.8690 -0.4766 0.1327
vn -0.8512 -0.4218 0.3125
vn -0.2666 -0.1207 0.9562
vn -0.0068 -0.0307 -0.9995
vn -0.0064 -0.0360 -0.9993
vn 0.8952 0.4436 0.0428
vn -0.7405 -0.6334 0.2248
vn -0.0483 -0.0783 -0.9958
vn -0.0500 -0.0790 -0.9956
vn 0.2026 -0.4443 0.8727
vn 0.8577 0.4335 0.2764
vn -0.2866 0.2775 0.9170
vn -0.6694 0.4724 0.5733
vn -0.2849 0.3795 0.8803
vn 0.2362 0.2905 0.9273
vn 0.6995 -0.1104 0.7061
vn 0.9603 -0.2791 -0.0000
vn 0.1297 0.1458 -0.9808
vn 0.0973 0.1062 -0.9896
vn 0.1007 0.1132 -0.9885
vn -0.2398 0.3492 0.9058
vn -0.5452 0.4557 0.7036
vn 0.5717 -0.0560 0.8185
vn 0.0457 0.0491 -0.9977
vn 0.0401 0.0519 -0.9978
vn -0.6625 0.3580 0.6580
vn -0.5391 -0.8377 0.0873
vn -0.5814 -0.8132 0.0278
vn -0.5354 -0.6874 -0.4907
vn -0.2333 -0.0826 -0.9689
vn -0.2474 -0.1138 -0.9622
vn -0.2481 -0.1152 -0.9619
vn 0.4032 0.4606 0.7908
vn 0.0196 -0.1605 0.9868
vn 0.5406 0.8410 0.0228
vn 0.5454 0.7830 0.2991
vn -0.0223 0.0736 0.9970
vn -0.0223 0.0453 -0.9987
vn -0.0157 0.0315 -0.9994
vn 0.0179 0.0751 0.9970
vn 0.0086 0.0300 -0.9995
vn 0.0238 0.0363 -0.9991
vn -0.9478 -0.2196 0.2311
vn -0.9759 -0.0904 0.1986
vn -0.4619 -0.7843 0.4142
vn -0.4190 -0.9061 0.0589
vn -0.3886 -0.9195 0.0600
vn -0.0000 -0.5045 -0.8634
vn -0.6738 -0.6567 0.3386
vn -0.5417 -0.8108 0.2217
vn -0.0000 -0.9718 -0.2356
vn -0.0000 -0.6228 0.7824
vn -0.0000 -0.6420 0.7667
vn -0.0161 0.0674 0.9976
vn -0.7098 -0.6998 0.0801
vn -0.6950 -0.7181 0.0351
vn 0.6002 0.4546 -0.6581
vn -0.5337 -0.2694 0.8016
vn -0.0003 0.0076 1.0000
vn -0.0012 0.0047 1.0000
vn 0.0036 0.0143 0.9999
vn -0.0035 0.0008 1.0000
vn -0.0036 0.0015 1.0000
vn -0.0191 0.0912 0.9956
vn -0.0258 0.0911 0.9955
vn -0.0034 0.0915 0.9958
vn -0.0420 0.0908 0.9950
vn 0.0091 -0.0011 1.0000
vn -0.0017 0.0017 1.0000
vn 0.0198 -0.0025 0.9998
vn -0.0091 0.0026 1.0000
vn -0.0091 0.0020 1.0000
vn -0.0090 0.0046 0.9999
vn -0.0079 0.0060 1.0000
vn 0.0311 0.0088 0.9995
vn 0.0099 0.0234 0.9997
vn 0.0282 0.0149 0.9995
vn -0.0296 0.0457 0.9985
vn -0.0006 0.0269 0.9996
vn 0.3600 0.1023 0.9273
vn 0.0908 0.0418 0.9950
vn 0.0177 0.0093 0.9998
vn 0.3018 -0.0868 0.9494
vn 0.5262 0.2908 0.7991
vn 0.3717 0.1783 0.9111
vn -0.4746 -0.8802 0.0024
vn -0.8727 0.1376 -0.4686
vn -0.7614 0.3238 -0.5616
vn 0.3267 0.0408 0.9442
vn 0.3340 -0.1464 0.9311
vn -0.7556 0.1234 -0.6433
vn -0.0000 0.0466 0.9989
vn -0.0000 -0.1210 0.9927
vn -0.0000 -0.1809 0.9835
vn -0.4097 -0.9118 0.0269
vn -0.4612 -0.8860 0.0483
vn 0.6072 0.5590 0.5647
vn 0.2971 0.6116 0.7333
vn 0.6078 0.1352 0.7825
vn 0.3331 0.1273 0.9342
vn 0.5653 0.4307 0.7035
vn 0.6809 -0.3625 0.6364
vn 0.5689 0.0129 0.8223
vn 0.4238 -0.3971 0.8140
vn 0.7511 -0.1614 -0.6401
vn 0.8675 -0.4500 -0.2118
vn 0.8188 -0.3962 -0.4155
vn 0.9461 0.1537 -0.2849
vn 0.6937 0.5250 -0.4931
vn 0.9488 -0.0067 0.3159
vn 0.7812 0.1594 0.6036
vn 0.7315 -0.1914 -0.6545
vn 0.7115 0.2932 -0.6386
vn 0.3256 0.7215 -0.6111
vn 0.6412 -0.7630 0.0814
vn 0.6850 -0.7139 0.1457
vn 0.9315 -0.2982 0.2082
vn 0.2763 0.9106 -0.3073
vn 0.7578 0.0205 0.6521
vn 0.9574 -0.0377 0.2864
vn 0.9542 -0.1058 -0.2798
vn 0.4658 0.4540 0.7596
vn 0.5284 0.6083 0.5923
vn 0.3665 0.6816 0.6333
vn 0.8129 0.1090 0.5721
vn 0.4899 0.8320 0.2604
vn 0.2805 0.8377 0.4685
vn 0.7958 -0.1189 0.5938
vn 0.7445 0.5731 0.3424
vn 0.4717 0.7044 0.5305
vn 0.5372 0.0463 0.8422
vn 0.7580 0.0180 0.6520
vn 0.3535 0.0001 -0.9354
vn 0.7347 0.0298 -0.6777
vn 0.3653 0.3980 -0.8415
vn 0.7456 0.3903 0.5402
vn 0.1141 0.5872 0.8014
vn 0.7609 -0.1821 0.6227
vn 0.5830 -0.6258 0.5182
vn 0.5676 -0.5823 0.5820
vn -0.0276 0.8255 0.5638
vn 0.3187 0.8777 0.3578
vn 0.4283 -0.6886 0.5851
vn 0.3702 -0.9209 0.1219
vn -0.0000 0.6427 0.7662
vn 0.4220 0.8517 -0.3107
vn 0.5382 0.0145 -0.8427
vn -0.0000 -0.0189 -0.9998
vn -0.0000 0.7348 -0.6783
vn -0.5623 0.8232 -0.0786
vn -0.3991 0.5921 0.7001
vn 0.2755 0.9516 0.1365
vn -0.8484 0.2422 -0.4706
vn -0.4038 0.4066 0.8195
vn 0.6028 0.3913 0.6954
vn -0.4517 0.3889 -0.8029
vn -0.2192 0.1052 -0.9700
vn 0.5963 0.2037 0.7765
vn 0.0967 -0.6040 -0.7911
vn -0.0534 -0.7390 -0.6716
vn -0.1446 -0.2766 -0.9501
vn -0.0812 0.3029 -0.9496
vn 0.3349 0.0311 -0.9417
vn 0.2289 -0.1940 -0.9539
vn 0.2208 -0.3082 -0.9253
vn 0.3548 0.1371 0.9248
vn 0.5600 0.2433 0.7920
vn 0.2059 0.3558 0.9116
vn 0.8912 0.1116 0.4397
vn 0.6889 0.1220 0.7145
vn 0.5535 -0.7162 0.4250
vn 0.6185 0.3151 0.7199
vn 0.6370 0.6551 0.4063
vn 0.5233 0.2088 0.8261
vn 0.5357 -0.0667 0.8418
vn 0.9431 -0.0395 0.3300
vn 0.9319 0.1692 0.3208
vn 0.9389 -0.0411 -0.3416
vn 0.9257 0.1935 -0.3250
vn 0.7718 -0.0545 -0.6335
vn 0.7556 0.1234 -0.6433
vn 0.4877 -0.4647 0.7391
vn 0.8526 -0.3406 0.3963
vn 0.8501 -0.3394 -0.4027
vn 0.5643 -0.5006 -0.6565
vn 0.2915 -0.8284 0.4783
vn 0.3752 -0.8899 0.2595
vn 0.3757 -0.8887 -0.2627
vn 0.2952 -0.8253 -0.4814
vn 0.6283 -0.4635 0.6248
vn 0.8307 -0.2011 0.5192
vn 0.7089 0.2980 0.6393
vn 0.9298 0.1981 0.3101
vn 0.9304 0.2478 -0.2702
vn 0.8040 0.1993 -0.5603
vn 0.2269 -0.0273 -0.9735
vn 0.5513 0.0602 -0.8321
vn 0.4359 -0.8981 0.0588
vn 0.4440 -0.6107 0.6556
vn 0.2014 -0.9794 -0.0115
vn 0.4746 -0.8802 0.0024
vn -0.2233 0.6978 -0.6806
vn 0.0659 0.0004 -0.9978
vn 0.0100 0.4332 -0.9012
vn 0.0887 0.8839 0.4592
vn 0.0575 0.5066 0.8603
vn 0.2444 -0.6958 0.6754
vn -0.1401 -0.0840 -0.9866
vn -0.0939 0.0680 -0.9933
vn -0.3119 0.6052 0.7324
vn -0.5642 0.5004 -0.6567
vn 0.5963 -0.4030 0.6943
vn -0.0047 0.0221 -0.9997
vn 0.0115 0.0156 -0.9998
vn 0.0002 0.0282 -0.9996
vn -0.2101 -0.9058 0.3679
vn -0.0453 -0.2849 0.9575
vn 0.0276 -0.0247 0.9993
vn -0.0143 -0.0225 -0.9996
vn 0.0245 0.0609 -0.9978
vn 0.0172 0.0707 -0.9973
vn 0.2350 0.8710 0.4314
vn 0.4774 0.6688 0.5700
vn 0.7463 -0.1170 -0.6553
vn -0.4542 0.2711 0.8487
vn -0.7132 -0.7009 0.0064
vn -0.0527 -0.7509 -0.6584
vn -0.1024 -0.4563 0.8839
vn 0.0125 0.0063 -0.9999
vn 0.2843 0.9524 0.1098
vn 0.1072 0.3173 0.9422
vn 0.0033 0.1719 0.9851
vn 0.0543 0.9285 0.3673
vn 0.0516 0.8809 0.4704
vn -0.0060 -0.0158 -0.9999
vn 0.0157 0.0315 -0.9994
vn -0.0005 -0.3279 0.9447
vn -0.0035 -0.9933 0.1159
vn 0.0829 0.1198 0.9893
vn 0.3069 0.8518 0.4245
vn -0.0121 -0.0126 -0.9998
vn -0.0039 -0.0178 -0.9998
vn -0.6005 -0.6599 0.4516
vn -0.2439 -0.8676 0.4334
vn 0.2954 -0.3396 0.8930
vn 0.6692 0.6321 0.3908
vn -0.0179 -0.0139 -0.9997
vn -0.0123 -0.0105 -0.9999
vn -0.6725 -0.7219 0.1630
vn 0.0256 0.0417 0.9988
vn -0.3163 -0.3181 0.8937
vn 0.3324 0.3205 0.8870
vn 0.0149 0.0029 -0.9999
vn 0.7195 0.6943 0.0165
vn -0.7061 -0.5502 0.4457
vn 0.0413 -0.0617 0.9972
vn 0.0131 0.0057 -0.9999
vn 0.0145 0.0038 -0.9999
vn 0.7693 0.3251 0.5500
vn 0.6838 0.5202 0.5117
vn -0.8464 -0.3455 0.4053
vn 0.1016 -0.4068 0.9078
vn 0.0230 0.0080 -0.9997
vn 0.0152 0.0049 -0.9999
vn 0.9384 0.1240 0.3224
vn 0.0260 0.0053 0.9996
vn 0.9908 0.0036 0.1356
vn 0.8421 -0.0033 0.5393
vn -0.3719 -0.0296 0.9278
vn 0.0098 -0.0086 -0.9999
vn 0.0308 -0.0138 -0.9994
vn 0.0312 -0.0138 -0.9994
vn -0.9911 -0.0426 0.1260
vn 0.7037 -0.4220 0.5717
vn 0.8313 -0.0558 0.5530
vn 0.0103 -0.0016 -0.9999
vn 0.0094 -0.0085 -0.9999
vn -0.8609 0.0684 0.5042
vn -0.1359 -0.3336 0.9329
vn -0.0032 0.0355 -0.9994
vn 0.0172 0.0111 -0.9998
vn 0.0453 0.0265 -0.9986
vn -0.0462 0.0504 0.9977
vn -0.1258 0.0702 0.9896
vn -0.2565 0.1358 0.9570
vn -0.0205 0.0276 0.9994
vn 0.8690 -0.4766 0.1326
vn 0.2666 -0.1207 0.9562
vn 0.0068 -0.0307 -0.9995
vn -0.0086 0.0300 -0.9995
vn -0.8952 0.4436 0.0428
vn 0.7405 -0.6334 0.2248
vn 0.8512 -0.4218 0.3125
vn 0.0483 -0.0783 -0.9958
vn 0.0064 -0.0360 -0.9993
vn -0.8577 0.4335 0.2764
vn -0.2026 -0.4443 0.8727
vn 0.2866 0.2775 0.9170
vn 0.6694 0.4724 0.5733
vn 0.6625 0.3580 0.6580
vn -0.6995 -0.1104 0.7061
vn -0.2362 0.2905 0.9273
vn -0.9603 -0.2791 -0.0000
vn -0.0973 0.1062 -0.9896
vn -0.1297 0.1458 -0.9808
vn -0.1007 0.1132 -0.9885
vn 0.2398 0.3492 0.9058
vn 0.5452 0.4557 0.7036
vn -0.5717 -0.0560 0.8185
vn -0.0457 0.0491 -0.9977
vn 0.5391 -0.8377 0.0873
vn 0.5814 -0.8132 0.0278
vn -0.0196 -0.1605 0.9868
vn 0.2474 -0.1138 -0.9622
vn 0.2333 -0.0826 -0.9689
vn 0.2481 -0.1152 -0.9619
vn -0.4032 0.4606 0.7908
vn -0.5454 0.7830 0.2991
vn -0.5406 0.8410 0.0228
vn 0.0223 0.0736 0.9970
vn 0.0223 0.0453 -0.9987
vn 0.2849 0.3795 0.8803
vn -0.0179 0.0751 0.9970
vn -0.0238 0.0363 -0.9991
vn 0.9478 -0.2196 0.2311
vn 0.9537 0.1342 0.2691
vn 0.9759 -0.0904 0.1986
vn 0.4619 -0.7843 0.4142
vn 0.4190 -0.9061 0.0589
vn 0.3886 -0.9195 0.0600
vn -0.0000 -0.9990 -0.0456
vn 0.6738 -0.6567 0.3386
vn 0.5417 -0.8108 0.2217
vn 0.0161 0.0674 0.9976
vn -0.0401 0.0519 -0.9978
vn 0.7098 -0.6998 0.0801
vn 0.5337 -0.2694 0.8016
vn -0.6002 0.4546 -0.6581
vn -0.0975 -0.1582 -0.9826
vn -0.3607 0.6175 0.6989
vn 0.0003 0.0076 1.0000
vn 0.0012 0.0047 1.0000
vn 0.0036 0.0015 1.0000
vn 0.0035 0.0008 1.0000
vn 0.0258 0.0911 0.9955
vn 0.0191 0.0912 0.9956
vn 0.0034 0.0915 0.9958
vn 0.0420 0.0908 0.9950
vn -0.0091 -0.0011 1.0000
vn 0.0017 0.0017 1.0000
vn 0.0091 0.0020 1.0000
vn 0.0091 0.0026 1.0000
vn 0.0080 0.0060 1.0000
vn 0.0091 0.0046 0.9999
vn -0.0311 0.0088 0.9995
vn -0.0099 0.0234 0.9997
vn 0.0006 0.0269 0.9996
vn 0.0296 0.0457 0.9985
vn -0.0908 0.0418 0.9950
vn -0.3600 0.1023 0.9273
vn -0.0177 0.0093 0.9998
vn -0.3018 -0.0868 0.9494
vn -0.3717 0.1783 0.9111
vn -0.5262 0.2908 0.7991
vn 0.8726 0.1376 -0.4686
vn -0.3267 0.0408 0.9442
vn -0.3340 -0.1464 0.9311
vn 0.4093 -0.0936 -0.9076
vn -0.0000 0.1447 0.9895
vn 0.4097 -0.9118 0.0269
vn 0.4612 -0.8860 0.0483
vn -0.0463 0.2707 0.9616
vn -0.7673 0.3143 0.5590
vn -0.7664 0.2786 0.5788
vn 0.7159 0.1285 0.6863
vn -0.0499 0.3334 0.9415
vn -0.0672 0.1831 0.9808
vn 0.6979 0.0835 0.7113
vn 0.3052 0.8815 0.3604
vn 0.6065 0.7205 0.3363
vn -0.3187 0.8777 0.3578
vn -0.6103 0.7192 0.3322
vn -0.6370 0.6551 0.4064
vn 0.0463 0.2707 0.9616
vn 0.7673 0.3143 0.5590
vn 0.0499 0.3334 0.9415
vn -0.7159 0.1285 0.6863
vn -0.6979 0.0835 0.7113
vn 0.0673 0.1831 0.9808
vn 0.7664 0.2786 0.5788
vn -0.0000 0.1601 -0.9871
vn 0.2381 -0.9081 0.3445
vn 0.4542 0.2711 0.8487
vn 0.2439 -0.8676 0.4334
vn 0.0123 -0.0105 -0.9999
vn 0.7107 -0.6006 0.3664
vn -0.0145 0.0038 -0.9999
vn 0.9188 -0.3287 0.2186
vn -0.0312 -0.0138 -0.9994
vn 0.9129 0.1434 0.3822
vn 0.8719 0.4218 0.2486
vn 0.9829 -0.1842 -0.0000
vn -0.2327 -0.0812 -0.9692
vn 0.5210 0.7732 0.3615
vn 0.0343 0.0423 0.9985
vn 0.0975 -0.1582 -0.9826
vn 0.3607 0.6175 0.6989
vn -0.0033 -0.0005 1.0000
vn -0.0098 0.0021 0.9999
vn -0.2381 -0.9081 0.3445
vn -0.0151 -0.0265 -0.9995
vn 0.2625 0.9079 0.3268
vn -0.2324 -0.9726 -0.0000
vn -0.0190 -0.0161 -0.9997
vn -0.7107 -0.6006 0.3664
vn -0.9188 -0.3287 0.2186
vn 0.0240 0.0086 -0.9997
vn -0.9129 0.1434 0.3822
vn 0.0500 -0.0790 -0.9956
vn -0.8719 0.4218 0.2486
vn -0.9829 -0.1842 -0.0000
vn 0.5354 -0.6874 -0.4907
vn 0.2327 -0.0812 -0.9692
vn -0.5210 0.7732 0.3616
vn -0.0343 0.0423 0.9985
vn 0.6950 -0.7181 0.0351
vn -0.0036 0.0143 0.9999
vn 0.0033 -0.0005 1.0000
vn -0.0197 -0.0025 0.9998
vn 0.0099 0.0021 0.9999
vn -0.0282 0.0149 0.9995
vn 0.7614 0.3238 -0.5616
vt 0.540400 0.410600
vt 0.500700 0.373800
vt 0.481200 0.411000
vt 0.541500 0.377100
vt 0.510100 0.332300
vt 0.535200 0.462400
vt 0.506200 0.491500
vt 0.541300 0.479900
vt 0.484600 0.463200
vt 0.556600 0.384300
vt 0.559000 0.409100
vt 0.570900 0.341700
vt 0.558300 0.471200
vt 0.551000 0.462700
vt 0.596700 0.417800
vt 0.580600 0.333400
vt 0.571500 0.326600
vt 0.600400 0.465500
vt 0.624400 0.352500
vt 0.553700 0.340300
vt 0.631200 0.383200
vt 0.138400 0.728400
vt 0.191800 0.693000
vt 0.152200 0.664000
vt 0.051700 0.662800
vt 0.105000 0.688700
vt 0.085900 0.642400
vt 0.111900 0.590000
vt 0.154500 0.553400
vt 0.088000 0.538500
vt 0.271000 0.548400
vt 0.340900 0.578900
vt 0.327200 0.512400
vt 0.281800 0.688900
vt 0.276600 0.635400
vt 0.216600 0.610200
vt 0.191300 0.648900
vt 0.372100 0.521700
vt 0.349500 0.732100
vt 0.321000 0.662400
vt 0.281200 0.517100
vt 0.214500 0.544000
vt 0.215900 0.558100
vt 0.299300 0.763000
vt 0.218800 0.812800
vt 0.315900 0.803100
vt 0.159400 0.583400
vt 0.274900 0.589000
vt 0.214500 0.586800
vt 0.706900 0.852500
vt 0.664800 0.828000
vt 0.679300 0.866100
vt 0.172300 0.615900
vt 0.179600 0.756800
vt 0.227500 0.713200
vt 0.064300 0.599600
vt 0.082600 0.622800
vt 0.091600 0.593400
vt 0.132200 0.626400
vt 0.456600 0.592400
vt 0.396000 0.639700
vt 0.445800 0.655900
vt 0.374000 0.695200
vt 0.333400 0.629700
vt 0.238100 0.662600
vt 0.231100 0.631600
vt 0.035700 0.625900
vt 0.054900 0.614900
vt 0.046000 0.567600
vt 0.072400 0.548600
vt 0.045100 0.517500
vt 0.042000 0.526100
vt 0.017600 0.625900
vt 0.042300 0.641200
vt 0.056700 0.632800
vt 0.105600 0.510500
vt 0.078800 0.457300
vt 0.056600 0.496300
vt 0.161200 0.795100
vt 0.273100 0.706000
vt 0.408400 0.532400
vt 0.401000 0.581800
vt 0.418300 0.724300
vt 0.652000 0.870300
vt 0.629800 0.830300
vt 0.222200 0.769900
vt 0.074300 0.710200
vt 0.415100 0.764500
vt 0.457400 0.682400
vt 0.475600 0.615100
vt 0.723900 0.804500
vt 0.592900 0.897600
vt 0.658900 0.893500
vt 0.706300 0.712000
vt 0.218300 0.857400
vt 0.287900 0.925900
vt 0.378500 0.805500
vt 0.612300 0.957300
vt 0.648100 0.921800
vt 0.519500 0.977500
vt 0.400800 0.974000
vt 0.517000 0.570200
vt 0.655600 0.606000
vt 0.564000 0.525100
vt 0.473800 0.563900
vt 0.014800 0.554800
vt 0.152000 0.518300
vt 0.125100 0.481800
vt 0.467300 0.504200
vt 0.421200 0.304400
vt 0.335900 0.252700
vt 0.345800 0.302200
vt 0.272900 0.308600
vt 0.262900 0.259600
vt 0.209600 0.329000
vt 0.196300 0.279300
vt 0.145700 0.363100
vt 0.409000 0.382100
vt 0.342200 0.365000
vt 0.282400 0.367800
vt 0.237400 0.382800
vt 0.195700 0.426500
vt 0.340100 0.418400
vt 0.378000 0.438200
vt 0.300800 0.415600
vt 0.269000 0.427700
vt 0.247100 0.459000
vt 0.188900 0.501300
vt 0.244100 0.501300
vt 0.315900 0.484900
vt 0.399600 0.211100
vt 0.410500 0.244200
vt 0.305400 0.195800
vt 0.241200 0.185900
vt 0.278100 0.211900
vt 0.250700 0.218000
vt 0.155200 0.257300
vt 0.196900 0.243800
vt 0.096400 0.260000
vt 0.077300 0.325300
vt 0.123300 0.267900
vt 0.290300 0.149800
vt 0.107600 0.072200
vt 0.017600 0.012400
vt 0.015800 0.097600
vt 0.125500 0.153500
vt 0.063500 0.223900
vt 0.144600 0.192400
vt 0.012800 0.136800
vt 0.040700 0.186600
vt 0.106100 0.100000
vt 0.286100 0.138300
vt 0.274600 0.078700
vt 0.280400 0.114100
vt 0.269500 0.058300
vt 0.738900 0.299600
vt 0.731400 0.314000
vt 0.748200 0.307000
vt 0.585000 0.040000
vt 0.576600 0.153900
vt 0.587500 0.152400
vt 0.922900 0.295800
vt 0.918800 0.220500
vt 0.917300 0.300500
vt 0.598000 0.149600
vt 0.595400 0.040700
vt 0.427800 0.365300
vt 0.395300 0.418200
vt 0.444600 0.505700
vt 0.415500 0.477100
vt 0.581400 0.305400
vt 0.566900 0.304800
vt 0.908600 0.123300
vt 0.927300 0.222600
vt 0.605400 0.269600
vt 0.593000 0.279600
vt 0.876400 0.040900
vt 0.990900 0.052500
vt 0.873800 0.030800
vt 0.962200 0.215900
vt 0.949600 0.212400
vt 0.962600 0.062900
vt 0.991800 0.063300
vt 0.954400 0.070600
vt 0.717000 0.093700
vt 0.712400 0.084300
vt 0.897000 0.385800
vt 0.722200 0.103100
vt 0.704200 0.100200
vt 0.699300 0.091700
vt 0.892800 0.416700
vt 0.888100 0.402600
vt 0.632700 0.175400
vt 0.620400 0.309300
vt 0.632100 0.313700
vt 0.641800 0.305400
vt 0.789900 0.174400
vt 0.653100 0.304700
vt 0.640700 0.175100
vt 0.632200 0.066500
vt 0.624600 0.175300
vt 0.850700 0.090800
vt 0.860500 0.091000
vt 0.640900 0.070900
vt 0.631000 0.047500
vt 0.624000 0.065500
vt 0.864900 0.076100
vt 0.874600 0.070600
vt 0.639000 0.050200
vt 0.538100 0.245500
vt 0.523800 0.037400
vt 0.529800 0.246600
vt 0.544600 0.042300
vt 0.537100 0.032600
vt 0.889900 0.008200
vt 0.689100 0.039500
vt 0.889800 0.017700
vt 0.557900 0.048800
vt 0.542400 0.315000
vt 0.986700 0.015900
vt 0.993200 0.025700
vt 0.551600 0.313800
vt 0.546300 0.245200
vt 0.973800 0.109900
vt 0.965900 0.070200
vt 0.960300 0.107200
vt 0.496300 0.291900
vt 0.497800 0.309000
vt 0.502500 0.288800
vt 0.500200 0.148900
vt 0.521100 0.292900
vt 0.511700 0.148600
vt 0.509700 0.298600
vt 0.984300 0.321600
vt 0.972900 0.323200
vt 0.490600 0.284500
vt 0.502900 0.059600
vt 0.983000 0.452800
vt 0.973500 0.464400
vt 0.492000 0.057000
vt 0.488700 0.149000
vt 0.087600 0.378500
vt 0.136900 0.386600
vt 0.111600 0.357800
vt 0.024000 0.461400
vt 0.047400 0.397900
vt 0.022700 0.394300
vt 0.726500 0.352200
vt 0.736900 0.336000
vt 0.723100 0.332600
vt 0.063900 0.416200
vt 0.090100 0.439200
vt 0.059500 0.344500
vt 0.727200 0.320800
vt 0.747900 0.324800
vt 0.121300 0.409000
vt 0.450700 0.051800
vt 0.466200 0.241900
vt 0.466600 0.035300
vt 0.372700 0.014000
vt 0.644200 0.026000
vt 0.685300 0.008600
vt 0.429100 0.058700
vt 0.452500 0.253000
vt 0.428300 0.274100
vt 0.441900 0.275000
vt 0.592100 0.323300
vt 0.891100 0.094100
vt 0.903500 0.077400
vt 0.104600 0.322400
vt 0.986900 0.094400
vt 0.992700 0.074700
vt 0.693300 0.096700
vt 0.637300 0.039100
vt 0.549200 0.324200
vt 0.501400 0.050400
vt 0.354700 0.181700
vt 0.024800 0.934900
vt 0.073700 0.852000
vt 0.033600 0.768400
vt 0.144700 0.994600
vt 0.148000 0.886000
vt 0.165000 0.819800
vt 0.640300 0.320200
vt 0.357800 0.015900
vt 0.270600 0.022000
vt 0.364500 0.099800
vt 0.365300 0.048500
vt 0.805400 0.548900
vt 0.675900 0.482000
vt 0.729700 0.727400
vt 0.809500 0.362100
vt 0.806100 0.396500
vt 0.884100 0.386600
vt 0.836800 0.371500
vt 0.823400 0.575200
vt 0.829800 0.222500
vt 0.757300 0.762200
vt 0.876400 0.829600
vt 0.828300 0.622800
vt 0.969400 0.963700
vt 0.723200 0.853700
vt 0.732000 0.962100
vt 0.737100 0.984500
vt 0.992200 0.713600
vt 0.889700 0.755200
vt 0.966900 0.934600
vt 0.845200 0.651400
vt 0.984100 0.599600
vt 0.883100 0.477000
vt 0.943500 0.356100
vt 0.935000 0.354400
vt 0.965100 0.495700
vt 0.839700 0.563000
vt 0.862700 0.592300
vt 0.110200 0.015800
vt 0.184300 0.219900
vt 0.145300 0.232300
vt 0.926700 0.528800
vt 0.950300 0.508400
vt 0.128600 0.302700
vt 0.956400 0.563400
vt 0.980200 0.542000
vt 0.994000 0.527700
vt 0.342100 0.134400
vt 0.214600 0.516200
vt 0.082100 0.619900
vt 0.035900 0.645700
vt 0.058100 0.633200
vt 0.110100 0.758600
vt 0.465300 0.545700
vt 0.378900 0.768800
vt 0.082900 0.624400
vt 0.448600 0.304400
vt 0.878700 0.050700
vt 0.907900 0.392900
vt 0.782700 0.170600
vt 0.676700 0.029300
vt 0.406700 0.198500
vt 0.371800 0.121800
vt 0.369500 0.066700
vt 0.869700 0.630800
vt 0.205800 0.925800
vt 0.152600 0.984100
vt 0.163600 0.919900
vt 0.271700 0.967000
vt 0.214200 0.989900
vt 0.192900 0.837000
vt 0.244600 0.908300
vt 0.057000 0.307700
vt 0.574700 0.037200
vt 0.703200 0.111600
vt 0.623300 0.040500
vt 0.560700 0.319200
vt 0.480700 0.054200
vt 0.024800 0.339900
vt 0.370100 0.028100
vt 0.405600 0.042600
vt 0.511500 0.308600
vt 0.632100 0.376800
vt 0.989100 0.988600
s 1
usemtl mat_0-tietu.jpg
f 1/1/1 2/2/2 3/3/3
f 4/4/4 5/5/5 2/2/2
f 6/6/6 7/7/7 8/8/8
f 9/1/9 10/9/10 6/6/6
f 11/10/11 12/1/12 13/11/13
f 14/12/14 4/4/4 11/10/11
f 15/13/15 6/6/6 8/8/8
f 15/13/15 16/14/16 6/6/6
f 17/15/17 11/10/11 13/11/13
f 14/12/14 18/16/18 19/17/19
f 13/11/13 20/18/20 17/15/17
f 14/12/14 21/19/21 18/16/18
f 14/12/14 19/17/19 22/20/22
f 16/14/16 23/1/23 6/6/6
f 17/15/17 24/21/24 11/10/11
f 25/2/25 26/1/26 27/3/27
f 28/5/28 29/4/29 25/2/25
f 30/6/30 31/7/31 32/9/32
f 26/1/26 32/9/32 27/3/27
f 33/10/33 26/1/26 29/4/29
f 34/12/34 29/4/29 35/20/35
f 30/6/30 36/13/36 37/8/37
f 38/14/38 36/13/36 30/6/30
f 33/10/33 39/15/39 40/11/40
f 41/16/41 34/12/34 42/17/42
f 43/18/43 40/11/40 39/15/39
f 34/12/34 44/19/44 33/10/33
f 42/17/42 34/12/34 35/20/35
f 26/1/26 38/14/38 30/6/30
f 45/21/45 39/15/39 33/10/33
f 46/1/46 4/4/4 2/2/2
f 4/4/4 22/20/22 5/5/5
f 6/6/6 10/9/10 7/7/7
f 47/1/47 3/3/3 10/9/10
f 11/10/11 4/4/4 48/1/12
f 14/12/14 22/20/22 4/4/4
f 13/11/13 16/14/16 20/18/20
f 14/12/14 11/10/11 21/19/21
f 16/14/16 13/11/13 49/1/48
f 25/2/25 29/4/29 26/1/26
f 28/5/28 35/20/35 29/4/29
f 30/6/30 37/8/37 31/7/31
f 26/1/26 30/6/30 32/9/32
f 33/10/33 40/11/40 26/1/26
f 34/12/34 33/10/33 29/4/29
f 43/18/43 38/14/38 40/11/40
f 34/12/34 41/16/41 44/19/44
f 26/1/26 40/11/40 38/14/38
f 50/22/49 51/23/50 52/24/51
f 53/25/52 54/26/53 55/27/54
f 56/28/55 57/29/56 58/30/57
f 59/31/58 60/32/59 61/33/60
f 62/34/61 63/35/62 64/36/63
f 51/23/50 65/37/64 52/24/51
f 60/32/59 66/38/65 61/33/60
f 67/39/66 68/40/67 62/34/61
f 61/33/60 69/41/68 59/31/58
f 70/42/69 57/29/56 71/43/70
f 72/44/71 73/45/72 74/46/73
f 75/47/74 71/43/70 57/29/56
f 76/48/75 77/49/76 64/36/63
f 78/50/77 79/51/78 80/52/79
f 65/37/64 64/36/63 81/53/80
f 82/54/81 83/55/82 51/23/50
f 84/56/83 85/57/84 86/58/85
f 87/59/86 75/47/74 56/28/55
f 76/48/75 64/36/63 63/35/62
f 52/24/51 81/53/80 87/59/86
f 88/60/87 89/61/88 90/62/89
f 91/63/90 92/64/91 68/40/67
f 77/49/76 81/53/80 64/36/63
f 76/48/75 71/43/70 77/49/76
f 65/37/64 93/65/92 94/66/93
f 84/56/83 95/67/94 96/68/95
f 86/58/85 85/57/84 56/28/55
f 86/58/85 97/69/96 84/56/83
f 98/70/97 99/71/98 100/72/99
f 101/73/100 102/74/101 95/67/94
f 103/75/102 96/68/95 95/67/94
f 54/26/53 52/24/51 55/27/54
f 104/76/103 105/77/104 106/78/105
f 50/22/49 107/79/106 82/54/81
f 108/80/107 72/44/71 67/39/66
f 88/60/87 109/81/108 110/82/109
f 67/39/66 111/83/110 91/63/90
f 112/84/111 79/51/78 113/85/112
f 107/79/106 114/86/113 82/54/81
f 60/32/59 89/61/88 110/82/109
f 89/61/88 111/83/110 90/62/89
f 54/26/53 50/22/49 52/24/51
f 115/87/114 50/22/49 54/26/53
f 116/88/115 113/85/112 117/89/116
f 117/89/116 79/51/78 118/90/117
f 79/51/78 78/50/77 119/91/118
f 120/92/119 121/93/120 112/84/111
f 119/91/118 122/94/121 79/51/78
f 123/95/122 124/96/123 125/97/124
f 62/34/61 108/80/107 67/39/66
f 120/92/119 116/88/115 125/97/124
f 126/98/125 127/99/126 120/92/119
f 128/100/127 126/98/125 120/92/119
f 125/97/124 129/101/128 120/92/119
f 120/92/119 127/99/126 121/93/120
f 130/102/129 131/103/130 132/104/131
f 130/102/129 133/105/132 118/90/117
f 114/86/113 83/55/82 82/54/81
f 114/86/113 108/80/107 83/55/82
f 74/46/73 67/39/66 72/44/71
f 106/78/105 58/30/57 104/76/103
f 129/101/128 128/100/127 120/92/119
f 58/30/57 86/58/85 56/28/55
f 101/73/100 97/69/96 134/106/133
f 135/107/134 136/108/135 104/76/103
f 130/102/129 137/109/136 133/105/132
f 132/104/131 137/109/136 130/102/129
f 130/102/129 118/90/117 79/51/78
f 131/103/130 130/102/129 79/51/78
f 97/69/96 100/72/99 134/106/133
f 112/84/111 80/52/79 79/51/78
f 85/57/84 55/27/54 56/28/55
f 138/110/137 139/111/138 140/112/139
f 139/111/138 141/113/140 140/112/139
f 142/114/141 143/115/142 141/113/140
f 144/116/143 145/117/144 143/115/142
f 146/118/145 140/112/139 147/119/146
f 147/119/146 141/113/140 148/120/147
f 141/113/140 149/121/148 148/120/147
f 143/115/142 150/122/149 149/121/148
f 146/118/145 151/123/150 152/124/151
f 147/119/146 153/125/152 151/123/150
f 154/126/153 150/122/149 155/127/154
f 155/127/154 156/128/155 157/129/156
f 152/124/151 151/123/150 158/130/157
f 151/123/150 153/125/152 158/130/157
f 153/125/152 154/126/153 158/130/157
f 154/126/153 155/127/154 158/130/157
f 155/127/154 157/129/156 158/130/157
f 159/131/158 139/111/138 160/132/159
f 161/133/160 162/134/161 163/135/162
f 164/136/163 144/116/143 142/114/141
f 165/137/164 144/116/143 166/138/165
f 167/139/166 168/140/167 169/141/168
f 161/133/160 170/142/169 162/134/161
f 171/143/170 172/144/171 173/145/172
f 174/146/173 175/147/174 176/148/175
f 174/146/173 177/149/176 178/150/177
f 179/151/178 173/145/172 177/149/176
f 180/152/179 174/146/173 176/148/175
f 181/153/180 174/146/173 182/154/181
f 183/155/182 179/151/178 181/153/180
f 184/156/183 185/157/184 186/158/185
f 187/159/186 188/160/187 189/161/188
f 190/162/189 191/163/190 192/164/191
f 187/159/186 193/165/192 194/166/193
f 3/3/3 195/167/194 196/168/195
f 5/5/5 195/167/194 2/2/2
f 10/9/10 197/169/196 7/7/7
f 3/3/3 198/170/197 10/9/10
f 199/171/198 188/160/187 200/172/199
f 201/173/200 191/163/190 202/174/201
f 203/175/202 189/161/188 204/176/203
f 204/176/203 189/161/188 199/171/198
f 205/177/204 206/178/205 207/179/206
f 208/180/207 201/173/200 209/181/208
f 205/177/204 210/182/209 211/183/210
f 205/177/204 212/184/211 210/182/209
f 213/185/212 207/179/206 214/186/213
f 215/187/214 208/180/207 209/181/208
f 216/188/215 205/177/204 213/185/212
f 217/189/216 214/186/213 218/190/217
f 219/191/218 215/187/214 220/192/219
f 217/189/216 216/188/215 213/185/212
f 221/193/220 222/194/221 223/195/222
f 221/193/220 223/195/222 224/196/223
f 225/197/224 184/156/183 186/158/185
f 221/193/220 226/198/225 227/199/226
f 228/200/227 229/201/228 221/193/220
f 230/202/229 225/197/224 231/203/230
f 232/204/231 221/193/220 227/199/226
f 233/205/232 234/206/233 228/200/227
f 235/207/234 231/203/230 236/208/235
f 237/209/236 228/200/227 232/204/231
f 238/210/237 239/211/238 240/212/239
f 238/210/237 241/213/240 242/214/241
f 243/215/242 244/216/243 245/217/244
f 238/210/237 246/218/245 241/213/240
f 247/219/246 238/210/237 240/212/239
f 248/220/247 245/217/244 249/221/247
f 250/222/248 251/223/249 238/210/237
f 252/224/250 253/225/251 254/226/252
f 255/227/253 256/228/254 257/229/255
f 258/230/256 259/231/257 260/232/258
f 258/230/256 257/229/255 261/233/259
f 262/234/260 252/224/250 263/235/261
f 258/230/256 264/236/262 257/229/255
f 265/237/263 258/230/256 260/232/258
f 266/238/264 263/235/261 267/239/265
f 268/240/266 269/241/267 258/230/256
f 270/242/268 271/243/269 272/244/270
f 273/245/271 274/246/272 275/247/273
f 276/248/274 277/249/275 278/250/276
f 273/245/271 279/251/277 274/246/272
f 273/245/271 280/252/278 279/251/277
f 281/253/279 275/247/273 274/246/272
f 282/254/280 277/249/275 283/255/281
f 274/246/272 270/242/268 281/253/279
f 284/256/282 279/251/277 280/252/278
f 285/257/283 286/258/284 287/259/285
f 288/260/286 289/261/287 290/262/288
f 291/263/289 292/264/290 285/257/283
f 291/263/289 293/265/291 294/266/292
f 295/267/293 204/176/203 199/171/198
f 296/268/294 201/173/200 297/269/295
f 281/253/279 272/244/270 298/270/296
f 253/225/251 299/271/297 300/272/298
f 256/228/254 261/233/259 257/229/255
f 218/190/217 301/273/299 217/189/216
f 233/205/232 237/209/236 302/274/300
f 247/219/246 303/275/301 250/222/248
f 265/237/263 304/276/302 268/240/266
f 159/131/158 305/277/303 161/133/160
f 69/41/68 70/42/69 59/31/58
f 306/278/304 307/279/305 308/280/306
f 306/278/304 309/281/307 307/279/305
f 310/282/308 307/279/305 309/281/307
f 311/283/309 307/279/305 310/282/308
f 76/48/75 92/64/91 60/32/59
f 68/40/67 92/64/91 63/35/62
f 62/34/61 68/40/67 63/35/62
f 50/22/49 82/54/81 51/23/50
f 59/31/58 76/48/75 60/32/59
f 87/59/86 55/27/54 52/24/51
f 56/28/55 55/27/54 87/59/86
f 83/55/82 93/65/92 51/23/50
f 312/284/310 224/196/223 223/195/222
f 185/157/184 283/255/281 186/158/185
f 183/155/182 313/285/311 314/286/312
f 180/152/179 315/287/313 182/154/181
f 315/287/313 181/153/180 182/154/181
f 181/153/180 316/288/314 183/155/182
f 317/289/315 318/290/316 319/291/317
f 320/292/318 318/290/316 321/293/319
f 322/294/320 323/295/321 324/296/322
f 325/297/323 323/295/321 322/294/320
f 326/298/324 327/299/325 328/300/326
f 329/301/327 330/302/328 331/303/329
f 332/304/330 329/301/327 331/303/329
f 333/305/331 334/306/332 335/307/333
f 336/308/334 334/306/332 337/309/335
f 338/310/336 339/311/337 340/312/338
f 338/310/336 341/313/339 339/311/337
f 342/314/340 343/315/341 338/310/336
f 183/155/182 344/316/342 171/143/170
f 165/137/164 345/317/343 346/318/344
f 343/315/341 347/319/345 338/310/336
f 347/319/345 348/320/346 338/310/336
f 348/320/346 341/313/339 338/310/336
f 110/82/109 66/38/65 60/32/59
f 165/137/164 349/321/347 144/116/143
f 70/42/69 71/43/70 59/31/58
f 343/315/341 350/322/348 347/319/345
f 348/320/346 350/322/348 351/323/349
f 352/324/350 348/320/346 351/323/349
f 122/94/121 131/103/130 79/51/78
f 135/107/134 58/30/57 57/29/56
f 170/142/169 305/277/303 353/325/351
f 76/48/75 59/31/58 71/43/70
f 70/42/69 135/107/134 57/29/56
f 70/42/69 354/326/352 135/107/134
f 170/142/169 161/133/160 305/277/303
f 69/41/68 354/326/352 70/42/69
f 163/135/162 162/134/161 164/136/163
f 163/135/162 139/111/138 161/133/160
f 164/136/163 142/114/141 163/135/162
f 102/74/101 103/75/102 95/67/94
f 142/114/141 139/111/138 163/135/162
f 56/28/55 75/47/74 57/29/56
f 355/23/353 356/22/354 357/24/355
f 358/26/356 53/25/52 359/27/357
f 360/29/358 361/28/359 362/30/360
f 363/32/361 364/31/362 365/33/363
f 366/35/364 367/34/365 368/36/366
f 369/37/367 355/23/353 357/24/355
f 370/38/368 363/32/361 365/33/363
f 371/40/369 372/39/370 367/34/365
f 373/41/371 365/33/363 364/31/362
f 360/29/358 374/42/372 375/43/373
f 73/45/72 376/44/374 74/46/73
f 375/43/373 377/47/375 360/29/358
f 378/49/376 379/48/377 368/36/366
f 380/51/378 381/50/379 382/52/380
f 369/37/367 368/36/366 383/66/381
f 384/55/382 385/54/383 355/23/353
f 386/56/384 387/327/385 388/68/386
f 389/59/387 377/47/375 390/53/388
f 368/36/366 379/48/377 366/35/364
f 390/53/388 357/24/355 389/59/387
f 391/61/389 88/60/87 90/62/89
f 392/64/390 393/63/391 371/40/369
f 390/53/388 378/49/376 368/36/366
f 375/43/373 379/48/377 378/49/376
f 394/65/392 369/37/367 383/66/381
f 386/56/384 395/67/393 101/73/100
f 387/327/385 396/58/394 361/28/359
f 396/58/394 397/69/395 398/70/396
f 99/71/98 398/70/396 100/72/99
f 399/328/397 101/73/100 395/67/393
f 387/327/385 400/329/398 388/68/386
f 388/68/386 400/329/398 395/67/393
f 357/24/355 358/26/356 359/27/357
f 401/76/399 105/77/104 402/108/400
f 356/22/354 107/79/106 403/330/401
f 376/44/374 404/80/402 372/39/370
f 88/60/87 405/81/403 406/331/404
f 372/39/370 111/83/110 407/332/405
f 380/51/378 408/84/406 409/85/407
f 107/79/106 410/86/408 73/45/72
f 363/32/361 391/61/389 392/64/390
f 111/83/110 391/61/389 90/62/89
f 356/22/354 358/26/356 357/24/355
f 115/87/114 356/22/354 403/330/401
f 409/85/407 411/88/409 412/89/410
f 412/89/410 380/51/378 409/85/407
f 381/50/379 380/51/378 413/91/411
f 414/93/412 415/92/413 408/84/406
f 416/94/414 413/91/411 380/51/378
f 417/96/415 418/95/416 419/97/417
f 404/80/402 367/34/365 372/39/370
f 411/88/409 415/92/413 419/97/417
f 420/99/418 421/98/419 415/92/413
f 421/98/419 422/100/420 415/92/413
f 419/97/417 423/101/421 417/96/415
f 420/99/418 415/92/413 414/93/412
f 424/103/422 425/102/423 426/104/424
f 427/105/425 425/102/423 428/90/426
f 384/55/382 410/86/408 385/54/383
f 404/80/402 410/86/408 384/55/382
f 74/46/73 372/39/370 407/332/405
f 106/78/105 362/30/360 99/71/98
f 422/100/420 423/101/421 415/92/413
f 396/58/394 362/30/360 361/28/359
f 101/73/100 397/69/395 386/56/384
f 402/108/400 429/107/427 401/76/399
f 430/109/428 425/102/423 427/105/425
f 430/109/428 426/104/424 425/102/423
f 428/90/426 425/102/423 380/51/378
f 425/102/423 424/103/422 380/51/378
f 100/72/99 397/69/395 134/106/133
f 382/52/380 408/84/406 380/51/378
f 431/333/429 361/28/359 359/27/357
f 432/111/430 138/110/137 433/112/431
f 432/111/430 434/113/432 435/114/433
f 435/114/433 436/115/434 437/116/435
f 437/116/435 438/117/436 439/321/437
f 433/112/431 146/118/145 440/119/438
f 434/113/432 440/119/438 441/120/439
f 434/113/432 442/121/440 436/115/434
f 436/115/434 443/122/441 438/117/436
f 146/118/145 444/123/442 440/119/438
f 440/119/438 445/125/443 441/120/439
f 443/122/441 446/126/444 447/127/445
f 156/128/155 447/127/445 157/129/156
f 444/123/442 152/124/151 158/130/157
f 445/125/443 444/123/442 158/130/157
f 446/126/444 445/125/443 158/130/157
f 447/127/445 446/126/444 158/130/157
f 157/129/156 447/127/445 158/130/157
f 159/131/158 432/111/430 448/133/446
f 449/134/447 448/133/446 450/135/448
f 451/136/449 437/116/435 452/138/450
f 437/116/435 453/137/451 452/138/450
f 168/140/167 454/139/452 455/141/453
f 456/142/454 448/133/446 449/134/447
f 457/143/455 458/144/456 459/316/457
f 460/146/458 461/147/459 462/150/460
f 460/146/458 463/149/461 464/151/462
f 464/151/462 465/145/463 457/143/455
f 460/146/458 466/152/464 467/148/465
f 460/146/458 468/153/466 469/154/467
f 464/151/462 470/155/468 468/153/466
f 471/157/469 472/156/470 473/158/471
f 474/160/472 475/159/473 476/161/474
f 477/162/475 478/163/476 479/174/477
f 475/159/473 480/165/478 476/161/474
f 481/167/479 27/3/27 482/168/480
f 28/5/28 481/167/479 483/334/481
f 32/9/32 484/169/482 485/170/483
f 27/3/27 485/170/483 482/168/480
f 486/171/484 474/160/472 476/161/474
f 478/163/476 487/173/485 479/174/477
f 488/175/486 476/161/474 480/165/478
f 476/161/474 489/176/487 486/171/484
f 490/177/488 491/178/489 492/183/490
f 493/180/491 487/173/485 494/269/492
f 495/182/493 490/177/488 492/183/490
f 496/184/494 490/177/488 495/182/493
f 497/185/495 498/179/496 490/177/488
f 493/180/491 499/187/497 500/181/498
f 501/188/499 490/177/488 502/335/500
f 503/189/501 504/186/502 497/185/495
f 505/191/503 499/187/497 506/336/504
f 501/188/499 503/189/501 497/185/495
f 507/194/505 508/193/506 509/195/507
f 509/195/507 508/193/506 510/196/508
f 472/156/470 511/197/509 473/158/471
f 508/193/506 512/198/510 510/196/508
f 513/201/511 514/200/512 508/193/506
f 515/202/513 511/197/509 516/337/514
f 508/193/506 517/204/515 518/199/516
f 519/206/517 520/205/518 514/200/512
f 521/207/519 522/203/520 515/202/513
f 514/200/512 523/209/521 517/204/515
f 524/210/522 525/211/523 526/214/524
f 527/213/525 524/210/522 526/214/524
f 528/215/526 529/216/527 530/338/528
f 531/218/529 524/210/522 527/213/525
f 524/210/522 532/219/530 533/212/531
f 534/220/532 535/217/533 528/215/526
f 536/223/534 537/222/535 524/210/522
f 538/225/536 539/224/537 540/226/538
f 541/228/539 542/227/540 543/229/541
f 544/230/542 545/231/543 546/233/544
f 543/229/541 544/230/542 546/233/544
f 547/234/545 539/224/537 548/271/546
f 549/236/547 544/230/542 543/229/541
f 544/230/542 550/237/548 551/232/549
f 552/238/550 553/235/551 547/234/545
f 554/241/552 555/240/553 544/230/542
f 556/242/554 557/243/555 558/256/556
f 559/246/557 560/245/558 561/247/559
f 562/249/560 563/248/561 564/250/562
f 565/251/563 560/245/558 559/246/557
f 566/252/564 560/245/558 565/251/563
f 561/247/559 567/253/565 559/246/557
f 568/254/566 562/249/560 564/250/562
f 559/246/557 556/242/554 565/251/563
f 565/251/563 558/256/556 566/252/564
f 569/257/567 570/258/568 571/264/569
f 572/261/570 573/260/571 574/262/572
f 575/263/573 571/264/569 576/266/574
f 577/265/575 575/263/573 576/266/574
f 489/176/487 578/267/576 486/171/484
f 487/173/485 579/268/577 494/269/492
f 580/244/578 567/253/565 581/270/579
f 548/271/546 538/225/536 582/272/580
f 546/233/544 541/228/539 543/229/541
f 583/273/581 584/190/582 503/189/501
f 523/209/521 520/205/518 585/274/583
f 586/275/584 532/219/530 537/222/535
f 587/276/585 550/237/548 555/240/553
f 159/131/158 588/277/586 589/339/587
f 374/42/372 373/41/371 364/31/362
f 590/279/588 306/278/304 591/280/589
f 309/281/307 306/278/304 590/279/588
f 590/279/588 310/282/308 309/281/307
f 311/283/309 590/279/588 591/280/589
f 392/64/390 379/48/377 363/32/361
f 392/64/390 371/40/369 366/35/364
f 371/40/369 367/34/365 366/35/364
f 385/54/383 356/22/354 355/23/353
f 379/48/377 364/31/362 363/32/361
f 359/27/357 389/59/387 357/24/355
f 359/27/357 361/28/359 389/59/387
f 394/65/392 384/55/382 355/23/353
f 510/196/508 592/284/590 509/195/507
f 593/255/591 471/157/469 473/158/471
f 470/155/468 594/285/592 595/288/593
f 466/152/464 596/287/594 597/340/595
f 596/287/594 468/153/466 598/341/596
f 468/153/466 595/288/593 598/341/596
f 599/289/597 600/290/598 601/293/599
f 600/290/598 602/292/600 601/293/599
f 603/295/601 604/294/602 605/296/603
f 603/295/601 606/297/604 604/294/602
f 607/298/605 608/299/606 609/302/607
f 610/301/608 609/302/607 608/299/606
f 610/301/608 611/304/609 612/303/610
f 613/305/611 614/306/612 615/309/613
f 614/306/612 616/308/614 615/309/613
f 617/311/615 618/310/616 619/312/617
f 620/313/618 618/310/616 617/311/615
f 621/315/619 622/314/620 618/310/616
f 459/316/457 470/155/468 457/143/455
f 453/137/451 623/317/621 452/138/450
f 624/319/622 621/315/619 618/310/616
f 625/320/623 624/319/622 618/310/616
f 620/313/618 625/320/623 618/310/616
f 626/82/624 370/38/368 405/81/403
f 453/137/451 439/321/437 455/141/453
f 375/43/373 374/42/372 364/31/362
f 621/315/619 350/322/348 627/342/625
f 350/322/348 625/320/623 351/323/349
f 625/320/623 352/324/350 351/323/349
f 424/103/422 416/94/414 380/51/378
f 362/30/360 429/107/427 360/29/358
f 588/277/586 456/142/454 628/325/626
f 364/31/362 379/48/377 375/43/373
f 429/107/427 374/42/372 360/29/358
f 629/326/627 374/42/372 429/107/427
f 448/133/446 456/142/454 588/277/586
f 629/326/627 373/41/371 374/42/372
f 449/134/447 450/135/448 451/136/449
f 432/111/430 450/135/448 448/133/446
f 435/114/433 451/136/449 450/135/448
f 400/329/398 399/328/397 395/67/393
f 432/111/430 435/114/433 450/135/448
f 630/343/628 631/344/629 632/345/630
f 630/343/628 633/346/631 634/347/632
f 632/345/630 635/348/633 630/343/628
f 630/343/628 635/348/633 636/349/634
f 377/47/375 361/28/359 360/29/358
f 103/75/102 55/27/54 85/57/84
f 103/75/102 53/25/52 55/27/54
f 400/329/398 53/25/52 399/328/397
f 431/333/429 359/27/357 400/329/398
f 637/75/635 388/68/386 638/57/636
f 359/27/357 638/57/636 361/28/359
f 637/75/635 102/74/101 395/67/393
f 639/329/637 640/327/638 96/68/95
f 639/329/637 96/68/95 95/67/94
f 641/333/639 56/28/55 640/327/638
f 399/328/397 639/329/637 95/67/94
f 642/343/640 643/344/641 644/347/642
f 642/343/640 645/346/643 646/349/644
f 647/348/645 648/345/646 642/343/640
f 647/348/645 642/343/640 646/349/644
f 359/27/357 637/75/635 638/57/636
f 637/75/635 53/25/52 102/74/101
f 53/25/52 639/329/637 399/328/397
f 55/27/54 641/333/639 639/329/637
f 53/25/52 115/87/114 54/26/53
f 67/39/66 91/63/90 68/40/67
f 72/44/71 114/86/113 73/45/72
f 75/47/74 77/49/76 71/43/70
f 65/37/64 94/66/93 64/36/63
f 84/56/83 96/68/95 85/57/84
f 87/59/86 81/53/80 75/47/74
f 52/24/51 65/37/64 81/53/80
f 88/60/87 110/82/109 89/61/88
f 91/63/90 89/61/88 92/64/91
f 77/49/76 75/47/74 81/53/80
f 65/37/64 51/23/50 93/65/92
f 84/56/83 101/73/100 95/67/94
f 86/58/85 98/70/97 97/69/96
f 98/70/97 58/30/57 99/71/98
f 103/75/102 85/57/84 96/68/95
f 104/76/103 136/108/135 105/77/104
f 50/22/49 403/330/401 107/79/106
f 88/60/87 406/331/404 109/81/108
f 67/39/66 407/332/405 111/83/110
f 107/79/106 73/45/72 114/86/113
f 60/32/59 92/64/91 89/61/88
f 89/61/88 91/63/90 111/83/110
f 115/87/114 403/330/401 50/22/49
f 116/88/115 112/84/111 113/85/112
f 117/89/116 113/85/112 79/51/78
f 120/92/119 112/84/111 116/88/115
f 125/97/124 124/96/123 129/101/128
f 114/86/113 72/44/71 108/80/107
f 74/46/73 407/332/405 67/39/66
f 106/78/105 99/71/98 58/30/57
f 58/30/57 98/70/97 86/58/85
f 101/73/100 84/56/83 97/69/96
f 97/69/96 98/70/97 100/72/99
f 138/110/137 160/132/159 139/111/138
f 139/111/138 142/114/141 141/113/140
f 142/114/141 144/116/143 143/115/142
f 144/116/143 349/321/347 145/117/144
f 146/118/145 138/110/137 140/112/139
f 147/119/146 140/112/139 141/113/140
f 141/113/140 143/115/142 149/121/148
f 143/115/142 145/117/144 150/122/149
f 146/118/145 147/119/146 151/123/150
f 147/119/146 148/120/147 153/125/152
f 154/126/153 149/121/148 150/122/149
f 155/127/154 150/122/149 156/128/155
f 159/131/158 161/133/160 139/111/138
f 164/136/163 166/138/165 144/116/143
f 167/139/166 649/350/647 168/140/167
f 171/143/170 344/316/342 172/144/171
f 174/146/173 178/150/177 175/147/174
f 174/146/173 179/151/178 177/149/176
f 179/151/178 171/143/170 173/145/172
f 180/152/179 182/154/181 174/146/173
f 181/153/180 179/151/178 174/146/173
f 183/155/182 171/143/170 179/151/178
f 187/159/186 650/351/648 188/160/187
f 190/162/189 202/174/201 191/163/190
f 187/159/186 189/161/188 193/165/192
f 3/3/3 2/2/2 195/167/194
f 5/5/5 651/334/649 195/167/194
f 10/9/10 198/170/197 197/169/196
f 3/3/3 196/168/195 198/170/197
f 199/171/198 189/161/188 188/160/187
f 201/173/200 296/268/294 191/163/190
f 203/175/202 193/165/192 189/161/188
f 205/177/204 211/183/210 206/178/205
f 208/180/207 297/269/295 201/173/200
f 205/177/204 652/335/650 212/184/211
f 213/185/212 205/177/204 207/179/206
f 215/187/214 653/336/651 208/180/207
f 216/188/215 652/335/650 205/177/204
f 217/189/216 213/185/212 214/186/213
f 219/191/218 653/336/651 215/187/214
f 217/189/216 654/352/652 216/188/215
f 221/193/220 229/201/228 222/194/221
f 225/197/224 655/337/653 184/156/183
f 221/193/220 224/196/223 226/198/225
f 228/200/227 234/206/233 229/201/228
f 230/202/229 655/337/653 225/197/224
f 232/204/231 228/200/227 221/193/220
f 233/205/232 656/353/654 234/206/233
f 235/207/234 230/202/229 231/203/230
f 237/209/236 233/205/232 228/200/227
f 238/210/237 242/214/241 239/211/238
f 243/215/242 657/338/655 244/216/243
f 238/210/237 251/223/249 246/218/245
f 247/219/246 250/222/248 238/210/237
f 248/220/247 243/215/242 245/217/244
f 250/222/248 658/354/656 251/223/249
f 258/230/256 261/233/259 259/231/257
f 262/234/260 299/271/297 252/224/250
f 258/230/256 269/241/267 264/236/262
f 265/237/263 268/240/266 258/230/256
f 266/238/264 262/234/260 263/235/261
f 268/240/266 659/355/657 269/241/267
f 270/242/268 284/256/282 271/243/269
f 281/253/279 660/356/658 275/247/273
f 282/254/280 278/250/276 277/249/275
f 274/246/272 279/251/277 270/242/268
f 284/256/282 270/242/268 279/251/277
f 285/257/283 292/264/290 286/258/284
f 288/260/286 661/357/659 289/261/287
f 291/263/289 294/266/292 292/264/290
f 291/263/289 662/358/660 293/265/291
f 281/253/279 270/242/268 272/244/270
f 253/225/251 252/224/250 299/271/297
f 256/228/254 663/359/661 261/233/259
f 159/131/158 589/339/587 305/277/303
f 311/283/309 308/280/306 307/279/305
f 76/48/75 63/35/62 92/64/91
f 185/157/184 282/254/280 283/255/281
f 183/155/182 316/288/314 313/285/311
f 180/152/179 664/340/662 315/287/313
f 315/287/313 665/341/663 181/153/180
f 181/153/180 665/341/663 316/288/314
f 317/289/315 321/293/319 318/290/316
f 320/292/318 666/360/664 318/290/316
f 326/298/324 330/302/328 327/299/325
f 329/301/327 327/299/325 330/302/328
f 332/304/330 667/361/665 329/301/327
f 333/305/331 337/309/335 334/306/332
f 183/155/182 314/286/312 344/316/342
f 165/137/164 166/138/165 345/317/343
f 110/82/109 109/81/108 66/38/65
f 165/137/164 169/141/168 349/321/347
f 343/315/341 627/342/625 350/322/348
f 348/320/346 347/319/345 350/322/348
f 352/324/350 341/313/339 348/320/346
f 135/107/134 104/76/103 58/30/57
f 358/26/356 115/87/114 53/25/52
f 371/40/369 393/63/391 372/39/370
f 73/45/72 410/86/408 376/44/374
f 375/43/373 378/49/376 377/47/375
f 369/37/367 390/53/388 368/36/366
f 386/56/384 396/58/394 387/327/385
f 389/59/387 361/28/359 377/47/375
f 390/53/388 369/37/367 357/24/355
f 391/61/389 626/82/624 88/60/87
f 392/64/390 391/61/389 393/63/391
f 390/53/388 377/47/375 378/49/376
f 394/65/392 355/23/353 369/37/367
f 386/56/384 388/68/386 395/67/393
f 396/58/394 386/56/384 397/69/395
f 99/71/98 362/30/360 398/70/396
f 387/327/385 431/333/429 400/329/398
f 401/76/399 106/78/105 105/77/104
f 356/22/354 385/54/383 107/79/106
f 88/60/87 626/82/624 405/81/403
f 372/39/370 393/63/391 111/83/110
f 107/79/106 385/54/383 410/86/408
f 363/32/361 626/82/624 391/61/389
f 111/83/110 393/63/391 391/61/389
f 115/87/114 358/26/356 356/22/354
f 409/85/407 408/84/406 411/88/409
f 412/89/410 428/90/426 380/51/378
f 411/88/409 408/84/406 415/92/413
f 419/97/417 415/92/413 423/101/421
f 404/80/402 376/44/374 410/86/408
f 74/46/73 376/44/374 372/39/370
f 106/78/105 401/76/399 362/30/360
f 396/58/394 398/70/396 362/30/360
f 101/73/100 134/106/133 397/69/395
f 100/72/99 398/70/396 397/69/395
f 431/333/429 387/327/385 361/28/359
f 432/111/430 160/132/159 138/110/137
f 432/111/430 433/112/431 434/113/432
f 435/114/433 434/113/432 436/115/434
f 437/116/435 436/115/434 438/117/436
f 433/112/431 138/110/137 146/118/145
f 434/113/432 433/112/431 440/119/438
f 434/113/432 441/120/439 442/121/440
f 436/115/434 442/121/440 443/122/441
f 146/118/145 152/124/151 444/123/442
f 440/119/438 444/123/442 445/125/443
f 443/122/441 442/121/440 446/126/444
f 156/128/155 443/122/441 447/127/445
f 159/131/158 160/132/159 432/111/430
f 451/136/449 435/114/433 437/116/435
f 168/140/167 649/350/647 454/139/452
f 457/143/455 465/145/463 458/144/456
f 460/146/458 467/148/465 461/147/459
f 460/146/458 462/150/460 463/149/461
f 464/151/462 463/149/461 465/145/463
f 460/146/458 469/154/467 466/152/464
f 460/146/458 464/151/462 468/153/466
f 464/151/462 457/143/455 470/155/468
f 474/160/472 668/351/666 475/159/473
f 477/162/475 669/164/667 478/163/476
f 475/159/473 670/166/668 480/165/478
f 481/167/479 25/2/25 27/3/27
f 28/5/28 25/2/25 481/167/479
f 32/9/32 31/7/31 484/169/482
f 27/3/27 32/9/32 485/170/483
f 486/171/484 671/172/669 474/160/472
f 478/163/476 579/268/577 487/173/485
f 488/175/486 489/176/487 476/161/474
f 490/177/488 498/179/496 491/178/489
f 493/180/491 500/181/498 487/173/485
f 496/184/494 502/335/500 490/177/488
f 497/185/495 504/186/502 498/179/496
f 493/180/491 506/336/504 499/187/497
f 501/188/499 497/185/495 490/177/488
f 503/189/501 584/190/582 504/186/502
f 505/191/503 672/192/670 499/187/497
f 501/188/499 673/352/671 503/189/501
f 507/194/505 513/201/511 508/193/506
f 472/156/470 516/337/514 511/197/509
f 508/193/506 518/199/516 512/198/510
f 513/201/511 519/206/517 514/200/512
f 515/202/513 522/203/520 511/197/509
f 508/193/506 514/200/512 517/204/515
f 519/206/517 674/353/672 520/205/518
f 521/207/519 675/208/673 522/203/520
f 514/200/512 520/205/518 523/209/521
f 524/210/522 533/212/531 525/211/523
f 528/215/526 535/217/533 529/216/527
f 531/218/529 536/223/534 524/210/522
f 524/210/522 537/222/535 532/219/530
f 534/220/532 676/221/532 535/217/533
f 536/223/534 677/354/674 537/222/535
f 544/230/542 551/232/549 545/231/543
f 547/234/545 553/235/551 539/224/537
f 549/236/547 554/241/552 544/230/542
f 544/230/542 555/240/553 550/237/548
f 552/238/550 678/239/675 553/235/551
f 554/241/552 679/355/676 555/240/553
f 556/242/554 580/244/578 557/243/555
f 561/247/559 680/356/677 567/253/565
f 568/254/566 593/255/591 562/249/560
f 559/246/557 567/253/565 556/242/554
f 565/251/563 556/242/554 558/256/556
f 569/257/567 681/259/678 570/258/568
f 572/261/570 682/357/679 573/260/571
f 575/263/573 569/257/567 571/264/569
f 577/265/575 683/358/680 575/263/573
f 580/244/578 556/242/554 567/253/565
f 548/271/546 539/224/537 538/225/536
f 546/233/544 684/359/681 541/228/539
f 159/131/158 448/133/446 588/277/586
f 311/283/309 310/282/308 590/279/588
f 392/64/390 366/35/364 379/48/377
f 593/255/591 568/254/566 471/157/469
f 470/155/468 685/286/682 594/285/592
f 466/152/464 469/154/467 596/287/594
f 596/287/594 469/154/467 468/153/466
f 468/153/466 470/155/468 595/288/593
f 599/289/597 686/291/683 600/290/598
f 600/290/598 687/360/684 602/292/600
f 607/298/605 688/300/685 608/299/606
f 610/301/608 612/303/610 609/302/607
f 610/301/608 689/361/686 611/304/609
f 613/305/611 690/307/687 614/306/612
f 459/316/457 685/286/682 470/155/468
f 453/137/451 691/318/688 623/317/621
f 626/82/624 363/32/361 370/38/368
f 453/137/451 437/116/435 439/321/437
f 621/315/619 624/319/622 350/322/348
f 350/322/348 624/319/622 625/320/623
f 625/320/623 620/313/618 352/324/350
f 362/30/360 401/76/399 429/107/427
f 630/343/628 634/347/632 631/344/629
f 630/343/628 636/349/634 633/346/631
f 103/75/102 102/74/101 53/25/52
f 400/329/398 359/27/357 53/25/52
f 637/75/635 395/67/393 388/68/386
f 639/329/637 641/333/639 640/327/638
f 641/333/639 55/27/54 56/28/55
f 642/343/640 648/345/646 643/344/641
f 642/343/640 644/347/642 645/346/643
f 637/75/635 359/27/357 53/25/52
f 53/25/52 55/27/54 639/329/637
