# Blender 4.3.0
# www.blender.org
mtllib burger.mtl
o model
v 0.210358 0.958693 0.084776
v 0.313996 0.884892 0.252760
v 0.363380 0.880161 0.141146
v 0.503186 0.704174 0.194698
v 0.409982 0.875904 0.035170
v 0.334167 0.874011 -0.115338
v 0.145671 0.963897 -0.047130
v 0.077507 0.963424 0.137764
v 0.156800 0.886784 0.327168
v 0.220791 0.720259 0.477113
v 0.402331 0.705594 0.360427
v 0.534486 0.539068 0.208791
v 0.551179 0.703228 0.010931
v 0.487188 0.715055 -0.178473
v 0.258351 0.872592 -0.265847
v 0.080985 0.969101 -0.179601
v 0.016994 0.965316 0.003039
v -0.055344 0.968628 0.190752
v -0.000395 0.888204 0.401577
v 0.023949 0.708432 0.559978
v 0.237485 0.546165 0.517700
v 0.428762 0.538595 0.389740
v 0.421806 0.480879 0.384666
v 0.525444 0.482298 0.205972
v 0.576219 0.483718 0.008676
v 0.585957 0.540015 0.009240
v 0.525444 0.544745 -0.194820
v 0.234702 0.486083 0.511499
v 0.519184 0.486083 -0.192566
v 0.414155 0.477568 -0.376333
v 0.417633 0.533391 -0.380842
v 0.218705 0.477568 -0.495838
v 0.221487 0.532445 -0.503166
v -0.007350 0.477095 -0.549390
v 0.378682 0.695186 -0.350403
v 0.206185 0.693294 -0.471599
v 0.144976 0.874484 -0.323345
v 0.027427 0.876377 -0.383661
v 0.080985 0.969101 -0.179601
v -0.126290 0.877323 -0.315453
v -0.187499 0.710798 -0.461452
v 0.003778 0.691401 -0.526842
v -0.005264 0.531972 -0.560100
v -0.206279 0.538595 -0.493583
v -0.204192 0.479933 -0.485128
v -0.385036 0.474729 -0.383097
v -0.390601 0.532918 -0.388734
v -0.363474 0.704174 -0.360549
v -0.280008 0.878269 -0.247245
v -0.516496 0.533391 -0.208349
v -0.478240 0.706540 -0.195948
v -0.529016 0.708905 -0.012181
v -0.577705 0.533865 -0.008799
v -0.513714 0.545219 0.203154
v -0.571445 0.474256 -0.006544
v -0.508149 0.482772 0.202590
v -0.397556 0.480879 0.393685
v -0.401730 0.540488 0.397068
v -0.200714 0.540488 0.534047
v -0.197932 0.481825 0.528974
v 0.029514 0.482772 0.583090
v 0.028818 0.540488 0.589854
v -0.186108 0.711271 0.491770
v -0.119335 0.890569 0.341261
v -0.510236 0.474256 -0.204403
v -0.266792 0.893881 0.266289
v -0.366256 0.713636 0.361554
v -0.469894 0.727829 0.182861
v -0.383645 0.878742 -0.017818
v -0.325219 0.886311 0.124235
v -0.111684 0.967209 0.052645
v -0.043519 0.967682 -0.132249
v -0.167328 0.965789 -0.084898
v -0.324523 0.878742 -0.149161
v 0.546311 0.017731 0.017696
v 0.498317 0.017731 0.204845
v 0.499013 0.000700 -0.177346
v 0.405809 0.017731 -0.354912
v 0.396766 0.017731 0.373956
v 0.216618 0.016312 -0.466525
v -0.003177 0.015366 -0.512749
v -0.190977 0.002592 -0.456379
v 0.223573 0.003065 0.492897
v -0.363474 0.017731 -0.364495
v 0.032992 0.015366 0.557159
v -0.490065 0.017731 -0.197639
v -0.551969 0.017731 -0.011617
v -0.189586 0.016312 0.513190
v -0.491456 0.000700 0.197517
v -0.384341 0.017731 0.388612
v -0.004568 0.215007 0.477113
v 0.101852 0.146883 0.531229
v 0.197142 0.179525 0.415106
v 0.219400 0.126067 0.550959
v 0.310518 0.104778 0.515445
v 0.355033 0.134109 0.487260
v 0.337644 0.183310 0.403832
v 0.437109 0.150667 0.422998
v 0.406504 0.162021 0.335624
v 0.529617 0.110455 0.350280
v 0.518488 0.079705 0.435399
v 0.457975 0.095317 0.479368
v 0.315387 0.180472 0.324914
v 0.486493 0.173375 0.182297
v 0.576219 0.086328 0.285454
v 0.569959 0.162021 0.196953
v 0.642297 0.059362 0.267416
v 0.638819 0.132690 0.205409
v 0.718808 0.063620 0.211046
v 0.720199 0.130325 0.116344
v 0.661077 0.184729 0.028970
v 0.412764 0.199395 0.098305
v 0.548397 0.171483 -0.018381
v 0.485102 0.213587 -0.084898
v 0.384942 0.215007 -0.130558
v -0.496325 0.215007 -0.261337
v -0.591616 0.146883 -0.190311
v -0.530407 0.179525 -0.052767
v -0.661867 0.126067 -0.093354
v -0.670213 0.104778 0.003603
v -0.664649 0.134109 0.056591
v -0.582574 0.183310 0.077448
v -0.643782 0.150667 0.158058
v -0.551969 0.162021 0.169332
v -0.619438 0.110455 0.273053
v -0.685516 0.079705 0.193571
v -0.703600 0.095317 0.151857
v -0.501889 0.180472 0.093232
v -0.449723 0.173375 0.309130
v -0.582574 0.086328 0.344080
v -0.500498 0.162021 0.377902
v -0.595789 0.059362 0.411160
v -0.538058 0.132690 0.435399
v -0.577009 0.063620 0.466967
v -0.489369 0.107144 0.505299
v -0.411467 0.136948 0.468658
v -0.341912 0.199395 0.280945
v -0.298092 0.149721 0.454565
v -0.209757 0.213587 0.426944
v -0.124899 0.215007 0.358172
v 0.553962 0.171956 0.017696
v 0.529617 0.302527 -0.192566
v 0.583870 0.305839 0.013750
v 0.576219 0.483718 0.008676
v 0.519184 0.486083 -0.192566
v 0.426675 0.305839 -0.380842
v 0.414155 0.477568 -0.376333
v 0.225660 0.304419 -0.498656
v 0.218705 0.477568 -0.495838
v -0.005959 0.303000 -0.550517
v -0.007350 0.477095 -0.549390
v -0.206279 0.302054 -0.486819
v -0.204192 0.479933 -0.485128
v -0.385036 0.474729 -0.383097
v -0.389210 0.305839 -0.386480
v -0.510236 0.474256 -0.204403
v -0.519974 0.305839 -0.205531
v -0.571445 0.474256 -0.006544
v -0.586747 0.306312 -0.006544
v -0.559620 0.171956 -0.012181
v -0.496325 0.171956 -0.200458
v -0.551969 0.017731 -0.011617
v -0.490065 0.017731 -0.197639
v -0.369039 0.171483 -0.369005
v -0.363474 0.017731 -0.364495
v -0.193759 0.162967 -0.462579
v -0.190977 0.002592 -0.456379
v -0.003873 0.169118 -0.520077
v -0.003177 0.015366 -0.512749
v 0.216618 0.016312 -0.466525
v 0.218705 0.170537 -0.472726
v 0.410678 0.171483 -0.359422
v 0.405809 0.017731 -0.354912
v 0.505273 0.162021 -0.179601
v 0.499013 0.000700 -0.177346
v 0.546311 0.017731 0.017696
v -0.559620 0.171956 -0.012181
v -0.519974 0.303000 0.213864
v -0.586747 0.306312 -0.006544
v -0.571445 0.474256 -0.006544
v -0.508149 0.482772 0.202590
v -0.397556 0.480879 0.393685
v -0.405207 0.305839 0.414542
v -0.197932 0.481825 0.528974
v -0.198628 0.305839 0.544758
v 0.029514 0.482772 0.583090
v 0.036469 0.306312 0.593800
v 0.234702 0.486083 0.511499
v 0.238180 0.303473 0.522773
v 0.422502 0.305839 0.395377
v 0.421806 0.480879 0.384666
v 0.529617 0.305839 0.213864
v 0.525444 0.482298 0.205972
v 0.583870 0.305839 0.013750
v 0.576219 0.483718 0.008676
v 0.553962 0.171956 0.017696
v 0.504577 0.171956 0.207663
v 0.402331 0.171956 0.379029
v 0.396766 0.017731 0.373956
v 0.226356 0.162967 0.499098
v 0.223573 0.003065 0.492897
v 0.032992 0.015366 0.557159
v 0.033687 0.169591 0.565051
v -0.192368 0.170537 0.519955
v -0.189586 0.016312 0.513190
v -0.384341 0.017731 0.388612
v -0.389210 0.171483 0.393685
v -0.497716 0.162021 0.199772
v -0.491456 0.000700 0.197517
v -0.551969 0.017731 -0.011617
v 0.546311 0.017731 0.017696
v 0.498317 0.017731 0.204845
vn 0.2439 0.9669 0.0742
vn 0.4499 0.7955 0.4059
vn 0.5680 0.7928 0.2210
vn 0.8395 0.4132 0.3527
vn 0.6058 0.7955 -0.0151
vn 0.4950 0.8310 -0.2538
vn 0.2129 0.9743 -0.0735
vn 0.0998 0.9816 0.1629
vn 0.2384 0.8382 0.4905
vn 0.4065 0.4681 0.7846
vn 0.6636 0.4134 0.6235
vn 0.9236 0.0240 0.3826
vn 0.9085 0.4173 -0.0225
vn 0.7901 0.4758 -0.3865
vn 0.4444 0.7793 -0.4418
vn 0.1398 0.9723 -0.1874
vn 0.0162 0.9998 0.0067
vn -0.0627 0.9762 0.2074
vn -0.0019 0.8085 0.5885
vn 0.0339 0.4251 0.9045
vn 0.4493 0.0590 0.8914
vn 0.7275 0.0415 0.6848
vn 0.7210 -0.1415 0.6783
vn 0.9139 -0.1545 0.3755
vn 0.9850 -0.1717 -0.0151
vn 0.9998 0.0153 -0.0151
vn 0.9129 0.0633 -0.4032
vn 0.4493 -0.1112 0.8864
vn 0.9161 -0.1199 -0.3825
vn 0.7117 -0.0982 -0.6956
vn 0.7130 0.0896 -0.6954
vn 0.3823 -0.1415 -0.9131
vn 0.3963 0.0372 -0.9173
vn -0.0491 -0.1846 -0.9816
vn 0.6366 0.4409 -0.6327
vn 0.3855 0.4212 -0.8210
vn 0.3003 0.7682 -0.5654
vn 0.0189 0.7793 -0.6264
vn 0.0320 0.9060 -0.4220
vn -0.2306 0.8161 -0.5298
vn -0.3558 0.4448 -0.8219
vn -0.0169 0.4012 -0.9158
vn -0.0378 0.0066 -0.9993
vn -0.4033 0.0371 -0.9143
vn -0.3981 -0.1459 -0.9057
vn -0.6677 -0.1372 -0.7317
vn -0.6739 0.0416 -0.7377
vn -0.6134 0.4212 -0.6681
vn -0.4318 0.7874 -0.4398
vn -0.8991 0.0545 -0.4343
vn -0.8136 0.4370 -0.3835
vn -0.8955 0.4449 -0.0150
vn -0.9971 0.0764 -0.0076
vn -0.9149 0.0938 0.3927
vn -0.9943 -0.1068 0.0038
vn -0.9126 -0.0851 0.3999
vn -0.7314 -0.0851 0.6767
vn -0.7308 0.0938 0.6761
vn -0.4137 0.0720 0.9076
vn -0.4014 -0.0938 0.9111
vn 0.0509 -0.1155 0.9920
vn 0.0452 0.0284 0.9986
vn -0.4003 0.4487 0.7990
vn -0.2515 0.8059 0.5359
vn -0.8912 -0.1199 -0.4376
vn -0.4431 0.8059 0.3926
vn -0.6551 0.4330 0.6191
vn -0.8141 0.4719 0.3384
vn -0.6018 0.7981 -0.0302
vn -0.5143 0.8406 0.1703
vn -0.1559 0.9863 0.0549
vn -0.0819 0.9790 -0.1868
vn -0.2253 0.9670 -0.1193
vn -0.5510 0.7955 -0.2522
vn 0.1724 -0.9840 0.0448
vn -0.0019 -1.0000 0.0085
vn -0.2214 -0.9743 0.0414
vn -0.0259 -0.9997 0.0039
vn 0.0428 -0.9988 -0.0218
vn 0.0044 -1.0000 -0.0000
vn 0.0410 -0.9990 -0.0150
vn -0.0079 -1.0000 0.0038
vn -0.0000 -1.0000 -0.0000
vn -0.0457 -0.9988 0.0149
vn -0.0363 -0.9992 0.0151
vn -0.0022 -1.0000 -0.0038
vn 0.0223 -0.9995 -0.0209
vn -0.0021 -1.0000 0.0038
vn 0.1689 -0.9790 -0.1143
vn -0.0975 -0.9855 0.1387
vn 0.2882 0.8334 0.4715
vn 0.2157 0.8785 0.4263
vn 0.1309 0.9203 0.3687
vn 0.2293 0.9186 0.3220
vn 0.0843 0.8430 0.5313
vn 0.0956 0.8187 0.5663
vn 0.1201 0.9702 0.2104
vn 0.3904 0.8657 0.3134
vn 0.2985 0.9509 0.0816
vn 0.4515 0.8907 0.0526
vn 0.5675 0.7216 0.3965
vn 0.4444 0.7186 0.5349
vn 0.1211 0.9925 0.0148
vn 0.1852 0.9468 0.2633
vn 0.3928 0.8136 0.4287
vn 0.1626 0.8721 0.4614
vn 0.4060 0.6419 0.6505
vn 0.3600 0.7512 0.5532
vn 0.5120 0.6385 0.5746
vn 0.4273 0.8237 0.3728
vn 0.1866 0.9733 0.1337
vn 0.1349 0.9832 0.1229
vn 0.1571 0.9862 -0.0515
vn 0.1457 0.9799 0.1364
vn -0.0236 0.9972 0.0703
vn -0.5505 0.8334 0.0489
vn -0.4778 0.8785 0.0038
vn -0.3882 0.9203 -0.0487
vn -0.3907 0.9185 0.0600
vn -0.5138 0.8430 -0.1594
vn -0.5494 0.8187 -0.1670
vn -0.2415 0.9702 0.0187
vn -0.4776 0.8453 0.2395
vn -0.2017 0.9509 0.2348
vn -0.2669 0.8847 0.3823
vn -0.6718 0.6043 0.4284
vn -0.6615 0.6844 0.3066
vn -0.0714 0.9925 0.0990
vn -0.2645 0.9536 0.1440
vn -0.5590 0.8136 0.1599
vn -0.3628 0.9302 0.0560
vn -0.7658 0.6318 0.1201
vn -0.5500 0.7928 0.2625
vn -0.7198 0.5761 0.3873
vn -0.2940 0.8212 0.4891
vn -0.0963 0.9439 0.3158
vn -0.2024 0.9611 0.1878
vn -0.2750 0.9042 0.3268
vn -0.2439 0.9624 0.1199
vn -0.0544 0.9972 -0.0505
vn 0.9624 -0.1286 -0.2393
vn 0.9268 -0.0721 -0.3686
vn 0.9631 -0.0895 -0.2538
vn 0.9642 0.0458 -0.2613
vn 0.9221 0.0590 -0.3825
vn 0.7156 -0.0633 -0.6956
vn 0.7103 0.0633 -0.7010
vn 0.3704 -0.0808 -0.9253
vn 0.3756 0.0240 -0.9265
vn -0.0397 -0.1068 -0.9935
vn -0.3946 -0.0895 -0.9145
vn -0.4035 0.0153 -0.9149
vn -0.6684 0.0284 -0.7432
vn -0.6597 -0.0764 -0.7477
vn -0.8925 0.0545 -0.4477
vn -0.8891 -0.0546 -0.4545
vn -0.9494 0.0764 -0.3045
vn -0.9470 -0.0415 -0.3186
vn -0.9420 -0.1154 -0.3153
vn -0.8804 -0.1112 -0.4611
vn -0.9478 -0.0459 -0.3155
vn -0.8825 -0.0459 -0.4681
vn -0.6477 -0.1242 -0.7517
vn -0.6474 -0.0459 -0.7608
vn -0.3771 -0.1155 -0.9189
vn -0.3823 -0.0415 -0.9231
vn -0.0434 -0.1329 -0.9902
vn -0.0472 -0.0459 -0.9978
vn 0.3614 -0.0415 -0.9315
vn 0.3650 -0.1199 -0.9232
vn 0.7188 -0.1242 -0.6841
vn 0.7268 -0.0459 -0.6854
vn 0.9306 -0.1155 -0.3472
vn 0.9339 -0.0458 -0.3546
vn 0.9716 -0.0459 -0.2320
vn -0.9532 -0.1242 0.2756
vn -0.9181 -0.0502 0.3931
vn -0.9565 -0.0546 0.2866
vn -0.9542 0.0851 0.2867
vn -0.9156 0.0851 0.3930
vn -0.7369 0.1069 0.6676
vn -0.7223 -0.0415 0.6903
vn -0.3945 0.0937 0.9141
vn -0.3773 -0.0546 0.9245
vn 0.0566 0.0720 0.9958
vn 0.0641 -0.0720 0.9953
vn 0.4492 0.0633 0.8912
vn 0.4493 -0.0633 0.8912
vn 0.7302 -0.0720 0.6795
vn 0.7319 0.0459 0.6799
vn 0.9208 -0.0764 0.3824
vn 0.9231 0.0415 0.3823
vn 0.9642 -0.0764 0.2538
vn 0.9678 0.0502 0.2466
vn 0.9593 -0.1243 0.2537
vn 0.9168 -0.1155 0.3823
vn 0.7244 -0.1200 0.6789
vn 0.7267 -0.0459 0.6854
vn 0.4423 -0.1155 0.8894
vn 0.4496 -0.0459 0.8920
vn 0.0736 -0.0459 0.9962
vn 0.0623 -0.1285 0.9897
vn -0.3701 -0.1156 0.9218
vn -0.3705 -0.0459 0.9277
vn -0.7294 -0.0458 0.6826
vn -0.7192 -0.1199 0.6844
vn -0.9158 -0.1112 0.3859
vn -0.9202 -0.0415 0.3893
vn -0.9591 -0.0459 0.2795
vn 0.9680 -0.0459 0.2467
vn 0.9227 -0.0458 0.3827
vt 0.719293 0.283836
vt 0.792245 0.271541
vt 0.762058 0.238836
vt 0.828901 0.171276
vt 0.733309 0.207801
vt 0.664549 0.212815
vt 0.660956 0.291117
vt 0.714142 0.327642
vt 0.793443 0.330507
vt 0.875859 0.324658
vt 0.872744 0.219022
vt 0.884005 0.122815
vt 0.785058 0.123651
vt 0.663711 0.123651
vt 0.595670 0.217709
vt 0.602857 0.298517
vt 0.656883 0.331342
vt 0.708991 0.371448
vt 0.794881 0.389353
vt 0.878973 0.430533
vt 0.943540 0.327642
vt 0.941025 0.190374
vt 0.963785 0.180825
vt 0.902452 0.106582
vt 0.840880 0.032338
vt 0.826865 0.055256
vt 0.662153 0.054539
vt 0.966180 0.328716
vt 0.661555 0.031502
vt 0.482349 0.030667
vt 0.497442 0.053943
vt 0.417542 0.107775
vt 0.435990 0.125083
vt 0.352616 0.184764
vt 0.542363 0.123889
vt 0.491692 0.177245
vt 0.558655 0.244804
vt 0.519843 0.273093
vt 0.521280 0.328477
vt 0.443656 0.334923
vt 0.441141 0.230480
vt 0.374657 0.196343
vt 0.375736 0.335759
vt 0.352975 0.336117
vt 0.353455 0.487350
vt 0.376694 0.475294
vt 0.446172 0.439246
vt 0.522838 0.383862
vt 0.431079 0.545002
vt 0.486182 0.493557
vt 0.526192 0.547747
vt 0.485583 0.614710
vt 0.642508 0.615665
vt 0.472047 0.637031
vt 0.642508 0.638941
vt 0.812849 0.640731
vt 0.799433 0.616739
vt 0.872744 0.540944
vt 0.890833 0.558609
vt 0.968576 0.476488
vt 0.946176 0.465029
vt 0.818839 0.487588
vt 0.755350 0.418358
vt 0.412751 0.562190
vt 0.706236 0.454525
vt 0.758584 0.544763
vt 0.642388 0.546196
vt 0.585727 0.457151
vt 0.645982 0.455838
vt 0.652690 0.371567
vt 0.599623 0.335042
vt 0.596269 0.371687
vt 0.549671 0.415254
vt 0.315242 0.580691
vt 0.316559 0.524113
vt 0.274154 0.621991
vt 0.233066 0.663410
vt 0.317877 0.467535
vt 0.168978 0.660068
vt 0.104890 0.656845
vt 0.065479 0.615426
vt 0.281581 0.418955
vt 0.026188 0.574007
vt 0.245284 0.370255
vt 0.022115 0.515519
vt 0.018043 0.457151
vt 0.177962 0.370255
vt 0.064401 0.413703
vt 0.110760 0.370255
vt 0.397897 0.106462
vt 0.369506 0.054301
vt 0.299070 0.095242
vt 0.326262 0.019924
vt 0.279065 0.017656
vt 0.250555 0.026370
vt 0.237737 0.075428
vt 0.201202 0.047616
vt 0.192457 0.099539
vt 0.144541 0.067550
vt 0.168499 0.022908
vt 0.204436 0.009898
vt 0.228154 0.121860
vt 0.122739 0.166383
vt 0.108484 0.093213
vt 0.089917 0.144658
vt 0.076141 0.089990
vt 0.063443 0.128903
vt 0.030501 0.109446
vt 0.008100 0.160414
vt 0.013610 0.217947
vt 0.134478 0.224751
vt 0.050865 0.266051
vt 0.068115 0.314154
vt 0.102614 0.354141
vt 0.989300 0.877070
vt 0.867354 0.778237
vt 0.989300 0.778237
vt 0.989300 0.673556
vt 0.867234 0.673556
vt 0.745288 0.778237
vt 0.745048 0.673556
vt 0.613639 0.778118
vt 0.613639 0.673556
vt 0.481989 0.778118
vt 0.481989 0.673556
vt 0.362798 0.778237
vt 0.362918 0.673556
vt 0.243847 0.673556
vt 0.243487 0.778237
vt 0.128130 0.673556
vt 0.128010 0.778357
vt 0.012412 0.673556
vt 0.012412 0.778357
vt 0.012412 0.877070
vt 0.128130 0.877070
vt 0.012412 0.987600
vt 0.128130 0.987600
vt 0.243847 0.877070
vt 0.243847 0.987600
vt 0.362918 0.877070
vt 0.362918 0.987600
vt 0.481989 0.877070
vt 0.481989 0.987600
vt 0.613639 0.987600
vt 0.613639 0.877070
vt 0.745048 0.877070
vt 0.745048 0.987600
vt 0.867234 0.877070
vt 0.867234 0.987600
vt 0.989300 0.987600
vt 0.867354 0.778357
vt 0.989300 0.778357
vt 0.745168 0.778357
vt 0.613639 0.778357
vt 0.481989 0.778357
vt 0.363038 0.778357
vt 0.243847 0.778237
vt 0.128249 0.778237
vt 0.012412 0.778237
s 1
usemtl object_0
f 1/1/1 2/2/2 3/3/3
f 2/2/2 4/4/4 3/3/3
f 3/3/3 5/5/5 1/1/1
f 4/4/4 5/5/5 3/3/3
f 5/5/5 6/6/6 1/1/1
f 6/6/6 7/7/7 1/1/1
f 7/7/7 8/8/8 1/1/1
f 8/8/8 9/9/9 1/1/1
f 1/1/1 9/9/9 2/2/2
f 9/9/9 10/10/10 2/2/2
f 2/2/2 11/11/11 4/4/4
f 10/10/10 11/11/11 2/2/2
f 11/11/11 12/12/12 4/4/4
f 4/4/4 13/13/13 5/5/5
f 12/12/12 13/13/13 4/4/4
f 5/5/5 14/14/14 6/6/6
f 13/13/13 14/14/14 5/5/5
f 14/14/14 15/15/15 6/6/6
f 6/6/6 15/15/15 7/7/7
f 15/15/15 16/16/16 7/7/7
f 7/7/7 17/17/17 8/8/8
f 16/16/16 17/17/17 7/7/7
f 8/8/8 18/18/18 9/9/9
f 17/17/17 18/18/18 8/8/8
f 9/9/9 19/19/19 10/10/10
f 18/18/18 19/19/19 9/9/9
f 19/19/19 20/20/20 10/10/10
f 20/20/20 21/21/21 10/10/10
f 10/10/10 21/21/21 11/11/11
f 11/11/11 22/22/22 12/12/12
f 21/21/21 22/22/22 11/11/11
f 22/22/22 21/21/21 23/23/23
f 22/22/22 23/23/23 12/12/12
f 23/23/23 24/24/24 12/12/12
f 24/24/24 25/25/25 12/12/12
f 12/12/12 25/25/25 26/26/26
f 26/26/26 13/13/13 12/12/12
f 27/27/27 13/13/13 26/26/26
f 25/25/25 27/27/27 26/26/26
f 13/13/13 27/27/27 14/14/14
f 23/23/23 21/21/21 28/28/28
f 25/25/25 29/29/29 27/27/27
f 29/29/29 30/30/30 27/27/27
f 27/27/27 30/30/30 31/31/31
f 30/30/30 32/32/32 31/31/31
f 31/31/31 32/32/32 33/33/33
f 32/32/32 34/34/34 33/33/33
f 14/14/14 35/35/35 15/15/15
f 33/33/33 35/35/35 31/31/31
f 35/35/35 27/27/27 31/31/31
f 27/27/27 35/35/35 14/14/14
f 35/35/35 36/36/36 15/15/15
f 36/36/36 35/35/35 33/33/33
f 15/15/15 36/36/36 37/37/37
f 15/15/15 37/37/37 16/16/16
f 36/36/36 38/38/38 37/37/37
f 37/37/37 38/38/38 39/16/39
f 39/16/39 38/38/38 40/39/40
f 40/39/40 38/38/38 41/40/41
f 41/40/41 38/38/38 42/41/42
f 42/41/42 36/36/36 33/33/33
f 38/38/38 36/36/36 42/41/42
f 33/33/33 34/34/34 43/42/43
f 42/41/42 33/33/33 43/42/43
f 43/42/43 34/34/34 44/43/44
f 43/42/43 44/43/44 42/41/42
f 42/41/42 44/43/44 41/40/41
f 34/34/34 45/44/45 44/43/44
f 45/44/45 46/45/46 44/43/44
f 46/45/46 47/46/47 44/43/44
f 47/46/47 48/47/48 44/43/44
f 44/43/44 48/47/48 41/40/41
f 41/40/41 49/48/49 40/39/40
f 48/47/48 49/48/49 41/40/41
f 47/46/47 50/49/50 48/47/48
f 47/46/47 46/45/46 50/49/50
f 48/47/48 50/49/50 51/50/51
f 49/48/49 48/47/48 51/50/51
f 51/50/51 50/49/50 52/51/52
f 50/49/50 53/52/53 52/51/52
f 52/51/52 53/52/53 54/53/54
f 50/49/50 55/54/55 53/52/53
f 53/52/53 55/54/55 54/53/54
f 55/54/55 56/55/56 54/53/54
f 56/55/56 57/56/57 54/53/54
f 54/53/54 57/56/57 58/57/58
f 58/57/58 57/56/57 59/58/59
f 57/56/57 60/59/60 59/58/59
f 61/60/61 28/28/28 21/21/21
f 60/59/60 61/60/61 59/58/59
f 61/60/61 21/21/21 62/61/62
f 59/58/59 61/60/61 62/61/62
f 21/21/21 20/20/20 62/61/62
f 62/61/62 20/20/20 59/58/59
f 59/58/59 20/20/20 63/62/63
f 20/20/20 19/19/19 63/62/63
f 63/62/63 19/19/19 64/63/64
f 19/19/19 18/18/18 64/63/64
f 65/64/65 55/54/55 50/49/50
f 46/45/46 65/64/65 50/49/50
f 64/63/64 18/18/18 66/65/66
f 63/62/63 64/63/64 66/65/66
f 66/65/66 67/66/67 63/62/63
f 63/62/63 67/66/67 59/58/59
f 59/58/59 67/66/67 58/57/58
f 58/57/58 67/66/67 54/53/54
f 54/53/54 68/67/68 52/51/52
f 67/66/67 66/65/66 68/67/68
f 67/66/67 68/67/68 54/53/54
f 52/51/52 69/68/69 51/50/51
f 68/67/68 69/68/69 52/51/52
f 70/69/70 69/68/69 68/67/68
f 68/67/68 66/65/66 70/69/70
f 18/18/18 17/17/17 71/70/71
f 66/65/66 18/18/18 71/70/71
f 70/69/70 66/65/66 71/70/71
f 16/16/16 40/39/40 72/71/72
f 71/70/71 17/17/17 72/71/72
f 17/17/17 16/16/16 72/71/72
f 71/70/71 73/72/73 70/69/70
f 73/72/73 69/68/69 70/69/70
f 72/71/72 73/72/73 71/70/71
f 40/39/40 49/48/49 73/72/73
f 40/39/40 73/72/73 72/71/72
f 73/72/73 49/48/49 74/73/74
f 49/48/49 51/50/51 74/73/74
f 51/50/51 69/68/69 74/73/74
f 74/73/74 69/68/69 73/72/73
f 75/74/75 76/75/76 77/76/77
f 77/76/77 76/75/76 78/77/78
f 76/75/76 79/78/79 78/77/78
f 78/77/78 79/78/79 80/79/80
f 80/79/80 79/78/79 81/80/81
f 81/80/81 79/78/79 82/81/82
f 79/78/79 83/82/83 82/81/82
f 82/81/82 83/82/83 84/83/84
f 83/82/83 85/84/85 84/83/84
f 84/83/84 85/84/85 86/85/86
f 86/85/86 85/84/85 87/86/87
f 85/84/85 88/87/88 87/86/87
f 87/86/87 88/87/88 89/88/89
f 88/87/88 90/89/90 89/88/89
f 91/90/91 92/91/92 93/92/93
f 92/91/92 94/93/94 93/92/93
f 94/93/94 95/94/95 93/92/93
f 95/94/95 96/95/96 93/92/93
f 93/92/93 96/95/96 97/96/97
f 96/95/96 98/97/98 97/96/97
f 97/96/97 98/97/98 99/98/99
f 99/98/99 98/97/98 100/99/100
f 100/99/100 98/97/98 101/100/101
f 98/97/98 96/95/96 102/101/102
f 101/100/101 98/97/98 102/101/102
f 97/96/97 99/98/99 103/102/103
f 93/92/93 97/96/97 103/102/103
f 103/102/103 99/98/99 104/103/104
f 99/98/99 100/99/100 105/104/105
f 99/98/99 105/104/105 104/103/104
f 104/103/104 105/104/105 106/105/106
f 105/104/105 107/106/107 106/105/106
f 106/105/106 107/106/107 108/107/108
f 107/106/107 109/108/109 108/107/108
f 108/107/108 110/109/110 106/105/106
f 109/108/109 110/109/110 108/107/108
f 106/105/106 111/110/111 104/103/104
f 110/109/110 111/110/111 106/105/106
f 104/103/104 112/111/112 103/102/103
f 111/110/111 112/111/112 104/103/104
f 111/110/111 113/112/113 112/111/112
f 113/112/113 114/113/114 112/111/112
f 112/111/112 114/113/114 115/114/115
f 116/90/116 117/91/117 118/92/118
f 117/91/117 119/93/119 118/92/118
f 119/93/119 120/94/120 118/92/118
f 120/94/120 121/95/121 118/92/118
f 118/92/118 121/95/121 122/96/122
f 121/95/121 123/97/123 122/96/122
f 122/96/122 123/97/123 124/98/124
f 124/98/124 123/97/123 125/99/125
f 125/99/125 123/97/123 126/100/126
f 123/97/123 121/95/121 127/101/127
f 126/100/126 123/97/123 127/101/127
f 122/96/122 124/98/124 128/102/128
f 118/92/118 122/96/122 128/102/128
f 128/102/128 124/98/124 129/103/129
f 125/99/125 130/104/130 124/98/124
f 124/98/124 130/104/130 129/103/129
f 129/103/129 130/104/130 131/105/131
f 130/104/130 132/106/132 131/105/131
f 131/105/131 132/106/132 133/107/133
f 132/106/132 134/108/134 133/107/133
f 133/107/133 135/109/135 131/105/131
f 134/108/134 135/109/135 133/107/133
f 131/105/131 136/110/136 129/103/129
f 135/109/135 136/110/136 131/105/131
f 136/110/136 137/111/137 129/103/129
f 129/103/129 137/111/137 128/102/128
f 136/110/136 138/112/138 137/111/137
f 138/112/138 139/113/139 137/111/137
f 137/111/137 139/113/139 140/114/140
f 141/115/141 142/116/142 143/117/143
f 143/117/143 142/116/142 144/118/144
f 144/118/144 142/116/142 145/119/145
f 142/116/142 146/120/146 145/119/145
f 145/119/145 146/120/146 147/121/147
f 146/120/146 148/122/148 147/121/147
f 147/121/147 148/122/148 149/123/149
f 148/122/148 150/124/150 149/123/149
f 149/123/149 150/124/150 151/125/43
f 150/124/150 152/126/151 151/125/43
f 151/125/43 152/126/151 153/127/152
f 153/127/152 152/126/151 154/128/153
f 152/126/151 155/129/154 154/128/153
f 154/128/153 155/129/154 156/130/155
f 155/129/154 157/131/156 156/130/155
f 156/130/155 157/131/156 158/132/157
f 158/132/157 157/131/156 159/133/158
f 159/133/158 157/131/156 160/134/159
f 157/131/156 155/129/154 161/135/160
f 157/131/156 161/135/160 160/134/159
f 160/134/159 161/135/160 162/136/161
f 162/136/161 161/135/160 163/137/162
f 155/129/154 152/126/151 164/138/163
f 161/135/160 155/129/154 164/138/163
f 161/135/160 164/138/163 163/137/162
f 163/137/162 164/138/163 165/139/164
f 164/138/163 152/126/151 166/140/165
f 164/138/163 166/140/165 165/139/164
f 165/139/164 166/140/165 167/141/166
f 150/124/150 148/122/148 168/142/167
f 166/140/165 168/142/167 167/141/166
f 152/126/151 150/124/150 168/142/167
f 166/140/165 152/126/151 168/142/167
f 167/141/166 168/142/167 169/143/168
f 168/142/167 170/144/169 169/143/168
f 168/142/167 148/122/148 171/145/170
f 168/142/167 171/145/170 170/144/169
f 142/116/142 172/146/171 146/120/146
f 148/122/148 172/146/171 171/145/170
f 172/146/171 148/122/148 146/120/146
f 171/145/170 173/147/172 170/144/169
f 171/145/170 172/146/171 173/147/172
f 174/148/173 172/146/171 142/116/142
f 141/115/141 174/148/173 142/116/142
f 172/146/171 174/148/173 173/147/172
f 173/147/172 174/148/173 175/149/174
f 175/149/174 174/148/173 176/150/175
f 176/150/175 174/148/173 141/115/141
f 177/115/176 178/151/177 179/152/178
f 179/152/178 178/151/177 180/118/179
f 180/118/179 178/151/177 181/119/180
f 181/119/180 178/151/177 182/121/181
f 178/151/177 183/153/182 182/121/181
f 182/121/181 183/153/182 184/123/183
f 183/153/182 185/154/184 184/123/183
f 184/123/183 185/154/184 186/125/185
f 185/154/184 187/155/186 186/125/185
f 186/125/185 187/155/186 188/127/187
f 187/155/186 189/156/188 188/127/187
f 189/156/188 190/157/189 188/127/187
f 188/127/187 190/157/189 191/128/190
f 190/157/189 192/158/191 191/128/190
f 191/128/190 192/158/191 193/130/192
f 192/158/191 194/159/193 193/130/192
f 193/130/192 194/159/193 195/132/194
f 194/159/193 192/158/191 196/134/195
f 196/134/195 192/158/191 197/135/196
f 192/158/191 198/138/197 197/135/196
f 190/157/189 189/156/188 198/138/197
f 192/158/191 190/157/189 198/138/197
f 197/135/196 198/138/197 199/139/198
f 198/138/197 200/140/199 199/139/198
f 198/138/197 189/156/188 200/140/199
f 199/139/198 200/140/199 201/141/200
f 201/141/200 200/140/199 202/143/201
f 187/155/186 185/154/184 203/142/202
f 189/156/188 187/155/186 203/142/202
f 200/140/199 189/156/188 203/142/202
f 202/143/201 200/140/199 203/142/202
f 185/154/184 204/145/203 203/142/202
f 203/142/202 204/145/203 202/143/201
f 202/143/201 204/145/203 205/144/204
f 205/144/204 204/145/203 206/147/205
f 185/154/184 183/153/182 207/146/206
f 204/145/203 185/154/184 207/146/206
f 206/147/205 204/145/203 207/146/206
f 183/153/182 178/151/177 207/146/206
f 207/146/206 208/148/207 206/147/205
f 208/148/207 178/151/177 177/115/176
f 178/151/177 208/148/207 207/146/206
f 206/147/205 208/148/207 209/149/208
f 209/149/208 208/148/207 210/150/209
f 210/150/209 208/148/207 177/115/176
f 196/134/195 197/135/196 211/136/210
f 197/135/196 199/139/198 212/137/211
f 211/136/210 197/135/196 212/137/211
