# Blender 4.3.0
# www.blender.org
mtllib bush.mtl
o model
v 0.421989 0.091991 -0.327198
v 0.358344 0.031375 -0.288140
v 0.294699 0.132401 -0.420939
v 0.262876 0.038110 -0.335010
v 0.093156 0.051580 -0.366257
v 0.082549 0.011170 -0.210022
v 0.252269 -0.002300 -0.194399
v 0.379559 0.011170 -0.178775
v 0.485634 0.058315 -0.186587
v 0.390166 -0.009036 -0.022540
v 0.517456 0.031375 -0.022540
v 0.485634 0.044845 0.149318
v 0.379559 -0.002300 0.133695
v 0.347736 0.017905 0.243059
v 0.411381 0.078521 0.289930
v 0.284091 0.098726 0.383671
v 0.252269 0.011170 0.289930
v 0.082549 0.017905 0.321177
v 0.093156 0.105461 0.422730
v -0.108386 0.098726 0.438353
v -0.108386 0.011170 0.328989
v -0.309928 0.085256 0.414918
v 0.082549 -0.015771 0.164942
v 0.241661 -0.015771 0.149318
v 0.252269 -0.022506 -0.022540
v 0.082549 -0.015771 -0.022540
v -0.097778 -0.015771 0.172754
v -0.278106 0.004435 0.313365
v -0.373573 0.017905 0.274307
v -0.437218 0.071786 0.321177
v -0.511470 0.044845 0.164942
v -0.405396 -0.002300 0.149318
v -0.278106 -0.022506 0.164942
v -0.097778 -0.015771 -0.030352
v -0.097778 0.011170 -0.217834
v -0.097778 0.051580 -0.381881
v 0.103764 0.159342 -0.459998
v -0.108386 0.159342 -0.483433
v -0.299321 0.125666 -0.467810
v -0.267498 0.038110 -0.366257
v -0.373573 0.031375 -0.327198
v -0.267498 -0.002300 -0.217834
v -0.405396 0.011170 -0.210022
v -0.511470 0.051580 -0.225646
v -0.426611 0.091991 -0.374069
v -0.278106 -0.022506 -0.030352
v -0.416003 -0.002300 -0.030352
v -0.532686 0.031375 -0.030352
v 0.464419 0.725089 -0.006917
v 0.167409 0.832850 -0.006917
v 0.432596 0.691413 0.164942
v 0.156801 0.785704 0.180565
v 0.390166 0.590387 0.305553
v 0.146194 0.664473 0.328989
v 0.623531 0.549976 -0.006917
v 0.581101 0.536506 0.149318
v 0.623531 0.341189 0.157130
v 0.517456 0.502831 0.258683
v 0.665961 0.341189 -0.014728
v 0.612923 0.139136 -0.014728
v 0.570493 0.145871 0.157130
v 0.485634 0.044845 0.149318
v 0.475026 0.179547 0.305553
v 0.411381 0.078521 0.289930
v 0.284091 0.098726 0.383671
v 0.326521 0.226692 0.414918
v 0.103764 0.253633 0.461789
v 0.368951 0.428745 0.391483
v 0.517456 0.361394 0.297742
v 0.124979 0.489361 0.430542
v -0.150816 0.664473 0.336800
v -0.140208 0.489361 0.438353
v -0.118993 0.246898 0.477412
v 0.093156 0.105461 0.422730
v -0.108386 0.098726 0.438353
v -0.309928 0.085256 0.414918
v -0.352358 0.219957 0.453977
v -0.384181 0.422010 0.422730
v -0.394788 0.590387 0.321177
v -0.150816 0.785704 0.180565
v -0.150816 0.832850 -0.006917
v 0.517456 0.031375 -0.022540
v -0.437218 0.684678 0.172754
v -0.522078 0.496096 0.282118
v -0.543293 0.354659 0.321177
v -0.638760 0.327719 0.164942
v -0.596330 0.529771 0.157130
v -0.628153 0.543241 -0.022540
v -0.447826 0.718354 -0.014728
v -0.681190 0.327719 -0.022540
v -0.628153 0.132401 -0.030352
v -0.596330 0.139136 0.180565
v -0.511470 0.044845 0.164942
v -0.500863 0.179547 0.344612
v -0.437218 0.071786 0.321177
v -0.532686 0.031375 -0.030352
v 0.156801 0.691413 -0.350634
v 0.400774 0.610592 -0.319387
v 0.135586 0.516301 -0.452187
v 0.379559 0.455685 -0.413128
v 0.528063 0.523036 -0.280328
v 0.443204 0.698148 -0.178775
v 0.167409 0.799174 -0.194399
v -0.140208 0.684678 -0.366257
v -0.129601 0.509566 -0.475622
v -0.108386 0.294043 -0.514681
v 0.114371 0.294043 -0.499057
v -0.108386 0.159342 -0.483433
v 0.103764 0.159342 -0.459998
v 0.294699 0.132401 -0.420939
v 0.337129 0.253633 -0.452187
v 0.485634 0.199752 -0.342822
v 0.421989 0.091991 -0.327198
v 0.485634 0.058315 -0.186587
v 0.581101 0.159342 -0.194399
v 0.612923 0.139136 -0.014728
v 0.634138 0.347924 -0.178775
v 0.665961 0.341189 -0.014728
v 0.623531 0.549976 -0.006917
v 0.591708 0.543241 -0.170963
v 0.464419 0.725089 -0.006917
v 0.167409 0.832850 -0.006917
v -0.150816 0.799174 -0.202210
v -0.394788 0.610592 -0.358446
v -0.373573 0.448950 -0.459998
v -0.331143 0.253633 -0.499057
v -0.299321 0.125666 -0.467810
v -0.490256 0.199752 -0.397504
v -0.426611 0.091991 -0.374069
v -0.511470 0.051580 -0.225646
v -0.596330 0.152606 -0.233457
v -0.628153 0.132401 -0.030352
v -0.638760 0.341189 -0.217834
v 0.517456 0.031375 -0.022540
v -0.150816 0.832850 -0.006917
v -0.532686 0.031375 -0.030352
v -0.681190 0.327719 -0.022540
v -0.628153 0.543241 -0.022540
v -0.585723 0.536506 -0.202210
v -0.426611 0.698148 -0.202210
v -0.522078 0.516301 -0.319387
v -0.447826 0.718354 -0.014728
v -0.532686 0.374864 -0.366257
v 0.528063 0.381599 -0.319387
vn 0.1455 -0.4869 -0.8612
vn 0.0566 -0.7505 -0.6584
vn -0.1573 -0.4182 -0.8946
vn -0.1184 -0.7661 -0.6317
vn -0.1872 -0.7718 -0.6077
vn -0.0697 -0.9284 -0.3649
vn -0.0189 -0.9210 -0.3892
vn 0.1744 -0.8490 -0.4987
vn 0.3887 -0.6204 -0.6812
vn 0.3007 -0.9110 -0.2823
vn 0.5753 -0.7058 -0.4132
vn 0.7209 -0.6848 -0.1069
vn 0.4290 -0.9014 -0.0589
vn 0.5180 -0.8443 0.1372
vn 0.7641 -0.6083 0.2146
vn 0.6453 -0.5787 0.4987
vn 0.3970 -0.8760 0.2739
vn 0.3411 -0.8840 0.3198
vn 0.5301 -0.5768 0.6215
vn 0.4954 -0.5780 0.6485
vn 0.3813 -0.8762 0.2949
vn 0.3115 -0.6425 0.7001
vn 0.1765 -0.9817 0.0720
vn 0.2244 -0.9736 0.0415
vn 0.1036 -0.9789 -0.1760
vn 0.0434 -0.9884 -0.1458
vn 0.2538 -0.9669 0.0240
vn 0.2985 -0.8992 0.3198
vn 0.0960 -0.9308 0.3528
vn -0.0264 -0.7607 0.6485
vn -0.2695 -0.8660 0.4212
vn -0.0133 -0.9858 0.1674
vn 0.1949 -0.9799 0.0415
vn 0.1280 -0.9728 -0.1932
vn 0.0038 -0.9160 -0.4012
vn -0.1409 -0.7679 -0.6249
vn -0.3124 -0.4056 -0.8590
vn -0.3511 -0.4125 -0.8406
vn -0.5036 -0.4796 -0.7186
vn -0.2092 -0.7954 -0.5689
vn -0.3405 -0.8406 -0.4212
vn -0.0377 -0.9319 -0.3608
vn -0.2501 -0.9358 -0.2486
vn -0.5841 -0.8008 -0.1329
vn -0.6407 -0.6367 -0.4291
vn 0.0773 -0.9836 -0.1631
vn -0.1299 -0.9905 -0.0459
vn -0.4440 -0.8848 0.1415
vn 0.4188 0.8989 -0.1285
vn 0.0716 0.9942 0.0808
vn 0.5662 0.7947 0.2189
vn 0.2693 0.8680 0.4172
vn 0.6773 0.5443 0.4950
vn 0.4372 0.6019 0.6683
vn 0.7324 0.5872 -0.3446
vn 0.8558 0.5173 0.0022
vn 0.9911 0.0904 -0.0981
vn 0.8691 0.4089 0.2781
vn 0.8680 0.1279 -0.4797
vn 0.8009 -0.3313 -0.4988
vn 0.9383 -0.3259 -0.1156
vn 0.9321 -0.2462 0.2655
vn 0.6453 -0.5786 0.4987
vn 0.7769 -0.1646 0.6078
vn 0.6011 -0.1198 0.7901
vn 0.7607 0.2087 0.6147
vn 0.9527 0.1129 0.2823
vn 0.5468 0.2692 0.7928
vn 0.2086 0.5837 0.7847
vn 0.3810 0.2620 0.8867
vn 0.4883 -0.1265 0.8635
vn 0.2147 -0.2399 0.9468
vn 0.1076 0.1366 0.9848
vn -0.0657 0.4616 0.8847
vn -0.0132 0.8273 0.5617
vn -0.2336 0.9411 0.2444
vn 0.5753 -0.7059 -0.4133
vn -0.3119 0.6657 0.6779
vn -0.3232 0.2608 0.9097
vn -0.2831 -0.0561 0.9575
vn -0.6242 -0.1419 0.7682
vn -0.5731 0.3142 0.7569
vn -0.7916 0.3585 0.4949
vn -0.5370 0.7442 0.3972
vn -0.8676 -0.1315 0.4796
vn -0.7355 -0.5810 0.3486
vn -0.4994 -0.5553 0.6650
vn -0.1776 -0.4227 0.8887
vn -0.4441 -0.8847 0.1415
vn -0.2864 0.7519 -0.5938
vn -0.0189 0.6857 -0.7276
vn -0.3655 0.4522 -0.8136
vn -0.1120 0.3791 -0.9186
vn 0.2491 0.5371 -0.8059
vn 0.1931 0.8726 -0.4487
vn -0.1299 0.9517 -0.2781
vn -0.5086 0.7251 -0.4643
vn -0.5352 0.4392 -0.7216
vn -0.4970 0.0603 -0.8657
vn -0.3799 0.0750 -0.9220
vn -0.3510 -0.4124 -0.8406
vn -0.1573 -0.4181 -0.8947
vn -0.1342 0.0151 -0.9908
vn 0.2254 -0.1097 -0.9681
vn 0.1455 -0.4869 -0.8613
vn 0.5478 -0.2423 -0.8007
vn 0.8010 -0.3313 -0.4987
vn 0.6047 0.1643 -0.7793
vn 0.8681 0.1279 -0.4796
vn 0.7325 0.5872 -0.3445
vn 0.4941 0.5901 -0.6385
vn 0.4188 0.8989 -0.1286
vn 0.0716 0.9942 0.0807
vn -0.4068 0.9056 -0.1199
vn -0.7425 0.5973 -0.3032
vn -0.7724 0.3097 -0.5544
vn -0.7179 -0.0566 -0.6938
vn -0.5036 -0.4795 -0.7186
vn -0.8916 -0.2790 -0.3568
vn -0.5841 -0.8007 -0.1329
vn -0.8784 -0.4780 -0.0022
vn -0.7354 -0.5810 0.3487
vn -0.9899 -0.0679 0.1242
vn 0.5754 -0.7058 -0.4132
vn -0.2336 0.9411 0.2443
vn -0.8675 -0.1315 0.4797
vn -0.7915 0.3585 0.4950
vn -0.9080 0.3823 0.1717
vn -0.6754 0.7354 0.0546
vn -0.9156 0.3823 -0.1242
vn -0.5369 0.7442 0.3973
vn -0.9672 0.0829 -0.2401
vn 0.2604 0.2470 -0.9334
vt 0.133393 0.473600
vt 0.148531 0.444882
vt 0.193386 0.493160
vt 0.189574 0.445900
vt 0.252483 0.435950
vt 0.231625 0.377157
vt 0.171183 0.393439
vt 0.124646 0.408137
vt 0.086519 0.431315
vt 0.098406 0.355902
vt 0.054560 0.374444
vt 0.036730 0.311694
vt 0.079903 0.300501
vt 0.070707 0.257989
vt 0.039757 0.248718
vt 0.068128 0.192526
vt 0.098854 0.228027
vt 0.150325 0.190717
vt 0.126440 0.146283
vt 0.195741 0.110668
vt 0.214020 0.158381
vt 0.268295 0.094161
vt 0.177239 0.246344
vt 0.122964 0.277549
vt 0.146288 0.335776
vt 0.205609 0.311129
vt 0.237345 0.217626
vt 0.275471 0.142100
vt 0.316514 0.141421
vt 0.329522 0.111346
vt 0.380433 0.156685
vt 0.343203 0.180880
vt 0.297002 0.197048
vt 0.265155 0.285803
vt 0.293862 0.353640
vt 0.319654 0.411981
vt 0.267510 0.484907
vt 0.340960 0.458902
vt 0.403757 0.419217
vt 0.374601 0.380097
vt 0.403869 0.351153
vt 0.350492 0.325714
vt 0.394562 0.304232
vt 0.437959 0.294848
vt 0.434595 0.363364
vt 0.325036 0.260816
vt 0.373480 0.240577
vt 0.417326 0.222261
vt 0.640369 0.652466
vt 0.540229 0.565634
vt 0.672216 0.598422
vt 0.595513 0.522104
vt 0.711128 0.549352
vt 0.652928 0.481062
vt 0.734116 0.690116
vt 0.745105 0.630192
vt 0.816313 0.628723
vt 0.751385 0.585306
vt 0.824163 0.689098
vt 0.905687 0.664790
vt 0.882474 0.601361
vt 0.928900 0.576601
vt 0.856683 0.538498
vt 0.897950 0.515434
vt 0.869018 0.449744
vt 0.822817 0.475296
vt 0.781887 0.399205
vt 0.763608 0.510911
vt 0.797474 0.568460
vt 0.714828 0.440134
vt 0.605942 0.391630
vt 0.672440 0.359294
vt 0.740508 0.323339
vt 0.828985 0.374444
vt 0.785475 0.296996
vt 0.746451 0.220904
vt 0.701372 0.246570
vt 0.641826 0.278793
vt 0.581384 0.304119
vt 0.539781 0.421139
vt 0.470367 0.448839
vt 0.955252 0.636976
vt 0.516344 0.312825
vt 0.572076 0.249622
vt 0.611100 0.218756
vt 0.566133 0.168782
vt 0.527782 0.230741
vt 0.463863 0.207337
vt 0.448388 0.312938
vt 0.510513 0.126836
vt 0.570507 0.066913
vt 0.622090 0.125705
vt 0.664815 0.097100
vt 0.666272 0.183820
vt 0.705521 0.159850
vt 0.617268 0.036951
vt 0.292853 0.800465
vt 0.211329 0.763607
vt 0.314832 0.730819
vt 0.233420 0.703118
vt 0.165576 0.734776
vt 0.175108 0.814259
vt 0.269528 0.866946
vt 0.391983 0.820817
vt 0.404542 0.748343
vt 0.420129 0.672252
vt 0.335353 0.656310
vt 0.433137 0.620695
vt 0.345894 0.604753
vt 0.263024 0.585420
vt 0.251138 0.636976
vt 0.181388 0.621147
vt 0.192265 0.575018
vt 0.125094 0.561111
vt 0.113993 0.612555
vt 0.046822 0.606336
vt 0.106031 0.683784
vt 0.045701 0.691473
vt 0.069474 0.778870
vt 0.124309 0.752640
vt 0.131711 0.859258
vt 0.243064 0.934445
vt 0.382339 0.891255
vt 0.482815 0.820138
vt 0.490216 0.755466
vt 0.504794 0.689551
vt 0.517465 0.638672
vt 0.575441 0.705832
vt 0.588224 0.661511
vt 0.660329 0.683445
vt 0.644181 0.732288
vt 0.715501 0.765416
vt 0.617829 0.797639
vt 0.060054 0.551048
vt 0.376171 0.963050
vt 0.731649 0.712389
vt 0.674010 0.839133
vt 0.609194 0.905727
vt 0.568600 0.851005
vt 0.492795 0.884245
vt 0.537874 0.814033
vt 0.512195 0.949030
vt 0.556826 0.768355
vt 0.169052 0.686159
s 1
usemtl object_0
f 1/1/1 2/2/2 3/3/3
f 2/2/2 4/4/4 3/3/3
f 3/3/3 4/4/4 5/5/5
f 5/5/5 4/4/4 6/6/6
f 4/4/4 2/2/2 7/7/7
f 6/6/6 4/4/4 7/7/7
f 7/7/7 2/2/2 8/8/8
f 2/2/2 9/9/9 8/8/8
f 2/2/2 1/1/1 9/9/9
f 10/10/10 7/7/7 8/8/8
f 8/8/8 9/9/9 10/10/10
f 9/9/9 11/11/11 10/10/10
f 11/11/11 12/12/12 10/10/10
f 10/10/10 12/12/12 13/13/13
f 13/13/13 12/12/12 14/14/14
f 12/12/12 15/15/15 14/14/14
f 15/15/15 16/16/16 14/14/14
f 14/14/14 16/16/16 17/17/17
f 17/17/17 16/16/16 18/18/18
f 16/16/16 19/19/19 18/18/18
f 19/19/19 20/20/20 18/18/18
f 18/18/18 20/20/20 21/21/21
f 20/20/20 22/22/22 21/21/21
f 21/21/21 23/23/23 18/18/18
f 18/18/18 23/23/23 17/17/17
f 17/17/17 24/24/24 14/14/14
f 14/14/14 24/24/24 13/13/13
f 13/13/13 24/24/24 10/10/10
f 23/23/23 24/24/24 17/17/17
f 10/10/10 25/25/25 7/7/7
f 24/24/24 25/25/25 10/10/10
f 25/25/25 26/26/26 7/7/7
f 7/7/7 26/26/26 6/6/6
f 25/25/25 24/24/24 26/26/26
f 24/24/24 23/23/23 26/26/26
f 23/23/23 21/21/21 27/27/27
f 26/26/26 23/23/23 27/27/27
f 21/21/21 22/22/22 28/28/28
f 27/27/27 21/21/21 28/28/28
f 28/28/28 22/22/22 29/29/29
f 22/22/22 30/30/30 29/29/29
f 30/30/30 31/31/31 29/29/29
f 31/31/31 32/32/32 29/29/29
f 29/29/29 33/33/33 28/28/28
f 28/28/28 33/33/33 27/27/27
f 32/32/32 33/33/33 29/29/29
f 27/27/27 34/34/34 26/26/26
f 26/26/26 34/34/34 6/6/6
f 33/33/33 34/34/34 27/27/27
f 34/34/34 35/35/35 6/6/6
f 6/6/6 35/35/35 5/5/5
f 35/35/35 36/36/36 5/5/5
f 5/5/5 36/36/36 37/37/37
f 5/5/5 37/37/37 3/3/3
f 37/37/37 36/36/36 38/38/38
f 38/38/38 36/36/36 39/39/39
f 36/36/36 35/35/35 40/40/40
f 36/36/36 40/40/40 39/39/39
f 39/39/39 40/40/40 41/41/41
f 40/40/40 35/35/35 42/42/42
f 35/35/35 34/34/34 42/42/42
f 40/40/40 42/42/42 41/41/41
f 42/42/42 43/43/43 41/41/41
f 43/43/43 44/44/44 41/41/41
f 44/44/44 45/45/45 41/41/41
f 41/41/41 45/45/45 39/39/39
f 34/34/34 33/33/33 46/46/46
f 42/42/42 34/34/34 46/46/46
f 46/46/46 33/33/33 47/47/47
f 33/33/33 32/32/32 47/47/47
f 32/32/32 31/31/31 47/47/47
f 43/43/43 42/42/42 47/47/47
f 44/44/44 43/43/43 47/47/47
f 47/47/47 42/42/42 46/46/46
f 31/31/31 48/48/48 47/47/47
f 48/48/48 44/44/44 47/47/47
f 49/49/49 50/50/50 51/51/51
f 50/50/50 52/52/52 51/51/51
f 51/51/51 52/52/52 53/53/53
f 52/52/52 54/54/54 53/53/53
f 49/49/49 51/51/51 55/55/55
f 51/51/51 56/56/56 55/55/55
f 55/55/55 56/56/56 57/57/57
f 57/57/57 56/56/56 58/58/58
f 56/56/56 51/51/51 58/58/58
f 58/58/58 51/51/51 53/53/53
f 55/55/55 57/57/57 59/59/59
f 59/59/59 57/57/57 60/60/60
f 57/57/57 61/61/61 60/60/60
f 60/60/60 61/61/61 62/62/12
f 61/61/61 63/63/62 62/62/12
f 63/63/62 61/61/61 57/57/57
f 62/62/12 63/63/62 64/64/15
f 64/64/15 63/63/62 65/65/63
f 63/63/62 66/66/64 65/65/63
f 65/65/63 66/66/64 67/67/65
f 58/58/58 53/53/53 68/68/66
f 66/66/64 63/63/62 68/68/66
f 67/67/65 66/66/64 68/68/66
f 69/69/67 58/58/58 68/68/66
f 57/57/57 58/58/58 69/69/67
f 63/63/62 57/57/57 69/69/67
f 68/68/66 63/63/62 69/69/67
f 68/68/66 53/53/53 70/70/68
f 67/67/65 68/68/66 70/70/68
f 53/53/53 54/54/54 70/70/68
f 54/54/54 71/71/69 70/70/68
f 70/70/68 72/72/70 67/67/65
f 71/71/69 72/72/70 70/70/68
f 72/72/70 73/73/71 67/67/65
f 67/67/65 73/73/71 74/74/19
f 67/67/65 74/74/19 65/65/63
f 74/74/19 73/73/71 75/75/20
f 75/75/20 73/73/71 76/76/22
f 76/76/22 73/73/71 77/77/72
f 77/77/72 73/73/71 78/78/73
f 73/73/71 72/72/70 78/78/73
f 78/78/73 72/72/70 79/79/74
f 72/72/70 71/71/69 79/79/74
f 54/54/54 52/52/52 80/80/75
f 71/71/69 54/54/54 80/80/75
f 79/79/74 71/71/69 80/80/75
f 52/52/52 50/50/50 81/81/76
f 80/80/75 52/52/52 81/81/76
f 60/60/60 62/62/12 82/82/77
f 80/80/75 83/83/78 79/79/74
f 81/81/76 83/83/78 80/80/75
f 79/79/74 84/84/79 78/78/73
f 83/83/78 84/84/79 79/79/74
f 78/78/73 84/84/79 85/85/80
f 85/85/80 84/84/79 86/86/81
f 84/84/79 83/83/78 87/87/82
f 84/84/79 87/87/82 86/86/81
f 87/87/82 83/83/78 88/88/83
f 86/86/81 87/87/82 88/88/83
f 83/83/78 81/81/76 89/89/84
f 88/88/83 83/83/78 89/89/84
f 88/88/83 90/90/85 86/86/81
f 90/90/85 91/91/86 86/86/81
f 86/86/81 91/91/86 92/92/87
f 91/91/86 93/93/31 92/92/87
f 93/93/31 94/94/88 92/92/87
f 92/92/87 94/94/88 86/86/81
f 86/86/81 94/94/88 85/85/80
f 85/85/80 94/94/88 78/78/73
f 78/78/73 94/94/88 77/77/72
f 77/77/72 94/94/88 76/76/22
f 94/94/88 93/93/31 95/95/30
f 76/76/22 94/94/88 95/95/30
f 91/91/86 96/96/89 93/93/31
f 97/97/90 98/98/91 99/99/92
f 99/99/92 98/98/91 100/100/93
f 100/100/93 98/98/91 101/101/94
f 101/101/94 98/98/91 102/102/95
f 98/98/91 97/97/90 103/103/96
f 102/102/95 98/98/91 103/103/96
f 103/103/96 97/97/90 104/104/97
f 104/104/97 97/97/90 105/105/98
f 97/97/90 99/99/92 105/105/98
f 105/105/98 99/99/92 106/106/99
f 100/100/93 107/107/100 99/99/92
f 99/99/92 107/107/100 106/106/99
f 106/106/99 107/107/100 108/108/101
f 108/108/101 107/107/100 109/109/37
f 109/109/37 107/107/100 110/110/102
f 107/107/100 111/111/103 110/110/102
f 111/111/103 107/107/100 100/100/93
f 110/110/102 111/111/103 112/112/104
f 112/112/104 111/111/103 100/100/93
f 110/110/102 112/112/104 113/113/105
f 113/113/105 112/112/104 114/114/9
f 112/112/104 115/115/106 114/114/9
f 114/114/9 115/115/106 116/116/107
f 115/115/106 117/117/108 116/116/107
f 112/112/104 117/117/108 115/115/106
f 116/116/107 117/117/108 118/118/109
f 118/118/109 117/117/108 119/119/110
f 120/120/111 102/102/95 119/119/110
f 102/102/95 120/120/111 101/101/94
f 117/117/108 120/120/111 119/119/110
f 120/120/111 117/117/108 101/101/94
f 119/119/110 102/102/95 121/121/112
f 121/121/112 102/102/95 122/122/113
f 102/102/95 103/103/96 122/122/113
f 103/103/96 104/104/97 123/123/114
f 122/122/113 103/103/96 123/123/114
f 104/104/97 105/105/98 124/124/115
f 123/123/114 104/104/97 124/124/115
f 105/105/98 106/106/99 125/125/116
f 124/124/115 105/105/98 125/125/116
f 125/125/116 106/106/99 126/126/117
f 106/106/99 108/108/101 127/127/118
f 106/106/99 127/127/118 126/126/117
f 126/126/117 127/127/118 128/128/119
f 128/128/119 125/125/116 126/126/117
f 127/127/118 129/129/45 128/128/119
f 129/129/45 130/130/120 128/128/119
f 128/128/119 130/130/120 131/131/121
f 130/130/120 132/132/122 131/131/121
f 131/131/121 133/133/123 128/128/119
f 132/132/122 133/133/123 131/131/121
f 116/116/107 134/134/124 114/114/9
f 123/123/114 135/135/125 122/122/113
f 132/132/122 130/130/120 136/136/89
f 132/132/122 137/137/126 133/133/123
f 137/137/126 138/138/127 133/133/123
f 133/133/123 138/138/127 139/139/128
f 138/138/127 140/140/129 139/139/128
f 124/124/115 140/140/129 123/123/114
f 123/123/114 140/140/129 135/135/125
f 141/141/130 140/140/129 124/124/115
f 139/139/128 141/141/130 133/133/123
f 139/139/128 140/140/129 141/141/130
f 125/125/116 141/141/130 124/124/115
f 140/140/129 138/138/127 142/142/131
f 135/135/125 140/140/129 142/142/131
f 128/128/119 143/143/132 125/125/116
f 133/133/123 143/143/132 128/128/119
f 141/141/130 143/143/132 133/133/123
f 143/143/132 141/141/130 125/125/116
f 117/117/108 112/112/104 144/144/133
f 112/112/104 100/100/93 144/144/133
f 144/144/133 100/100/93 101/101/94
f 101/101/94 117/117/108 144/144/133
