# Blender 4.3.0
# www.blender.org
mtllib delivery_bot_no_flag.mtl
o Cube.001
v 0.670794 -1.667303 1.651619
v 0.670794 -1.203918 1.651619
v 0.670794 -1.667303 0.836120
v 0.670794 -1.203918 0.836120
v 1.134180 -1.667303 1.651619
v 1.134180 -1.203918 1.651619
v 1.134180 -1.667303 0.836120
v 1.134180 -1.203918 0.836120
v -0.670795 -1.667303 1.651619
v -0.670795 -1.203918 1.651619
v -0.670795 -1.667303 0.836120
v -0.670795 -1.203918 0.836120
v -1.134180 -1.667303 1.651619
v -1.134180 -1.203918 1.651619
v -1.134180 -1.667303 0.836120
v -1.134180 -1.203918 0.836120
v 0.670794 -1.667303 -1.651619
v 0.670794 -1.203918 -1.651619
v 0.670794 -1.667303 -0.836120
v 0.670794 -1.203918 -0.836120
v 1.134180 -1.667303 -1.651619
v 1.134180 -1.203918 -1.651619
v 1.134180 -1.667303 -0.836120
v 1.134180 -1.203918 -0.836120
v -0.670795 -1.667303 -1.651619
v -0.670795 -1.203918 -1.651619
v -0.670795 -1.667303 -0.836120
v -0.670795 -1.203918 -0.836120
v -1.134180 -1.667303 -1.651619
v -1.134180 -1.203918 -1.651619
v -1.134180 -1.667303 -0.836120
v -1.134180 -1.203918 -0.836120
v 0.000000 1.000000 1.522931
v -0.000000 0.966071 -1.531266
v -0.195090 0.980785 1.522931
v -0.188471 0.947509 -1.531266
v -0.382683 0.923880 1.522931
v -0.369700 0.892534 -1.531266
v -0.555570 0.831470 1.522931
v -0.536721 0.803259 -1.531266
v -0.707107 0.707107 1.522931
v -0.683116 0.683116 -1.531266
v -0.831469 0.555570 1.522931
v -0.803259 0.536721 -1.531266
v -0.923879 0.382683 1.522931
v -0.831470 0.555570 -1.783870
v -0.980785 0.195090 1.522931
v -0.707107 0.707107 -1.783870
v -1.000000 -0.000000 1.522931
v -0.555570 0.831470 -1.783870
v 1.000000 -1.579223 -1.531266
v 1.000000 -1.579223 1.522931
v -1.000000 -1.579223 1.522931
v -1.000000 -1.579223 -1.531266
v 1.000000 -0.000000 1.522931
v -0.382684 0.923880 -1.783870
v 0.980785 0.195090 1.522931
v -0.000000 1.000000 -1.783870
v 0.923880 0.382683 1.522931
v -0.195091 0.980785 -1.783870
v 0.831470 0.555570 1.522931
v 0.803259 0.536721 -1.531266
v 0.707107 0.707107 1.522931
v 0.683115 0.683116 -1.531266
v 0.555570 0.831470 1.522931
v 0.536720 0.803259 -1.531266
v 0.382684 0.923880 1.522931
v 0.369699 0.892534 -1.531266
v 0.195091 0.980785 1.522931
v 0.188471 0.947509 -1.531266
v -0.195091 0.980785 -1.531266
v -0.000000 1.000000 -1.531266
v -0.382684 0.923880 -1.531266
v -0.555570 0.831470 -1.531266
v -0.707107 0.707107 -1.531266
v -0.831470 0.555570 -1.531266
v -0.923880 0.382684 -1.531266
v -0.980785 0.195090 -1.531266
v -1.000000 0.000000 -1.531266
v 1.000000 0.000000 -1.531266
v 0.980785 0.195090 -1.531266
v 0.923879 0.382684 -1.531266
v 0.831469 0.555570 -1.531266
v 0.707107 0.707107 -1.531266
v 0.555570 0.831470 -1.531266
v 0.382683 0.923880 -1.531266
v 0.195090 0.980785 -1.531266
v 0.707106 0.707107 -1.783870
v 0.831469 0.555570 -1.783870
v 0.555570 0.831470 -1.783870
v 0.382683 0.923880 -1.783870
v 0.195090 0.980785 -1.783870
v -0.188471 0.947509 -1.783870
v -0.000000 0.966071 -1.783870
v -0.369700 0.892534 -1.783870
v -0.536721 0.803259 -1.783870
v -0.683116 0.683116 -1.783870
v -0.803259 0.536721 -1.783870
v 0.683115 0.683116 -1.783870
v 0.803259 0.536721 -1.783870
v 0.536720 0.803259 -1.783870
v 0.369699 0.892534 -1.783870
v 0.188471 0.947509 -1.783870
vn -1.0000 -0.0000 -0.0000
vn -0.0000 -0.0000 -1.0000
vn 1.0000 -0.0000 -0.0000
vn -0.0000 -0.0000 1.0000
vn -0.0000 -1.0000 -0.0000
vn -0.0000 1.0000 -0.0000
vn -0.0980 0.9952 -0.0000
vn -0.2903 0.9569 -0.0000
vn -0.4714 0.8819 -0.0000
vn -0.6344 0.7730 -0.0000
vn -0.7730 0.6344 -0.0000
vn -0.8819 0.4714 -0.0000
vn -0.9569 0.2903 -0.0000
vn -0.9952 0.0980 -0.0000
vn 0.9952 0.0980 -0.0000
vn 0.9569 0.2903 -0.0000
vn 0.8819 0.4714 -0.0000
vn 0.7730 0.6344 -0.0000
vn 0.6344 0.7730 -0.0000
vn 0.4714 0.8819 -0.0000
vn 0.2903 0.9569 -0.0000
vn 0.0980 0.9952 -0.0000
vn 0.2903 -0.9569 -0.0000
vn -0.2903 -0.9569 -0.0000
vn 0.0980 -0.9952 -0.0000
vn -0.5556 -0.8315 -0.0000
vn 0.5556 -0.8315 -0.0000
vn -0.4714 -0.8819 -0.0000
vn -0.0980 -0.9952 -0.0000
vn 0.4714 -0.8819 -0.0000
vn 0.6344 -0.7730 -0.0000
vn 0.7730 -0.6344 -0.0000
vn -0.7730 -0.6344 -0.0000
vn -0.6344 -0.7730 -0.0000
vt 0.970254 0.377225
vt 0.970254 0.429095
vt 0.871631 0.429095
vt 0.871631 0.377225
vt 0.799178 0.374556
vt 0.854448 0.374556
vt 0.854448 0.429826
vt 0.799178 0.429826
vt 0.970397 0.377010
vt 0.970397 0.429352
vt 0.871372 0.429352
vt 0.871372 0.377010
vt 0.853498 0.374561
vt 0.853498 0.428528
vt 0.799531 0.428528
vt 0.799531 0.374561
vt 0.970407 0.376927
vt 0.970407 0.430485
vt 0.871176 0.430485
vt 0.871176 0.376927
vt 0.970205 0.376916
vt 0.970205 0.428925
vt 0.871541 0.428925
vt 0.871541 0.376916
vt 0.205479 0.965988
vt 0.205479 0.546426
vt 0.226830 0.546426
vt 0.226830 0.965988
vt 0.247360 0.546426
vt 0.247360 0.965988
vt 0.266280 0.546426
vt 0.266280 0.965988
vt 0.285341 0.546426
vt 0.285341 0.965988
vt 0.308052 0.546426
vt 0.308052 0.965988
vt 0.333539 0.546426
vt 0.333539 0.965988
vt 0.360823 0.546426
vt 0.360823 0.965988
vt 0.388856 0.546426
vt 0.388856 0.965988
vt 0.410900 0.990609
vt 0.983253 0.990609
vt 0.983253 0.684316
vt 0.410900 0.684316
vt 0.353857 0.223794
vt 0.707713 0.223794
vt 0.708781 0.507933
vt 0.353857 0.507933
vt 0.982970 0.991786
vt 0.410981 0.991786
vt 0.410981 0.683649
vt 0.982970 0.683649
vt 0.000000 0.231653
vt 0.353857 0.231653
vt 0.353857 0.515793
vt 0.000000 0.515793
vt 0.451296 0.524239
vt 0.477678 0.529461
vt 0.474508 0.545444
vt 0.447334 0.539748
vt 0.022102 0.965988
vt 0.022102 0.546426
vt 0.050136 0.546426
vt 0.050136 0.965988
vt 0.077420 0.546426
vt 0.077420 0.965988
vt 0.102907 0.546426
vt 0.102907 0.965988
vt 0.125617 0.546426
vt 0.125617 0.965988
vt 0.144678 0.546426
vt 0.144678 0.965988
vt 0.163599 0.546426
vt 0.163599 0.965988
vt 0.176928 -0.000000
vt 0.211445 0.004451
vt 0.244636 0.017634
vt 0.275224 0.039041
vt 0.302035 0.067850
vt 0.324039 0.102954
vt 0.340389 0.143003
vt 0.350457 0.186460
vt 0.003400 0.186460
vt 0.013468 0.143003
vt 0.029818 0.102954
vt 0.051821 0.067850
vt 0.078632 0.039041
vt 0.109221 0.017634
vt 0.142411 0.004451
vt 0.184129 0.546426
vt 0.184129 0.965988
vt 0.997939 0.002811
vt 0.997939 0.359472
vt 0.766204 0.359472
vt 0.766204 0.002811
vt 0.600958 0.554068
vt 0.626747 0.551861
vt 0.633416 0.596920
vt 0.604688 0.598891
vt 0.661804 0.592852
vt 0.635998 0.596887
vt 0.631263 0.551547
vt 0.654555 0.548359
vt 0.515164 0.596859
vt 0.488833 0.593247
vt 0.497227 0.548673
vt 0.521063 0.551851
vt 0.522528 0.552611
vt 0.549073 0.554384
vt 0.546030 0.598891
vt 0.517900 0.597319
vt 0.574462 0.555128
vt 0.574262 0.599751
vt 0.499729 0.532718
vt 0.522866 0.534864
vt 0.670650 0.528815
vt 0.696474 0.523840
vt 0.700101 0.539548
vt 0.673684 0.544732
vt 0.651498 0.532038
vt 0.629588 0.534412
vt 0.600847 0.535810
vt 0.602793 0.553788
vt 0.367324 0.135144
vt 0.383674 0.095094
vt 0.388666 0.099461
vt 0.409922 0.065548
vt 0.435824 0.037716
vt 0.465374 0.017035
vt 0.497439 0.004300
vt 0.530785 -0.000000
vt 0.564131 0.004300
vt 0.596195 0.017035
vt 0.625746 0.037716
vt 0.651647 0.065548
vt 0.672904 0.099461
vt 0.677895 0.095094
vt 0.694245 0.135144
vt 0.704313 0.178600
vt 0.357256 0.178600
vt 0.574375 0.535886
vt 0.574387 0.554576
vt 0.473738 0.646267
vt 0.473805 0.638304
vt 0.529480 0.638191
vt 0.529560 0.646020
vt 0.709249 0.579322
vt 0.684383 0.588640
vt 0.793010 0.456349
vt 0.796999 0.459243
vt 0.787928 0.467160
vt 0.783643 0.461275
vt 0.496657 0.549839
vt 0.489337 0.593452
vt 0.574680 0.599504
vt 0.544116 0.599001
vt 0.546268 0.553885
vt 0.547420 0.535955
vt 0.606501 0.598618
vt 0.464546 0.588500
vt 0.439409 0.578919
vt 0.650368 0.548573
vt 0.658760 0.593610
vt 0.673863 0.545065
vt 0.684019 0.588619
vt 0.700956 0.539278
vt 0.710426 0.579691
vt 0.446771 0.540474
vt 0.473738 0.545568
vt 0.463908 0.589217
vt 0.439295 0.579092
s 0
usemtl Material
f 1/1/1 2/2/1 4/3/1 3/4/1
f 3/5/2 4/6/2 8/7/2 7/8/2
f 7/9/3 8/10/3 6/11/3 5/12/3
f 5/13/4 6/14/4 2/15/4 1/16/4
f 3/17/5 7/18/5 5/19/5 1/20/5
f 8/21/6 4/22/6 2/23/6 6/24/6
f 9/1/3 11/4/3 12/3/3 10/2/3
f 11/5/2 15/8/2 16/7/2 12/6/2
f 15/9/1 13/12/1 14/11/1 16/10/1
f 13/13/4 9/16/4 10/15/4 14/14/4
f 11/17/5 9/20/5 13/19/5 15/18/5
f 16/21/6 14/24/6 10/23/6 12/22/6
f 17/1/1 19/4/1 20/3/1 18/2/1
f 19/5/4 23/8/4 24/7/4 20/6/4
f 23/9/3 21/12/3 22/11/3 24/10/3
f 21/13/2 17/16/2 18/15/2 22/14/2
f 19/17/5 17/20/5 21/19/5 23/18/5
f 24/21/6 22/24/6 18/23/6 20/22/6
f 25/1/3 26/2/3 28/3/3 27/4/3
f 27/5/4 28/6/4 32/7/4 31/8/4
f 31/9/1 32/10/1 30/11/1 29/12/1
f 29/13/2 30/14/2 26/15/2 25/16/2
f 27/17/5 31/18/5 29/19/5 25/20/5
f 32/21/6 28/22/6 26/23/6 30/24/6
f 33/25/7 72/26/7 71/27/7 35/28/7
f 35/28/8 71/27/8 73/29/8 37/30/8
f 37/30/9 73/29/9 74/31/9 39/32/9
f 39/32/10 74/31/10 75/33/10 41/34/10
f 41/34/11 75/33/11 76/35/11 43/36/11
f 43/36/12 76/35/12 77/37/12 45/38/12
f 45/38/13 77/37/13 78/39/13 47/40/13
f 47/40/14 78/39/14 79/41/14 49/42/14
f 80/43/3 55/44/3 52/45/3 51/46/3
f 79/47/2 80/48/2 51/49/2 54/50/2
f 49/51/1 79/52/1 54/53/1 53/54/1
f 55/55/4 49/56/4 53/57/4 52/58/4
f 100/59/2 99/60/2 88/61/2 89/62/2
f 55/63/15 80/64/15 81/65/15 57/66/15
f 57/66/16 81/65/16 82/67/16 59/68/16
f 59/68/17 82/67/17 83/69/17 61/70/17
f 61/70/18 83/69/18 84/71/18 63/72/18
f 63/72/19 84/71/19 85/73/19 65/74/19
f 65/74/20 85/73/20 86/75/20 67/76/20
f 33/77/4 35/78/4 37/79/4 39/80/4 41/81/4 43/82/4 45/83/4 47/84/4 49/56/4 55/55/4 57/85/4 59/86/4 61/87/4 63/88/4 65/89/4 67/90/4 69/91/4
f 67/76/21 86/75/21 87/92/21 69/93/21
f 69/93/22 87/92/22 72/26/22 33/25/22
f 53/94/5 54/95/5 51/96/5 52/97/5
f 36/98/23 38/99/23 95/100/23 93/101/23
f 74/102/9 73/103/9 56/104/9 50/105/9
f 86/106/20 85/107/20 90/108/20 91/109/20
f 68/110/24 70/111/24 103/112/24 102/113/24
f 34/114/25 36/98/25 93/101/25 94/115/25
f 101/116/2 102/117/2 91/109/2 90/108/2
f 97/118/2 98/119/2 46/120/2 48/121/2
f 96/122/2 97/118/2 48/121/2 50/105/2
f 95/123/2 96/122/2 50/105/2 56/104/2
f 93/124/2 95/123/2 56/104/2 60/125/2
f 77/126/2 76/127/2 44/128/2 42/129/2 40/130/2 38/131/2 36/132/2 34/133/2 70/134/2 68/135/2 66/136/2 64/137/2 62/138/2 83/139/2 82/140/2 81/141/2 80/48/2 79/47/2 78/142/2
f 94/143/2 93/124/2 60/125/2 58/144/2
f 44/145/26 76/146/26 46/147/26 98/148/26
f 76/149/11 75/150/11 48/121/11 46/120/11
f 83/151/27 62/152/27 100/153/27 89/154/27
f 66/155/28 68/110/28 102/113/28 101/156/28
f 72/157/22 87/158/22 92/159/22 58/144/22
f 99/60/2 101/116/2 90/108/2 88/61/2
f 102/117/2 103/160/2 92/159/2 91/109/2
f 103/160/2 94/143/2 58/144/2 92/159/2
f 70/111/29 34/114/29 94/115/29 103/112/29
f 71/161/7 72/157/7 58/144/7 60/125/7
f 84/162/18 83/163/18 89/62/18 88/61/18
f 38/99/30 40/164/30 96/165/30 95/100/30
f 40/164/31 42/166/31 97/167/31 96/165/31
f 87/158/21 86/106/21 91/109/21 92/159/21
f 75/150/10 74/102/10 50/105/10 48/121/10
f 42/166/32 44/168/32 98/169/32 97/167/32
f 62/170/33 64/171/33 99/172/33 100/173/33
f 85/107/19 84/162/19 88/61/19 90/108/19
f 73/103/8 71/161/8 60/125/8 56/104/8
f 64/171/34 66/155/34 101/156/34 99/172/34
