# Blender 4.3.0
# www.blender.org
mtllib delivery_bot_flag.mtl
o Cube.002
v -0.053994 0.001175 0.053229
v -0.053994 0.001175 -0.053051
v 0.052285 0.001175 0.053228
v -0.053994 1.698775 0.053229
v 0.052285 1.698775 0.053229
v -0.053994 1.698775 -0.053051
v -0.053994 1.698775 0.768403
v -0.053994 1.898291 0.053229
v -0.053994 2.097806 0.053229
v -0.053994 1.898291 0.523231
v -0.053994 1.898291 -0.053051
v -0.053994 2.097806 -0.053051
v 0.052285 1.898291 -0.053051
v 0.052285 1.698775 -0.053051
v 0.052285 2.097806 -0.053051
v 0.052285 1.898291 0.053229
v 0.052285 2.097806 0.053229
v 0.052286 1.898291 0.523231
v 0.052286 1.698775 0.768403
v 0.052286 2.097806 0.768403
v -0.053994 2.097806 0.768403
v 0.052285 0.001175 -0.053051
vn -1.0000 -0.0000 -0.0000
vn -0.0000 -1.0000 -0.0000
vn -0.0000 -0.0000 1.0000
vn -0.0000 -0.0000 -1.0000
vn 1.0000 -0.0000 -0.0000
vn -0.0000 0.7756 0.6312
vn -0.0000 -0.7756 0.6312
vn -0.0000 1.0000 -0.0000
vt 0.754235 0.004751
vt 0.754868 0.496554
vt 0.725017 0.496554
vt 0.724384 0.004751
vt 1.492715 0.522670
vt 1.492715 0.503828
vt 1.541559 0.496956
vt 1.541559 0.529542
vt 0.753756 0.004401
vt 0.753756 0.495634
vt 0.725740 0.495634
vt 0.725740 0.004401
vt 0.758448 0.671401
vt 0.758448 0.643511
vt 0.975585 0.643511
vt 0.975585 0.671401
vt 0.757800 0.509699
vt 0.757800 0.589500
vt 0.719763 0.589500
vt 0.719763 0.509699
vt 0.997317 0.509699
vt 0.940393 0.589500
vt 0.757800 0.674882
vt 0.996121 0.674882
vt 0.719763 0.674882
vt 0.757187 0.508352
vt 0.757187 0.592437
vt 0.720508 0.592437
vt 0.720498 0.508352
vt 0.757187 0.676522
vt 0.720519 0.676522
vt 0.719677 0.674844
vt 0.719657 0.588925
vt 0.758896 0.588925
vt 0.758916 0.674844
vt 0.719636 0.509481
vt 0.758876 0.509481
vt 0.939530 0.588925
vt 0.996648 0.674844
vt 0.996607 0.509481
vt 0.833586 0.517863
vt 0.833586 0.593990
vt 0.796435 0.593990
vt 0.796435 0.517863
vt 0.833586 0.670118
vt 0.796435 0.670118
vt 0.980291 0.644623
vt 0.980291 0.671805
vt 0.757101 0.671805
vt 0.757102 0.644623
vt 0.895391 0.446665
vt 0.895391 0.489777
vt 0.853051 0.489797
vt 0.853051 0.446645
vt 0.754164 0.004918
vt 0.754164 0.496141
vt 0.724504 0.496141
vt 0.724433 0.004918
vt 0.754035 0.004387
vt 0.754229 0.495946
vt 0.724719 0.495946
vt 0.724526 0.004387
s 0
usemtl Material
f 1/1/1 4/2/1 6/3/1 2/4/1
f 2/5/2 22/6/2 3/7/2 1/8/2
f 3/9/3 5/10/3 4/11/3 1/12/3
f 4/13/2 5/14/2 19/15/2 7/16/2
f 4/17/1 8/18/1 11/19/1 6/20/1
f 8/18/1 4/17/1 7/21/1 10/22/1
f 9/23/1 8/18/1 10/22/1 21/24/1
f 8/18/1 9/23/1 12/25/1 11/19/1
f 6/26/4 11/27/4 13/28/4 14/29/4
f 11/27/4 12/30/4 15/31/4 13/28/4
f 14/32/5 13/33/5 16/34/5 5/35/5
f 13/33/5 15/36/5 17/37/5 16/34/5
f 5/35/5 16/34/5 18/38/5 19/39/5
f 16/34/5 17/37/5 20/40/5 18/38/5
f 19/41/6 18/42/6 10/43/6 7/44/6
f 18/42/7 20/45/7 21/46/7 10/43/7
f 17/47/8 9/48/8 21/49/8 20/50/8
f 15/51/8 12/52/8 9/53/8 17/54/8
f 2/55/4 6/56/4 14/57/4 22/58/4
f 22/59/5 14/60/5 5/61/5 3/62/5
