# Blender 4.3.0
# www.blender.org
mtllib mail_box.mtl
o Cube
v -0.000000 1.000000 0.995970
v 0.000000 0.966071 -2.058227
v -0.195091 0.980785 0.995970
v -0.188471 0.947509 -2.058227
v -0.382684 0.923879 0.995970
v -0.369699 0.892534 -2.058227
v -0.555570 0.831470 0.995969
v -0.536720 0.803259 -2.058227
v -0.707107 0.707107 0.995969
v -0.683115 0.683116 -2.058227
v -0.831470 0.555570 0.995969
v -0.803259 0.536721 -2.058227
v -0.923880 0.382683 0.995969
v -0.831469 0.555570 -2.310831
v -0.980785 0.195090 0.995969
v -0.707106 0.707107 -2.310831
v -1.000000 -0.000000 0.995969
v -0.555570 0.831470 -2.310831
v 1.000000 -1.579223 -2.058227
v 1.000000 -1.579223 0.995970
v -1.000000 -1.579223 0.995969
v -1.000000 -1.579223 -2.058228
v 1.000000 -0.000000 0.995970
v -0.382683 0.923880 -2.310831
v 0.980785 0.195090 0.995970
v 0.000000 1.000000 -2.310831
v 0.923879 0.382683 0.995970
v -0.195090 0.980785 -2.310831
v 0.831469 0.555570 0.995970
v 0.803259 0.536721 -2.058227
v 0.707107 0.707107 0.995970
v 0.683116 0.683116 -2.058227
v 0.555570 0.831470 0.995970
v 0.536721 0.803259 -2.058227
v 0.382683 0.923879 0.995970
v 0.369700 0.892534 -2.058227
v 0.195090 0.980785 0.995970
v 0.188471 0.947509 -2.058227
v -0.195090 0.980785 -2.058227
v 0.000000 1.000000 -2.058227
v -0.382683 0.923880 -2.058227
v -0.555570 0.831470 -2.058227
v -0.707106 0.707107 -2.058227
v -0.831469 0.555570 -2.058227
v -0.923879 0.382684 -2.058227
v -0.980785 0.195090 -2.058227
v -1.000000 0.000000 -2.058227
v 1.000000 0.000000 -2.058227
v 0.980786 0.195090 -2.058227
v 0.923880 0.382684 -2.058227
v 0.831470 0.555570 -2.058227
v 0.707107 0.707107 -2.058227
v 0.555570 0.831470 -2.058227
v 0.382684 0.923880 -2.058227
v 0.195091 0.980785 -2.058227
v 0.707107 0.707107 -2.310831
v 0.831470 0.555570 -2.310831
v 0.555570 0.831470 -2.310831
v 0.382684 0.923880 -2.310831
v 0.195091 0.980785 -2.310831
v -0.188471 0.947509 -2.310831
v 0.000000 0.966071 -2.310831
v -0.369699 0.892534 -2.310831
v -0.536720 0.803259 -2.310831
v -0.683115 0.683116 -2.310831
v -0.803259 0.536721 -2.310831
v 0.683116 0.683116 -2.310831
v 0.803259 0.536721 -2.310831
v 0.536721 0.803259 -2.310831
v 0.369700 0.892534 -2.310831
v 0.188471 0.947509 -2.310831
v -1.105325 -0.428000 -1.702463
v -1.105325 1.668631 -1.702463
v -1.105325 -0.428000 -1.808742
v -1.105325 1.668631 -1.808742
v -0.999046 -0.428000 -1.702463
v -0.999046 1.668631 -1.702463
v -0.999046 -0.428000 -1.808742
v -0.999046 1.668631 -1.808742
v -1.105325 1.269599 -1.702463
v -1.105325 1.269599 -1.808742
v -0.999046 1.269599 -1.808742
v -0.999046 1.269599 -1.702463
v -1.105325 1.269599 -0.987288
v -1.105325 1.668631 -0.987288
v -0.999046 1.668631 -0.987288
v -0.999046 1.269599 -0.987288
v -1.105325 1.469115 -1.702463
v -1.105325 1.469115 -1.808742
v -0.999046 1.469115 -1.808742
v -0.999046 1.469115 -1.702463
v -1.105325 1.469115 -1.232460
v -0.999046 1.469115 -1.232460
v -0.670794 -1.667303 -2.209124
v -0.670794 -1.203918 -2.209124
v -0.670794 -1.667303 -1.393625
v -0.670794 -1.203918 -1.393625
v -1.134180 -1.667303 -2.209124
v -1.134180 -1.203918 -2.209124
v -1.134180 -1.667303 -1.393625
v -1.134180 -1.203918 -1.393625
v 0.670795 -1.667303 -2.209124
v 0.670795 -1.203918 -2.209124
v 0.670795 -1.667303 -1.393625
v 0.670795 -1.203918 -1.393625
v 1.134180 -1.667303 -2.209124
v 1.134180 -1.203918 -2.209124
v 1.134180 -1.667303 -1.393625
v 1.134180 -1.203918 -1.393625
v -0.670795 -1.667303 1.094114
v -0.670795 -1.203918 1.094114
v -0.670795 -1.667303 0.278615
v -0.670795 -1.203918 0.278615
v -1.134180 -1.667303 1.094114
v -1.134180 -1.203918 1.094114
v -1.134180 -1.667303 0.278615
v -1.134180 -1.203918 0.278615
v 0.670794 -1.667303 1.094114
v 0.670794 -1.203918 1.094114
v 0.670795 -1.667303 0.278615
v 0.670795 -1.203918 0.278615
v 1.134180 -1.667303 1.094114
v 1.134180 -1.203918 1.094114
v 1.134180 -1.667303 0.278615
v 1.134180 -1.203918 0.278615
vn -0.0980 0.9952 -0.0000
vn -0.2903 0.9569 -0.0000
vn -0.4714 0.8819 -0.0000
vn -0.6344 0.7730 -0.0000
vn -0.7730 0.6344 -0.0000
vn -0.8819 0.4714 -0.0000
vn -0.9569 0.2903 -0.0000
vn -0.9952 0.0980 -0.0000
vn 1.0000 -0.0000 -0.0000
vn -0.0000 -0.0000 -1.0000
vn -1.0000 -0.0000 -0.0000
vn -0.0000 -0.0000 1.0000
vn 0.9952 0.0980 -0.0000
vn 0.9569 0.2903 -0.0000
vn 0.8819 0.4714 -0.0000
vn 0.7730 0.6344 -0.0000
vn 0.6344 0.7730 -0.0000
vn 0.4714 0.8819 -0.0000
vn 0.2903 0.9569 -0.0000
vn 0.0980 0.9952 -0.0000
vn -0.0000 -1.0000 -0.0000
vn 0.2903 -0.9569 -0.0000
vn -0.2903 -0.9569 -0.0000
vn 0.0980 -0.9952 -0.0000
vn -0.5556 -0.8315 -0.0000
vn 0.5556 -0.8315 -0.0000
vn -0.4714 -0.8819 -0.0000
vn -0.0980 -0.9952 -0.0000
vn 0.4714 -0.8819 -0.0000
vn 0.6344 -0.7730 -0.0000
vn 0.7730 -0.6344 -0.0000
vn -0.7730 -0.6344 -0.0000
vn -0.6344 -0.7730 -0.0000
vn -0.0000 1.0000 -0.0000
vn -0.0000 -0.7756 0.6312
vn -0.0000 0.7756 0.6312
vt 0.205479 0.965988
vt 0.205479 0.546426
vt 0.226830 0.546426
vt 0.226830 0.965988
vt 0.247360 0.546426
vt 0.247360 0.965988
vt 0.266280 0.546426
vt 0.266280 0.965988
vt 0.285341 0.546426
vt 0.285341 0.965988
vt 0.308052 0.546426
vt 0.308052 0.965988
vt 0.333539 0.546426
vt 0.333539 0.965988
vt 0.360823 0.546426
vt 0.360823 0.965988
vt 0.388856 0.546426
vt 0.388856 0.965988
vt 0.410900 0.990609
vt 0.983253 0.990609
vt 0.983253 0.684316
vt 0.410900 0.684316
vt 0.353857 0.223794
vt 0.707713 0.223794
vt 0.708781 0.507933
vt 0.353857 0.507933
vt 0.982970 0.991786
vt 0.410981 0.991786
vt 0.410981 0.683649
vt 0.982970 0.683649
vt 0.000000 0.231653
vt 0.353857 0.231653
vt 0.353857 0.515793
vt 0.000000 0.515793
vt 0.451296 0.524239
vt 0.477678 0.529461
vt 0.474508 0.545444
vt 0.447334 0.539748
vt 0.022102 0.965988
vt 0.022102 0.546426
vt 0.050136 0.546426
vt 0.050136 0.965988
vt 0.077420 0.546426
vt 0.077420 0.965988
vt 0.102907 0.546426
vt 0.102907 0.965988
vt 0.125617 0.546426
vt 0.125617 0.965988
vt 0.144678 0.546426
vt 0.144678 0.965988
vt 0.163599 0.546426
vt 0.163599 0.965988
vt 0.176928 -0.000000
vt 0.211445 0.004451
vt 0.244636 0.017634
vt 0.275224 0.039041
vt 0.302035 0.067850
vt 0.324039 0.102954
vt 0.340389 0.143003
vt 0.350457 0.186460
vt 0.003400 0.186460
vt 0.013468 0.143003
vt 0.029818 0.102954
vt 0.051821 0.067850
vt 0.078632 0.039041
vt 0.109221 0.017634
vt 0.142411 0.004451
vt 0.184129 0.546426
vt 0.184129 0.965988
vt 0.997939 0.002811
vt 0.997939 0.359472
vt 0.766204 0.359472
vt 0.766204 0.002811
vt 0.600958 0.554068
vt 0.626747 0.551861
vt 0.633416 0.596920
vt 0.604688 0.598891
vt 0.661804 0.592852
vt 0.635998 0.596887
vt 0.631263 0.551547
vt 0.654555 0.548359
vt 0.515164 0.596859
vt 0.488833 0.593247
vt 0.497227 0.548673
vt 0.521063 0.551851
vt 0.522528 0.552611
vt 0.549073 0.554384
vt 0.546030 0.598891
vt 0.517900 0.597319
vt 0.574462 0.555128
vt 0.574262 0.599751
vt 0.499729 0.532718
vt 0.522866 0.534864
vt 0.670650 0.528815
vt 0.696474 0.523840
vt 0.700101 0.539548
vt 0.673684 0.544732
vt 0.651498 0.532038
vt 0.629588 0.534412
vt 0.600847 0.535810
vt 0.602793 0.553788
vt 0.367324 0.135144
vt 0.383674 0.095094
vt 0.388666 0.099461
vt 0.409922 0.065548
vt 0.435824 0.037716
vt 0.465374 0.017035
vt 0.497439 0.004300
vt 0.530785 -0.000000
vt 0.564131 0.004300
vt 0.596195 0.017035
vt 0.625746 0.037716
vt 0.651647 0.065548
vt 0.672904 0.099461
vt 0.677895 0.095094
vt 0.694245 0.135144
vt 0.704313 0.178600
vt 0.357256 0.178600
vt 0.574375 0.535886
vt 0.574387 0.554576
vt 0.473738 0.646267
vt 0.473805 0.638304
vt 0.529480 0.638191
vt 0.529560 0.646020
vt 0.709249 0.579322
vt 0.684383 0.588640
vt 0.793010 0.456349
vt 0.796999 0.459243
vt 0.787928 0.467160
vt 0.783643 0.461275
vt 0.496657 0.549839
vt 0.489337 0.593452
vt 0.574680 0.599504
vt 0.544116 0.599001
vt 0.546268 0.553885
vt 0.547420 0.535955
vt 0.606501 0.598618
vt 0.464546 0.588500
vt 0.439409 0.578919
vt 0.650368 0.548573
vt 0.658760 0.593610
vt 0.673863 0.545065
vt 0.684019 0.588619
vt 0.700956 0.539278
vt 0.710426 0.579691
vt 0.446771 0.540474
vt 0.473738 0.545568
vt 0.463908 0.589217
vt 0.439295 0.579092
vt 0.757800 0.589500
vt 0.757800 0.674882
vt 0.719763 0.674882
vt 0.719763 0.589500
vt 0.757187 0.592437
vt 0.757187 0.676522
vt 0.720519 0.676522
vt 0.720508 0.592437
vt 0.719657 0.588925
vt 0.719636 0.509481
vt 0.758876 0.509481
vt 0.758896 0.588925
vt 0.757800 0.509699
vt 0.997317 0.509699
vt 0.940393 0.589500
vt 1.492715 0.522670
vt 1.492715 0.503828
vt 1.541559 0.496956
vt 1.541559 0.529542
vt 0.895391 0.446665
vt 0.895391 0.489777
vt 0.853051 0.489797
vt 0.853051 0.446645
vt 0.753756 0.004401
vt 0.753756 0.495634
vt 0.725740 0.495634
vt 0.725740 0.004401
vt 0.754035 0.004387
vt 0.754229 0.495946
vt 0.724719 0.495946
vt 0.724526 0.004387
vt 0.754164 0.004918
vt 0.754164 0.496141
vt 0.724504 0.496141
vt 0.724433 0.004918
vt 0.754235 0.004751
vt 0.754868 0.496554
vt 0.725017 0.496554
vt 0.724384 0.004751
vt 0.833586 0.593990
vt 0.833586 0.670118
vt 0.796435 0.670118
vt 0.796435 0.593990
vt 0.996607 0.509481
vt 0.939530 0.588925
vt 0.980291 0.644623
vt 0.980291 0.671805
vt 0.757101 0.671805
vt 0.757102 0.644623
vt 0.758448 0.671401
vt 0.758448 0.643511
vt 0.975585 0.643511
vt 0.975585 0.671401
vt 0.758916 0.674844
vt 0.996648 0.674844
vt 0.833586 0.517863
vt 0.796435 0.517863
vt 0.996121 0.674882
vt 0.719677 0.674844
vt 0.757187 0.508352
vt 0.720498 0.508352
vt 0.719763 0.509699
vt 0.970254 0.377225
vt 0.970254 0.429095
vt 0.871631 0.429095
vt 0.871631 0.377225
vt 0.799178 0.374556
vt 0.854448 0.374556
vt 0.854448 0.429826
vt 0.799178 0.429826
vt 0.970397 0.377010
vt 0.970397 0.429352
vt 0.871372 0.429352
vt 0.871372 0.377010
vt 0.853498 0.374561
vt 0.853498 0.428528
vt 0.799531 0.428528
vt 0.799531 0.374561
vt 0.970407 0.376927
vt 0.970407 0.430485
vt 0.871176 0.430485
vt 0.871176 0.376927
vt 0.970205 0.376916
vt 0.970205 0.428925
vt 0.871541 0.428925
vt 0.871541 0.376916
s 0
usemtl Material
f 1/1/1 40/2/1 39/3/1 3/4/1
f 3/4/2 39/3/2 41/5/2 5/6/2
f 5/6/3 41/5/3 42/7/3 7/8/3
f 7/8/4 42/7/4 43/9/4 9/10/4
f 9/10/5 43/9/5 44/11/5 11/12/5
f 11/12/6 44/11/6 45/13/6 13/14/6
f 13/14/7 45/13/7 46/15/7 15/16/7
f 15/16/8 46/15/8 47/17/8 17/18/8
f 48/19/9 23/20/9 20/21/9 19/22/9
f 47/23/10 48/24/10 19/25/10 22/26/10
f 17/27/11 47/28/11 22/29/11 21/30/11
f 23/31/12 17/32/12 21/33/12 20/34/12
f 68/35/10 67/36/10 56/37/10 57/38/10
f 23/39/13 48/40/13 49/41/13 25/42/13
f 25/42/14 49/41/14 50/43/14 27/44/14
f 27/44/15 50/43/15 51/45/15 29/46/15
f 29/46/16 51/45/16 52/47/16 31/48/16
f 31/48/17 52/47/17 53/49/17 33/50/17
f 33/50/18 53/49/18 54/51/18 35/52/18
f 1/53/12 3/54/12 5/55/12 7/56/12 9/57/12 11/58/12 13/59/12 15/60/12 17/32/12 23/31/12 25/61/12 27/62/12 29/63/12 31/64/12 33/65/12 35/66/12 37/67/12
f 35/52/19 54/51/19 55/68/19 37/69/19
f 37/69/20 55/68/20 40/2/20 1/1/20
f 21/70/21 22/71/21 19/72/21 20/73/21
f 4/74/22 6/75/22 63/76/22 61/77/22
f 42/78/3 41/79/3 24/80/3 18/81/3
f 54/82/18 53/83/18 58/84/18 59/85/18
f 36/86/23 38/87/23 71/88/23 70/89/23
f 2/90/24 4/74/24 61/77/24 62/91/24
f 69/92/10 70/93/10 59/85/10 58/84/10
f 65/94/10 66/95/10 14/96/10 16/97/10
f 64/98/10 65/94/10 16/97/10 18/81/10
f 63/99/10 64/98/10 18/81/10 24/80/10
f 61/100/10 63/99/10 24/80/10 28/101/10
f 45/102/10 44/103/10 12/104/10 10/105/10 8/106/10 6/107/10 4/108/10 2/109/10 38/110/10 36/111/10 34/112/10 32/113/10 30/114/10 51/115/10 50/116/10 49/117/10 48/24/10 47/23/10 46/118/10
f 62/119/10 61/100/10 28/101/10 26/120/10
f 12/121/25 44/122/25 14/123/25 66/124/25
f 44/125/5 43/126/5 16/97/5 14/96/5
f 51/127/26 30/128/26 68/129/26 57/130/26
f 34/131/27 36/86/27 70/89/27 69/132/27
f 40/133/20 55/134/20 60/135/20 26/120/20
f 67/36/10 69/92/10 58/84/10 56/37/10
f 70/93/10 71/136/10 60/135/10 59/85/10
f 71/136/10 62/119/10 26/120/10 60/135/10
f 38/87/28 2/90/28 62/91/28 71/88/28
f 39/137/1 40/133/1 26/120/1 28/101/1
f 52/138/16 51/139/16 57/38/16 56/37/16
f 6/75/29 8/140/29 64/141/29 63/76/29
f 8/140/30 10/142/30 65/143/30 64/141/30
f 55/134/19 54/82/19 59/85/19 60/135/19
f 43/126/4 42/78/4 18/81/4 16/97/4
f 10/142/31 12/144/31 66/145/31 65/143/31
f 30/146/32 32/147/32 67/148/32 68/149/32
f 53/83/17 52/138/17 56/37/17 58/84/17
f 41/79/2 39/137/2 28/101/2 24/80/2
f 32/147/33 34/131/33 69/132/33 67/148/33
f 88/150/11 73/151/11 75/152/11 89/153/11
f 89/154/10 75/155/10 79/156/10 90/157/10
f 90/158/9 79/159/9 77/160/9 91/161/9
f 88/150/11 80/162/11 84/163/11 92/164/11
f 74/165/21 78/166/21 76/167/21 72/168/21
f 79/169/34 75/170/34 73/171/34 77/172/34
f 76/173/12 83/174/12 80/175/12 72/176/12
f 78/177/9 82/178/9 83/179/9 76/180/9
f 74/181/10 81/182/10 82/183/10 78/184/10
f 72/185/11 80/186/11 81/187/11 74/188/11
f 93/189/35 86/190/35 85/191/35 92/192/35
f 91/161/9 77/160/9 86/193/9 93/194/9
f 77/195/34 73/196/34 85/197/34 86/198/34
f 80/199/21 83/200/21 87/201/21 84/202/21
f 83/203/9 91/161/9 93/194/9 87/204/9
f 87/205/36 93/189/36 92/192/36 84/206/36
f 73/151/11 88/150/11 92/164/11 85/207/11
f 82/208/9 90/158/9 91/161/9 83/203/9
f 81/209/10 89/154/10 90/157/10 82/210/10
f 80/162/11 88/150/11 89/153/11 81/211/11
f 94/212/9 95/213/9 97/214/9 96/215/9
f 96/216/12 97/217/12 101/218/12 100/219/12
f 100/220/11 101/221/11 99/222/11 98/223/11
f 98/224/10 99/225/10 95/226/10 94/227/10
f 96/228/21 100/229/21 98/230/21 94/231/21
f 101/232/34 97/233/34 95/234/34 99/235/34
f 102/212/11 104/215/11 105/214/11 103/213/11
f 104/216/12 108/219/12 109/218/12 105/217/12
f 108/220/9 106/223/9 107/222/9 109/221/9
f 106/224/10 102/227/10 103/226/10 107/225/10
f 104/228/21 102/231/21 106/230/21 108/229/21
f 109/232/34 107/235/34 103/234/34 105/233/34
f 110/212/9 112/215/9 113/214/9 111/213/9
f 112/216/10 116/219/10 117/218/10 113/217/10
f 116/220/11 114/223/11 115/222/11 117/221/11
f 114/224/12 110/227/12 111/226/12 115/225/12
f 112/228/21 110/231/21 114/230/21 116/229/21
f 117/232/34 115/235/34 111/234/34 113/233/34
f 118/212/11 119/213/11 121/214/11 120/215/11
f 120/216/10 121/217/10 125/218/10 124/219/10
f 124/220/9 125/221/9 123/222/9 122/223/9
f 122/224/12 123/225/12 119/226/12 118/227/12
f 120/228/21 124/229/21 122/230/21 118/231/21
f 125/232/34 121/233/34 119/234/34 123/235/34
