# Blender v2.83.4 OBJ File: 'Wooden Plane.blend'
# www.blender.org
mtllib Wooden Plane.mtl
o japanese_toy
v -0.445449 0.082658 -0.006986
v -0.444502 0.096638 -0.025177
v -0.463119 0.096850 0.001066
v -0.444126 0.124506 0.024865
v -0.470089 0.115949 0.004792
v -0.444704 0.116469 -0.027198
v -0.459676 0.116096 -0.014467
v -0.444518 0.096641 0.025167
v -0.333283 0.097611 0.041956
v 0.319336 0.008298 0.000038
v 0.238817 -0.000000 0.000031
v 0.319649 0.020191 -0.044951
v 0.320314 0.052585 -0.077780
v 0.238660 0.012925 -0.048298
v 0.319985 0.096726 -0.089860
v 0.237685 0.089180 -0.096563
v 0.320409 0.140893 -0.077713
v 0.239256 0.145124 -0.083724
v 0.319986 0.173193 -0.044890
v 0.239098 0.180480 -0.048328
v 0.319335 0.185119 -0.000038
v 0.229912 0.194238 -0.000846
v 0.319002 0.173363 0.044931
v 0.238717 0.180487 0.048297
v 0.319285 0.140955 0.077883
v 0.238829 0.145089 0.083733
v 0.320401 0.052573 0.077764
v 0.239234 0.048317 0.083743
v 0.319986 0.020224 0.044890
v 0.239128 0.012941 0.048328
v -0.056465 0.010788 -0.000000
v -0.056453 0.021613 -0.040400
v -0.056416 0.051187 -0.069975
v -0.056301 0.131988 -0.069976
v -0.056275 0.161561 -0.040401
v -0.444060 0.134560 -0.014881
v -0.056260 0.161562 0.040401
v -0.447901 0.136968 0.005535
v -0.340841 0.147167 0.003890
v -0.056298 0.131987 0.069976
v -0.332868 0.116849 0.039974
v -0.444134 0.116058 0.027123
v -0.056357 0.091587 0.080801
v -0.056414 0.051188 0.069975
v -0.056448 0.021612 0.040400
v -0.444127 0.085285 0.014356
v 0.473046 0.088560 0.002901
v 0.472968 0.099322 -0.008672
v 0.443534 0.071048 0.022270
v 0.443113 0.102224 0.034645
v 0.472971 0.102342 0.006333
v 0.443658 0.127930 0.012125
v 0.443534 0.122369 -0.022270
v 0.443113 0.091193 -0.034645
v 0.443659 0.065488 -0.012125
v 0.370380 0.022225 0.000063
v 0.370569 0.032317 -0.039212
v 0.370589 0.059618 -0.067867
v 0.238970 0.048354 -0.083752
v 0.370479 0.096709 -0.078369
v 0.370396 0.133896 -0.067938
v 0.370292 0.161192 -0.039343
v 0.370380 0.171192 -0.000063
v 0.370570 0.161100 0.039212
v 0.370639 0.133788 0.067851
v 0.362970 0.096082 0.081805
v 0.239903 0.088678 0.095553
v 0.352714 0.069416 0.075317
v 0.370428 0.059514 0.067916
v 0.370292 0.032225 0.039343
v 0.239017 0.070557 -0.089704
v 0.123527 0.069745 -0.083763
v -0.056361 0.091586 -0.080801
v -0.329073 0.116026 -0.041115
v 0.352518 0.069449 -0.075361
v 0.351504 0.086442 0.080683
v 0.352079 0.086385 -0.080429
v 0.239094 0.070557 0.089708
v 0.123675 0.086668 -0.088238
v 0.123615 0.086714 0.088258
v 0.123573 0.069760 0.083777
v -0.329041 0.097178 -0.042842
v -0.329073 0.116021 -0.014512
v -0.329073 0.104911 -0.013743
v -0.329073 0.107456 0.005585
v -0.329073 0.116015 0.004718
v -0.339795 0.143835 -0.015094
v -0.314318 0.109439 0.005159
v -0.314451 0.105709 -0.013912
v 0.124557 0.085906 -0.074100
v 0.126305 0.085823 0.072364
v 0.148410 0.102125 -0.550000
v 0.351606 0.069183 -0.064859
v 0.235383 0.102126 -0.550000
v 0.125946 0.069254 0.066464
v 0.148409 0.102125 0.550000
v 0.235383 0.102126 0.550000
v 0.243262 0.118344 -0.542620
v 0.141900 0.118344 -0.542620
v 0.141896 0.107941 -0.543334
v 0.122550 0.077580 -0.069934
v 0.123850 0.069403 -0.064495
v 0.148409 0.112526 -0.549286
v 0.242219 0.110476 -0.549951
v 0.122797 0.077575 0.069884
v 0.350331 0.085684 -0.073427
v 0.353954 0.077547 -0.069758
v 0.354241 0.077532 0.069735
v 0.351521 0.085830 0.074760
v 0.141900 0.118344 0.542620
v 0.243262 0.118344 0.542620
v 0.242290 0.111932 0.549497
v 0.148409 0.112525 0.549286
v 0.141896 0.107941 0.543333
v 0.353200 0.069354 0.063669
v 0.362598 0.050765 -0.305175
v 0.362572 0.055854 -0.291465
v 0.362353 0.066666 -0.296333
v 0.362635 0.065057 -0.306566
v 0.315151 0.029067 -0.263363
v 0.315151 0.069000 -0.254249
v 0.338752 0.063949 -0.261148
v 0.338752 0.030003 -0.268896
v 0.315151 0.101024 -0.279787
v 0.338752 0.091172 -0.282857
v 0.315151 0.101024 -0.320747
v 0.338752 0.091172 -0.317677
v 0.315151 0.069000 -0.346285
v 0.338752 0.063949 -0.339386
v 0.315151 0.029067 -0.337171
v 0.338752 0.030003 -0.331638
v 0.315151 0.011295 -0.300267
v 0.338752 0.014895 -0.300267
v 0.362710 0.055930 0.291648
v 0.362551 0.050702 0.305210
v 0.362635 0.065057 0.306566
v 0.362353 0.066666 0.296333
v 0.315151 0.029067 0.263363
v 0.338752 0.030003 0.268896
v 0.338752 0.063949 0.261148
v 0.315151 0.069000 0.254249
v 0.338752 0.091172 0.282857
v 0.315151 0.101024 0.279787
v 0.338752 0.091172 0.317677
v 0.315151 0.101024 0.320747
v 0.338752 0.063949 0.339386
v 0.315151 0.069000 0.346285
v 0.338752 0.030003 0.331638
v 0.315151 0.029067 0.337171
v 0.338752 0.014895 0.300267
v 0.315151 0.011295 0.300267
v 0.295258 0.099530 -0.319880
v 0.286878 0.086968 -0.329031
v 0.141383 0.085988 -0.314758
v 0.304476 0.100222 -0.280252
v 0.301430 0.082683 -0.266580
v 0.141384 0.083886 -0.284100
v 0.135126 0.067740 0.271871
v 0.135126 0.067740 0.328663
v 0.141383 0.085988 0.314758
v 0.286878 0.086968 0.329031
v 0.295285 0.099532 0.319882
v 0.304477 0.100222 0.280252
v 0.141384 0.083886 0.284099
v 0.301430 0.082683 0.266580
v 0.134591 0.074940 -0.277219
v 0.135126 0.079998 -0.318887
v 0.135126 0.077295 0.279491
v 0.135126 0.079998 0.318887
v 0.294155 0.092961 -0.325005
v 0.306682 0.089276 -0.271295
v 0.306682 0.089276 0.271294
v 0.294168 0.092961 0.325006
v 0.136127 0.045532 0.276844
v 0.139602 0.031615 0.300267
v 0.139602 0.042750 0.323390
v 0.135126 0.048712 0.324320
v 0.135126 0.037129 0.300267
v 0.139604 0.067771 -0.271433
v 0.135126 0.046214 -0.281401
v 0.135126 0.037129 -0.300267
v 0.135126 0.046214 -0.319133
v 0.135126 0.072241 -0.325074
v 0.139604 0.067771 -0.329101
v 0.139604 0.042751 -0.323390
v 0.139604 0.031615 -0.300267
v 0.139604 0.042751 -0.277144
v -0.472798 0.100183 -0.040129
v -0.472035 0.098296 0.026085
v -0.473046 0.112128 0.022306
v -0.469607 0.097047 -0.047347
v -0.332596 0.097117 0.028626
v -0.444541 0.117638 0.278180
v -0.432710 0.118458 0.277868
v -0.434442 0.135059 0.275929
v -0.329248 0.100591 0.025949
v -0.329870 0.114301 0.025090
v -0.329883 0.098743 -0.045740
v -0.432907 0.121333 -0.297626
v -0.431209 0.132253 -0.295066
v -0.433683 0.116634 -0.294278
v -0.329431 0.111683 -0.046394
v -0.394363 0.116110 0.026814
v -0.445788 0.135281 0.278175
v -0.449173 0.121610 0.278235
v -0.449396 0.132082 0.276038
v -0.472877 0.112988 -0.042157
v -0.449394 0.118137 -0.295854
v -0.448349 0.135240 -0.293657
v -0.469257 0.116087 -0.045837
v -0.436912 0.135255 -0.297393
v -0.446369 0.121604 -0.300029
v -0.332873 0.116090 -0.044419
v -0.325085 0.116212 -0.013864
v -0.429189 0.300436 -0.018144
v -0.446622 0.300436 -0.018144
v -0.469949 0.115872 -0.013680
v -0.441874 0.302673 0.001068
v -0.324732 0.118827 0.005281
v -0.469810 0.118454 0.005489
vt 0.387566 0.205493
vt 0.386693 0.185854
vt 0.388910 0.200452
vt 0.884011 0.165223
vt 0.937803 0.115566
vt 0.944191 0.151845
vt 0.664768 0.180261
vt 0.665934 0.210495
vt 0.661609 0.150112
vt 0.119692 0.496369
vt 0.216444 0.480711
vt 0.218075 0.505863
vt 0.552537 0.245329
vt 0.280949 0.319702
vt 0.271661 0.289118
vt 0.550152 0.245067
vt 0.477697 0.270459
vt 0.000000 0.054967
vt 0.298093 0.000000
vt 0.300306 0.032303
vt 0.388966 0.214021
vt 0.665041 0.240929
vt 0.497183 0.430250
vt 0.464736 0.438546
vt 0.472527 0.415241
vt 0.801623 0.695750
vt 0.828235 0.699360
vt 0.816859 0.721257
vt 0.798850 0.685410
vt 0.826554 0.674247
vt 0.032184 0.188636
vt 0.060125 0.179376
vt 0.058138 0.203770
vt 0.046906 0.158242
vt 0.674897 0.529000
vt 0.678483 0.557642
vt 0.654144 0.549963
vt 0.951455 0.188960
vt 0.987010 0.140781
vt 0.995387 0.176920
vt 0.978262 0.105398
vt 0.158564 0.170402
vt 0.122220 0.202358
vt 0.121484 0.174097
vt 0.220364 0.200757
vt 0.160400 0.203770
vt 0.852958 0.630705
vt 0.889593 0.599017
vt 0.890518 0.627960
vt 0.792000 0.597000
vt 0.851546 0.597000
vt 0.929073 0.664000
vt 0.889068 0.693638
vt 0.888567 0.664000
vt 0.992700 0.709107
vt 0.926364 0.698499
vt 0.883725 0.721459
vt 0.978344 0.745989
vt 0.919716 0.731517
vt 0.873211 0.747021
vt 0.967449 0.783011
vt 0.908280 0.764022
vt 0.861082 0.774175
vt 0.310569 0.400000
vt 0.397618 0.426081
vt 0.359267 0.451418
vt 0.580937 0.049222
vt 0.626059 0.028989
vt 0.617793 0.058581
vt 0.525844 0.000739
vt 0.588130 0.014884
vt 0.638472 0.000000
vt 0.888199 0.202216
vt 0.961025 0.227022
vt 0.879993 0.129570
vt 0.259949 0.557238
vt 0.043000 0.557449
vt 0.045488 0.515462
vt 0.540042 0.430000
vt 0.545252 0.505863
vt 0.037416 0.311858
vt 0.040861 0.268971
vt 0.042766 0.353065
vt 0.221764 0.002000
vt 0.008511 0.043722
vt 0.002000 0.002000
vt 0.524162 0.038338
vt 0.892014 0.240929
vt 0.792000 0.697875
vt 0.696643 0.618694
vt 0.667700 0.618694
vt 0.410681 0.400000
vt 0.950966 0.607793
vt 0.113770 0.147000
vt 0.065693 0.975020
vt 0.005000 0.962100
vt 0.012139 0.934000
vt 0.005000 0.991804
vt 0.639000 0.611086
vt 0.386000 0.223759
vt 0.877518 0.115747
vt 0.959619 0.097000
vt 0.129762 0.151630
vt 0.133694 0.164567
vt 0.217929 0.158524
vt 0.300427 0.063840
vt 0.437791 0.053449
vt 0.959026 0.593939
vt 0.792000 0.593939
vt 0.963367 0.476000
vt 0.633733 0.458000
vt 0.633733 0.568375
vt 0.466000 0.574748
vt 0.971663 0.590463
vt 0.434913 0.690000
vt 0.446830 0.694734
vt 0.370000 0.798715
vt 0.792487 0.122060
vt 0.002000 0.356000
vt 0.207581 0.356000
vt 0.206401 0.370121
vt 0.562661 0.239830
vt 0.554846 0.239020
vt 0.726519 0.746700
vt 0.751938 0.665000
vt 0.788404 0.752900
vt 0.145092 0.491345
vt 0.260545 0.225000
vt 0.479536 0.233364
vt 0.119621 0.498069
vt 0.117000 0.497442
vt 0.148564 0.501112
vt 0.145251 0.496905
vt 0.491435 0.242650
vt 0.495743 0.249292
vt 0.493485 0.249630
vt 0.485455 0.255940
vt 0.480406 0.247246
vt 0.489481 0.253928
vt 0.489744 0.257228
vt 0.761058 0.757752
vt 0.747159 0.754476
vt 0.726392 0.760564
vt 0.745782 0.762517
vt 0.233063 0.362346
vt 0.788404 0.670493
vt 0.086034 0.059615
vt 0.525000 0.737902
vt 0.466307 0.165007
vt 0.656839 0.119658
vt 0.521491 0.052887
vt 0.602271 0.065265
vt 0.448026 0.525000
vt 0.365957 0.533315
vt 0.281000 0.525000
vt 0.517766 0.739269
vt 0.578030 0.798715
vt 0.432654 0.059157
vt 0.438656 0.167498
vt 0.975635 0.480159
vt 0.092735 0.029820
vt 0.129235 0.516794
vt 0.260912 0.526614
vt 0.130094 0.504000
vt 0.395577 0.404718
vt 0.391267 0.417095
vt 0.025000 0.179164
vt 0.291882 0.353065
vt 0.023000 0.226691
vt 0.461215 0.557449
vt 0.301000 0.441129
vt 0.990572 0.670888
vt 0.793339 0.633623
vt 0.043069 0.572634
vt 0.406230 0.631608
vt 0.017490 0.631608
vt 0.433451 0.648986
vt 0.444194 0.580034
vt 0.451646 0.577000
vt 0.015819 0.665191
vt 0.009000 0.659266
vt 0.015981 0.657556
vt 0.011315 0.651000
vt 0.363641 0.665191
vt 0.467562 0.560000
vt 0.464879 0.566440
vt 0.360433 0.565981
vt 0.242701 0.214519
vt 0.240000 0.208000
vt 0.344883 0.214403
vt 0.610000 0.094947
vt 0.633719 0.025000
vt 0.640298 0.027160
vt 0.744215 0.666681
vt 0.747015 0.673091
vt 0.395847 0.666651
vt 0.391000 0.673091
vt 0.395819 0.659000
vt 0.989897 0.655001
vt 0.993516 0.661348
vt 0.628000 0.661348
vt 0.382338 0.635000
vt 0.377816 0.640980
vt 0.015000 0.635000
vt 0.788293 0.648986
vt 0.188425 0.885020
vt 0.188000 0.776467
vt 0.353367 0.881296
vt 0.998422 0.216000
vt 0.998422 0.382836
vt 0.642000 0.364300
vt 0.017000 0.891140
vt 0.183481 0.797000
vt 0.183481 0.891157
vt 0.634973 0.450481
vt 0.279000 0.359813
vt 0.634973 0.284000
vt 0.010000 0.628021
vt 0.401229 0.620868
vt 0.401229 0.628174
vt 0.319000 0.575000
vt 0.925000 0.383000
vt 0.977110 0.419654
vt 0.977110 0.428448
vt 0.365504 0.578793
vt 0.362634 0.572428
vt 0.461254 0.572726
vt 0.702000 0.623572
vt 0.999283 0.443000
vt 0.999283 0.449976
vt 0.015000 0.560000
vt 0.704000 0.627000
vt 0.773199 0.632935
vt 0.772763 0.640637
vt 0.020838 0.648751
vt 0.373410 0.646902
vt 0.016071 0.643729
vt 0.340446 0.220446
vt 0.632899 0.655132
vt 0.986185 0.649000
vt 0.044186 0.565000
vt 0.849819 0.786000
vt 0.849819 0.881942
vt 0.683000 0.879539
vt 0.345155 0.380089
vt 0.000000 0.529984
vt 0.000000 0.365000
vt 0.986298 0.094947
vt 0.353367 0.774000
vt 0.638000 0.367000
vt 0.982285 0.446478
vt 0.638000 0.532386
vt 0.778757 0.627000
vt 0.348554 0.208000
vt 0.426000 0.646318
vt 0.368102 0.659468
vt 0.380018 0.127710
vt 0.025000 0.144165
vt 0.380018 0.064000
vt 0.161926 0.919506
vt 0.144157 0.924238
vt 0.144157 0.894234
vt 0.552498 0.820746
vt 0.548000 0.802421
vt 0.578001 0.802000
vt 0.772434 0.789361
vt 0.771000 0.770547
vt 0.800976 0.771849
vt 0.520152 0.836383
vt 0.538009 0.832000
vt 0.544752 0.861237
vt 0.610015 0.287002
vt 0.592245 0.287002
vt 0.591851 0.257000
vt 0.842740 0.928860
vt 0.825289 0.930004
vt 0.825289 0.900000
vt 0.182000 0.895489
vt 0.199194 0.891000
vt 0.201157 0.920940
vt 0.411783 0.630152
vt 0.422506 0.656945
vt 0.397000 0.656945
vt 0.560737 0.846254
vt 0.578001 0.820388
vt 0.779440 0.815613
vt 0.797916 0.790468
vt 0.499000 0.857296
vt 0.525883 0.861237
vt 0.953019 0.792476
vt 0.927261 0.808248
vt 0.922347 0.783220
vt 0.397755 0.849327
vt 0.417110 0.874502
vt 0.392000 0.878976
vt 0.038576 0.554302
vt 0.017000 0.532603
vt 0.038576 0.519000
vt 0.731220 0.888498
vt 0.731556 0.914002
vt 0.713786 0.914002
vt 0.585240 0.900000
vt 0.610746 0.900000
vt 0.611004 0.918386
vt 0.860869 0.486000
vt 0.863909 0.511324
vt 0.845577 0.515790
vt 0.978527 0.968001
vt 0.978169 0.942498
vt 0.996494 0.938000
vt 0.829000 0.249289
vt 0.841922 0.271279
vt 0.829000 0.284361
vt 0.577079 0.885000
vt 0.578748 0.910451
vt 0.561554 0.914940
vt 0.426741 0.899354
vt 0.426741 0.924860
vt 0.409291 0.926004
vt 0.515380 0.730099
vt 0.507415 0.726897
vt 0.515380 0.699000
vt 0.835203 0.779000
vt 0.830193 0.784702
vt 0.804000 0.779000
vt 0.858675 0.244000
vt 0.864973 0.252480
vt 0.765724 0.886592
vt 0.768155 0.896958
vt 0.739322 0.910137
vt 0.800976 0.764000
vt 0.255682 0.002000
vt 0.226674 0.009668
vt 0.225000 0.002000
vt 0.401514 0.737080
vt 0.394191 0.736903
vt 0.406347 0.710743
vt 0.710000 0.939285
vt 0.712132 0.928000
vt 0.843496 0.945363
vt 0.024154 0.821236
vt 0.027052 0.861622
vt 0.019000 0.854905
vt 0.565060 0.747000
vt 0.560513 0.751154
vt 0.531000 0.747000
vt 0.616238 0.598817
vt 0.610967 0.600856
vt 0.610642 0.581987
vt 0.299114 0.942749
vt 0.293000 0.947402
vt 0.293000 0.926134
vt 0.515376 0.677000
vt 0.520335 0.678528
vt 0.520898 0.693856
vt 0.868000 0.247671
vt 0.871926 0.244000
vt 0.885530 0.251314
vt 0.885259 0.256512
vt 0.903817 0.244000
vt 0.692289 0.923000
vt 0.692289 0.941800
vt 0.563000 0.946546
vt 0.432490 0.940749
vt 0.433966 0.922007
vt 0.563050 0.927330
vt 0.015000 0.901759
vt 0.329746 0.906036
vt 0.481000 0.578000
vt 0.980786 0.888000
vt 0.980391 0.918002
vt 0.848000 0.912488
vt 0.128449 0.669000
vt 0.133064 0.688583
vt 0.002000 0.704793
vt 0.172000 0.959652
vt 0.276365 0.935641
vt 0.283534 0.956979
vt 0.388987 0.881578
vt 0.366477 0.881578
vt 0.356000 0.775000
vt 0.281645 0.931000
vt 0.292806 0.959652
vt 0.030355 0.817000
vt 0.033730 0.863956
vt 0.167247 0.729351
vt 0.153720 0.691405
vt 0.158941 0.686144
vt 0.430000 0.918324
vt 0.430000 0.910626
vt 0.400325 0.700780
vt 0.386000 0.740264
vt 0.277297 0.688073
vt 0.148480 0.673000
vt 0.146000 0.699699
vt 0.150109 0.700824
vt 0.281072 0.673000
vt 0.613000 0.281870
vt 0.627070 0.249972
vt 0.626999 0.268216
vt 0.613000 0.241000
vt 0.386000 0.699000
vt 0.993437 0.927934
vt 0.990200 0.934901
vt 0.987944 0.920000
vt 0.861898 0.950194
vt 0.871109 0.936115
vt 0.866883 0.930442
vt 0.860000 0.920250
vt 0.867845 0.920000
vt 0.407000 0.955170
vt 0.513173 0.941173
vt 0.536964 0.955170
vt 0.517450 0.935000
vt 0.152562 0.749430
vt 0.146460 0.748620
vt 0.176004 0.734000
vt 0.146000 0.734000
vt 0.434866 0.905000
vt 0.236000 0.356000
vt 0.272966 0.356000
vt 0.261154 0.373687
vt 0.970196 0.824966
vt 0.962941 0.824528
vt 0.970196 0.788000
vt 0.956000 0.793810
vt 0.174461 0.730900
vt 0.141921 0.817000
vt 0.409291 0.896000
vt 0.280000 0.919546
vt 0.581000 0.889513
vt 0.713391 0.884000
vt 0.137025 0.704793
vt 0.614433 0.578000
vt 0.848188 0.898192
vt 0.431000 0.899904
vt 0.559591 0.885000
vt 0.386000 0.677000
vt 0.516066 0.695787
vt 0.428191 0.936911
vt 0.297730 0.924000
vt 0.463000 0.281175
vt 0.696000 0.923546
vt 0.632049 0.269466
vt 0.983996 0.826000
vt 0.970030 0.852334
vt 0.964000 0.853574
vt 0.067791 0.939174
vt 0.044000 0.953171
vt 0.063505 0.933000
vt 0.462989 0.889676
vt 0.433000 0.876013
vt 0.439075 0.875000
vt 0.433000 0.890619
vt 0.173964 0.953171
vt 0.713532 0.945363
vt 0.411224 0.716075
vt 0.555850 0.764997
vt 0.983996 0.856683
vt 0.735000 0.885000
vt 0.702921 0.936000
vt 0.714702 0.958622
vt 0.683000 0.958622
vt 0.953000 0.952734
vt 0.887577 0.490991
vt 0.806141 0.804416
vt 0.490000 0.701535
vt 0.998556 0.888000
vt 0.996915 0.968001
vt 0.842000 0.486000
vt 0.581000 0.918386
vt 0.774159 0.885000
vt 0.777407 0.891861
vt 0.404926 0.841369
vt 0.952067 0.782000
vt 0.787002 0.814952
vt 0.419414 0.626000
vt 0.183669 0.920940
vt 0.842740 0.903354
vt 0.904000 0.782000
vt 0.161926 0.894000
vt 0.392000 0.840521
vt 0.398097 0.836000
vt 0.644000 0.346365
vt 0.644000 0.244000
vt 0.825718 0.268405
vt 0.656000 0.767530
vt 0.758151 0.766000
vt 0.758151 0.819828
vt 0.382841 0.767229
vt 0.324827 0.717466
vt 0.372835 0.668000
vt 0.379999 0.770585
vt 0.144000 0.770585
vt 0.680334 0.857982
vt 0.678671 0.867332
vt 0.492000 0.867332
vt 0.463000 0.302514
vt 0.465417 0.292266
vt 0.511428 0.299426
vt 0.713352 0.714464
vt 0.713018 0.722331
vt 0.527000 0.724181
vt 0.912495 0.396119
vt 0.912651 0.383812
vt 0.921184 0.395956
vt 0.726668 0.696984
vt 0.726926 0.707053
vt 0.527000 0.707053
vt 0.995303 0.440180
vt 0.986000 0.442090
vt 0.986000 0.388478
vt 0.448785 0.512450
vt 0.447658 0.520683
vt 0.249000 0.522443
vt 0.713000 0.383000
vt 0.300820 0.574000
vt 0.301242 0.586648
vt 0.115000 0.574000
vt 0.322095 0.670266
vt 0.583000 0.749000
vt 0.768041 0.827133
vt 0.583000 0.848909
vt 0.000000 0.816163
vt 0.000000 0.714000
vt 0.184827 0.792782
vt 0.023000 0.710582
vt 0.125333 0.708000
vt 0.125333 0.762523
vt 0.516828 0.302514
vt 0.921086 0.383000
vt 0.723941 0.694000
vt 0.530494 0.690723
vt 0.527000 0.687120
vt 0.727671 0.681344
vt 0.989193 0.386000
vt 0.988842 0.518612
vt 0.984571 0.517821
vt 0.979000 0.467145
vt 0.717608 0.724181
vt 0.611940 0.101341
vt 0.610000 0.098000
vt 0.799167 0.103649
vt 0.232000 0.891062
vt 0.235128 0.887953
vt 0.417820 0.891062
vt 0.305115 0.584257
vt 0.984317 0.219626
vt 0.978655 0.211359
vt 0.982208 0.209000
vt 0.577000 0.002000
vt 0.589317 0.002000
vt 0.581292 0.009698
vt 0.665922 0.870000
vt 0.670221 0.871493
vt 0.666349 0.881611
vt 0.972000 0.219626
vt 0.674875 0.855000
vt 0.846053 0.098000
vt 0.713288 0.710000
vt 0.727605 0.677000
vt 0.452358 0.522443
vt 0.446277 0.509000
vt 0.483000 0.881611
vt 0.144946 0.762168
vt 0.512587 0.290000
vt 0.797015 0.113956
vt 0.988842 0.465000
vt 0.729160 0.690723
vt 0.421379 0.883000
vt 0.792000 0.747000
vt 0.973796 0.832544
vt 0.792000 0.755690
vt 0.838985 0.488000
vt 0.838985 0.500770
vt 0.704000 0.577029
vt 0.351000 0.209000
vt 0.367943 0.209000
vt 0.360941 0.219678
vt 0.664358 0.909000
vt 0.664358 0.923589
vt 0.529000 0.939691
vt 0.008000 0.930157
vt 0.008000 0.916000
vt 0.162424 0.929759
vt 0.794000 0.399000
vt 0.900101 0.400841
vt 0.900101 0.414998
vt 0.413272 0.959818
vt 0.307000 0.959169
vt 0.307000 0.945000
vt 0.224000 0.163943
vt 0.224000 0.147000
vt 0.373000 0.204516
vt 0.274704 0.916000
vt 0.274704 0.930169
vt 0.139000 0.945121
vt 0.987929 0.873459
vt 0.853000 0.894274
vt 0.853000 0.788000
vt 0.529700 0.802000
vt 0.471485 0.890723
vt 0.368000 0.802000
vn -0.9570 0.2896 0.0181
vn -0.4741 0.3066 -0.8253
vn -0.4295 -0.8681 -0.2489
vn 0.0288 -0.8663 -0.4986
vn 0.1567 -0.4446 -0.8819
vn 0.1742 -0.8564 -0.4860
vn -0.1048 -0.8623 -0.4955
vn -0.1064 -0.9943 0.0003
vn -0.0998 -0.5017 -0.8593
vn -0.4137 0.8712 0.2643
vn -0.0829 0.8701 -0.4859
vn -0.0843 0.4934 -0.8657
vn -0.3600 0.5255 0.7709
vn -0.0863 0.4941 0.8651
vn -0.0819 0.8687 0.4885
vn -0.3199 -0.5522 0.7699
vn -0.4406 -0.1373 0.8871
vn -0.4512 0.3563 0.8182
vn -0.1053 -0.8624 0.4952
vn -0.1000 -0.5014 0.8594
vn -0.4093 -0.8035 0.4322
vn 0.8807 -0.4530 0.1386
vn 0.6140 0.1285 0.7788
vn 0.6039 -0.6173 0.5042
vn 0.8783 0.3457 0.3302
vn 0.6049 0.7516 0.2632
vn 0.8850 0.1417 -0.4435
vn 0.6079 0.6242 -0.4907
vn 0.6147 -0.1404 -0.7761
vn 0.6037 -0.7471 -0.2781
vn 0.1795 -0.9837 0.0003
vn 0.3725 -0.8074 -0.4575
vn 0.3761 -0.9266 0.0052
vn 0.3732 -0.4827 -0.7923
vn 0.1425 -0.0821 -0.9864
vn 0.3685 0.4725 -0.8006
vn 0.3708 0.0095 -0.9287
vn 0.0101 0.4894 -0.8720
vn 0.1627 0.5009 -0.8501
vn 0.3709 0.8121 -0.4505
vn 0.0191 0.8631 -0.5047
vn 0.1758 0.8565 -0.4854
vn 0.3761 0.9266 -0.0052
vn 0.0042 1.0000 -0.0049
vn 0.1797 0.9837 -0.0001
vn 0.3737 0.8078 0.4559
vn 0.0187 0.8649 0.5016
vn 0.1710 0.8574 0.4854
vn 0.3786 0.4799 0.7915
vn 0.0152 0.4800 0.8771
vn 0.1469 0.4799 0.8649
vn 0.3122 -0.0110 0.9500
vn 0.0194 -0.5386 0.8423
vn 0.1565 -0.4444 0.8820
vn 0.3709 -0.8121 0.4504
vn 0.3773 -0.4762 0.7943
vn 0.0290 -0.8662 0.4989
vn 0.1756 -0.8566 0.4852
vn 0.0324 -0.9995 -0.0001
vn 0.0219 -0.4996 -0.8660
vn 0.0067 -0.5211 -0.8535
vn -0.0929 -0.0047 0.9957
vn 0.0222 -0.4997 0.8659
vn 0.0163 0.6299 -0.7765
vn -0.1720 0.0872 -0.9812
vn -0.0440 -0.5506 -0.8336
vn 0.3312 0.0828 0.9399
vn -0.1197 -0.5660 0.8157
vn 0.1936 -0.6047 0.7725
vn -0.1918 0.0482 0.9802
vn 0.3310 0.0844 -0.9399
vn 0.1913 -0.6566 -0.7296
vn -0.4308 0.1779 0.8847
vn -0.9174 -0.2773 -0.2854
vn -0.3761 0.8386 -0.3941
vn -0.4229 0.1296 -0.8969
vn -0.4340 0.8687 0.2386
vn -0.3421 -0.4095 -0.8458
vn -0.9168 -0.3073 0.2550
vn -0.4370 -0.1145 -0.8921
vn -0.3314 -0.2800 0.9010
vn -0.9178 0.3101 0.2478
vn -0.7306 0.4421 0.5204
vn -0.2745 -0.3130 -0.9092
vn -0.3793 0.8655 -0.3272
vn -0.7728 0.2477 -0.5843
vn -0.8589 0.3589 -0.3654
vn -0.0908 -0.0036 -0.9959
vn 0.0163 0.6302 0.7763
vn 0.2766 -0.6756 -0.6835
vn 0.6007 -0.7961 -0.0742
vn -0.3811 -0.6049 -0.6992
vn 0.5544 0.7487 -0.3635
vn -0.2912 0.3625 -0.8853
vn -0.6405 0.6775 -0.3615
vn -0.8954 -0.2793 -0.3468
vn -0.9995 0.0205 -0.0222
vn -0.6328 0.7741 0.0156
vn -0.5613 0.8274 -0.0182
vn 0.9924 0.0080 -0.1229
vn 0.5949 0.8016 -0.0603
vn 0.9925 0.0088 0.1217
vn -0.6402 0.6777 0.3617
vn 0.6234 0.1203 0.7726
vn 0.5562 0.7575 0.3419
vn -0.9997 0.0045 0.0253
vn -0.5598 -0.8277 0.0396
vn -0.8957 -0.2760 0.3487
vn -0.3807 -0.6045 0.6997
vn 0.6218 0.0511 -0.7815
vn 0.6601 -0.7481 0.0675
vn 0.3059 -0.6541 0.6917
vn 0.6482 0.7578 0.0746
vn -0.6445 -0.7638 -0.0335
vn -0.2907 0.3642 0.8848
vn 0.5368 0.1613 0.8281
vn 0.1080 0.2344 0.9661
vn 0.0473 -0.6130 0.7886
vn 0.5702 0.7355 0.3660
vn 0.1508 0.8930 0.4241
vn 0.5675 0.7382 -0.3648
vn 0.1508 0.8930 -0.4241
vn 0.5420 0.1542 -0.8261
vn 0.1080 0.2344 -0.9661
vn 0.5039 -0.5538 -0.6629
vn 0.0473 -0.6130 -0.7886
vn 0.4899 -0.8718 0.0044
vn 0.0174 -0.9998 -0.0000
vn 0.5055 -0.5598 0.6566
vn 0.9280 -0.1190 0.3531
vn 0.8942 0.4107 0.1781
vn 0.9141 0.2890 -0.2844
vn 0.9350 -0.2925 -0.2004
vn 0.5369 0.1612 -0.8281
vn 0.5054 -0.5598 -0.6567
vn 0.0470 -0.6131 -0.7886
vn 0.5702 0.7355 -0.3660
vn 0.5675 0.7382 0.3648
vn 0.1508 0.8930 -0.4240
vn 0.5420 0.1542 0.8261
vn 0.5039 -0.5537 0.6629
vn 0.4898 -0.8718 -0.0044
vn 0.8970 0.4064 -0.1736
vn 0.9324 -0.1142 -0.3428
vn 0.9168 0.2851 0.2797
vn 0.9351 -0.2913 0.2016
vn -0.6117 0.6772 0.4090
vn -0.6118 0.6771 -0.4089
vn -0.3207 0.8724 -0.3689
vn -0.7330 0.5136 -0.4460
vn -0.7329 0.5350 0.4202
vn -0.6573 0.1709 0.7340
vn -0.5168 0.7322 -0.4436
vn -0.4252 0.6540 0.6257
vn -0.5163 0.7326 0.4435
vn -0.6884 0.6856 0.2368
vn -0.9228 -0.3852 0.0080
vn -0.4316 -0.9020 -0.0142
vn -0.3730 -0.6244 0.6863
vn -0.4043 0.1487 0.9025
vn -0.7310 0.4251 0.5338
vn -0.9092 -0.2590 0.3259
vn -0.4383 -0.5592 0.7037
vn -0.9106 -0.4134 0.0000
vn -0.4417 -0.8971 0.0000
vn -0.9100 -0.2575 -0.3250
vn -0.4383 -0.5592 -0.7037
vn -0.7346 0.3139 -0.6016
vn -0.3644 0.1475 -0.9195
vn -0.6519 -0.4555 -0.6063
vn -0.1816 0.8562 -0.4837
vn -0.3175 0.8967 -0.3086
vn -0.3553 0.8601 0.3660
vn -0.3175 0.8967 0.3086
vn -0.1815 0.8563 0.4836
vn -0.7325 0.5354 -0.4204
vn -0.1898 0.7762 0.6013
vn -0.4253 0.6540 -0.6256
vn -0.1898 0.7762 -0.6013
vn -0.6614 0.1617 -0.7324
vn -0.7406 -0.2737 0.6137
vn -0.6894 0.6847 -0.2364
vn 0.7140 -0.6806 -0.1642
vn -0.4470 -0.8914 -0.0744
vn 0.3718 -0.8113 -0.4511
vn 0.4750 -0.8635 0.1696
vn -0.6911 -0.7192 0.0715
vn -0.3578 0.9259 0.1213
vn 0.0155 0.9992 -0.0378
vn 0.4591 0.8868 -0.0531
vn -0.8463 0.5287 0.0656
vn -0.2455 0.7056 0.6647
vn -0.9274 -0.3721 -0.0379
vn -0.6821 -0.5950 -0.4251
vn -0.9350 0.3535 0.0303
vn -0.6770 -0.2914 0.6759
vn -0.8574 0.3722 0.3554
vn 0.4991 -0.4816 0.7204
vn 0.4597 0.6792 0.5722
vn -0.1988 -0.6887 0.6973
vn 0.9367 -0.3070 0.1684
vn 0.7333 0.6677 0.1285
vn 0.9336 0.3033 -0.1908
vn 0.5632 -0.2551 -0.7859
vn 0.7305 0.4328 -0.5282
vn -0.6063 0.7084 -0.3614
vn 0.1742 0.7403 -0.6493
vn -0.3516 -0.2062 -0.9132
vn -0.6141 0.5628 -0.5534
vn 0.5294 0.6806 -0.5064
vn 0.7034 -0.4769 -0.5271
vn -0.2234 0.7236 0.6531
vn -0.6173 -0.5856 -0.5253
vn 0.7358 -0.3559 0.5762
vn -0.6278 -0.4846 0.6091
usemtl japanese_toy
s 1
f 3/1/1 2/2/2 1/3/3
f 14/4/4 13/5/5 12/6/6
f 1/3/3 32/7/7 31/8/8
f 2/2/2 33/9/9 32/7/7
f 36/10/10 35/11/11 34/12/12
f 4/13/13 40/14/14 37/15/15
f 4/13/13 42/16/16 41/17/17
f 8/18/18 45/19/19 44/20/20
f 46/21/21 31/8/8 45/22/19
f 47/23/22 50/24/23 49/25/24
f 51/26/25 52/27/26 50/28/23
f 48/29/27 53/30/28 52/27/26
f 48/31/27 54/32/29 53/33/28
f 48/31/27 55/34/30 54/32/29
f 47/35/22 49/36/24 55/37/30
f 10/38/31 57/39/32 56/40/33
f 14/4/4 12/6/6 10/38/31
f 13/5/5 58/41/34 57/39/32
f 15/42/35 61/43/36 60/44/37
f 18/45/38 17/46/39 15/42/35
f 17/47/39 62/48/40 61/49/36
f 20/50/41 19/51/42 17/47/39
f 19/52/42 63/53/43 62/54/40
f 22/55/44 21/56/45 19/52/42
f 21/56/45 64/57/46 63/53/43
f 24/58/47 23/59/48 21/56/45
f 23/59/48 65/60/49 64/57/46
f 26/61/50 25/62/51 23/59/48
f 25/62/51 66/63/52 65/60/49
f 67/64/53 66/65/52 25/66/51
f 27/67/54 70/68/55 69/69/56
f 30/70/57 29/71/58 27/67/54
f 29/71/58 56/72/33 70/68/55
f 11/73/59 10/38/31 29/74/58
f 32/7/7 14/4/4 11/73/59
f 33/9/9 59/75/60 14/4/4
f 34/76/12 18/77/38 16/78/61
f 35/11/11 20/79/41 18/80/38
f 37/15/15 24/81/47 22/82/44
f 40/14/14 26/83/50 24/81/47
f 43/84/62 67/85/53 26/86/50
f 45/19/19 30/70/57 28/87/63
f 31/8/8 11/73/59 30/88/57
f 51/26/25 47/89/22 48/29/27
f 49/36/24 69/90/56 70/91/55
f 50/24/23 66/65/52 69/92/56
f 50/28/23 65/60/49 66/63/52
f 52/27/26 64/57/46 65/60/49
f 52/27/26 63/53/43 64/57/46
f 53/30/28 62/54/40 63/53/43
f 53/93/28 61/49/36 62/48/40
f 54/32/29 60/44/37 61/43/36
f 54/32/29 58/94/34 60/44/37
f 55/95/30 57/96/32 58/97/34
f 55/95/30 56/98/33 57/96/32
f 49/36/24 70/91/55 56/99/33
f 8/100/18 3/1/1 46/21/21
f 71/101/64 75/102/65 13/5/5
f 58/41/34 13/5/5 75/102/65
f 60/44/37 58/94/34 75/103/65
f 15/42/35 77/104/66 16/105/61
f 43/106/62 44/20/20 81/107/67
f 76/108/68 80/109/69 77/110/66
f 68/111/70 75/112/65 72/113/71
f 68/114/70 76/108/68 77/110/66
f 72/115/71 79/116/72 80/117/69
f 72/118/71 75/102/65 71/101/64
f 43/119/62 41/120/17 9/121/73
f 5/122/74 4/13/13 38/123/75
f 82/124/76 2/125/2 9/126/73
f 35/11/11 36/10/10 87/127/77
f 22/82/44 35/128/11 87/129/77
f 36/10/10 6/130/78 7/131/79
f 6/130/78 74/132/80 83/133/81
f 83/134/81 84/135/82 89/136/83
f 86/137/84 38/123/75 39/138/85
f 87/129/77 89/136/83 88/139/86
f 89/136/83 84/135/82 85/140/87
f 85/140/87 88/139/86 89/136/83
f 85/140/87 86/137/84 88/139/86
f 87/129/77 88/139/86 39/138/85
f 86/137/84 5/122/74 38/123/75
f 88/139/86 86/137/84 39/138/85
f 83/133/81 36/10/10 7/131/79
f 83/133/81 87/127/77 36/10/10
f 83/134/81 89/136/83 87/129/77
f 6/130/78 83/133/81 7/131/79
f 86/137/84 42/16/16 5/122/74
f 86/137/84 41/17/17 42/16/16
f 87/129/77 39/138/85 22/82/44
f 9/126/73 85/141/87 82/124/76
f 85/141/87 84/142/82 82/124/76
f 84/142/82 74/143/80 82/124/76
f 84/142/82 83/144/81 74/143/80
f 9/121/73 41/120/17 85/145/87
f 41/17/17 86/137/84 85/140/87
f 8/100/18 2/2/2 3/1/1
f 8/146/18 9/126/73 2/125/2
f 4/13/13 5/122/74 42/16/16
f 44/20/20 43/106/62 9/147/73
f 82/124/76 74/143/80 73/148/88
f 33/9/9 82/149/76 73/150/88
f 33/9/9 2/2/2 82/149/76
f 78/151/89 68/152/70 81/107/67
f 76/153/68 67/154/53 80/155/69
f 79/116/72 16/156/61 77/157/66
f 80/158/69 81/107/67 72/159/71
f 77/110/66 75/160/65 68/114/70
f 72/159/71 81/107/67 68/152/70
f 79/116/72 77/157/66 80/117/69
f 81/107/67 28/87/63 78/151/89
f 81/107/67 44/20/20 28/87/63
f 43/84/62 80/161/69 67/85/53
f 43/106/62 81/107/67 80/158/69
f 79/162/72 73/163/88 16/78/61
f 79/162/72 72/164/71 73/163/88
f 78/151/89 27/67/54 68/152/70
f 78/151/89 28/87/63 27/67/54
f 66/65/52 68/165/70 69/92/56
f 66/65/52 76/166/68 68/165/70
f 15/42/35 60/44/37 77/104/66
f 60/44/37 75/103/65 77/104/66
f 76/166/68 66/65/52 67/64/53
f 71/101/64 13/5/5 59/75/60
f 46/21/21 3/1/1 1/3/3
f 56/99/33 55/37/30 49/36/24
f 55/34/30 48/31/27 47/167/22
f 58/94/34 54/32/29 55/34/30
f 61/43/36 53/33/28 54/32/29
f 63/53/43 52/27/26 53/30/28
f 65/60/49 50/28/23 52/27/26
f 50/28/23 47/89/22 51/26/25
f 69/92/56 49/25/24 50/24/23
f 31/8/8 46/21/21 1/3/3
f 30/88/57 45/22/19 31/8/8
f 45/22/19 8/100/18 46/21/21
f 28/87/63 44/20/20 45/19/19
f 44/20/20 9/147/73 8/18/18
f 26/83/50 40/14/14 43/168/62
f 24/81/47 37/15/15 40/14/14
f 20/169/41 35/128/11 22/82/44
f 18/80/38 34/12/12 35/11/11
f 34/12/12 74/132/80 6/130/78
f 34/76/12 73/163/88 74/170/80
f 16/78/61 73/163/88 34/76/12
f 33/9/9 73/150/88 59/75/60
f 73/150/88 72/118/71 59/75/60
f 72/118/71 71/101/64 59/75/60
f 14/4/4 32/7/7 33/9/9
f 11/73/59 31/8/8 32/7/7
f 29/74/58 30/88/57 11/73/59
f 56/40/33 29/74/58 10/38/31
f 27/67/54 28/87/63 30/70/57
f 70/68/55 27/67/54 29/71/58
f 69/69/56 68/152/70 27/67/54
f 25/66/51 26/171/50 67/64/53
f 23/59/48 24/58/47 26/61/50
f 65/60/49 23/59/48 25/62/51
f 21/56/45 22/55/44 24/58/47
f 64/57/46 21/56/45 23/59/48
f 19/52/42 20/172/41 22/55/44
f 63/53/43 19/52/42 21/56/45
f 17/47/39 18/173/38 20/50/41
f 62/48/40 17/47/39 19/51/42
f 15/42/35 16/105/61 18/45/38
f 61/43/36 15/42/35 17/46/39
f 13/5/5 14/4/4 59/75/60
f 57/39/32 12/6/6 13/5/5
f 10/38/31 11/73/59 14/4/4
f 57/39/32 10/38/31 12/6/6
f 52/27/26 51/26/25 48/29/27
f 41/17/17 43/168/62 40/14/14
f 40/14/14 4/13/13 41/17/17
f 37/15/15 38/123/75 4/13/13
f 39/138/85 37/15/15 22/82/44
f 39/138/85 38/123/75 37/15/15
f 34/12/12 6/130/78 36/10/10
f 32/7/7 1/3/3 2/2/2
f 94/174/90 93/175/91 92/176/92
f 98/177/93 103/178/94 99/179/95
f 99/180/95 103/181/94 100/182/96
f 100/182/96 92/183/92 101/184/97
f 90/185/98 101/186/97 91/187/99
f 107/188/100 106/189/101 108/190/102
f 110/191/103 112/192/104 111/193/105
f 105/194/106 95/195/107 114/196/108
f 114/196/108 96/197/109 110/198/103
f 107/199/100 93/200/91 104/201/110
f 115/202/111 108/203/102 97/204/112
f 98/177/93 99/179/95 90/205/98
f 109/206/113 106/207/101 91/208/99
f 93/209/91 102/210/114 92/211/92
f 95/212/107 93/213/91 115/214/111
f 115/215/111 97/216/112 95/217/107
f 94/174/90 92/176/92 103/218/94
f 93/219/91 107/220/100 115/221/111
f 96/222/109 97/223/112 112/224/104
f 114/196/108 110/198/103 105/194/106
f 95/225/107 105/226/106 102/227/114
f 100/182/96 101/184/97 99/180/95
f 99/228/95 101/229/97 90/230/98
f 102/227/114 105/226/106 101/186/97
f 105/226/106 110/231/103 91/187/99
f 112/232/104 113/233/115 96/234/109
f 111/235/105 108/203/102 109/236/113
f 112/237/104 108/203/102 111/235/105
f 115/238/111 107/188/100 108/190/102
f 107/199/100 98/239/93 106/240/101
f 104/201/110 98/239/93 107/199/100
f 94/174/90 103/218/94 104/241/110
f 95/242/107 102/243/114 93/244/91
f 110/245/103 109/246/113 91/247/99
f 111/193/105 109/248/113 110/191/103
f 90/249/98 91/208/99 106/207/101
f 106/250/101 98/251/93 90/252/98
f 112/237/104 97/204/112 108/203/102
f 94/174/90 104/241/110 93/175/91
f 113/233/115 110/253/103 96/234/109
f 96/197/109 114/196/108 95/195/107
f 112/232/104 110/253/103 113/233/115
f 109/254/113 108/190/102 106/189/101
f 105/226/106 91/187/99 101/186/97
f 103/178/94 98/177/93 104/255/110
f 102/256/114 101/184/97 92/183/92
f 92/183/92 100/182/96 103/181/94
f 96/257/109 95/258/107 97/259/112
f 122/260/116 121/261/117 120/262/118
f 125/263/119 124/264/120 121/265/117
f 127/266/121 126/267/122 124/268/120
f 129/269/123 128/270/124 126/271/122
f 131/272/125 130/273/126 128/274/124
f 133/275/127 132/276/128 130/277/126
f 123/278/129 120/279/118 132/280/128
f 117/281/130 122/282/116 123/283/129
f 118/284/131 125/263/119 122/285/116
f 119/286/132 127/266/121 125/287/119
f 119/288/132 129/269/123 127/289/121
f 116/290/133 131/291/125 129/292/123
f 116/293/133 133/294/127 131/295/125
f 117/296/130 123/297/129 133/298/127
f 140/299/134 139/300/135 138/301/136
f 142/302/137 140/303/134 141/304/124
f 144/305/138 142/306/137 143/307/139
f 146/308/140 144/309/138 145/310/120
f 148/311/141 146/312/140 147/313/117
f 150/314/142 148/315/141 149/316/118
f 139/317/135 150/318/142 151/319/128
f 137/320/143 134/321/144 140/322/134
f 136/323/145 137/324/143 142/325/137
f 135/326/146 136/327/145 146/312/140
f 134/328/144 135/329/146 150/330/142
f 155/331/147 124/268/120 126/267/122
f 145/332/120 143/333/139 163/334/148
f 164/335/149 168/336/150 169/337/151
f 169/338/151 159/339/152 147/340/117
f 170/341/153 171/342/154 155/343/147
f 173/344/155 162/345/156 163/346/148
f 178/347/157 175/348/158 176/349/159
f 179/350/160 166/351/161 180/352/162
f 187/353/163 180/354/162 181/355/164
f 186/356/165 181/357/164 182/358/166
f 185/359/167 182/358/166 183/360/168
f 186/361/165 185/362/167 130/363/126
f 185/364/167 184/365/169 128/366/124
f 187/367/163 120/262/118 121/261/117
f 186/368/165 132/280/128 120/279/118
f 149/369/118 176/349/159 175/348/158
f 149/370/118 147/371/117 159/372/152
f 175/373/158 174/374/170 138/375/136
f 153/376/171 154/377/172 157/378/173
f 164/379/149 160/380/174 161/381/175
f 167/382/176 166/383/161 157/378/173
f 170/341/153 153/384/171 156/385/177
f 173/386/155 172/387/178 165/388/179
f 183/360/168 182/358/166 181/357/164
f 184/365/169 183/389/168 167/390/176
f 159/391/152 169/337/151 168/336/150
f 158/392/180 168/336/150 164/335/149
f 164/393/149 165/388/179 141/394/124
f 165/388/179 172/387/178 141/394/124
f 172/387/178 143/395/139 141/394/124
f 172/387/178 163/396/148 143/395/139
f 141/394/124 158/397/180 164/393/149
f 177/398/181 174/399/170 178/400/157
f 177/398/181 158/401/180 174/399/170
f 177/402/181 159/391/152 158/392/180
f 159/391/152 168/336/150 158/392/180
f 166/403/161 179/404/160 157/405/173
f 179/404/160 121/406/117 157/405/173
f 121/406/117 156/407/177 157/405/173
f 121/406/117 171/408/154 156/407/177
f 121/406/117 124/409/120 171/408/154
f 124/409/120 155/410/147 171/408/154
f 154/411/172 153/412/171 128/413/124
f 153/412/171 170/414/153 128/413/124
f 170/415/153 152/416/182 128/417/124
f 152/416/182 126/418/122 128/417/124
f 128/366/124 184/365/169 154/419/172
f 184/365/169 167/390/176 154/419/172
f 167/420/176 180/421/162 166/422/161
f 167/423/176 183/424/168 180/425/162
f 183/424/168 181/426/164 180/425/162
f 165/388/179 161/427/175 173/386/155
f 156/385/177 171/342/154 170/341/153
f 157/378/173 154/377/172 167/382/176
f 161/427/175 165/388/179 164/393/149
f 157/428/173 156/385/177 153/384/171
f 138/429/136 151/319/128 175/430/158
f 138/301/136 158/431/180 141/432/124
f 138/375/136 174/374/170 158/433/180
f 149/369/118 177/434/181 176/349/159
f 149/370/118 159/372/152 177/435/181
f 175/436/158 151/437/128 149/316/118
f 120/438/118 187/353/163 186/439/165
f 121/440/117 179/350/160 187/441/163
f 128/274/124 130/273/126 185/442/167
f 130/277/126 132/276/128 186/443/165
f 183/389/168 184/365/169 185/364/167
f 182/358/166 185/359/167 186/356/165
f 181/355/164 186/439/165 187/353/163
f 180/352/162 187/441/163 179/350/160
f 176/349/159 177/434/181 178/347/157
f 175/444/158 178/400/157 174/399/170
f 163/396/148 172/387/178 173/386/155
f 155/445/147 152/446/182 170/447/153
f 161/448/175 147/449/117 173/450/155
f 147/451/117 162/452/156 173/453/155
f 147/451/117 145/454/120 162/452/156
f 161/448/175 160/455/174 147/449/117
f 160/456/174 169/338/151 147/340/117
f 169/337/151 160/457/174 164/335/149
f 163/346/148 162/345/156 145/458/120
f 126/459/122 152/446/182 155/445/147
f 150/330/142 139/460/135 134/328/144
f 148/461/141 150/462/142 135/463/146
f 146/312/140 148/311/141 135/326/146
f 144/309/138 146/308/140 136/464/145
f 142/306/137 144/305/138 136/465/145
f 140/466/134 142/325/137 137/324/143
f 139/467/135 140/322/134 134/321/144
f 151/319/128 138/429/136 139/317/135
f 149/316/118 151/437/128 150/314/142
f 147/371/117 149/370/118 148/468/141
f 145/310/120 147/469/117 146/308/140
f 143/307/139 145/470/120 144/305/138
f 141/304/124 143/471/139 142/302/137
f 138/301/136 141/432/124 140/299/134
f 137/472/143 135/329/146 134/328/144
f 137/472/143 136/473/145 135/329/146
f 133/294/127 116/293/133 117/474/130
f 129/292/123 119/475/132 116/290/133
f 125/287/119 118/476/131 119/286/132
f 122/282/116 117/281/130 118/477/131
f 132/280/128 133/478/127 123/278/129
f 130/277/126 131/479/125 133/275/127
f 128/480/124 129/292/123 131/291/125
f 126/271/122 127/289/121 129/269/123
f 124/268/120 125/287/119 127/266/121
f 121/265/117 122/285/116 125/263/119
f 120/262/118 123/481/129 122/260/116
f 116/293/133 119/482/132 117/474/130
f 119/482/132 118/483/131 117/474/130
f 198/484/183 191/485/184 201/486/185
f 192/487/186 189/488/187 191/489/184
f 210/490/188 203/491/189 213/492/190
f 207/493/191 204/494/192 203/491/189
f 188/495/193 207/496/191 208/497/194
f 189/498/187 190/499/195 188/500/193
f 205/501/196 206/502/197 189/503/187
f 194/504/198 195/505/199 193/506/200
f 196/507/201 197/508/202 194/509/198
f 198/510/183 202/511/203 196/512/201
f 199/513/204 200/514/205 198/515/183
f 195/505/199 194/504/198 197/516/202
f 209/517/206 208/518/194 207/519/191
f 203/491/189 210/490/188 207/493/191
f 197/520/202 213/492/190 203/491/189
f 213/521/190 211/522/207 210/523/188
f 189/524/187 192/525/186 193/526/200
f 191/527/184 198/528/183 192/529/186
f 188/500/193 191/530/184 189/498/187
f 195/505/199 204/531/192 193/506/200
f 192/532/186 196/507/201 194/509/198
f 200/533/205 211/534/207 202/535/203
f 196/512/201 192/536/186 198/510/183
f 202/537/203 213/538/190 197/539/202
f 204/540/192 206/502/197 205/501/196
f 206/541/197 204/542/192 190/543/195
f 207/544/191 210/545/188 209/546/206
f 209/517/206 212/547/208 208/518/194
f 212/548/208 199/549/204 201/550/185
f 211/551/207 212/552/208 209/553/206
f 208/554/194 212/555/208 201/556/185
f 199/549/204 212/548/208 211/557/207
f 191/558/184 188/495/193 208/497/194
f 207/559/191 190/543/195 204/542/192
f 193/560/200 205/501/196 189/503/187
f 213/561/190 202/535/203 211/534/207
f 211/562/207 200/514/205 199/513/204
f 201/563/185 199/513/204 198/515/183
f 205/501/196 193/560/200 204/540/192
f 201/556/185 191/564/184 208/554/194
f 203/491/189 204/494/192 195/565/199
f 188/500/193 190/499/195 207/566/191
f 189/567/187 206/541/197 190/543/195
f 196/568/201 202/537/203 197/539/202
f 198/569/183 200/533/205 202/535/203
f 195/565/199 197/520/202 203/491/189
f 210/545/188 211/570/207 209/546/206
f 193/571/200 192/572/186 194/573/198
f 216/574/209 215/575/210 214/576/211
f 218/577/212 215/578/210 216/579/209
f 218/580/212 216/581/209 217/582/213
f 219/583/214 214/584/211 215/585/210
f 217/586/213 214/587/211 219/588/214
f 219/589/214 220/590/215 217/591/213
f 215/592/210 218/593/212 219/594/214
f 217/595/213 220/596/215 218/597/212
f 218/598/212 220/599/215 219/600/214
f 214/601/211 217/602/213 216/603/209
o cam_path_Circle.001
v -3.233133 4.433057 -8.493224
v -1.755826 4.433057 -8.947469
v 0.000000 4.433057 -9.122761
v 1.755812 4.433057 -8.947472
v 3.444164 4.433057 -8.428337
v 5.000159 4.433057 -7.585305
v 6.363999 4.433057 -6.450774
v 7.483275 4.433057 -5.068344
v 8.314973 4.433057 -3.491139
v 8.827130 4.433057 -1.779772
v 9.000066 4.433057 -0.000009
v 8.827133 4.433057 1.779755
v 8.314980 4.433057 3.491122
v 7.483285 4.433057 5.068329
v 6.364012 4.433057 6.450762
v 5.000173 4.433057 7.585296
v 3.444180 4.433057 8.428330
v 1.755829 4.433057 8.947469
v 0.000003 4.433057 9.122761
v -1.755824 4.433057 8.947470
v -3.444175 4.433057 8.428332
v -5.000168 4.433057 7.585299
v -6.364007 4.433057 6.450766
v -7.483282 4.433057 5.068334
v -8.314977 4.433057 3.491128
v -8.827132 4.433057 1.779761
v -9.000066 4.433057 -0.000001
v -8.827132 4.433057 -1.779763
v -8.314977 4.433057 -3.491129
v -7.483282 4.433057 -5.068334
v -6.364007 4.433057 -6.450766
v -5.000169 4.433057 -7.585298
v -3.444176 4.433057 -8.428331
l 221 222
l 222 223
l 223 224
l 224 225
l 225 226
l 226 227
l 227 228
l 228 229
l 229 230
l 230 231
l 231 232
l 232 233
l 233 234
l 234 235
l 235 236
l 236 237
l 237 238
l 238 239
l 239 240
l 240 241
l 241 242
l 242 243
l 243 244
l 244 245
l 245 246
l 246 247
l 247 248
l 248 249
l 249 250
l 250 251
l 251 252
l 252 253
