# Blender 4.3.1
# www.blender.org
mtllib drone2.mtl
o Cube.002
v -0.301970 -0.391532 0.301970
v -0.301970 -0.301970 0.391532
v -0.391532 -0.301970 0.301970
v -0.301970 0.301970 0.391532
v -0.301970 0.391532 0.301970
v -0.391532 0.301970 0.301970
v -0.301970 -0.391532 -0.301970
v -0.391532 -0.301970 -0.301970
v -0.301970 -0.301970 -0.391532
v -0.301970 0.391532 -0.301970
v -0.301970 0.301970 -0.391532
v -0.391532 0.301970 -0.301970
v 0.301970 -0.391532 0.301970
v 0.391532 -0.301970 0.301970
v 0.301970 -0.301970 0.391532
v 0.301970 0.391532 0.301970
v 0.301970 0.301970 0.391532
v 0.391532 0.301970 0.301970
v 0.301970 -0.391532 -0.301970
v 0.301970 -0.301970 -0.391532
v 0.391532 -0.301970 -0.301970
v 0.301970 0.391532 -0.301970
v 0.391532 0.301970 -0.301970
v 0.301970 0.301970 -0.391532
v -0.380604 -0.293542 0.293542
v -0.293542 -0.380604 0.293542
v -0.293542 -0.293542 0.380604
v -0.380604 0.293542 0.293542
v -0.293542 0.293542 0.380604
v -0.293542 0.380604 0.293542
v -0.293542 -0.293542 -0.380604
v -0.293542 -0.380604 -0.293542
v -0.380604 -0.293542 -0.293542
v -0.380604 0.293542 -0.293542
v -0.293542 0.380604 -0.293542
v -0.293542 0.293542 -0.380604
v 0.293542 -0.293542 0.380604
v 0.293542 -0.380604 0.293542
v 0.380604 -0.293542 0.293542
v 0.380604 0.293542 0.293542
v 0.293542 0.380604 0.293542
v 0.293542 0.293542 0.380604
v 0.380604 -0.293542 -0.293542
v 0.293542 -0.380604 -0.293542
v 0.293542 -0.293542 -0.380604
v 0.293542 0.293542 -0.380604
v 0.293542 0.380604 -0.293542
v 0.380604 0.293542 -0.293542
v -0.301970 0.000000 0.391532
v -0.391532 0.000000 0.301970
v -0.301970 0.000000 -0.391532
v -0.391532 0.000000 -0.301970
v 0.391532 0.000000 -0.301970
v 0.301970 0.000000 -0.391532
v 0.301970 0.000000 0.391532
v 0.391532 0.000000 0.301970
v -0.293542 0.000000 0.380604
v -0.380604 0.000000 0.293542
v -0.293542 0.000000 -0.380604
v -0.380604 0.000000 -0.293542
v 0.380604 0.000000 -0.293542
v 0.293542 0.000000 -0.380604
v 0.293542 0.000000 0.380604
v 0.380604 0.000000 0.293542
v 0.000000 -0.391532 -0.301970
v 0.000000 -0.301970 -0.391532
v 0.000000 0.391532 -0.301970
v 0.000000 0.301970 -0.391532
v 0.000000 -0.391532 0.301970
v 0.000000 -0.301970 0.391532
v 0.000000 0.391532 0.301970
v 0.000000 0.301970 0.391532
v 0.000000 -0.380604 -0.293542
v 0.000000 -0.293542 -0.380604
v 0.000000 0.380604 -0.293542
v 0.000000 0.293542 -0.380604
v 0.000000 -0.380604 0.293542
v 0.000000 -0.293542 0.380604
v 0.000000 0.380604 0.293542
v 0.000000 0.293542 0.380604
v -0.150985 -0.391532 -0.301970
v -0.150985 0.301970 -0.391532
v -0.150985 -0.301970 0.391532
v -0.150985 0.391532 0.301970
v -0.146771 -0.380604 -0.293542
v -0.146771 0.293542 -0.380604
v -0.146771 -0.293542 0.380604
v -0.146771 0.380604 0.293542
v -0.175531 0.000000 0.391532
v -0.150985 -0.301970 -0.391532
v -0.150985 0.391532 -0.301970
v -0.150985 -0.391532 0.301970
v -0.150985 0.301970 0.391532
v -0.146771 -0.293542 -0.380604
v -0.146771 0.380604 -0.293542
v -0.146771 -0.380604 0.293542
v -0.146771 0.293542 0.380604
v -0.175531 0.000000 -0.391532
v 0.150985 -0.301970 -0.391532
v 0.150985 0.391532 -0.301970
v 0.150985 -0.391532 0.301970
v 0.150985 0.301970 0.391532
v 0.146771 -0.293542 -0.380604
v 0.146771 0.380604 -0.293542
v 0.146771 -0.380604 0.293542
v 0.146771 0.293542 0.380604
v 0.175531 0.000000 -0.391532
v 0.150985 -0.391532 -0.301970
v 0.150985 0.301970 -0.391532
v 0.150985 -0.301970 0.391532
v 0.150985 0.391532 0.301970
v 0.146771 -0.380604 -0.293542
v 0.146771 0.293542 -0.380604
v 0.146771 -0.293542 0.380604
v 0.146771 0.380604 0.293542
v 0.175531 0.000000 0.391532
v -0.301970 0.150985 0.391532
v -0.391532 0.150985 -0.301970
v 0.301970 0.150985 -0.391532
v 0.391532 0.150985 0.301970
v -0.293542 0.146771 0.380604
v -0.380604 0.146771 -0.293542
v 0.293542 0.146771 -0.380604
v 0.380604 0.146771 0.293542
v -0.391532 0.150985 0.301970
v -0.301970 0.150985 -0.391532
v 0.391532 0.150985 -0.301970
v 0.301970 0.150985 0.391532
v -0.380604 0.146771 0.293542
v -0.293542 0.146771 -0.380604
v 0.380604 0.146771 -0.293542
v 0.293542 0.146771 0.380604
v 0.000000 0.175531 -0.391532
v 0.000000 0.175531 0.391532
v -0.124119 0.124119 -0.391532
v -0.124119 0.124119 0.391532
v 0.124119 0.124119 0.391532
v 0.124119 0.124119 -0.391532
v -0.391532 -0.150985 0.301970
v -0.301970 -0.150985 -0.391532
v 0.391532 -0.150985 -0.301970
v 0.301970 -0.150985 0.391532
v -0.380604 -0.146771 0.293542
v -0.293542 -0.146771 -0.380604
v 0.380604 -0.146771 -0.293542
v 0.293542 -0.146771 0.380604
v -0.301970 -0.150985 0.391532
v -0.391532 -0.150985 -0.301970
v 0.301970 -0.150985 -0.391532
v 0.391532 -0.150985 0.301970
v -0.293542 -0.146771 0.380604
v -0.380604 -0.146771 -0.293542
v 0.293542 -0.146771 -0.380604
v 0.380604 -0.146771 0.293542
v 0.000000 -0.175531 0.391532
v 0.000000 -0.175531 -0.391532
v -0.124119 -0.124119 -0.391532
v -0.124119 -0.124119 0.391532
v 0.124119 -0.124119 0.391532
v 0.124119 -0.124119 -0.391532
v -0.301970 -0.391532 0.000000
v -0.391532 -0.301970 0.000000
v -0.301970 0.391532 0.000000
v -0.391532 0.301970 0.000000
v 0.301970 -0.391532 0.000000
v 0.391532 -0.301970 0.000000
v 0.301970 0.391532 0.000000
v 0.391532 0.301970 0.000000
v -0.293542 -0.380604 0.000000
v -0.380604 -0.293542 0.000000
v -0.293542 0.380604 0.000000
v -0.380604 0.293542 0.000000
v 0.293542 -0.380604 0.000000
v 0.380604 -0.293542 0.000000
v 0.293542 0.380604 0.000000
v 0.380604 0.293542 0.000000
v -0.175531 -0.391532 -0.000000
v -0.175531 0.391532 -0.000000
v 0.175531 0.391532 -0.000000
v 0.175531 -0.391532 -0.000000
v -0.391532 0.175531 0.000000
v 0.391532 0.175531 -0.000000
v 0.391532 -0.175531 -0.000000
v -0.391532 -0.175531 0.000000
v -0.391532 -0.301970 -0.150985
v -0.301970 0.391532 -0.150985
v 0.301970 -0.391532 -0.150985
v 0.391532 0.301970 -0.150985
v -0.380604 -0.293542 -0.146771
v -0.293542 0.380604 -0.146771
v 0.293542 -0.380604 -0.146771
v 0.380604 0.293542 -0.146771
v -0.391532 0.000000 -0.175531
v -0.391532 0.124119 -0.124119
v -0.391532 -0.124119 -0.124119
v -0.301970 -0.391532 -0.150985
v -0.391532 0.301970 -0.150985
v 0.391532 -0.301970 -0.150985
v 0.301970 0.391532 -0.150985
v -0.293542 -0.380604 -0.146771
v -0.380604 0.293542 -0.146771
v 0.380604 -0.293542 -0.146771
v 0.293542 0.380604 -0.146771
v 0.391532 0.000000 -0.175531
v 0.000000 -0.391532 -0.175531
v 0.000000 0.391532 -0.175531
v -0.124119 -0.391532 -0.124119
v -0.124119 0.391532 -0.124119
v 0.124119 0.391532 -0.124119
v 0.124119 -0.391532 -0.124119
v 0.391532 0.124119 -0.124119
v 0.391532 -0.124119 -0.124119
v -0.301970 -0.391532 0.150985
v -0.391532 0.301970 0.150985
v 0.391532 -0.301970 0.150985
v 0.301970 0.391532 0.150985
v -0.293542 -0.380604 0.146771
v -0.380604 0.293542 0.146771
v 0.380604 -0.293542 0.146771
v 0.293542 0.380604 0.146771
v 0.391532 0.000000 0.175531
v 0.000000 -0.391532 0.175531
v 0.000000 0.391532 0.175531
v -0.124119 -0.391532 0.124119
v -0.124119 0.391532 0.124119
v 0.124119 0.391532 0.124119
v 0.124119 -0.391532 0.124119
v 0.391532 0.124119 0.124119
v 0.391532 -0.124119 0.124119
v -0.391532 -0.301970 0.150985
v -0.301970 0.391532 0.150985
v 0.301970 -0.391532 0.150985
v 0.391532 0.301970 0.150985
v -0.380604 -0.293542 0.146771
v -0.293542 0.380604 0.146771
v 0.293542 -0.380604 0.146771
v 0.380604 0.293542 0.146771
v -0.391532 0.000000 0.175531
v -0.391532 0.124119 0.124119
v -0.391532 -0.124119 0.124119
v -0.391532 -0.301970 0.075492
v -0.301970 0.391532 0.075492
v 0.301970 -0.391532 0.075492
v 0.391532 0.301970 0.075492
v -0.380604 -0.293542 0.073385
v -0.293542 0.380604 0.073385
v 0.293542 -0.380604 0.073385
v 0.380604 0.293542 0.073385
v -0.391532 0.156999 0.078500
v -0.391532 -0.156999 0.078500
v -0.301970 -0.391532 0.075492
v -0.391532 0.301970 0.075492
v 0.391532 -0.301970 0.075492
v 0.301970 0.391532 0.075492
v -0.293542 -0.380604 0.073385
v -0.380604 0.293542 0.073385
v 0.380604 -0.293542 0.073385
v 0.293542 0.380604 0.073385
v -0.156999 -0.391532 0.078500
v -0.156999 0.391532 0.078500
v 0.156999 0.391532 0.078500
v 0.156999 -0.391532 0.078500
v 0.391532 0.156999 0.078500
v 0.391532 -0.156999 0.078500
v -0.301970 -0.391532 -0.075492
v -0.391532 0.301970 -0.075492
v 0.391532 -0.301970 -0.075492
v 0.301970 0.391532 -0.075492
v -0.293542 -0.380604 -0.073385
v -0.380604 0.293542 -0.073385
v 0.380604 -0.293542 -0.073385
v 0.293542 0.380604 -0.073385
v -0.156999 -0.391532 -0.078500
v -0.156999 0.391532 -0.078500
v 0.156999 0.391532 -0.078500
v 0.156999 -0.391532 -0.078500
v 0.391532 0.156999 -0.078500
v 0.391532 -0.156999 -0.078500
v -0.391532 -0.301970 -0.075492
v -0.301970 0.391532 -0.075492
v 0.301970 -0.391532 -0.075492
v 0.391532 0.301970 -0.075492
v -0.380604 -0.293542 -0.073385
v -0.293542 0.380604 -0.073385
v 0.293542 -0.380604 -0.073385
v 0.380604 0.293542 -0.073385
v -0.391532 0.156999 -0.078500
v -0.391532 -0.156999 -0.078500
v -0.391532 -0.301970 -0.226477
v -0.301970 0.391532 -0.226477
v 0.301970 -0.391532 -0.226477
v 0.391532 0.301970 -0.226477
v -0.380604 -0.293542 -0.220156
v -0.293542 0.380604 -0.220156
v 0.293542 -0.380604 -0.220156
v 0.380604 0.293542 -0.220156
v -0.391532 0.000000 -0.226477
v -0.391532 0.150985 -0.226477
v -0.391532 -0.150985 -0.226477
v -0.301970 -0.391532 -0.226477
v -0.391532 0.301970 -0.226477
v 0.391532 -0.301970 -0.226477
v 0.301970 0.391532 -0.226477
v -0.293542 -0.380604 -0.220156
v -0.380604 0.293542 -0.220156
v 0.380604 -0.293542 -0.220156
v 0.293542 0.380604 -0.220156
v 0.391532 0.000000 -0.226477
v 0.000000 -0.391532 -0.226477
v 0.000000 0.391532 -0.226477
v -0.150985 -0.391532 -0.226477
v -0.150985 0.391532 -0.226477
v 0.150985 0.391532 -0.226477
v 0.150985 -0.391532 -0.226477
v 0.391532 0.150985 -0.226477
v 0.391532 -0.150985 -0.226477
v -0.301970 -0.391532 0.226477
v -0.391532 0.301970 0.226477
v 0.391532 -0.301970 0.226477
v 0.301970 0.391532 0.226477
v -0.293542 -0.380604 0.220156
v -0.380604 0.293542 0.220156
v 0.380604 -0.293542 0.220156
v 0.293542 0.380604 0.220156
v 0.391532 0.000000 0.226477
v 0.000000 -0.391532 0.226477
v 0.000000 0.391532 0.226477
v -0.150985 -0.391532 0.226477
v -0.150985 0.391532 0.226477
v 0.150985 0.391532 0.226477
v 0.150985 -0.391532 0.226477
v 0.391532 0.150985 0.226477
v 0.391532 -0.150985 0.226477
v -0.391532 -0.301970 0.226477
v -0.301970 0.391532 0.226477
v 0.301970 -0.391532 0.226477
v 0.391532 0.301970 0.226477
v -0.380604 -0.293542 0.220156
v -0.293542 0.380604 0.220156
v 0.293542 -0.380604 0.220156
v 0.380604 0.293542 0.220156
v -0.391532 0.000000 0.226477
v -0.391532 0.150985 0.226477
v -0.391532 -0.150985 0.226477
v -0.226477 -0.391532 -0.301970
v -0.226477 0.301970 -0.391532
v -0.226477 -0.301970 0.391532
v -0.226477 0.391532 0.301970
v -0.220156 -0.380604 -0.293542
v -0.220156 0.293542 -0.380604
v -0.220156 -0.293542 0.380604
v -0.220156 0.380604 0.293542
v -0.226477 0.000000 0.391532
v -0.226477 -0.301970 -0.391532
v -0.226477 0.391532 -0.301970
v -0.226477 -0.391532 0.301970
v -0.226477 0.301970 0.391532
v -0.220156 -0.293542 -0.380604
v -0.220156 0.380604 -0.293542
v -0.220156 -0.380604 0.293542
v -0.220156 0.293542 0.380604
v -0.226477 0.000000 -0.391532
v -0.226477 0.150985 -0.391532
v -0.226477 0.150985 0.391532
v -0.226477 -0.150985 -0.391532
v -0.226477 -0.150985 0.391532
v -0.226477 -0.391532 0.000000
v -0.226477 0.391532 0.000000
v -0.226477 0.391532 -0.150985
v -0.226477 -0.391532 -0.150985
v -0.226477 -0.391532 0.150985
v -0.226477 0.391532 0.150985
v -0.226477 0.391532 0.075492
v -0.226477 -0.391532 0.075492
v -0.226477 0.391532 -0.075492
v -0.226477 -0.391532 -0.075492
v -0.226477 -0.391532 -0.226477
v -0.226477 0.391532 -0.226477
v -0.226477 -0.391532 0.226477
v -0.226477 0.391532 0.226477
v -0.075492 -0.301970 -0.391532
v -0.075492 0.391532 -0.301970
v -0.075492 -0.391532 0.301970
v -0.075492 0.301970 0.391532
v -0.073385 -0.293542 -0.380604
v -0.073385 0.380604 -0.293542
v -0.073385 -0.380604 0.293542
v -0.073385 0.293542 0.380604
v -0.075492 -0.391532 -0.301970
v -0.075492 0.301970 -0.391532
v -0.075492 -0.301970 0.391532
v -0.075492 0.391532 0.301970
v -0.073385 -0.380604 -0.293542
v -0.073385 0.293542 -0.380604
v -0.073385 -0.293542 0.380604
v -0.073385 0.380604 0.293542
v -0.078500 0.156999 0.391532
v -0.078500 0.156999 -0.391532
v -0.078500 -0.156999 0.391532
v -0.078500 -0.156999 -0.391532
v -0.078500 -0.391532 -0.156999
v -0.078500 0.391532 -0.156999
v -0.078500 0.391532 0.156999
v -0.078500 -0.391532 0.156999
v -0.075492 0.391532 -0.226477
v -0.075492 -0.391532 -0.226477
v -0.075492 0.391532 0.226477
v -0.075492 -0.391532 0.226477
v 0.075492 -0.391532 -0.301970
v 0.075492 0.301970 -0.391532
v 0.075492 -0.301970 0.391532
v 0.075492 0.391532 0.301970
v 0.073385 -0.380604 -0.293542
v 0.073385 0.293542 -0.380604
v 0.073385 -0.293542 0.380604
v 0.073385 0.380604 0.293542
v 0.075492 -0.301970 -0.391532
v 0.075492 0.391532 -0.301970
v 0.075492 -0.391532 0.301970
v 0.075492 0.301970 0.391532
v 0.073385 -0.293542 -0.380604
v 0.073385 0.380604 -0.293542
v 0.073385 -0.380604 0.293542
v 0.073385 0.293542 0.380604
v 0.078500 0.156999 -0.391532
v 0.078500 0.156999 0.391532
v 0.078500 -0.156999 -0.391532
v 0.078500 -0.156999 0.391532
v 0.078500 0.391532 -0.156999
v 0.078500 -0.391532 -0.156999
v 0.078500 -0.391532 0.156999
v 0.078500 0.391532 0.156999
v 0.075492 -0.391532 -0.226477
v 0.075492 0.391532 -0.226477
v 0.075492 -0.391532 0.226477
v 0.075492 0.391532 0.226477
v 0.226477 -0.301970 -0.391532
v 0.226477 0.391532 -0.301970
v 0.226477 -0.391532 0.301970
v 0.226477 0.301970 0.391532
v 0.220156 -0.293542 -0.380604
v 0.220156 0.380604 -0.293542
v 0.220156 -0.380604 0.293542
v 0.220156 0.293542 0.380604
v 0.226477 0.000000 -0.391532
v 0.226477 -0.391532 -0.301970
v 0.226477 0.301970 -0.391532
v 0.226477 -0.301970 0.391532
v 0.226477 0.391532 0.301970
v 0.220156 -0.380604 -0.293542
v 0.220156 0.293542 -0.380604
v 0.220156 -0.293542 0.380604
v 0.220156 0.380604 0.293542
v 0.226477 0.000000 0.391532
v 0.226477 0.150985 0.391532
v 0.226477 0.150985 -0.391532
v 0.226477 -0.150985 0.391532
v 0.226477 -0.150985 -0.391532
v 0.226477 0.391532 0.000000
v 0.226477 -0.391532 0.000000
v 0.226477 -0.391532 -0.150985
v 0.226477 0.391532 -0.150985
v 0.226477 0.391532 0.150985
v 0.226477 -0.391532 0.150985
v 0.226477 -0.391532 0.075492
v 0.226477 0.391532 0.075492
v 0.226477 -0.391532 -0.075492
v 0.226477 0.391532 -0.075492
v 0.226477 0.391532 -0.226477
v 0.226477 -0.391532 -0.226477
v 0.226477 0.391532 0.226477
v 0.226477 -0.391532 0.226477
v -0.391532 -0.226477 0.301970
v -0.301970 -0.226477 -0.391532
v 0.391532 -0.226477 -0.301970
v 0.301970 -0.226477 0.391532
v -0.380604 -0.220156 0.293542
v -0.293542 -0.220156 -0.380604
v 0.380604 -0.220156 -0.293542
v 0.293542 -0.220156 0.380604
v 0.000000 -0.226477 0.391532
v 0.000000 -0.226477 -0.391532
v -0.150985 -0.226477 -0.391532
v -0.150985 -0.226477 0.391532
v 0.150985 -0.226477 0.391532
v 0.150985 -0.226477 -0.391532
v -0.301970 -0.226477 0.391532
v -0.391532 -0.226477 -0.301970
v 0.301970 -0.226477 -0.391532
v 0.391532 -0.226477 0.301970
v -0.293542 -0.220156 0.380604
v -0.380604 -0.220156 -0.293542
v 0.293542 -0.220156 -0.380604
v 0.380604 -0.220156 0.293542
v -0.391532 -0.226477 0.000000
v 0.391532 -0.226477 0.000000
v 0.391532 -0.226477 -0.150985
v -0.391532 -0.226477 -0.150985
v -0.391532 -0.226477 0.150985
v 0.391532 -0.226477 0.150985
v 0.391532 -0.226477 0.075492
v -0.391532 -0.226477 0.075492
v -0.391532 -0.226477 -0.075492
v 0.391532 -0.226477 -0.075492
v 0.391532 -0.226477 -0.226477
v -0.391532 -0.226477 -0.226477
v -0.391532 -0.226477 0.226477
v 0.391532 -0.226477 0.226477
v -0.226477 -0.226477 0.391532
v -0.226477 -0.226477 -0.391532
v -0.075492 -0.226477 -0.391532
v -0.075492 -0.226477 0.391532
v 0.075492 -0.226477 0.391532
v 0.075492 -0.226477 -0.391532
v 0.226477 -0.226477 -0.391532
v 0.226477 -0.226477 0.391532
v -0.301970 -0.075492 0.391532
v -0.391532 -0.075492 -0.301970
v 0.301970 -0.075492 -0.391532
v 0.391532 -0.075492 0.301970
v -0.293542 -0.073385 0.380604
v -0.380604 -0.073385 -0.293542
v 0.293542 -0.073385 -0.380604
v 0.380604 -0.073385 0.293542
v -0.391532 -0.075492 0.301970
v -0.301970 -0.075492 -0.391532
v 0.391532 -0.075492 -0.301970
v 0.301970 -0.075492 0.391532
v -0.380604 -0.073385 0.293542
v -0.293542 -0.073385 -0.380604
v 0.380604 -0.073385 -0.293542
v 0.293542 -0.073385 0.380604
v -0.156999 -0.078500 -0.391532
v -0.156999 -0.078500 0.391532
v 0.156999 -0.078500 0.391532
v 0.156999 -0.078500 -0.391532
v 0.391532 -0.078500 -0.156999
v -0.391532 -0.078500 -0.156999
v -0.391532 -0.078500 0.156999
v 0.391532 -0.078500 0.156999
v 0.391532 -0.075492 -0.226477
v -0.391532 -0.075492 -0.226477
v -0.391532 -0.075492 0.226477
v 0.391532 -0.075492 0.226477
v -0.226477 -0.075492 -0.391532
v -0.226477 -0.075492 0.391532
v 0.226477 -0.075492 0.391532
v 0.226477 -0.075492 -0.391532
v -0.391532 0.075492 0.301970
v -0.301970 0.075492 -0.391532
v 0.391532 0.075492 -0.301970
v 0.301970 0.075492 0.391532
v -0.380604 0.073385 0.293542
v -0.293542 0.073385 -0.380604
v 0.380604 0.073385 -0.293542
v 0.293542 0.073385 0.380604
v -0.156999 0.078500 -0.391532
v -0.156999 0.078500 0.391532
v 0.156999 0.078500 0.391532
v 0.156999 0.078500 -0.391532
v -0.301970 0.075492 0.391532
v -0.391532 0.075492 -0.301970
v 0.301970 0.075492 -0.391532
v 0.391532 0.075492 0.301970
v -0.293542 0.073385 0.380604
v -0.380604 0.073385 -0.293542
v 0.293542 0.073385 -0.380604
v 0.380604 0.073385 0.293542
v 0.391532 0.078500 -0.156999
v -0.391532 0.078500 -0.156999
v -0.391532 0.078500 0.156999
v 0.391532 0.078500 0.156999
v 0.391532 0.075492 -0.226477
v -0.391532 0.075492 -0.226477
v -0.391532 0.075492 0.226477
v 0.391532 0.075492 0.226477
v -0.226477 0.075492 0.391532
v -0.226477 0.075492 -0.391532
v 0.226477 0.075492 -0.391532
v 0.226477 0.075492 0.391532
v -0.301970 0.226477 0.391532
v -0.391532 0.226477 -0.301970
v 0.301970 0.226477 -0.391532
v 0.391532 0.226477 0.301970
v -0.293542 0.220156 0.380604
v -0.380604 0.220156 -0.293542
v 0.293542 0.220156 -0.380604
v 0.380604 0.220156 0.293542
v -0.391532 0.226477 0.301970
v -0.301970 0.226477 -0.391532
v 0.391532 0.226477 -0.301970
v 0.301970 0.226477 0.391532
v -0.380604 0.220156 0.293542
v -0.293542 0.220156 -0.380604
v 0.380604 0.220156 -0.293542
v 0.293542 0.220156 0.380604
v 0.000000 0.226477 -0.391532
v 0.000000 0.226477 0.391532
v -0.150985 0.226477 -0.391532
v -0.150985 0.226477 0.391532
v 0.150985 0.226477 0.391532
v 0.150985 0.226477 -0.391532
v -0.391532 0.226477 0.000000
v 0.391532 0.226477 0.000000
v 0.391532 0.226477 -0.150985
v -0.391532 0.226477 -0.150985
v -0.391532 0.226477 0.150985
v 0.391532 0.226477 0.150985
v 0.391532 0.226477 0.075492
v -0.391532 0.226477 0.075492
v -0.391532 0.226477 -0.075492
v 0.391532 0.226477 -0.075492
v 0.391532 0.226477 -0.226477
v -0.391532 0.226477 -0.226477
v -0.391532 0.226477 0.226477
v 0.391532 0.226477 0.226477
v -0.226477 0.226477 -0.391532
v -0.226477 0.226477 0.391532
v -0.075492 0.226477 0.391532
v -0.075492 0.226477 -0.391532
v 0.075492 0.226477 -0.391532
v 0.075492 0.226477 0.391532
v 0.226477 0.226477 0.391532
v 0.226477 0.226477 -0.391532
v -0.071601 -0.000000 -0.371347
v 0.000000 -0.000000 -0.371347
v 0.071601 -0.000000 0.371347
v 0.000000 -0.000000 0.371347
v 0.000000 0.071601 -0.371347
v 0.000000 0.071601 0.371347
v -0.071601 -0.000000 0.371347
v -0.166482 0.000000 0.371347
v -0.148906 0.074453 -0.371347
v -0.166482 0.000000 -0.371347
v -0.148906 0.074453 0.371347
v 0.071601 -0.000000 -0.371347
v 0.166482 0.000000 -0.371347
v 0.148906 0.074453 0.371347
v 0.166482 0.000000 0.371347
v 0.148906 0.074453 -0.371347
v 0.074453 0.148906 -0.371347
v 0.117720 0.117720 -0.371347
v -0.074453 0.148906 0.371347
v -0.117720 0.117720 0.371347
v 0.074453 0.148906 0.371347
v 0.000000 0.166482 0.371347
v -0.074453 0.148906 -0.371347
v 0.000000 0.166482 -0.371347
v 0.000000 -0.071601 0.371347
v 0.000000 -0.166482 0.371347
v 0.000000 -0.071601 -0.371347
v 0.000000 -0.166482 -0.371347
v -0.148906 -0.074453 -0.371347
v -0.117720 -0.117720 -0.371347
v -0.148906 -0.074453 0.371347
v -0.117720 -0.117720 0.371347
v 0.148906 -0.074453 0.371347
v 0.117720 -0.117720 0.371347
v 0.148906 -0.074453 -0.371347
v 0.117720 -0.117720 -0.371347
v 0.074453 -0.148906 -0.371347
v -0.074453 -0.148906 0.371347
v -0.074453 -0.148906 -0.371347
v 0.074453 -0.148906 0.371347
v -0.371347 -0.000000 0.071601
v -0.371347 -0.000000 0.000000
v 0.371347 -0.000000 -0.071601
v 0.371347 -0.000000 0.000000
v 0.000000 -0.371347 -0.071601
v 0.000000 -0.371347 0.000000
v 0.000000 0.371347 -0.071601
v 0.000000 0.371347 0.000000
v -0.148906 -0.371347 -0.074453
v -0.166482 -0.371347 -0.000000
v -0.148906 0.371347 -0.074453
v -0.166482 0.371347 -0.000000
v 0.148906 0.371347 -0.074453
v 0.166482 0.371347 -0.000000
v 0.148906 -0.371347 -0.074453
v 0.166482 -0.371347 -0.000000
v -0.371347 0.148906 0.074453
v -0.371347 0.166482 0.000000
v 0.371347 0.148906 -0.074453
v 0.371347 0.166482 -0.000000
v 0.371347 -0.148906 -0.074453
v 0.371347 -0.166482 -0.000000
v -0.371347 -0.148906 0.074453
v -0.371347 -0.166482 0.000000
v 0.371347 0.071601 0.000000
v -0.371347 0.071601 0.000000
v 0.071601 -0.371347 0.000000
v -0.071601 0.371347 0.000000
v 0.071601 0.371347 0.000000
v -0.071601 -0.371347 0.000000
v 0.371347 -0.071601 0.000000
v -0.371347 -0.071601 0.000000
v -0.371347 -0.000000 -0.071601
v -0.371347 -0.000000 -0.166482
v -0.371347 0.148906 -0.074453
v -0.371347 0.117720 -0.117720
v -0.371347 -0.148906 -0.074453
v -0.371347 -0.117720 -0.117720
v 0.371347 -0.074453 -0.148906
v 0.371347 -0.117720 -0.117720
v -0.074453 -0.371347 -0.148906
v -0.117720 -0.371347 -0.117720
v 0.074453 0.371347 -0.148906
v 0.117720 0.371347 -0.117720
v -0.074453 0.371347 -0.148906
v 0.000000 0.371347 -0.166482
v 0.074453 -0.371347 -0.148906
v 0.000000 -0.371347 -0.166482
v 0.371347 0.074453 -0.148906
v 0.371347 -0.000000 -0.166482
v -0.371347 0.074453 -0.148906
v -0.371347 -0.074453 -0.148906
v 0.371347 -0.000000 0.071601
v 0.371347 -0.000000 0.166482
v 0.000000 -0.371347 0.071601
v 0.000000 -0.371347 0.166482
v 0.000000 0.371347 0.071601
v 0.000000 0.371347 0.166482
v -0.148906 -0.371347 0.074453
v -0.117720 -0.371347 0.117720
v -0.148906 0.371347 0.074453
v -0.117720 0.371347 0.117720
v 0.148906 0.371347 0.074453
v 0.117720 0.371347 0.117720
v 0.148906 -0.371347 0.074453
v 0.117720 -0.371347 0.117720
v 0.371347 0.148906 0.074453
v 0.371347 0.117720 0.117720
v 0.371347 -0.148906 0.074453
v 0.371347 -0.117720 0.117720
v -0.371347 -0.074453 0.148906
v -0.371347 -0.117720 0.117720
v -0.371347 0.074453 0.148906
v -0.371347 -0.000000 0.166482
v 0.371347 0.074453 0.148906
v 0.074453 -0.371347 0.148906
v -0.074453 0.371347 0.148906
v 0.074453 0.371347 0.148906
v -0.074453 -0.371347 0.148906
v 0.371347 -0.074453 0.148906
v -0.371347 0.117720 0.117720
v 0.371347 -0.071601 0.071601
v -0.071601 -0.371347 0.071601
v 0.071601 0.371347 0.071601
v -0.071601 0.371347 0.071601
v 0.071601 -0.371347 0.071601
v 0.371347 0.071601 0.071601
v -0.371347 -0.071601 0.071601
v -0.371347 0.071601 0.071601
v -0.117720 0.371347 -0.117720
v 0.117720 -0.371347 -0.117720
v 0.371347 0.117720 -0.117720
v -0.371347 -0.071601 -0.071601
v -0.371347 0.071601 -0.071601
v 0.371347 -0.071601 -0.071601
v -0.071601 -0.371347 -0.071601
v 0.071601 0.371347 -0.071601
v -0.071601 0.371347 -0.071601
v 0.071601 -0.371347 -0.071601
v 0.371347 0.071601 -0.071601
v -0.117720 0.117720 -0.371347
v -0.071601 0.071601 -0.371347
v -0.071601 0.071601 0.371347
v -0.071601 -0.071601 0.371347
v -0.071601 -0.071601 -0.371347
v 0.117720 0.117720 0.371347
v 0.071601 0.071601 0.371347
v 0.071601 0.071601 -0.371347
v 0.071601 -0.071601 -0.371347
v 0.071601 -0.071601 0.371347
vn -0.0000 -0.0000 1.0000
vn 1.0000 -0.0000 -0.0000
vn -0.0000 1.0000 -0.0000
vn -1.0000 -0.0000 -0.0000
vn -0.0000 -0.0000 -1.0000
vn 0.7919 -0.6107 -0.0000
vn 0.6107 -0.7918 -0.0000
vn -0.0000 0.7919 -0.6107
vn -0.0000 0.6107 -0.7918
vn -0.6107 -0.7918 -0.0000
vn -0.7919 0.6107 -0.0000
vn -0.0000 -0.6107 0.7918
vn 0.6107 -0.0000 -0.7919
vn 0.7919 0.6107 -0.0000
vn -0.0000 -0.7919 -0.6107
vn -0.7918 -0.0000 0.6107
vn 0.7918 -0.0000 0.6107
vn -0.0000 0.6107 0.7918
vn 0.6107 0.7918 -0.0000
vn -0.6107 -0.0000 -0.7919
vn -0.6107 -0.0000 0.7919
vn -0.7919 -0.6107 -0.0000
vn -0.0000 0.7919 0.6107
vn 0.7918 -0.0000 -0.6107
vn 0.6107 -0.0000 0.7919
vn -0.0000 -1.0000 -0.0000
vn -0.5774 -0.5774 0.5774
vn -0.5774 0.5774 0.5774
vn -0.5774 -0.5774 -0.5774
vn -0.5774 0.5774 -0.5774
vn 0.5774 -0.5774 0.5774
vn 0.5774 0.5774 0.5774
vn 0.5774 -0.5774 -0.5774
vn 0.5774 0.5774 -0.5774
vn -0.7071 -0.7071 -0.0000
vn -0.7071 -0.0000 0.7071
vn -0.7071 0.7071 -0.0000
vn -0.7071 -0.0000 -0.7071
vn -0.0000 -0.7071 -0.7071
vn -0.0000 0.7071 -0.7071
vn 0.7071 -0.0000 -0.7071
vn 0.7071 -0.7071 -0.0000
vn 0.7071 0.7071 -0.0000
vn 0.7071 -0.0000 0.7071
vn -0.0000 -0.7071 0.7071
vn -0.0000 0.7071 0.7071
vn -0.0000 -0.7919 0.6107
vn -0.7918 -0.0000 -0.6107
vn -0.6107 0.7918 -0.0000
vn -0.0000 -0.6107 -0.7918
vn 0.6107 -0.0000 0.7918
vn -0.6107 -0.0000 0.7918
vn -0.6107 -0.0000 -0.7918
vn 0.6107 -0.0000 -0.7918
vn 0.5347 -0.4047 0.7418
vn 0.4047 -0.5347 0.7418
vn -0.0000 -0.7918 0.6107
vn -0.0000 0.7918 0.6107
vn -0.0000 -0.7918 -0.6107
vn -0.0000 0.7918 -0.6107
vn 0.8920 -0.2106 -0.3999
vn -0.3999 0.8920 0.2106
vn 0.5347 -0.7418 0.4047
vn 0.4047 0.5347 0.7418
vn -0.3999 -0.8920 0.2106
vn -0.4047 0.7418 0.5347
vn 0.5347 0.7418 -0.4047
vn -0.2106 0.3999 -0.8920
vn -0.4047 -0.7418 0.5347
vn -0.5347 -0.7418 -0.4047
vn 0.2106 0.8920 0.3999
vn -0.5347 -0.4047 -0.7418
vn 0.3999 0.8920 -0.2106
vn 0.5347 -0.7418 -0.4047
vn -0.7918 -0.6107 -0.0000
vn 0.7918 0.6107 -0.0000
vn -0.7918 0.6107 -0.0000
vn 0.7918 -0.6107 -0.0000
vn -0.5347 -0.4047 0.7418
vn 0.3999 -0.8920 -0.2106
vn 0.2106 -0.8920 0.3999
vn -0.2106 0.3999 0.8920
vn -0.8920 -0.3999 -0.2106
vn -0.2106 0.8920 0.3999
vn 0.3999 0.2106 -0.8920
vn -0.8920 0.3999 -0.2106
vn 0.2106 0.8920 -0.3999
vn -0.3999 0.2106 -0.8920
vn 0.8920 0.3999 -0.2106
vn -0.3999 0.2106 0.8920
vn -0.5347 0.7418 0.4047
vn 0.8920 -0.3999 -0.2106
vn 0.5347 0.7418 0.4047
vn 0.8920 -0.2106 0.3999
vn 0.3999 0.2106 0.8920
vn -0.2106 0.8920 -0.3999
vn -0.5347 -0.7418 0.4047
vn -0.7418 -0.5347 -0.4047
vn -0.5347 0.7418 -0.4047
vn 0.4047 0.7418 0.5347
vn -0.2106 -0.8920 -0.3999
vn -0.7418 -0.5347 0.4047
vn -0.7418 0.5347 -0.4047
vn 0.4047 -0.7418 0.5347
vn -0.8920 0.2106 -0.3999
vn 0.7418 -0.5347 0.4047
vn -0.7418 0.5347 0.4047
vn -0.7418 -0.4047 0.5347
vn -0.8920 0.2106 0.3999
vn 0.7418 -0.5347 -0.4047
vn 0.7418 0.5347 0.4047
vn -0.7418 0.4047 0.5347
vn 0.8920 0.2106 0.3999
vn 0.4047 0.5347 -0.7418
vn -0.3999 0.8920 -0.2106
vn 0.7418 0.5347 -0.4047
vn 0.7418 0.4047 0.5347
vn 0.8920 0.2106 -0.3999
vn 0.5347 -0.4047 -0.7418
vn 0.3999 0.8920 0.2106
vn -0.4047 0.5347 0.7418
vn 0.7418 -0.4047 0.5347
vn -0.5347 0.4047 -0.7418
vn 0.3999 -0.8920 0.2106
vn -0.8920 -0.2106 0.3999
vn -0.3999 -0.2106 0.8920
vn -0.3999 -0.8920 -0.2106
vn 0.4047 0.7418 -0.5347
vn -0.8920 -0.3999 0.2106
vn 0.2106 0.3999 -0.8920
vn 0.4047 -0.7418 -0.5347
vn -0.8920 0.3999 0.2106
vn 0.3999 -0.2106 0.8920
vn -0.7418 -0.4047 -0.5347
vn 0.8920 0.3999 0.2106
vn -0.2106 -0.3999 -0.8920
vn -0.4047 0.7418 -0.5347
vn -0.2106 -0.3999 0.8920
vn -0.7418 0.4047 -0.5347
vn 0.3999 -0.2106 -0.8920
vn 0.8920 -0.3999 0.2106
vn -0.4047 -0.7418 -0.5347
vn 0.2106 -0.3999 -0.8920
vn 0.7418 0.4047 -0.5347
vn 0.2106 0.3999 0.8920
vn 0.5347 0.4047 -0.7418
vn 0.4047 -0.5347 -0.7418
vn 0.7418 -0.4047 -0.5347
vn 0.2106 -0.8920 -0.3999
vn 0.5347 0.4047 0.7418
vn -0.4047 -0.5347 -0.7418
vn -0.3999 -0.2106 -0.8920
vn -0.2106 -0.8920 0.3999
vn -0.5347 0.4047 0.7418
vn 0.2106 -0.3999 0.8920
vn -0.4047 -0.5347 0.7418
vn -0.4047 0.5347 -0.7418
vn -0.8920 -0.2106 -0.3999
vt 0.551071 0.353717
vt 0.520975 0.353947
vt 0.521067 0.326306
vt 0.548580 0.323601
vt 0.278615 0.042261
vt 0.243847 0.037414
vt 0.249563 0.004294
vt 0.281781 0.008101
vt 0.265252 0.548894
vt 0.262849 0.579090
vt 0.235283 0.576442
vt 0.235129 0.548755
vt 0.560136 0.638712
vt 0.528807 0.636889
vt 0.530887 0.608155
vt 0.559684 0.607320
vt 0.760571 0.242881
vt 0.790667 0.242651
vt 0.790575 0.270292
vt 0.763062 0.272997
vt 0.263646 0.326814
vt 0.236567 0.329179
vt 0.235317 0.328018
vt 0.265219 0.320760
vt 0.791950 0.645609
vt 0.792296 0.617357
vt 0.793629 0.616185
vt 0.798016 0.647858
vt 0.522684 0.547344
vt 0.523240 0.574827
vt 0.521983 0.576009
vt 0.516697 0.545351
vt 0.234485 0.847052
vt 0.236308 0.879557
vt 0.235012 0.880886
vt 0.227497 0.844875
vt 0.504679 0.056852
vt 0.504431 0.030366
vt 0.505654 0.029241
vt 0.510431 0.058831
vt 0.470446 0.869900
vt 0.497758 0.868202
vt 0.498986 0.869401
vt 0.468711 0.875953
vt 0.233999 0.577613
vt 0.229138 0.546660
vt 0.529636 0.606849
vt 0.561730 0.601020
vt 0.271880 0.608063
vt 0.243073 0.608930
vt 0.241820 0.607625
vt 0.273920 0.601757
vt 0.784290 0.344987
vt 0.782535 0.315331
vt 0.783845 0.314000
vt 0.790826 0.346911
vt 0.557011 0.010369
vt 0.526661 0.011987
vt 0.525303 0.010641
vt 0.559062 0.003643
vt 0.791859 0.271459
vt 0.761525 0.279177
vt 0.504323 0.646299
vt 0.504667 0.618037
vt 0.506000 0.616865
vt 0.510391 0.648548
vt 0.522128 0.846458
vt 0.523960 0.878983
vt 0.522663 0.880313
vt 0.515134 0.844281
vt 0.479576 0.272489
vt 0.505906 0.269707
vt 0.507143 0.270815
vt 0.478155 0.278414
vt 0.248325 0.002848
vt 0.284942 0.001616
vt 0.467038 0.585994
vt 0.496373 0.584781
vt 0.497665 0.586097
vt 0.465025 0.592441
vt 0.788958 0.049254
vt 0.788402 0.021771
vt 0.789659 0.020589
vt 0.794944 0.051247
vt 0.754631 0.586229
vt 0.784981 0.584611
vt 0.786339 0.585957
vt 0.752580 0.592955
vt 0.758137 0.869195
vt 0.785445 0.867469
vt 0.786674 0.868667
vt 0.756408 0.875248
vt 0.473646 0.645624
vt 0.476576 0.614837
vt 0.058179 0.302090
vt 0.111509 0.302090
vt 0.084844 0.348275
vt 0.001616 0.302090
vt 0.054946 0.302090
vt 0.028281 0.348275
vt 0.168071 0.302090
vt 0.141406 0.348275
vt 0.114741 0.302090
vt 0.171304 0.302090
vt 0.224634 0.302090
vt 0.197969 0.348275
vt 0.058179 0.047801
vt 0.084844 0.001616
vt 0.111509 0.047801
vt 0.054946 0.047801
vt 0.001616 0.047801
vt 0.028281 0.001616
vt 0.168071 0.047801
vt 0.114741 0.047801
vt 0.141406 0.001616
vt 0.171304 0.047801
vt 0.197969 0.001616
vt 0.224634 0.047801
vt 0.854790 0.820717
vt 0.854790 0.852503
vt 0.801460 0.852503
vt 0.801460 0.820717
vt 0.054946 0.831532
vt 0.054946 0.863318
vt 0.001616 0.863318
vt 0.001616 0.831532
vt 0.114741 0.383294
vt 0.114741 0.351508
vt 0.168071 0.351508
vt 0.168071 0.383294
vt 0.799170 0.336571
vt 0.799170 0.304785
vt 0.852500 0.304785
vt 0.852500 0.336571
vt 0.168071 0.270304
vt 0.114741 0.270304
vt 0.171304 0.079588
vt 0.224634 0.079588
vt 0.058179 0.640815
vt 0.058179 0.609029
vt 0.111509 0.609029
vt 0.111509 0.640815
vt 0.054946 0.574011
vt 0.054946 0.605797
vt 0.001616 0.605797
vt 0.001616 0.574011
vt 0.854364 0.224119
vt 0.854364 0.255905
vt 0.801034 0.255905
vt 0.801034 0.224119
vt 0.058179 0.383294
vt 0.058179 0.351508
vt 0.111509 0.351508
vt 0.111509 0.383294
vt 0.058179 0.079588
vt 0.111509 0.079587
vt 0.054946 0.270304
vt 0.001616 0.270304
vt 0.527352 0.251611
vt 0.529107 0.281268
vt 0.527797 0.282598
vt 0.520816 0.249687
vt 0.519783 0.325139
vt 0.550117 0.317421
vt 0.245384 0.266317
vt 0.251549 0.299356
vt 0.250330 0.300818
vt 0.237896 0.264907
vt 0.500026 0.342869
vt 0.496980 0.310105
vt 0.498245 0.308732
vt 0.507164 0.344828
vt 0.683142 0.311304
vt 0.647525 0.313416
vt 0.647051 0.306985
vt 0.682019 0.304785
vt 0.058179 0.510439
vt 0.058179 0.478652
vt 0.111509 0.478652
vt 0.111509 0.510439
vt 0.058179 0.767960
vt 0.058179 0.736174
vt 0.111509 0.736174
vt 0.111509 0.767960
vt 0.799170 0.463715
vt 0.799170 0.431929
vt 0.852500 0.431929
vt 0.852500 0.463715
vt 0.054946 0.704388
vt 0.054946 0.736174
vt 0.001616 0.736174
vt 0.001616 0.704388
vt 0.626297 0.877872
vt 0.660733 0.876277
vt 0.661077 0.882506
vt 0.627517 0.884191
vt 0.614806 0.583228
vt 0.648845 0.585739
vt 0.648426 0.592071
vt 0.615230 0.589432
vt 0.416443 0.021093
vt 0.383937 0.017850
vt 0.384550 0.011827
vt 0.416163 0.015144
vt 0.352375 0.287709
vt 0.385683 0.283911
vt 0.386386 0.289919
vt 0.354029 0.293759
vt 0.628500 0.285294
vt 0.664117 0.283183
vt 0.664591 0.289613
vt 0.629623 0.291813
vt 0.696835 0.013370
vt 0.662797 0.010859
vt 0.663216 0.004527
vt 0.696412 0.007166
vt 0.697838 0.606060
vt 0.662092 0.604733
vt 0.662215 0.598214
vt 0.697327 0.599576
vt 0.627740 0.249797
vt 0.662213 0.248563
vt 0.695473 0.640749
vt 0.661166 0.639553
vt 0.413668 0.053068
vt 0.381098 0.050827
vt 0.683902 0.346801
vt 0.649429 0.348035
vt 0.314959 0.797838
vt 0.299997 0.777011
vt 0.308772 0.772792
vt 0.321754 0.790960
vt 0.345198 0.222674
vt 0.323419 0.208922
vt 0.329904 0.201572
vt 0.348670 0.213642
vt 0.502644 0.487346
vt 0.503778 0.451711
vt 0.510365 0.451838
vt 0.509140 0.486649
vt 0.522222 0.111983
vt 0.522217 0.147606
vt 0.515704 0.147689
vt 0.515704 0.112887
vt 0.054946 0.143160
vt 0.054946 0.174946
vt 0.001616 0.174946
vt 0.001616 0.143160
vt 0.058179 0.206732
vt 0.058179 0.174946
vt 0.111509 0.174946
vt 0.111509 0.206732
vt 0.171304 0.206732
vt 0.171304 0.174946
vt 0.224634 0.174946
vt 0.224634 0.206732
vt 0.168071 0.143160
vt 0.168071 0.174946
vt 0.114741 0.174946
vt 0.114741 0.143160
vt 0.469864 0.776363
vt 0.470641 0.743556
vt 0.503518 0.744430
vt 0.502340 0.777400
vt 0.791808 0.178734
vt 0.791707 0.145797
vt 0.797732 0.145742
vt 0.797802 0.177842
vt 0.509573 0.744613
vt 0.508357 0.776743
vt 0.789420 0.484615
vt 0.789425 0.448992
vt 0.795938 0.448909
vt 0.795938 0.483711
vt 0.234244 0.419414
vt 0.233859 0.452098
vt 0.227866 0.452059
vt 0.228296 0.420210
vt 0.235587 0.704552
vt 0.233768 0.739595
vt 0.227288 0.739327
vt 0.229187 0.705120
vt 0.519834 0.417864
vt 0.519935 0.450802
vt 0.513910 0.450857
vt 0.513840 0.418756
vt 0.758763 0.113329
vt 0.791213 0.112898
vt 0.758986 0.146074
vt 0.266465 0.419687
vt 0.266415 0.452240
vt 0.552879 0.483270
vt 0.520429 0.483700
vt 0.552656 0.450524
vt 0.759007 0.049522
vt 0.790332 0.080507
vt 0.758683 0.081051
vt 0.520138 0.385362
vt 0.514221 0.387062
vt 0.514994 0.356053
vt 0.498831 0.840859
vt 0.500805 0.809737
vt 0.506747 0.808271
vt 0.504832 0.838989
vt 0.468999 0.840041
vt 0.469221 0.808604
vt 0.171304 0.270304
vt 0.171304 0.238518
vt 0.224634 0.238518
vt 0.224634 0.270304
vt 0.058179 0.270304
vt 0.058179 0.238518
vt 0.111509 0.238518
vt 0.111509 0.270304
vt 0.525218 0.042336
vt 0.523189 0.076631
vt 0.516685 0.078330
vt 0.518577 0.044395
vt 0.498128 0.555475
vt 0.500748 0.522120
vt 0.507154 0.520614
vt 0.504602 0.553584
vt 0.626792 0.043972
vt 0.661130 0.045106
vt 0.660427 0.068004
vt 0.624885 0.075633
vt 0.694959 0.077155
vt 0.690670 0.085389
vt 0.660103 0.077518
vt 0.054946 0.206732
vt 0.054946 0.238518
vt 0.001616 0.238518
vt 0.001616 0.206732
vt 0.168071 0.206732
vt 0.168071 0.238518
vt 0.114741 0.238518
vt 0.114741 0.206732
vt 0.796256 0.082096
vt 0.797210 0.113680
vt 0.788539 0.413533
vt 0.786835 0.378635
vt 0.793271 0.380182
vt 0.795023 0.414275
vt 0.233844 0.484896
vt 0.234219 0.517337
vt 0.228304 0.515651
vt 0.227866 0.484020
vt 0.232772 0.775292
vt 0.232875 0.811339
vt 0.226211 0.809445
vt 0.226211 0.774195
vt 0.266267 0.484898
vt 0.265954 0.517221
vt 0.552351 0.417745
vt 0.551902 0.385372
vt 0.552635 0.547076
vt 0.521310 0.516091
vt 0.552959 0.515547
vt 0.265823 0.356439
vt 0.266355 0.387668
vt 0.234983 0.387300
vt 0.236179 0.356357
vt 0.241024 0.637677
vt 0.238012 0.670407
vt 0.231697 0.671791
vt 0.234644 0.639455
vt 0.229122 0.388901
vt 0.230267 0.358361
vt 0.786424 0.554262
vt 0.788453 0.519967
vt 0.794957 0.518269
vt 0.793065 0.552204
vt 0.791504 0.211236
vt 0.797421 0.209536
vt 0.796648 0.240545
vt 0.168071 0.079587
vt 0.168071 0.111374
vt 0.114741 0.111374
vt 0.114741 0.079587
vt 0.054946 0.079588
vt 0.054946 0.111374
vt 0.001616 0.111374
vt 0.001616 0.079588
vt 0.684850 0.552626
vt 0.650512 0.551493
vt 0.651215 0.528594
vt 0.686757 0.520965
vt 0.728799 0.707695
vt 0.736004 0.742350
vt 0.726789 0.742118
vt 0.720355 0.711429
vt 0.503925 0.415472
vt 0.502805 0.378949
vt 0.509612 0.380666
vt 0.510608 0.416412
vt 0.523103 0.183066
vt 0.524807 0.217963
vt 0.518371 0.216416
vt 0.516619 0.182324
vt 0.058179 0.143160
vt 0.058179 0.111374
vt 0.111509 0.111374
vt 0.111509 0.143160
vt 0.171304 0.143160
vt 0.171304 0.111374
vt 0.224634 0.111374
vt 0.224634 0.143160
vt 0.471466 0.710571
vt 0.472399 0.677809
vt 0.504629 0.678305
vt 0.504301 0.711248
vt 0.510608 0.680145
vt 0.510339 0.712273
vt 0.515386 0.514502
vt 0.514432 0.482918
vt 0.759291 0.178853
vt 0.759740 0.211226
vt 0.582419 0.415961
vt 0.596237 0.395611
vt 0.602949 0.401937
vt 0.590760 0.419785
vt 0.616918 0.549973
vt 0.584255 0.548358
vt 0.596987 0.504694
vt 0.616683 0.519443
vt 0.432921 0.203733
vt 0.414092 0.218648
vt 0.409680 0.210814
vt 0.426325 0.197683
vt 0.694724 0.046625
vt 0.727387 0.048240
vt 0.714655 0.091904
vt 0.579777 0.740447
vt 0.589013 0.705067
vt 0.597497 0.709442
vt 0.589484 0.740661
vt 0.715040 0.687100
vt 0.708220 0.693461
vt 0.761000 0.019544
vt 0.729692 0.016269
vt 0.728456 0.010184
vt 0.759371 0.013427
vt 0.283712 0.295112
vt 0.318264 0.291568
vt 0.320909 0.297658
vt 0.286961 0.301552
vt 0.550642 0.577055
vt 0.581950 0.580329
vt 0.583185 0.586414
vt 0.552271 0.583171
vt 0.556229 0.878826
vt 0.591278 0.878855
vt 0.593371 0.885274
vt 0.558729 0.885599
vt 0.799170 0.527287
vt 0.799170 0.495501
vt 0.852500 0.495501
vt 0.852500 0.527287
vt 0.058179 0.831532
vt 0.058179 0.799746
vt 0.111509 0.799746
vt 0.111509 0.831532
vt 0.058179 0.574011
vt 0.058179 0.542225
vt 0.111509 0.542225
vt 0.111509 0.574011
vt 0.613122 0.316368
vt 0.580034 0.319791
vt 0.581181 0.313640
vt 0.613463 0.310092
vt 0.054946 0.767960
vt 0.054946 0.799746
vt 0.001616 0.799746
vt 0.001616 0.767960
vt 0.350555 0.014543
vt 0.316383 0.011170
vt 0.318942 0.005042
vt 0.352122 0.008467
vt 0.698520 0.280230
vt 0.731608 0.276807
vt 0.730461 0.282958
vt 0.698179 0.286506
vt 0.626845 0.604772
vt 0.592535 0.605692
vt 0.594193 0.599430
vt 0.627720 0.598378
vt 0.695990 0.246716
vt 0.728815 0.244651
vt 0.626852 0.639115
vt 0.593066 0.638998
vt 0.347608 0.048355
vt 0.313342 0.045496
vt 0.615652 0.349883
vt 0.582827 0.351947
vt 0.557871 0.182053
vt 0.589596 0.182836
vt 0.604815 0.203440
vt 0.558739 0.216477
vt 0.753659 0.553178
vt 0.719499 0.553207
vt 0.707580 0.506273
vt 0.754082 0.519014
vt 0.753771 0.414545
vt 0.722046 0.413762
vt 0.706827 0.393158
vt 0.752903 0.380121
vt 0.557983 0.043420
vt 0.592143 0.043391
vt 0.604062 0.090326
vt 0.557560 0.077585
vt 0.557227 0.112333
vt 0.589054 0.111121
vt 0.580731 0.147069
vt 0.557313 0.147248
vt 0.754415 0.484265
vt 0.722588 0.485477
vt 0.730911 0.449529
vt 0.754329 0.449350
vt 0.752108 0.346432
vt 0.718391 0.346538
vt 0.718865 0.312136
vt 0.752847 0.314084
vt 0.475781 0.056803
vt 0.445244 0.055164
vt 0.447952 0.024400
vt 0.478054 0.027932
vt 0.761284 0.644930
vt 0.728940 0.642853
vt 0.732000 0.609830
vt 0.764215 0.614155
vt 0.559534 0.250166
vt 0.593251 0.250061
vt 0.592777 0.284462
vt 0.558794 0.282514
vt 0.730879 0.603464
vt 0.762734 0.607802
vt 0.594501 0.290986
vt 0.560839 0.289050
vt 0.446849 0.018535
vt 0.476553 0.022023
vt 0.054946 0.640815
vt 0.054946 0.672602
vt 0.001616 0.672602
vt 0.001616 0.640815
vt 0.717141 0.305612
vt 0.750803 0.307548
vt 0.058179 0.446866
vt 0.058179 0.415080
vt 0.111509 0.415080
vt 0.111509 0.446866
vt 0.058179 0.704388
vt 0.058179 0.672602
vt 0.111509 0.672602
vt 0.111509 0.704388
vt 0.799170 0.400143
vt 0.799170 0.368357
vt 0.852500 0.368357
vt 0.852500 0.400143
vt 0.694353 0.874253
vt 0.726964 0.871910
vt 0.725636 0.877928
vt 0.693841 0.880380
vt 0.683932 0.587610
vt 0.719814 0.588428
vt 0.717922 0.594982
vt 0.682682 0.594087
vt 0.418106 0.280182
vt 0.449539 0.276428
vt 0.448519 0.282304
vt 0.417914 0.286129
vt 0.627710 0.008989
vt 0.591828 0.008170
vt 0.593720 0.001616
vt 0.628960 0.002512
vt 0.757468 0.775653
vt 0.727402 0.776534
vt 0.758238 0.742841
vt 0.475327 0.181963
vt 0.446199 0.183828
vt 0.453553 0.150346
vt 0.475032 0.150227
vt 0.610812 0.097208
vt 0.597762 0.115383
vt 0.288442 0.452278
vt 0.296282 0.418154
vt 0.304486 0.422002
vt 0.297542 0.452327
vt 0.604256 0.684805
vt 0.610835 0.691678
vt 0.396548 0.349091
vt 0.399218 0.380529
vt 0.363731 0.373651
vt 0.362600 0.350987
vt 0.729223 0.180637
vt 0.715405 0.200988
vt 0.708693 0.194662
vt 0.720882 0.176813
vt 0.337611 0.844067
vt 0.335777 0.812615
vt 0.371095 0.820357
vt 0.371646 0.843085
vt 0.721178 0.449559
vt 0.713422 0.418075
vt 0.427385 0.687834
vt 0.441163 0.708432
vt 0.432701 0.712177
vt 0.420559 0.694207
vt 0.445866 0.116969
vt 0.444663 0.150369
vt 0.437837 0.120678
vt 0.728739 0.111995
vt 0.720483 0.115889
vt 0.708025 0.098285
vt 0.235795 0.113051
vt 0.235007 0.151916
vt 0.227866 0.151964
vt 0.228642 0.113801
vt 0.854364 0.096975
vt 0.854364 0.128761
vt 0.801034 0.128761
vt 0.801034 0.096975
vt 0.054946 0.446866
vt 0.054946 0.478652
vt 0.001616 0.478652
vt 0.001616 0.446866
vt 0.114741 0.510439
vt 0.114741 0.478652
vt 0.168071 0.478652
vt 0.168071 0.510439
vt 0.854790 0.693573
vt 0.854790 0.725359
vt 0.801460 0.725359
vt 0.801460 0.693573
vt 0.339120 0.639826
vt 0.339096 0.605451
vt 0.374388 0.605396
vt 0.373471 0.640243
vt 0.327730 0.586181
vt 0.362561 0.588972
vt 0.362289 0.595459
vt 0.328106 0.592530
vt 0.523288 0.703771
vt 0.521431 0.738861
vt 0.514940 0.738587
vt 0.516882 0.704332
vt 0.410167 0.606732
vt 0.374511 0.598870
vt 0.409657 0.600243
vt 0.338598 0.878481
vt 0.373031 0.876902
vt 0.373372 0.883131
vt 0.339814 0.884799
vt 0.506700 0.181810
vt 0.506659 0.150046
vt 0.512472 0.150013
vt 0.512472 0.180953
vt 0.789944 0.776677
vt 0.791116 0.743717
vt 0.797169 0.743901
vt 0.795959 0.776018
vt 0.394551 0.314747
vt 0.360294 0.317324
vt 0.359779 0.311135
vt 0.393144 0.308485
vt 0.555778 0.774916
vt 0.520411 0.774622
vt 0.556438 0.739964
vt 0.398550 0.554213
vt 0.398532 0.589102
vt 0.363973 0.553819
vt 0.273898 0.188648
vt 0.236318 0.190779
vt 0.272821 0.151656
vt 0.280082 0.261002
vt 0.239733 0.229181
vt 0.276485 0.225277
vt 0.466232 0.554037
vt 0.433559 0.587991
vt 0.432795 0.554095
vt 0.464565 0.311489
vt 0.429478 0.312666
vt 0.427174 0.306320
vt 0.461814 0.304785
vt 0.505804 0.243232
vt 0.506458 0.213075
vt 0.512138 0.211425
vt 0.511527 0.241179
vt 0.268557 0.879407
vt 0.303589 0.879447
vt 0.305678 0.885865
vt 0.271054 0.886177
vt 0.525757 0.669612
vt 0.519439 0.670988
vt 0.522427 0.638659
vt 0.272361 0.639470
vt 0.304751 0.606401
vt 0.305306 0.639733
vt 0.854790 0.630000
vt 0.854790 0.661787
vt 0.801460 0.661787
vt 0.801460 0.630001
vt 0.854364 0.033402
vt 0.854364 0.065188
vt 0.801034 0.065188
vt 0.801034 0.033402
vt 0.414861 0.248267
vt 0.382360 0.251009
vt 0.380634 0.228680
vt 0.268093 0.775565
vt 0.268728 0.740674
vt 0.292032 0.741152
vt 0.468178 0.416099
vt 0.468333 0.451374
vt 0.444789 0.451366
vt 0.435993 0.415420
vt 0.268564 0.845489
vt 0.268096 0.810661
vt 0.303118 0.844835
vt 0.467820 0.486263
vt 0.466966 0.520583
vt 0.420994 0.507819
vt 0.436101 0.487146
vt 0.465720 0.345586
vt 0.467237 0.380670
vt 0.420459 0.394845
vt 0.431051 0.347315
vt 0.269878 0.706224
vt 0.271234 0.672406
vt 0.316509 0.685557
vt 0.301259 0.705837
vt 0.348946 0.253968
vt 0.314747 0.257304
vt 0.476915 0.243658
vt 0.446398 0.245715
vt 0.475883 0.213198
vt 0.759085 0.709856
vt 0.760030 0.677101
vt 0.323064 0.692448
vt 0.309721 0.710230
vt 0.297412 0.151473
vt 0.306576 0.114448
vt 0.315456 0.119151
vt 0.307677 0.151416
vt 0.232491 0.227864
vt 0.229152 0.190125
vt 0.054946 0.510439
vt 0.054946 0.542225
vt 0.001616 0.542225
vt 0.001616 0.510439
vt 0.114741 0.446866
vt 0.114741 0.415080
vt 0.168071 0.415080
vt 0.168071 0.446866
vt 0.431914 0.594399
vt 0.397621 0.595638
vt 0.306404 0.600131
vt 0.339968 0.599048
vt 0.791911 0.710543
vt 0.792251 0.677607
vt 0.798227 0.679447
vt 0.797947 0.711570
vt 0.557608 0.705467
vt 0.558986 0.671642
vt 0.556230 0.844891
vt 0.520511 0.810717
vt 0.555766 0.810047
vt 0.786491 0.840128
vt 0.788434 0.809009
vt 0.794374 0.807537
vt 0.792489 0.838253
vt 0.444347 0.610510
vt 0.443227 0.604140
vt 0.475094 0.608481
vt 0.294413 0.582834
vt 0.295579 0.589015
vt 0.264403 0.585282
vt 0.114741 0.574011
vt 0.114741 0.542225
vt 0.168071 0.542225
vt 0.168071 0.574011
vt 0.054946 0.383294
vt 0.054946 0.415080
vt 0.001616 0.415080
vt 0.001616 0.383294
vt 0.238696 0.074619
vt 0.231473 0.076033
vt 0.236379 0.038925
vt 0.692677 0.841297
vt 0.659332 0.842462
vt 0.658777 0.819740
vt 0.693247 0.810957
vt 0.625298 0.843451
vt 0.590796 0.844232
vt 0.602642 0.797248
vt 0.623462 0.811985
vt 0.756661 0.839338
vt 0.725164 0.840130
vt 0.713075 0.796442
vt 0.756852 0.807901
vt 0.474975 0.118497
vt 0.432364 0.097281
vt 0.475147 0.087266
vt 0.574784 0.450355
vt 0.583929 0.450315
vt 0.434971 0.451376
vt 0.427261 0.419896
vt 0.329405 0.352980
vt 0.329553 0.383219
vt 0.310119 0.398082
vt 0.297111 0.354917
vt 0.372861 0.663320
vt 0.407743 0.672607
vt 0.403324 0.680973
vt 0.372587 0.672908
vt 0.405002 0.841935
vt 0.405597 0.811573
vt 0.425457 0.797093
vt 0.437498 0.840799
vt 0.713880 0.481215
vt 0.379702 0.073217
vt 0.413370 0.082684
vt 0.409092 0.090552
vt 0.379053 0.082518
vt 0.364197 0.383065
vt 0.333872 0.391339
vt 0.854364 0.160547
vt 0.854364 0.192333
vt 0.801034 0.192333
vt 0.801034 0.160547
vt 0.854790 0.757145
vt 0.854790 0.788931
vt 0.801460 0.788931
vt 0.801460 0.757145
vt 0.407801 0.641448
vt 0.441285 0.643552
vt 0.513840 0.808821
vt 0.513840 0.773521
vt 0.406654 0.874899
vt 0.439268 0.872584
vt 0.437934 0.878601
vt 0.406138 0.881025
vt 0.506341 0.118279
vt 0.505721 0.087008
vt 0.511423 0.088588
vt 0.512125 0.119069
vt 0.326904 0.320227
vt 0.294550 0.323367
vt 0.295723 0.317355
vt 0.327255 0.314122
vt 0.330027 0.552354
vt 0.297077 0.550511
vt 0.273389 0.114677
vt 0.275489 0.078034
vt 0.590464 0.147039
vt 0.658521 0.810296
vt 0.689106 0.802731
vt 0.364577 0.530684
vt 0.329889 0.521574
vt 0.334194 0.513266
vt 0.364840 0.521082
vt 0.660539 0.662629
vt 0.695417 0.671877
vt 0.690969 0.680209
vt 0.660247 0.672221
vt 0.700830 0.499390
vt 0.370877 0.810917
vt 0.401461 0.803316
vt 0.700154 0.400095
vt 0.615772 0.380545
vt 0.650320 0.371062
vt 0.650691 0.380654
vt 0.620124 0.388754
vt 0.379841 0.219407
vt 0.598220 0.178523
vt 0.582903 0.484603
vt 0.591159 0.480709
vt 0.603617 0.498313
vt 0.695870 0.216053
vt 0.691518 0.207844
vt 0.611488 0.196503
vt 0.438100 0.180169
vt 0.736858 0.146243
vt 0.727713 0.146283
vt 0.620972 0.511209
vt 0.854364 0.001616
vt 0.801034 0.001616
vt 0.854790 0.598214
vt 0.801460 0.598214
vt 0.625068 0.670386
vt 0.054946 0.351508
vt 0.001616 0.351508
vt 0.114741 0.605797
vt 0.168071 0.605797
vt 0.344292 0.079742
vt 0.322649 0.093813
vt 0.296275 0.486502
vt 0.310233 0.506703
vt 0.439816 0.777230
vt 0.448424 0.743067
vt 0.400166 0.522605
vt 0.685913 0.378533
vt 0.625729 0.218065
vt 0.629712 0.209242
vt 0.307121 0.188436
vt 0.315963 0.183629
vt 0.661322 0.225536
vt 0.660951 0.215944
vt 0.682761 0.512170
vt 0.337345 0.671129
vt 0.341287 0.679802
vt 0.651539 0.519080
vt 0.681930 0.387356
vt 0.413810 0.401929
vt 0.395389 0.389366
vt 0.425872 0.103394
vt 0.719193 0.772477
vt 0.628881 0.084429
vt 0.396144 0.513875
vt 0.414305 0.500932
vt 0.418954 0.790591
vt 0.431646 0.773168
vt 0.339829 0.803900
vt 0.316735 0.404400
vt 0.629039 0.679040
vt 0.054946 0.609029
vt 0.001616 0.609029
vt 0.587717 0.776412
vt 0.596491 0.772220
vt 0.304575 0.482670
vt 0.329250 0.101124
vt 0.439235 0.742831
vt 0.706557 0.789974
vt 0.301740 0.741343
vt 0.347924 0.088744
vt 0.609412 0.790381
vt 0.316906 0.500320
vt 0.427485 0.482824
vt 0.627485 0.803233
vt 0.058179 0.605797
vt 0.111509 0.605797
vt 0.058179 0.863318
vt 0.111509 0.863318
vt 0.799170 0.559074
vt 0.852500 0.559074
vt 0.890894 0.691453
vt 0.898020 0.661270
vt 0.928203 0.668395
vt 0.921078 0.698578
vt 0.963222 0.398024
vt 0.933039 0.405149
vt 0.925913 0.374965
vt 0.956097 0.367840
vt 0.951261 0.705704
vt 0.958386 0.675520
vt 0.998384 0.684962
vt 0.983566 0.714599
vt 0.948972 0.337657
vt 0.918788 0.344782
vt 0.909346 0.304785
vt 0.942481 0.304785
vt 0.888605 0.351907
vt 0.855733 0.358398
vt 0.864573 0.337055
vt 0.879709 0.319603
vt 0.965512 0.645337
vt 0.974407 0.613033
vt 0.989543 0.630485
vt 0.998384 0.651828
vt 0.905145 0.631086
vt 0.911636 0.598214
vt 0.944770 0.598214
vt 0.935328 0.638212
vt 0.902855 0.412274
vt 0.870551 0.421170
vt 0.855733 0.391533
vt 0.895730 0.382091
vt 0.963222 0.495501
vt 0.996094 0.501992
vt 0.996094 0.535127
vt 0.956097 0.525685
vt 0.848582 0.888608
vt 0.855073 0.855736
vt 0.888208 0.855736
vt 0.878766 0.895733
vt 0.965086 0.094855
vt 0.973981 0.127159
vt 0.944345 0.141978
vt 0.934903 0.101980
vt 0.965086 0.238449
vt 0.973981 0.270753
vt 0.944345 0.285572
vt 0.934903 0.245574
vt 0.950835 0.178082
vt 0.957961 0.208266
vt 0.927777 0.215391
vt 0.920652 0.185207
vt 0.950835 0.034488
vt 0.957961 0.064672
vt 0.927777 0.071797
vt 0.920652 0.041614
vt 0.902855 0.481251
vt 0.933039 0.488376
vt 0.925914 0.518559
vt 0.895730 0.511434
vt 0.834332 0.948975
vt 0.841457 0.918791
vt 0.871640 0.925916
vt 0.864515 0.956100
vt 0.908949 0.902858
vt 0.917845 0.870554
vt 0.932981 0.888006
vt 0.941821 0.909349
vt 0.894699 0.963225
vt 0.901824 0.933042
vt 0.941821 0.942484
vt 0.927003 0.972121
vt 0.948972 0.555868
vt 0.981276 0.564763
vt 0.963824 0.579899
vt 0.942481 0.588740
vt 0.904719 0.109106
vt 0.911210 0.141978
vt 0.889867 0.133137
vt 0.872415 0.118001
vt 0.904719 0.252700
vt 0.911210 0.285572
vt 0.889867 0.276731
vt 0.872415 0.261595
vt 0.890469 0.192333
vt 0.897594 0.222516
vt 0.857597 0.231958
vt 0.857597 0.198823
vt 0.890469 0.048739
vt 0.897594 0.078922
vt 0.857597 0.088364
vt 0.857597 0.055229
vt 0.888605 0.541617
vt 0.918788 0.548743
vt 0.909346 0.588740
vt 0.879709 0.573922
vt 0.801460 0.942484
vt 0.801460 0.909349
vt 0.816278 0.879712
vt 0.833730 0.864576
vt 0.909346 0.448379
vt 0.942481 0.448379
vt 0.983140 0.025593
vt 0.997958 0.055229
vt 0.983140 0.169187
vt 0.997958 0.198823
vt 0.997958 0.231958
vt 0.989118 0.253301
vt 0.997958 0.088364
vt 0.989118 0.109707
vt 0.972118 0.463197
vt 0.987254 0.480649
vt 0.965688 0.010457
vt 0.944345 0.001616
vt 0.911210 0.001616
vt 0.881573 0.016435
vt 0.866437 0.033887
vt 0.909346 0.445146
vt 0.888003 0.436306
vt 0.972118 0.430328
vt 0.942481 0.445146
vt 0.965688 0.154051
vt 0.944345 0.145210
vt 0.911210 0.145210
vt 0.881573 0.160028
vt 0.866437 0.177481
vt 0.872841 0.622191
vt 0.890293 0.607055
vt 0.858022 0.684962
vt 0.858022 0.651828
vt 0.866863 0.706305
vt 0.881999 0.723757
vt 0.996094 0.358398
vt 0.981276 0.328761
vt 0.987254 0.412876
vt 0.996094 0.391533
vt 0.911636 0.738576
vt 0.944771 0.738576
vt 0.888003 0.457219
vt 0.870551 0.472355
vt 0.855073 0.996097
vt 0.888208 0.996097
vt 0.810300 0.963827
vt 0.825436 0.981279
vt 0.855733 0.501992
vt 0.855733 0.535127
vt 0.864573 0.556470
vt 0.909551 0.987257
vt 0.963824 0.313625
vt 0.966113 0.729735
s 0
f 618/1/1 357/2/1 4/3/1 581/4/1
f 616/5/2 337/6/2 18/7/2 584/8/2
f 380/9/3 335/10/3 5/11/3 348/12/3
f 614/13/4 301/14/4 12/15/4 582/16/4
f 624/17/5 447/18/5 24/19/5 583/20/5
f 320/21/6 16/22/6 41/23/6 324/24/6
f 289/25/7 8/26/7 33/27/7 293/28/7
f 440/29/8 17/30/8 42/31/8 444/32/8
f 345/33/9 7/34/9 32/35/9 349/36/9
f 319/37/10 14/38/10 39/39/10 323/40/10
f 317/41/11 1/42/11 26/43/11 321/44/11
f 348/12/12 5/11/12 30/45/12 352/46/12
f 582/16/13 12/15/13 34/47/13 586/48/13
f 291/49/14 19/50/14 44/51/14 295/52/14
f 347/53/15 2/54/15 27/55/15 351/56/15
f 474/57/16 9/58/16 31/59/16 478/60/16
f 583/20/17 24/19/17 46/61/17 587/62/17
f 439/63/18 13/64/18 38/65/18 443/66/18
f 318/67/19 6/68/19 28/69/19 322/70/19
f 475/71/20 21/72/20 43/73/20 479/74/20
f 584/8/21 18/7/21 40/75/21 588/76/21
f 290/77/22 10/78/22 35/79/22 294/80/22
f 346/81/23 11/82/23 36/83/23 350/84/23
f 476/85/24 15/86/24 37/87/24 480/88/24
f 473/89/25 3/90/25 25/91/25 477/92/25
f 472/93/26 336/94/26 13/64/26 439/63/26
f 26/95/27 27/96/27 25/97/27
f 29/98/28 30/99/28 28/100/28
f 32/101/29 33/102/29 31/103/29
f 35/104/30 36/105/30 34/106/30
f 38/107/31 39/108/31 37/109/31
f 41/110/32 42/111/32 40/112/32
f 44/113/33 45/114/33 43/115/33
f 47/116/34 48/117/34 46/118/34
f 321/119/35 26/120/35 25/121/35 338/122/35
f 585/123/36 29/124/36 28/125/36 593/126/36
f 294/127/37 35/128/37 34/129/37 305/130/37
f 478/131/38 31/132/38 33/133/38 492/134/38
f 349/135/39 32/101/39 31/103/39 358/136/39
f 442/137/40 47/116/40 46/118/40 451/138/40
f 479/139/41 43/140/41 45/141/41 493/142/41
f 295/143/42 44/144/42 43/145/42 306/146/42
f 324/147/43 41/148/43 40/149/43 341/150/43
f 480/151/44 37/152/44 39/153/44 494/154/44
f 443/155/45 38/107/45 37/109/45 452/156/45
f 352/157/46 30/99/46 29/98/46 361/158/46
f 437/159/47 20/160/47 45/161/47 441/162/47
f 581/4/48 4/3/48 29/163/48 585/164/48
f 292/165/49 23/166/49 48/167/49 296/168/49
f 438/169/50 22/170/50 47/171/50 442/172/50
f 517/173/48 49/174/48 57/175/48 521/176/48
f 556/177/44 63/178/44 64/179/44 568/180/44
f 555/181/41 61/182/41 62/183/41 567/184/41
f 554/185/38 59/186/38 60/187/38 566/188/38
f 521/189/36 57/190/36 58/191/36 529/192/36
f 549/193/51 50/194/51 58/195/51 553/196/51
f 552/197/24 55/198/24 63/199/24 556/200/24
f 520/201/52 56/202/52 64/203/52 524/204/52
f 551/205/53 53/206/53 61/207/53 555/208/53
f 519/209/17 54/210/17 62/211/17 523/212/17
f 550/213/16 51/214/16 59/215/16 554/216/16
f 518/217/54 52/218/54 60/219/54 522/220/54
f 548/221/5 445/222/5 54/210/5 519/209/5
f 542/223/4 297/224/4 52/218/4 518/217/4
f 544/225/2 325/226/2 56/202/2 520/201/2
f 546/227/1 353/228/1 49/174/1 517/173/1
f 207/229/55 401/230/55 705/231/55 706/232/55
f 569/233/56 211/234/56 756/235/56 713/236/56
f 382/237/50 67/238/50 75/239/50 386/240/50
f 381/241/57 66/242/57 74/243/57 385/244/57
f 416/245/46 79/246/46 80/247/46 424/248/46
f 387/249/45 77/250/45 78/251/45 395/252/45
f 386/253/40 75/254/40 76/255/40 394/256/40
f 413/257/39 73/258/39 74/259/39 421/260/39
f 408/261/26 326/262/26 69/263/26 383/264/26
f 410/265/58 68/266/58 76/267/58 414/268/58
f 383/264/18 69/263/18 77/269/18 387/270/18
f 411/271/59 70/272/59 78/273/59 415/274/59
f 412/275/12 71/276/12 79/277/12 416/278/12
f 409/279/9 65/280/9 73/281/9 413/282/9
f 384/283/60 72/284/60 80/285/60 388/286/60
f 620/287/5 390/288/5 68/266/5 597/289/5
f 436/290/3 327/291/3 71/276/3 412/275/3
f 622/292/1 420/293/1 72/284/1 598/294/1
f 617/295/5 346/81/5 82/296/5 599/297/5
f 357/2/60 93/298/60 97/299/60 361/300/60
f 356/301/18 92/302/18 96/303/18 360/304/18
f 379/305/26 328/306/26 92/302/26 356/301/26
f 359/307/40 95/308/40 86/309/40 350/310/40
f 360/311/45 96/312/45 87/313/45 351/314/45
f 354/315/57 90/316/57 94/317/57 358/318/57
f 355/319/50 91/320/50 95/321/50 359/322/50
f 545/323/5 362/324/5 98/325/5 533/326/5
f 98/325/61 557/327/61 633/328/61 634/329/61
f 396/330/46 88/331/46 97/332/46 388/333/46
f 393/334/39 85/335/39 94/336/39 385/337/39
f 390/288/58 82/296/58 86/338/58 394/339/58
f 391/340/59 83/341/59 87/342/59 395/343/59
f 392/344/12 84/345/12 88/346/12 396/347/12
f 389/348/9 81/349/9 85/350/9 393/351/9
f 407/352/3 329/353/3 84/345/3 392/344/3
f 619/354/1 384/283/1 93/298/1 600/355/1
f 623/356/1 440/29/1 102/357/1 601/358/1
f 471/359/3 330/360/3 111/361/3 449/362/3
f 446/363/9 108/364/9 112/365/9 450/366/9
f 449/362/12 111/361/12 115/367/12 453/368/12
f 448/369/59 110/370/59 114/371/59 452/372/59
f 447/18/58 109/373/58 113/374/58 451/375/58
f 450/376/39 112/377/39 103/378/39 441/379/39
f 453/380/46 115/381/46 106/382/46 444/383/46
f 547/384/1 454/385/1 116/386/1 535/387/1
f 288/388/62 184/389/62 688/390/62 701/391/62
f 418/392/50 100/393/50 104/394/50 422/395/50
f 417/396/57 99/397/57 103/398/57 421/399/57
f 423/400/45 105/401/45 114/402/45 415/403/45
f 422/404/40 104/405/40 113/406/40 414/407/40
f 435/408/26 331/409/26 101/410/26 419/411/26
f 419/411/18 101/410/18 105/412/18 423/413/18
f 420/293/60 102/357/60 106/414/60 424/415/60
f 621/416/5 410/265/5 109/373/5 602/417/5
f 397/418/63 136/419/63 644/420/63 643/421/63
f 580/422/1 455/423/1 137/424/1 559/425/1
f 212/426/64 537/427/64 703/428/64 704/429/64
f 578/430/5 363/431/5 135/432/5 557/327/5
f 181/433/65 287/434/65 699/435/65 682/436/65
f 195/437/66 288/388/66 701/391/66 702/438/66
f 590/439/16 126/440/16 130/441/16 594/442/16
f 591/443/53 127/444/53 131/445/53 595/446/53
f 592/447/24 128/448/24 132/449/24 596/450/24
f 589/451/51 125/452/51 129/453/51 593/454/51
f 594/455/38 130/456/38 122/457/38 586/458/38
f 595/459/41 131/460/41 123/461/41 587/462/41
f 596/463/44 132/464/44 124/465/44 588/466/44
f 561/467/48 117/468/48 121/469/48 565/470/48
f 565/471/36 121/472/36 129/473/36 553/474/36
f 564/475/52 120/476/52 124/477/52 568/478/52
f 563/479/17 119/480/17 123/481/17 567/482/17
f 562/483/54 118/484/54 122/485/54 566/486/54
f 579/487/5 456/488/5 119/480/5 563/479/5
f 574/489/4 298/490/4 118/484/4 562/483/4
f 576/491/2 332/492/2 120/476/2 564/475/2
f 577/493/1 364/494/1 117/468/1 561/467/1
f 514/495/5 427/496/5 160/497/5 486/498/5
f 516/499/1 457/500/1 159/501/1 485/502/1
f 512/503/1 399/504/1 158/505/1 484/506/1
f 510/507/5 365/508/5 157/509/5 483/510/5
f 511/511/5 400/512/5 156/513/5 482/514/5
f 513/515/1 428/516/1 155/517/1 481/518/1
f 509/519/1 366/520/1 147/521/1 487/522/1
f 508/523/2 333/524/2 150/525/2 490/526/2
f 506/527/4 299/528/4 148/529/4 488/530/4
f 515/531/5 458/532/5 149/533/5 489/534/5
f 488/530/54 148/529/54 152/535/54 492/536/54
f 489/534/17 149/533/17 153/537/17 493/538/17
f 490/526/52 150/525/52 154/539/52 494/540/52
f 491/541/36 151/542/36 143/543/36 477/544/36
f 487/522/48 147/521/48 151/545/48 491/546/48
f 532/547/44 146/548/44 154/549/44 524/550/44
f 531/551/41 145/552/41 153/553/41 523/554/41
f 530/555/38 144/556/38 152/557/38 522/558/38
f 525/559/51 139/560/51 143/561/51 529/562/51
f 528/563/24 142/564/24 146/565/24 532/566/24
f 527/567/53 141/568/53 145/569/53 531/570/53
f 526/571/16 140/572/16 144/573/16 530/574/16
f 502/575/4 250/576/4 184/389/4 495/577/4
f 504/578/2 278/579/2 183/580/2 496/581/2
f 400/512/67 157/509/67 654/582/67 663/583/67
f 223/584/68 432/585/68 742/586/68 722/587/68
f 287/434/69 194/588/69 700/589/69 699/435/69
f 468/590/3 275/591/3 179/592/3 459/593/3
f 425/594/70 138/595/70 642/596/70 641/597/70
f 376/598/26 273/599/26 177/600/26 367/601/26
f 399/504/71 155/517/71 650/602/71 662/603/71
f 227/604/72 431/605/72 740/606/72 730/607/72
f 264/608/73 183/580/73 686/609/73 733/610/73
f 135/432/74 398/611/74 647/612/74 765/613/74
f 244/614/49 168/615/49 176/616/49 248/617/49
f 272/618/43 175/619/43 176/620/43 286/621/43
f 247/622/42 173/623/42 174/624/42 257/625/42
f 246/626/37 171/627/37 172/628/37 256/629/37
f 269/630/35 169/631/35 170/632/35 283/633/35
f 467/634/26 281/635/26 165/636/26 460/637/26
f 242/638/75 163/639/75 171/640/75 246/641/75
f 266/642/19 164/643/19 172/644/19 270/645/19
f 243/646/76 165/636/76 173/647/76 247/648/76
f 265/649/77 161/650/77 169/651/77 269/652/77
f 267/653/10 166/654/10 174/655/10 271/656/10
f 241/657/7 162/658/7 170/659/7 245/660/7
f 268/661/78 167/662/78 175/663/78 272/664/78
f 610/665/4 252/666/4 164/643/4 603/667/4
f 375/668/3 280/669/3 163/639/3 368/670/3
f 612/671/2 282/672/2 168/615/2 604/673/2
f 613/674/2 292/165/2 188/675/2 605/676/2
f 378/677/3 290/77/3 186/678/3 369/679/3
f 303/680/78 199/681/78 203/682/78 307/683/78
f 302/684/10 198/685/10 202/686/10 306/687/10
f 300/688/77 196/689/77 200/690/77 304/691/77
f 301/14/19 197/692/19 201/693/19 305/694/19
f 470/695/26 291/49/26 187/696/26 461/697/26
f 304/698/35 200/699/35 189/700/35 293/701/35
f 307/702/43 203/703/43 192/704/43 296/705/43
f 541/706/2 308/707/2 204/708/2 537/427/2
f 406/709/26 309/710/26 205/711/26 401/230/26
f 434/712/3 310/713/3 206/714/3 429/715/3
f 377/716/26 311/717/26 207/229/26 370/718/26
f 405/719/3 312/720/3 208/721/3 402/722/3
f 469/723/3 313/724/3 209/725/3 462/726/3
f 433/727/26 314/728/26 210/729/26 430/730/26
f 573/731/2 315/732/2 211/234/2 569/233/2
f 505/733/2 316/734/2 212/426/2 497/735/2
f 503/736/4 288/388/4 195/437/4 498/737/4
f 430/730/79 210/729/79 755/738/79 711/739/79
f 182/740/80 263/741/80 731/742/80 684/743/80
f 282/672/49 188/675/49 192/744/49 286/745/49
f 285/746/42 191/747/42 202/748/42 271/749/42
f 284/750/37 190/751/37 201/752/37 270/753/37
f 280/669/75 186/678/75 190/754/75 284/755/75
f 281/635/76 187/696/76 191/756/76 285/757/76
f 279/758/7 185/759/7 189/760/7 283/761/7
f 611/762/4 266/642/4 197/692/4 606/763/4
f 615/764/4 318/67/4 214/765/4 607/766/4
f 334/767/7 230/768/7 234/769/7 338/770/7
f 336/94/76 232/771/76 236/772/76 340/773/76
f 335/10/75 231/774/75 235/775/75 339/776/75
f 339/777/37 235/778/37 218/779/37 322/780/37
f 340/781/42 236/782/42 219/783/42 323/784/42
f 337/6/49 233/785/49 237/786/49 341/787/49
f 543/788/4 342/789/4 238/790/4 539/791/4
f 575/792/4 343/793/4 239/794/4 571/795/4
f 507/796/4 344/797/4 240/798/4 499/799/4
f 501/800/2 264/608/2 229/801/2 500/802/2
f 134/803/81 397/418/81 643/421/81 646/804/81
f 429/715/82 206/714/82 710/805/82 707/806/82
f 466/807/3 261/808/3 226/809/3 463/810/3
f 180/811/83 262/812/83 729/813/83 680/814/83
f 374/815/26 259/816/26 224/817/26 371/818/26
f 155/517/84 428/516/84 664/819/84 650/602/84
f 221/820/85 540/821/85 744/822/85 718/823/85
f 261/808/86 179/592/86 678/824/86 727/825/86
f 258/826/43 220/827/43 237/828/43 248/829/43
f 255/830/35 217/831/35 234/832/35 245/833/35
f 465/834/26 243/646/26 232/771/26 464/835/26
f 252/666/19 214/765/19 218/836/19 256/837/19
f 251/838/77 213/839/77 217/840/77 255/841/77
f 253/842/10 215/843/10 219/844/10 257/845/10
f 254/846/78 216/847/78 220/848/78 258/849/78
f 373/850/3 242/638/3 231/774/3 372/851/3
f 609/852/2 244/614/2 233/785/2 608/853/2
f 604/673/2 168/615/2 244/614/2 609/852/2
f 368/670/3 163/639/3 242/638/3 373/850/3
f 167/662/78 254/846/78 258/849/78 175/663/78
f 166/654/10 253/842/10 257/845/10 174/655/10
f 161/650/77 251/838/77 255/841/77 169/651/77
f 164/643/19 252/666/19 256/837/19 172/644/19
f 460/637/26 165/636/26 243/646/26 465/834/26
f 169/631/35 255/830/35 245/833/35 170/632/35
f 175/619/43 258/826/43 248/829/43 176/620/43
f 156/513/87 400/512/87 663/583/87 652/854/87
f 539/791/88 238/790/88 738/855/88 735/856/88
f 178/857/89 260/858/89 725/859/89 676/860/89
f 367/601/26 177/600/26 259/816/26 374/815/26
f 193/861/90 538/862/90 716/863/90 698/864/90
f 459/593/3 179/592/3 261/808/3 466/807/3
f 428/516/91 159/501/91 658/865/91 664/819/91
f 259/816/92 177/600/92 674/866/92 723/867/92
f 496/581/2 183/580/2 264/608/2 501/800/2
f 607/766/4 214/765/4 252/666/4 610/665/4
f 230/768/7 241/657/7 245/660/7 234/769/7
f 232/771/76 243/646/76 247/648/76 236/772/76
f 231/774/75 242/638/75 246/641/75 235/775/75
f 235/778/37 246/626/37 256/629/37 218/779/37
f 236/782/42 247/622/42 257/625/42 219/783/42
f 233/785/49 244/614/49 248/617/49 237/786/49
f 158/505/93 399/504/93 662/603/93 656/868/93
f 558/869/94 89/870/94 632/871/94 635/872/94
f 499/799/4 240/798/4 250/576/4 502/575/4
f 603/667/4 164/643/4 266/642/4 611/762/4
f 162/658/7 279/758/7 283/761/7 170/659/7
f 165/636/76 281/635/76 285/757/76 173/647/76
f 163/639/75 280/669/75 284/755/75 171/640/75
f 171/627/37 284/750/37 270/753/37 172/628/37
f 173/623/42 285/746/42 271/749/42 174/624/42
f 168/615/49 282/672/49 286/745/49 176/616/49
f 537/427/95 204/708/95 714/873/95 703/428/95
f 427/496/96 156/513/96 652/854/96 661/874/96
f 495/577/4 184/389/4 288/388/4 503/736/4
f 605/676/2 188/675/2 282/672/2 612/671/2
f 369/679/3 186/678/3 280/669/3 375/668/3
f 199/681/78 268/661/78 272/664/78 203/682/78
f 198/685/10 267/653/10 271/656/10 202/686/10
f 196/689/77 265/649/77 269/652/77 200/690/77
f 197/692/19 266/642/19 270/645/19 201/693/19
f 461/697/26 187/696/26 281/635/26 467/634/26
f 200/699/35 269/630/35 283/633/35 189/700/35
f 203/703/43 272/618/43 286/621/43 192/704/43
f 137/424/97 426/875/97 645/876/97 770/877/97
f 138/595/98 560/878/98 640/879/98 642/596/98
f 160/497/99 427/496/99 661/874/99 660/880/99
f 370/718/26 207/229/26 273/599/26 376/598/26
f 278/579/100 212/426/100 704/429/100 685/881/100
f 462/726/3 209/725/3 275/591/3 468/590/3
f 133/882/101 425/594/101 641/597/101 648/883/101
f 559/425/102 137/424/102 770/877/102 638/884/102
f 497/735/2 212/426/2 278/579/2 504/578/2
f 475/71/2 141/568/2 316/734/2 505/733/2
f 551/205/2 127/444/2 315/732/2 573/731/2
f 409/279/26 108/364/26 314/728/26 433/727/26
f 438/169/3 100/393/3 313/724/3 469/723/3
f 382/237/3 91/320/3 312/720/3 405/719/3
f 345/33/26 81/349/26 311/717/26 377/716/26
f 418/392/3 67/238/3 310/713/3 434/712/3
f 389/348/26 65/280/26 309/710/26 406/709/26
f 527/567/2 53/206/2 308/707/2 541/706/2
f 47/885/43 307/702/43 296/705/43 48/886/43
f 32/887/35 304/698/35 293/701/35 33/888/35
f 446/363/26 19/50/26 291/49/26 470/695/26
f 12/15/19 301/14/19 305/694/19 34/47/19
f 7/34/77 300/688/77 304/691/77 32/35/77
f 21/72/10 302/684/10 306/687/10 43/73/10
f 22/170/78 303/680/78 307/683/78 47/171/78
f 355/319/3 10/78/3 290/77/3 378/677/3
f 591/443/2 23/166/2 292/165/2 613/674/2
f 498/737/4 195/437/4 299/528/4 506/527/4
f 570/889/4 194/588/4 298/490/4 574/489/4
f 538/862/4 193/861/4 297/224/4 542/223/4
f 188/675/49 292/165/49 296/168/49 192/744/49
f 191/747/42 295/143/42 306/146/42 202/748/42
f 190/751/37 294/127/37 305/130/37 201/752/37
f 186/678/75 290/77/75 294/80/75 190/754/75
f 187/696/76 291/49/76 295/52/76 191/756/76
f 185/759/7 289/25/7 293/28/7 189/760/7
f 606/763/4 197/692/4 301/14/4 614/13/4
f 473/89/4 139/560/4 344/797/4 507/796/4
f 549/193/4 125/452/4 343/793/4 575/792/4
f 525/559/4 50/194/4 342/789/4 543/788/4
f 18/7/49 337/6/49 341/787/49 40/75/49
f 38/890/42 340/781/42 323/784/42 39/891/42
f 30/892/37 339/777/37 322/780/37 28/893/37
f 5/11/75 335/10/75 339/776/75 30/45/75
f 13/64/76 336/94/76 340/773/76 38/65/76
f 3/90/7 334/767/7 338/770/7 25/91/7
f 589/451/4 6/68/4 318/67/4 615/764/4
f 500/802/2 229/801/2 333/524/2 508/523/2
f 572/894/2 228/895/2 332/492/2 576/491/2
f 431/605/26 227/604/26 331/409/26 435/408/26
f 463/810/3 226/809/3 330/360/3 471/359/3
f 403/896/3 225/897/3 329/353/3 407/352/3
f 371/818/26 224/817/26 328/306/26 379/305/26
f 432/585/3 223/584/3 327/291/3 436/290/3
f 404/898/26 222/899/26 326/262/26 408/261/26
f 540/821/2 221/820/2 325/226/2 544/225/2
f 220/827/43 324/147/43 341/150/43 237/828/43
f 217/831/35 321/119/35 338/122/35 234/832/35
f 464/835/26 232/771/26 336/94/26 472/93/26
f 214/765/19 318/67/19 322/70/19 218/836/19
f 213/839/77 317/41/77 321/44/77 217/840/77
f 215/843/10 319/37/10 323/40/10 219/844/10
f 216/847/78 320/21/78 324/24/78 220/848/78
f 372/851/3 231/774/3 335/10/3 380/9/3
f 608/853/2 233/785/2 337/6/2 616/5/2
f 225/897/3 372/851/3 380/9/3 329/353/3
f 213/839/26 371/818/26 379/305/26 317/41/26
f 91/320/3 355/319/3 378/677/3 312/720/3
f 7/34/26 345/33/26 377/716/26 300/688/26
f 196/689/26 370/718/26 376/598/26 265/649/26
f 208/721/3 369/679/3 375/668/3 274/900/3
f 161/650/26 367/601/26 374/815/26 251/838/26
f 178/857/3 368/670/3 373/850/3 260/858/3
f 260/858/3 373/850/3 372/851/3 225/897/3
f 251/838/26 374/815/26 371/818/26 213/839/26
f 300/688/26 377/716/26 370/718/26 196/689/26
f 312/720/3 378/677/3 369/679/3 208/721/3
f 274/900/3 375/668/3 368/670/3 178/857/3
f 265/649/26 376/598/26 367/601/26 161/650/26
f 484/506/1 158/505/1 366/520/1 509/519/1
f 474/57/5 140/572/5 365/508/5 510/507/5
f 558/869/1 136/419/1 364/494/1 577/493/1
f 550/213/5 126/440/5 363/431/5 578/430/5
f 526/571/5 51/214/5 362/324/5 545/323/5
f 10/78/50 355/319/50 359/322/50 35/79/50
f 9/58/57 354/315/57 358/318/57 31/59/57
f 26/95/45 360/311/45 351/314/45 27/96/45
f 35/104/40 359/307/40 350/310/40 36/105/40
f 317/41/26 379/305/26 356/301/26 1/42/26
f 1/42/18 356/301/18 360/304/18 26/43/18
f 4/3/60 357/2/60 361/300/60 29/163/60
f 590/439/5 11/82/5 346/81/5 617/295/5
f 534/901/1 89/870/1 353/228/1 546/227/1
f 88/331/46 352/157/46 361/158/46 97/332/46
f 85/335/39 349/135/39 358/136/39 94/336/39
f 82/296/58 346/81/58 350/84/58 86/338/58
f 83/341/59 347/53/59 351/56/59 87/342/59
f 84/345/12 348/12/12 352/46/12 88/346/12
f 81/349/9 345/33/9 349/36/9 85/350/9
f 329/353/3 380/9/3 348/12/3 84/345/3
f 600/355/1 93/298/1 357/2/1 618/1/1
f 224/817/26 404/898/26 408/261/26 328/306/26
f 223/584/3 403/896/3 407/352/3 327/291/3
f 81/349/26 389/348/26 406/709/26 311/717/26
f 67/238/3 382/237/3 405/719/3 310/713/3
f 536/902/103 160/497/103 660/880/103 659/903/103
f 211/234/104 277/904/104 683/905/104 756/235/104
f 107/906/105 536/902/105 659/903/105 637/907/105
f 136/419/106 558/869/106 635/872/106 644/420/106
f 159/501/107 535/387/107 657/908/107 658/865/107
f 210/729/108 276/909/108 679/910/108 755/738/108
f 310/713/3 405/719/3 402/722/3 206/714/3
f 311/717/26 406/709/26 401/230/26 207/229/26
f 535/387/109 116/386/109 639/911/109 657/908/109
f 557/327/110 135/432/110 765/613/110 633/328/110
f 483/510/5 157/509/5 400/512/5 511/511/5
f 481/518/1 155/517/1 399/504/1 512/503/1
f 534/901/111 158/505/111 656/868/111 655/912/111
f 275/591/112 209/725/112 708/913/112 677/914/112
f 598/294/1 72/284/1 384/283/1 619/354/1
f 327/291/3 407/352/3 392/344/3 71/276/3
f 65/280/9 389/348/9 393/351/9 73/281/9
f 71/276/12 392/344/12 396/347/12 79/277/12
f 70/272/59 391/340/59 395/343/59 78/273/59
f 68/266/58 390/288/58 394/339/58 76/267/58
f 73/258/39 393/334/39 385/337/39 74/259/39
f 79/246/46 396/330/46 388/333/46 80/247/46
f 89/870/113 534/901/113 655/912/113 632/871/113
f 599/297/5 82/296/5 390/288/5 620/287/5
f 93/298/60 384/283/60 388/286/60 97/299/60
f 92/302/18 383/264/18 387/270/18 96/303/18
f 328/306/26 408/261/26 383/264/26 92/302/26
f 95/308/40 386/253/40 394/256/40 86/309/40
f 96/312/45 387/249/45 395/252/45 87/313/45
f 90/316/57 381/241/57 385/244/57 94/317/57
f 91/320/50 382/237/50 386/240/50 95/321/50
f 540/821/114 229/801/114 734/915/114 744/822/114
f 226/809/3 432/585/3 436/290/3 330/360/3
f 222/899/26 431/605/26 435/408/26 326/262/26
f 100/393/3 418/392/3 434/712/3 313/724/3
f 65/280/26 409/279/26 433/727/26 309/710/26
f 184/389/115 250/576/115 687/916/115 688/390/115
f 157/509/116 533/326/116 653/917/116 654/582/116
f 208/721/117 274/900/117 675/918/117 754/919/117
f 533/326/118 98/325/118 634/329/118 653/917/118
f 404/898/119 224/817/119 724/920/119 743/921/119
f 183/580/120 278/579/120 685/881/120 686/609/120
f 309/710/26 433/727/26 430/730/26 205/711/26
f 313/724/3 434/712/3 429/715/3 209/725/3
f 538/862/121 195/437/121 702/438/121 716/863/121
f 273/599/122 207/229/122 706/232/122 673/922/122
f 485/502/1 159/501/1 428/516/1 513/515/1
f 482/514/5 156/513/5 427/496/5 514/495/5
f 432/585/123 226/809/123 728/923/123 742/586/123
f 277/904/124 182/740/124 684/743/124 683/905/124
f 597/289/5 68/266/5 410/265/5 621/416/5
f 72/284/60 420/293/60 424/415/60 80/285/60
f 69/263/18 419/411/18 423/413/18 77/269/18
f 326/262/26 435/408/26 419/411/26 69/263/26
f 75/254/40 422/404/40 414/407/40 76/255/40
f 77/250/45 423/400/45 415/403/45 78/251/45
f 66/242/57 417/396/57 421/399/57 74/243/57
f 67/238/50 418/392/50 422/395/50 75/239/50
f 116/386/125 559/425/125 638/884/125 639/911/125
f 601/358/1 102/357/1 420/293/1 622/292/1
f 330/360/3 436/290/3 412/275/3 111/361/3
f 108/364/9 409/279/9 413/282/9 112/365/9
f 111/361/12 412/275/12 416/278/12 115/367/12
f 110/370/59 411/271/59 415/274/59 114/371/59
f 109/373/58 410/265/58 414/268/58 113/374/58
f 112/377/39 413/257/39 421/260/39 103/378/39
f 115/381/46 416/245/46 424/248/46 106/382/46
f 570/889/126 193/861/126 698/864/126 715/924/126
f 227/604/26 464/835/26 472/93/26 331/409/26
f 216/847/3 463/810/3 471/359/3 320/21/3
f 108/364/26 446/363/26 470/695/26 314/728/26
f 22/170/3 438/169/3 469/723/3 303/680/3
f 199/681/3 462/726/3 468/590/3 268/661/3
f 210/729/26 461/697/26 467/634/26 276/909/26
f 167/662/3 459/593/3 466/807/3 254/846/3
f 180/811/26 460/637/26 465/834/26 262/812/26
f 262/812/26 465/834/26 464/835/26 227/604/26
f 254/846/3 466/807/3 463/810/3 216/847/3
f 303/680/3 469/723/3 462/726/3 199/681/3
f 314/728/26 470/695/26 461/697/26 210/729/26
f 276/909/26 467/634/26 460/637/26 180/811/26
f 268/661/3 468/590/3 459/593/3 167/662/3
f 486/498/5 160/497/5 458/532/5 515/531/5
f 476/85/1 142/564/1 457/500/1 516/499/1
f 560/878/5 138/595/5 456/488/5 579/487/5
f 552/197/1 128/448/1 455/423/1 580/422/1
f 528/563/1 55/198/1 454/385/1 547/384/1
f 41/110/46 453/380/46 444/383/46 42/111/46
f 44/113/39 450/376/39 441/379/39 45/114/39
f 24/19/58 447/18/58 451/375/58 46/61/58
f 15/86/59 448/369/59 452/372/59 37/87/59
f 16/22/12 449/362/12 453/368/12 41/23/12
f 19/50/9 446/363/9 450/366/9 44/51/9
f 320/21/3 471/359/3 449/362/3 16/22/3
f 592/447/1 17/30/1 440/29/1 623/356/1
f 536/902/5 107/906/5 445/222/5 548/221/5
f 100/393/50 438/169/50 442/172/50 104/394/50
f 99/397/57 437/159/57 441/162/57 103/398/57
f 105/401/45 443/155/45 452/156/45 114/402/45
f 104/405/40 442/137/40 451/138/40 113/406/40
f 331/409/26 472/93/26 439/63/26 101/410/26
f 101/410/18 439/63/18 443/66/18 105/412/18
f 102/357/60 440/29/60 444/32/60 106/414/60
f 602/417/5 109/373/5 447/18/5 624/17/5
f 15/86/1 476/85/1 516/499/1 448/369/1
f 99/397/5 486/498/5 515/531/5 437/159/5
f 66/242/5 482/514/5 514/495/5 417/396/5
f 110/370/1 485/502/1 513/515/1 411/271/1
f 70/272/1 481/518/1 512/503/1 391/340/1
f 90/316/5 483/510/5 511/511/5 381/241/5
f 9/58/5 474/57/5 510/507/5 354/315/5
f 83/341/1 484/506/1 509/519/1 347/53/1
f 215/843/2 500/802/2 508/523/2 319/37/2
f 3/90/4 473/89/4 507/796/4 334/767/4
f 185/759/4 498/737/4 506/527/4 289/25/4
f 21/72/2 475/71/2 505/733/2 302/684/2
f 198/685/2 497/735/2 504/578/2 267/653/2
f 162/658/4 495/577/4 503/736/4 279/758/4
f 230/768/4 499/799/4 502/575/4 241/657/4
f 166/654/2 496/581/2 501/800/2 253/842/2
f 253/842/2 501/800/2 500/802/2 215/843/2
f 334/767/4 507/796/4 499/799/4 230/768/4
f 279/758/4 503/736/4 498/737/4 185/759/4
f 302/684/2 505/733/2 497/735/2 198/685/2
f 267/653/2 504/578/2 496/581/2 166/654/2
f 241/657/4 502/575/4 495/577/4 162/658/4
f 2/54/48 487/522/48 491/546/48 27/55/48
f 27/925/36 491/541/36 477/544/36 25/926/36
f 14/38/52 490/526/52 494/540/52 39/39/52
f 20/160/17 489/534/17 493/538/17 45/161/17
f 8/26/54 488/530/54 492/536/54 33/27/54
f 437/159/5 515/531/5 489/534/5 20/160/5
f 289/25/4 506/527/4 488/530/4 8/26/4
f 319/37/2 508/523/2 490/526/2 14/38/2
f 347/53/1 509/519/1 487/522/1 2/54/1
f 411/271/1 513/515/1 481/518/1 70/272/1
f 381/241/5 511/511/5 482/514/5 66/242/5
f 354/315/5 510/507/5 483/510/5 90/316/5
f 391/340/1 512/503/1 484/506/1 83/341/1
f 448/369/1 516/499/1 485/502/1 110/370/1
f 417/396/5 514/495/5 486/498/5 99/397/5
f 146/548/44 480/151/44 494/154/44 154/549/44
f 145/552/41 479/139/41 493/142/41 153/553/41
f 144/556/38 478/131/38 492/134/38 152/557/38
f 139/560/51 473/89/51 477/92/51 143/561/51
f 142/564/24 476/85/24 480/88/24 146/565/24
f 141/568/53 475/71/53 479/74/53 145/569/53
f 140/572/16 474/57/16 478/60/16 144/573/16
f 160/497/5 536/902/5 548/221/5 458/532/5
f 142/564/1 528/563/1 547/384/1 457/500/1
f 249/927/127 181/433/127 682/436/127 681/928/127
f 229/801/128 264/608/128 733/610/128 734/915/128
f 276/909/129 180/811/129 680/814/129 679/910/129
f 403/896/130 223/584/130 722/587/130 741/929/130
f 158/505/1 534/901/1 546/227/1 366/520/1
f 140/572/5 526/571/5 545/323/5 365/508/5
f 229/801/2 540/821/2 544/225/2 333/524/2
f 139/560/4 525/559/4 543/788/4 344/797/4
f 195/437/4 538/862/4 542/223/4 299/528/4
f 141/568/2 527/567/2 541/706/2 316/734/2
f 263/741/131 228/895/131 732/930/131 731/742/131
f 179/592/132 275/591/132 677/914/132 678/824/132
f 204/708/133 569/233/133 713/236/133 714/873/133
f 262/812/134 227/604/134 730/607/134 729/813/134
f 274/900/135 178/857/135 676/860/135 675/918/135
f 344/797/4 543/788/4 539/791/4 240/798/4
f 431/605/136 222/899/136 720/931/136 740/606/136
f 316/734/2 541/706/2 537/427/2 212/426/2
f 250/576/137 240/798/137 736/932/137 687/916/137
f 205/711/138 430/730/138 711/739/138 712/933/138
f 51/214/16 526/571/16 530/574/16 59/215/16
f 53/206/53 527/567/53 531/570/53 61/207/53
f 55/198/24 528/563/24 532/566/24 63/199/24
f 50/194/51 525/559/51 529/562/51 58/195/51
f 59/186/38 530/555/38 522/558/38 60/187/38
f 61/182/41 531/551/41 523/554/41 62/183/41
f 63/178/44 532/547/44 524/550/44 64/179/44
f 226/809/139 261/808/139 727/825/139 728/923/139
f 457/500/1 547/384/1 535/387/1 159/501/1
f 572/894/140 221/820/140 718/823/140 739/934/140
f 365/508/5 545/323/5 533/326/5 157/509/5
f 177/600/141 273/599/141 673/922/141 674/866/141
f 239/794/142 249/927/142 681/928/142 745/935/142
f 366/520/1 546/227/1 517/173/1 147/521/1
f 333/524/2 544/225/2 520/201/2 150/525/2
f 299/528/4 542/223/4 518/217/4 148/529/4
f 458/532/5 548/221/5 519/209/5 149/533/5
f 148/529/54 518/217/54 522/220/54 152/535/54
f 149/533/17 519/209/17 523/212/17 153/537/17
f 150/525/52 520/201/52 524/204/52 154/539/52
f 151/542/36 521/189/36 529/192/36 143/543/36
f 147/521/48 517/173/48 521/176/48 151/545/48
f 55/198/1 552/197/1 580/422/1 454/385/1
f 107/906/5 560/878/5 579/487/5 445/222/5
f 222/899/143 404/898/143 743/921/143 720/931/143
f 260/858/144 225/897/144 726/936/144 725/859/144
f 206/714/145 402/722/145 709/937/145 710/805/145
f 225/897/146 403/896/146 741/929/146 726/936/146
f 51/214/5 550/213/5 578/430/5 362/324/5
f 89/870/1 558/869/1 577/493/1 353/228/1
f 221/820/2 572/894/2 576/491/2 325/226/2
f 50/194/4 549/193/4 575/792/4 342/789/4
f 193/861/4 570/889/4 574/489/4 297/224/4
f 53/206/2 551/205/2 573/731/2 308/707/2
f 228/895/147 572/894/147 739/934/147 732/930/147
f 224/817/148 259/816/148 723/867/148 724/920/148
f 398/611/149 133/882/149 648/883/149 647/612/149
f 402/722/150 208/721/150 754/919/150 709/937/150
f 571/795/151 239/794/151 745/935/151 737/938/151
f 342/789/4 575/792/4 571/795/4 238/790/4
f 238/790/152 571/795/152 737/938/152 738/855/152
f 308/707/2 573/731/2 569/233/2 204/708/2
f 426/875/153 134/803/153 646/804/153 645/876/153
f 209/725/154 429/715/154 707/806/154 708/913/154
f 353/228/1 577/493/1 561/467/1 49/174/1
f 325/226/2 576/491/2 564/475/2 56/202/2
f 297/224/4 574/489/4 562/483/4 52/218/4
f 445/222/5 579/487/5 563/479/5 54/210/5
f 52/218/54 562/483/54 566/486/54 60/219/54
f 54/210/17 563/479/17 567/482/17 62/211/17
f 56/202/52 564/475/52 568/478/52 64/203/52
f 57/190/36 565/471/36 553/474/36 58/191/36
f 49/174/48 561/467/48 565/470/48 57/175/48
f 401/230/155 205/711/155 712/933/155 705/231/155
f 194/588/156 570/889/156 715/924/156 700/589/156
f 362/324/5 578/430/5 557/327/5 98/325/5
f 240/798/157 539/791/157 735/856/157 736/932/157
f 454/385/1 580/422/1 559/425/1 116/386/1
f 560/878/158 107/906/158 637/907/158 640/879/158
f 126/440/16 550/213/16 554/216/16 130/441/16
f 127/444/53 551/205/53 555/208/53 131/445/53
f 128/448/24 552/197/24 556/200/24 132/449/24
f 125/452/51 549/193/51 553/196/51 129/453/51
f 130/456/38 554/185/38 566/188/38 122/457/38
f 131/460/41 555/181/41 567/184/41 123/461/41
f 132/464/44 556/177/44 568/180/44 124/465/44
f 138/595/5 602/417/5 624/17/5 456/488/5
f 128/448/1 592/447/1 623/356/1 455/423/1
f 137/424/1 601/358/1 622/292/1 426/875/1
f 133/882/5 597/289/5 621/416/5 425/594/5
f 135/432/5 599/297/5 620/287/5 398/611/5
f 134/803/1 598/294/1 619/354/1 397/418/1
f 136/419/1 600/355/1 618/1/1 364/494/1
f 126/440/5 590/439/5 617/295/5 363/431/5
f 228/895/2 608/853/2 616/5/2 332/492/2
f 125/452/4 589/451/4 615/764/4 343/793/4
f 194/588/4 606/763/4 614/13/4 298/490/4
f 127/444/2 591/443/2 613/674/2 315/732/2
f 211/234/2 605/676/2 612/671/2 277/904/2
f 181/433/4 603/667/4 611/762/4 287/434/4
f 239/794/4 607/766/4 610/665/4 249/927/4
f 182/740/2 604/673/2 609/852/2 263/741/2
f 263/741/2 609/852/2 608/853/2 228/895/2
f 343/793/4 615/764/4 607/766/4 239/794/4
f 287/434/4 611/762/4 606/763/4 194/588/4
f 315/732/2 613/674/2 605/676/2 211/234/2
f 277/904/2 612/671/2 604/673/2 182/740/2
f 249/927/4 610/665/4 603/667/4 181/433/4
f 42/939/44 596/463/44 588/466/44 40/940/44
f 48/941/41 595/459/41 587/462/41 46/942/41
f 36/943/38 594/455/38 586/458/38 34/944/38
f 6/68/51 589/451/51 593/454/51 28/69/51
f 17/30/24 592/447/24 596/450/24 42/31/24
f 23/166/53 591/443/53 595/446/53 48/167/53
f 11/82/16 590/439/16 594/442/16 36/83/16
f 425/594/5 621/416/5 602/417/5 138/595/5
f 455/423/1 623/356/1 601/358/1 137/424/1
f 397/418/1 619/354/1 600/355/1 136/419/1
f 363/431/5 617/295/5 599/297/5 135/432/5
f 426/875/1 622/292/1 598/294/1 134/803/1
f 398/611/5 620/287/5 597/289/5 133/882/5
f 117/468/48 581/4/48 585/164/48 121/469/48
f 121/472/36 585/123/36 593/126/36 129/473/36
f 120/476/52 584/8/52 588/76/52 124/477/52
f 119/480/17 583/20/17 587/62/17 123/481/17
f 118/484/54 582/16/54 586/48/54 122/485/54
f 456/488/5 624/17/5 583/20/5 119/480/5
f 298/490/4 614/13/4 582/16/4 118/484/4
f 332/492/2 616/5/2 584/8/2 120/476/2
f 364/494/1 618/1/1 581/4/1 117/468/1
f 774/945/1 627/946/1 628/947/1 649/948/1
f 769/949/5 625/950/5 626/951/5 651/952/5
f 768/953/1 631/954/1 632/955/1 655/956/1
f 773/957/5 636/958/5 637/959/5 659/960/5
f 772/961/5 641/962/5 642/963/5 640/964/5
f 767/965/1 643/966/1 644/967/1 635/968/1
f 771/969/1 645/970/1 646/971/1 630/972/1
f 766/973/5 647/974/5 648/975/5 629/976/5
f 764/977/2 683/978/2 684/979/2 689/980/2
f 753/981/4 681/982/4 682/983/4 690/984/4
f 763/985/26 679/986/26 680/987/26 691/988/26
f 762/989/3 675/990/3 676/991/3 692/992/3
f 761/993/3 671/994/3 672/995/3 693/996/3
f 760/997/26 669/998/26 670/999/26 694/1000/26
f 759/1001/2 667/1002/2 668/1003/2 695/1004/2
f 752/1005/4 665/1006/4 666/1007/4 696/1008/4
f 758/1009/4 699/1010/4 700/1011/4 715/1012/4
f 757/1013/4 697/1014/4 698/1015/4 716/1016/4
f 751/1017/2 731/1018/2 732/1019/2 739/1020/2
f 750/1021/26 729/1022/26 730/1023/26 740/1024/26
f 749/1025/3 725/1026/3 726/1027/3 741/1028/3
f 748/1029/3 721/1030/3 722/1031/3 742/1032/3
f 747/1033/26 719/1034/26 720/1035/26 743/1036/26
f 746/1037/2 717/1038/2 718/1039/2 744/1040/2
f 695/1004/2 668/1003/2 717/1038/2 746/1037/2
f 694/1000/26 670/999/26 719/1034/26 747/1033/26
f 693/996/3 672/995/3 721/1030/3 748/1029/3
f 692/992/3 676/991/3 725/1026/3 749/1025/3
f 691/988/26 680/987/26 729/1022/26 750/1021/26
f 689/980/2 684/979/2 731/1018/2 751/1017/2
f 735/1041/4 738/1042/4 665/1006/4 752/1005/4
f 737/1043/4 745/1044/4 681/982/4 753/981/4
f 696/1008/4 666/1007/4 697/1014/4 757/1013/4
f 690/984/4 682/983/4 699/1010/4 758/1009/4
f 703/1045/2 714/1046/2 667/1002/2 759/1001/2
f 705/1047/26 712/1048/26 669/998/26 760/997/26
f 707/1049/3 710/1050/3 671/994/3 761/993/3
f 709/1051/3 754/1052/3 675/990/3 762/989/3
f 711/1053/26 755/1054/26 679/986/26 763/985/26
f 713/1055/2 756/1056/2 683/978/2 764/977/2
f 710/1050/3 709/1051/3 762/989/3 671/994/3
f 706/1057/26 705/1047/26 760/997/26 673/1058/26
f 672/995/3 692/992/3 749/1025/3 721/1030/3
f 674/1059/26 694/1000/26 747/1033/26 723/1060/26
f 723/1060/26 747/1033/26 743/1036/26 724/1061/26
f 721/1030/3 749/1025/3 741/1028/3 722/1031/3
f 673/1058/26 760/997/26 694/1000/26 674/1059/26
f 671/994/3 762/989/3 692/992/3 672/995/3
f 633/1062/5 765/1063/5 647/974/5 766/973/5
f 630/972/1 646/971/1 643/966/1 767/965/1
f 649/948/1 628/947/1 631/954/1 768/953/1
f 653/1064/5 634/1065/5 625/950/5 769/949/5
f 712/1048/26 711/1053/26 763/985/26 669/998/26
f 708/1066/3 707/1049/3 761/993/3 677/1067/3
f 670/999/26 691/988/26 750/1021/26 719/1034/26
f 678/1068/3 693/996/3 748/1029/3 727/1069/3
f 727/1069/3 748/1029/3 742/1032/3 728/1070/3
f 719/1034/26 750/1021/26 740/1024/26 720/1035/26
f 677/1067/3 761/993/3 693/996/3 678/1068/3
f 669/998/26 763/985/26 691/988/26 670/999/26
f 638/1071/1 770/1072/1 645/970/1 771/969/1
f 629/976/5 648/975/5 641/962/5 772/961/5
f 651/952/5 626/951/5 636/958/5 773/957/5
f 657/1073/1 639/1074/1 627/946/1 774/945/1
f 658/1075/1 657/1073/1 774/945/1 664/1076/1
f 652/1077/5 651/952/5 773/957/5 661/1078/5
f 654/1079/5 653/1064/5 769/949/5 663/1080/5
f 650/1081/1 649/948/1 768/953/1 662/1082/1
f 704/1083/2 703/1045/2 759/1001/2 685/1084/2
f 688/1085/4 696/1008/4 757/1013/4 701/1086/4
f 736/1087/4 735/1041/4 752/1005/4 687/1088/4
f 686/1089/2 695/1004/2 746/1037/2 733/1090/2
f 733/1090/2 746/1037/2 744/1040/2 734/1091/2
f 701/1086/4 757/1013/4 716/1016/4 702/1092/4
f 687/1088/4 752/1005/4 696/1008/4 688/1085/4
f 685/1084/2 759/1001/2 695/1004/2 686/1089/2
f 661/1078/5 773/957/5 659/960/5 660/1093/5
f 662/1082/1 768/953/1 655/956/1 656/1094/1
f 663/1080/5 769/949/5 651/952/5 652/1077/5
f 664/1076/1 774/945/1 649/948/1 650/1081/1
f 626/951/5 629/976/5 772/961/5 636/958/5
f 639/1074/1 638/1071/1 771/969/1 627/946/1
f 628/947/1 630/972/1 767/965/1 631/954/1
f 634/1065/5 633/1062/5 766/973/5 625/950/5
f 714/1046/2 713/1055/2 764/977/2 667/1002/2
f 666/1007/4 690/984/4 758/1009/4 697/1014/4
f 738/1042/4 737/1043/4 753/981/4 665/1006/4
f 668/1003/2 689/980/2 751/1017/2 717/1038/2
f 717/1038/2 751/1017/2 739/1020/2 718/1039/2
f 697/1014/4 758/1009/4 715/1012/4 698/1015/4
f 665/1006/4 753/981/4 690/984/4 666/1007/4
f 667/1002/2 764/977/2 689/980/2 668/1003/2
f 625/950/5 766/973/5 629/976/5 626/951/5
f 627/946/1 771/969/1 630/972/1 628/947/1
f 631/954/1 767/965/1 635/968/1 632/955/1
f 636/958/5 772/961/5 640/964/5 637/959/5
