# Blender 4.3.1
# www.blender.org
mtllib number3.mtl
o Text.002
v 0.471387 2.145006 1.104159
v 0.471387 2.174101 1.035594
v 0.471387 2.200203 0.966936
v 0.471387 2.223360 0.897857
v 0.471387 2.243617 0.828029
v 0.471387 2.261021 0.757127
v 0.471387 2.275620 0.684821
v 0.471387 2.287459 0.610785
v 0.471387 2.296586 0.534691
v 0.471387 2.303047 0.456212
v 0.471387 2.306890 0.375021
v 0.471387 2.308160 0.290790
v 0.471387 2.298464 0.091573
v 0.471387 2.269876 -0.094737
v 0.471386 2.223142 -0.267298
v 0.471386 2.159012 -0.425269
v 0.471386 2.078234 -0.567807
v 0.471386 1.981556 -0.694072
v 0.471386 1.869727 -0.803220
v 0.471386 1.743494 -0.894411
v 0.471386 1.603605 -0.966803
v 0.471386 1.450810 -1.019553
v 0.471386 1.285856 -1.051821
v 0.471386 1.109491 -1.062763
v 0.471386 0.986079 -1.059210
v 0.471386 0.871366 -1.048360
v 0.471386 0.764789 -1.029935
v 0.471387 0.665789 -1.003653
v 0.471387 0.573803 -0.969234
v 0.471387 0.488270 -0.926398
v 0.471387 0.408630 -0.874863
v 0.471387 0.334321 -0.814350
v 0.471387 0.264782 -0.744577
v 0.471387 0.199452 -0.665265
v 0.471387 0.137770 -0.576131
v 0.471387 0.079174 -0.476897
v 0.471387 0.037004 -0.586077
v 0.471387 -0.018003 -0.684781
v 0.471387 -0.084654 -0.773197
v 0.471387 -0.161757 -0.851512
v 0.471387 -0.248120 -0.919913
v 0.471387 -0.342549 -0.978587
v 0.471387 -0.443853 -1.027721
v 0.471387 -0.550839 -1.067502
v 0.471387 -0.662314 -1.098118
v 0.471387 -0.777086 -1.119754
v 0.471387 -0.893962 -1.132599
v 0.471387 -1.011750 -1.136839
v 0.471387 -1.211762 -1.124555
v 0.471387 -1.400270 -1.088515
v 0.471387 -1.576152 -1.029935
v 0.471387 -1.738284 -0.950030
v 0.471387 -1.885546 -0.850016
v 0.471387 -2.016814 -0.731109
v 0.471387 -2.130967 -0.594526
v 0.471387 -2.226881 -0.441481
v 0.471387 -2.303434 -0.273191
v 0.471387 -2.359505 -0.090871
v 0.471387 -2.393971 0.104262
v 0.471387 -2.405709 0.310992
v 0.471387 -2.403756 0.390391
v 0.471387 -2.397946 0.470303
v 0.471387 -2.388347 0.550684
v 0.471387 -2.375031 0.631485
v 0.471387 -2.358067 0.712661
v 0.471387 -2.337526 0.794164
v 0.471387 -2.313477 0.875947
v 0.471387 -2.285991 0.957964
v 0.471387 -2.255138 1.040169
v 0.471387 -2.220989 1.122513
v 0.471387 -2.183612 1.204952
v 0.471387 -2.143079 1.287436
v 0.471387 -1.429264 1.287437
v 0.471387 -1.485666 1.200166
v 0.471387 -1.537041 1.113410
v 0.471387 -1.583412 1.027122
v 0.471387 -1.624803 0.941254
v 0.471387 -1.661236 0.855761
v 0.471387 -1.692736 0.770595
v 0.471387 -1.719326 0.685709
v 0.471387 -1.741028 0.601057
v 0.471387 -1.757867 0.516593
v 0.471387 -1.769866 0.432269
v 0.471387 -1.777049 0.348038
v 0.471387 -1.779437 0.263854
v 0.471387 -1.773483 0.154498
v 0.471387 -1.755930 0.052322
v 0.471387 -1.727248 -0.042233
v 0.471387 -1.687903 -0.128720
v 0.471387 -1.638364 -0.206695
v 0.471387 -1.579098 -0.275716
v 0.471387 -1.510572 -0.335337
v 0.471387 -1.433255 -0.385114
v 0.471387 -1.347613 -0.424603
v 0.471387 -1.254115 -0.453359
v 0.471387 -1.153229 -0.470939
v 0.471387 -1.045421 -0.476897
v 0.471387 -0.934893 -0.470026
v 0.471387 -0.829555 -0.449430
v 0.471387 -0.730391 -0.415133
v 0.471387 -0.638382 -0.367156
v 0.471387 -0.554510 -0.305524
v 0.471387 -0.479756 -0.230261
v 0.471387 -0.415105 -0.141389
v 0.471387 -0.361536 -0.038931
v 0.471387 -0.320032 0.077088
v 0.471387 -0.291576 0.206645
v 0.471387 -0.277149 0.349717
v 0.471387 -0.277734 0.506281
v 0.471387 0.328335 0.506281
v 0.471387 0.333480 0.361077
v 0.471387 0.348725 0.228500
v 0.471387 0.373791 0.108549
v 0.471387 0.408396 0.001224
v 0.471387 0.452262 -0.093474
v 0.471387 0.505106 -0.175546
v 0.471387 0.566648 -0.244992
v 0.471387 0.636608 -0.301811
v 0.471387 0.714704 -0.346003
v 0.471387 0.800658 -0.377569
v 0.471387 0.894187 -0.396509
v 0.471387 0.995011 -0.402822
v 0.471387 1.097647 -0.396447
v 0.471387 1.193199 -0.377632
v 0.471387 1.281315 -0.346845
v 0.471387 1.361645 -0.304554
v 0.471387 1.433838 -0.251227
v 0.471387 1.497543 -0.187331
v 0.471387 1.552410 -0.113334
v 0.471387 1.598087 -0.029703
v 0.471387 1.634225 0.063094
v 0.471387 1.660471 0.164588
v 0.471387 1.676476 0.274314
v 0.471387 1.681889 0.391802
v 0.471387 1.680747 0.453469
v 0.471387 1.677244 0.514200
v 0.471387 1.671262 0.574464
v 0.471387 1.662684 0.634728
v 0.471387 1.651395 0.695460
v 0.471387 1.637276 0.757127
v 0.471387 1.620210 0.820196
v 0.471387 1.600082 0.885137
v 0.471387 1.576774 0.952415
v 0.471387 1.550169 1.022500
v 0.471387 1.520149 1.095858
v 0.471387 1.486600 1.172957
v 0.471387 2.112872 1.172957
v -0.471387 2.145006 1.104159
v -0.471387 2.174101 1.035594
v -0.471387 2.200203 0.966936
v -0.471387 2.223360 0.897857
v -0.471387 2.243617 0.828030
v -0.471387 2.261021 0.757127
v -0.471387 2.275620 0.684821
v -0.471387 2.287459 0.610785
v -0.471387 2.296586 0.534691
v -0.471387 2.303047 0.456212
v -0.471387 2.306890 0.375021
v -0.471387 2.308160 0.290790
v -0.471387 2.298464 0.091573
v -0.471387 2.269876 -0.094737
v -0.471387 2.223142 -0.267298
v -0.471387 2.159012 -0.425269
v -0.471387 2.078234 -0.567807
v -0.471387 1.981556 -0.694072
v -0.471387 1.869727 -0.803220
v -0.471387 1.743494 -0.894411
v -0.471387 1.603605 -0.966803
v -0.471387 1.450810 -1.019553
v -0.471387 1.285856 -1.051821
v -0.471387 1.109491 -1.062763
v -0.471387 0.986079 -1.059210
v -0.471387 0.871366 -1.048360
v -0.471387 0.764789 -1.029935
v -0.471387 0.665789 -1.003653
v -0.471387 0.573803 -0.969234
v -0.471387 0.488270 -0.926398
v -0.471387 0.408630 -0.874863
v -0.471387 0.334321 -0.814350
v -0.471387 0.264782 -0.744577
v -0.471387 0.199452 -0.665265
v -0.471387 0.137770 -0.576131
v -0.471387 0.079174 -0.476897
v -0.471387 0.037004 -0.586077
v -0.471387 -0.018003 -0.684781
v -0.471387 -0.084654 -0.773197
v -0.471387 -0.161757 -0.851512
v -0.471387 -0.248120 -0.919913
v -0.471387 -0.342549 -0.978587
v -0.471387 -0.443853 -1.027721
v -0.471387 -0.550839 -1.067502
v -0.471387 -0.662314 -1.098118
v -0.471387 -0.777086 -1.119754
v -0.471387 -0.893962 -1.132599
v -0.471387 -1.011750 -1.136839
v -0.471387 -1.211762 -1.124555
v -0.471387 -1.400270 -1.088515
v -0.471387 -1.576152 -1.029935
v -0.471387 -1.738284 -0.950030
v -0.471387 -1.885546 -0.850016
v -0.471387 -2.016814 -0.731109
v -0.471387 -2.130967 -0.594526
v -0.471387 -2.226881 -0.441481
v -0.471387 -2.303434 -0.273191
v -0.471387 -2.359505 -0.090871
v -0.471387 -2.393971 0.104262
v -0.471387 -2.405709 0.310992
v -0.471387 -2.403756 0.390391
v -0.471387 -2.397946 0.470303
v -0.471387 -2.388347 0.550684
v -0.471387 -2.375031 0.631485
v -0.471387 -2.358067 0.712661
v -0.471387 -2.337526 0.794164
v -0.471387 -2.313477 0.875947
v -0.471387 -2.285991 0.957965
v -0.471387 -2.255138 1.040169
v -0.471387 -2.220989 1.122514
v -0.471387 -2.183612 1.204952
v -0.471387 -2.143079 1.287437
v -0.471387 -1.429264 1.287437
v -0.471387 -1.485666 1.200166
v -0.471387 -1.537041 1.113410
v -0.471387 -1.583412 1.027122
v -0.471387 -1.624803 0.941254
v -0.471387 -1.661236 0.855761
v -0.471387 -1.692736 0.770595
v -0.471387 -1.719326 0.685709
v -0.471387 -1.741028 0.601057
v -0.471387 -1.757867 0.516593
v -0.471387 -1.769866 0.432269
v -0.471387 -1.777049 0.348038
v -0.471387 -1.779437 0.263854
v -0.471387 -1.773483 0.154498
v -0.471387 -1.755930 0.052322
v -0.471387 -1.727248 -0.042233
v -0.471387 -1.687903 -0.128720
v -0.471387 -1.638364 -0.206695
v -0.471387 -1.579098 -0.275716
v -0.471387 -1.510572 -0.335337
v -0.471387 -1.433255 -0.385114
v -0.471387 -1.347613 -0.424603
v -0.471387 -1.254115 -0.453359
v -0.471387 -1.153229 -0.470939
v -0.471387 -1.045421 -0.476897
v -0.471387 -0.934893 -0.470026
v -0.471387 -0.829555 -0.449430
v -0.471387 -0.730391 -0.415133
v -0.471387 -0.638382 -0.367156
v -0.471387 -0.554510 -0.305524
v -0.471387 -0.479756 -0.230261
v -0.471387 -0.415105 -0.141389
v -0.471387 -0.361536 -0.038931
v -0.471387 -0.320032 0.077088
v -0.471387 -0.291576 0.206645
v -0.471387 -0.277149 0.349717
v -0.471387 -0.277734 0.506281
v -0.471387 0.328335 0.506281
v -0.471387 0.333480 0.361077
v -0.471387 0.348725 0.228500
v -0.471387 0.373791 0.108549
v -0.471387 0.408396 0.001224
v -0.471387 0.452262 -0.093474
v -0.471387 0.505106 -0.175546
v -0.471387 0.566648 -0.244992
v -0.471387 0.636608 -0.301811
v -0.471387 0.714704 -0.346003
v -0.471387 0.800658 -0.377569
v -0.471387 0.894187 -0.396509
v -0.471387 0.995011 -0.402822
v -0.471387 1.097647 -0.396447
v -0.471387 1.193199 -0.377632
v -0.471387 1.281315 -0.346845
v -0.471387 1.361645 -0.304554
v -0.471387 1.433838 -0.251227
v -0.471387 1.497543 -0.187331
v -0.471387 1.552410 -0.113334
v -0.471387 1.598087 -0.029703
v -0.471387 1.634225 0.063094
v -0.471387 1.660471 0.164588
v -0.471387 1.676476 0.274314
v -0.471387 1.681889 0.391802
v -0.471387 1.680747 0.453469
v -0.471387 1.677244 0.514200
v -0.471387 1.671262 0.574464
v -0.471387 1.662684 0.634728
v -0.471387 1.651395 0.695460
v -0.471387 1.637276 0.757127
v -0.471387 1.620210 0.820197
v -0.471387 1.600082 0.885137
v -0.471387 1.576774 0.952416
v -0.471387 1.550169 1.022500
v -0.471387 1.520149 1.095858
v -0.471387 1.486600 1.172957
v -0.471387 2.112872 1.172957
v -0.471387 2.145006 1.104159
v 0.471387 2.145006 1.104159
v -0.471387 2.174101 1.035594
v 0.471387 2.174101 1.035594
v -0.471387 2.200203 0.966936
v 0.471387 2.200203 0.966936
v -0.471387 2.223360 0.897857
v 0.471387 2.223360 0.897857
v -0.471387 2.243617 0.828030
v 0.471387 2.243617 0.828029
v -0.471387 2.261021 0.757127
v 0.471387 2.261021 0.757127
v -0.471387 2.275620 0.684821
v 0.471387 2.275620 0.684821
v -0.471387 2.287459 0.610785
v 0.471387 2.287459 0.610785
v -0.471387 2.296586 0.534691
v 0.471387 2.296586 0.534691
v -0.471387 2.303047 0.456212
v 0.471387 2.303047 0.456212
v -0.471387 2.306890 0.375021
v 0.471387 2.306890 0.375021
v -0.471387 2.308160 0.290790
v 0.471387 2.308160 0.290790
v -0.471387 2.298464 0.091573
v 0.471387 2.298464 0.091573
v -0.471387 2.269876 -0.094737
v 0.471387 2.269876 -0.094737
v -0.471387 2.223142 -0.267298
v 0.471386 2.223142 -0.267298
v -0.471387 2.159012 -0.425269
v 0.471386 2.159012 -0.425269
v -0.471387 2.078234 -0.567807
v 0.471386 2.078234 -0.567807
v -0.471387 1.981556 -0.694072
v 0.471386 1.981556 -0.694072
v -0.471387 1.869727 -0.803220
v 0.471386 1.869727 -0.803220
v -0.471387 1.743494 -0.894411
v 0.471386 1.743494 -0.894411
v -0.471387 1.603605 -0.966803
v 0.471386 1.603605 -0.966803
v -0.471387 1.450810 -1.019553
v 0.471386 1.450810 -1.019553
v -0.471387 1.285856 -1.051821
v 0.471386 1.285856 -1.051821
v -0.471387 1.109491 -1.062763
v 0.471386 1.109491 -1.062763
v -0.471387 0.986079 -1.059210
v 0.471386 0.986079 -1.059210
v -0.471387 0.871366 -1.048360
v 0.471386 0.871366 -1.048360
v -0.471387 0.764789 -1.029935
v 0.471386 0.764789 -1.029935
v -0.471387 0.665789 -1.003653
v 0.471387 0.665789 -1.003653
v -0.471387 0.573803 -0.969234
v 0.471387 0.573803 -0.969234
v -0.471387 0.488270 -0.926398
v 0.471387 0.488270 -0.926398
v -0.471387 0.408630 -0.874863
v 0.471387 0.408630 -0.874863
v -0.471387 0.334321 -0.814350
v 0.471387 0.334321 -0.814350
v -0.471387 0.264782 -0.744577
v 0.471387 0.264782 -0.744577
v -0.471387 0.199452 -0.665265
v 0.471387 0.199452 -0.665265
v -0.471387 0.137770 -0.576131
v 0.471387 0.137770 -0.576131
v -0.471387 0.079174 -0.476897
v 0.471387 0.079174 -0.476897
v -0.471387 0.037004 -0.586077
v 0.471387 0.037004 -0.586077
v -0.471387 -0.018003 -0.684781
v 0.471387 -0.018003 -0.684781
v -0.471387 -0.084654 -0.773197
v 0.471387 -0.084654 -0.773197
v -0.471387 -0.161757 -0.851512
v 0.471387 -0.161757 -0.851512
v -0.471387 -0.248120 -0.919913
v 0.471387 -0.248120 -0.919913
v -0.471387 -0.342549 -0.978587
v 0.471387 -0.342549 -0.978587
v -0.471387 -0.443853 -1.027721
v 0.471387 -0.443853 -1.027721
v -0.471387 -0.550839 -1.067502
v 0.471387 -0.550839 -1.067502
v -0.471387 -0.662314 -1.098118
v 0.471387 -0.662314 -1.098118
v -0.471387 -0.777086 -1.119754
v 0.471387 -0.777086 -1.119754
v -0.471387 -0.893962 -1.132599
v 0.471387 -0.893962 -1.132599
v -0.471387 -1.011750 -1.136839
v 0.471387 -1.011750 -1.136839
v -0.471387 -1.211762 -1.124555
v 0.471387 -1.211762 -1.124555
v -0.471387 -1.400270 -1.088515
v 0.471387 -1.400270 -1.088515
v -0.471387 -1.576152 -1.029935
v 0.471387 -1.576152 -1.029935
v -0.471387 -1.738284 -0.950030
v 0.471387 -1.738284 -0.950030
v -0.471387 -1.885546 -0.850016
v 0.471387 -1.885546 -0.850016
v -0.471387 -2.016814 -0.731109
v 0.471387 -2.016814 -0.731109
v -0.471387 -2.130967 -0.594526
v 0.471387 -2.130967 -0.594526
v -0.471387 -2.226881 -0.441481
v 0.471387 -2.226881 -0.441481
v -0.471387 -2.303434 -0.273191
v 0.471387 -2.303434 -0.273191
v -0.471387 -2.359505 -0.090871
v 0.471387 -2.359505 -0.090871
v -0.471387 -2.393971 0.104262
v 0.471387 -2.393971 0.104262
v -0.471387 -2.405709 0.310992
v 0.471387 -2.405709 0.310992
v -0.471387 -2.403756 0.390391
v 0.471387 -2.403756 0.390391
v -0.471387 -2.397946 0.470303
v 0.471387 -2.397946 0.470303
v -0.471387 -2.388347 0.550684
v 0.471387 -2.388347 0.550684
v -0.471387 -2.375031 0.631485
v 0.471387 -2.375031 0.631485
v -0.471387 -2.358067 0.712661
v 0.471387 -2.358067 0.712661
v -0.471387 -2.337526 0.794164
v 0.471387 -2.337526 0.794164
v -0.471387 -2.313477 0.875947
v 0.471387 -2.313477 0.875947
v -0.471387 -2.285991 0.957965
v 0.471387 -2.285991 0.957964
v -0.471387 -2.255138 1.040169
v 0.471387 -2.255138 1.040169
v -0.471387 -2.220989 1.122514
v 0.471387 -2.220989 1.122513
v -0.471387 -2.183612 1.204952
v 0.471387 -2.183612 1.204952
v -0.471387 -2.143079 1.287437
v 0.471387 -2.143079 1.287436
v -0.471387 -1.429264 1.287437
v 0.471387 -1.429264 1.287437
v -0.471387 -1.485666 1.200166
v 0.471387 -1.485666 1.200166
v -0.471387 -1.537041 1.113410
v 0.471387 -1.537041 1.113410
v -0.471387 -1.583412 1.027122
v 0.471387 -1.583412 1.027122
v -0.471387 -1.624803 0.941254
v 0.471387 -1.624803 0.941254
v -0.471387 -1.661236 0.855761
v 0.471387 -1.661236 0.855761
v -0.471387 -1.692736 0.770595
v 0.471387 -1.692736 0.770595
v -0.471387 -1.719326 0.685709
v 0.471387 -1.719326 0.685709
v -0.471387 -1.741028 0.601057
v 0.471387 -1.741028 0.601057
v -0.471387 -1.757867 0.516593
v 0.471387 -1.757867 0.516593
v -0.471387 -1.769866 0.432269
v 0.471387 -1.769866 0.432269
v -0.471387 -1.777049 0.348038
v 0.471387 -1.777049 0.348038
v -0.471387 -1.779437 0.263854
v 0.471387 -1.779437 0.263854
v -0.471387 -1.773483 0.154498
v 0.471387 -1.773483 0.154498
v -0.471387 -1.755930 0.052322
v 0.471387 -1.755930 0.052322
v -0.471387 -1.727248 -0.042233
v 0.471387 -1.727248 -0.042233
v -0.471387 -1.687903 -0.128720
v 0.471387 -1.687903 -0.128720
v -0.471387 -1.638364 -0.206695
v 0.471387 -1.638364 -0.206695
v -0.471387 -1.579098 -0.275716
v 0.471387 -1.579098 -0.275716
v -0.471387 -1.510572 -0.335337
v 0.471387 -1.510572 -0.335337
v -0.471387 -1.433255 -0.385114
v 0.471387 -1.433255 -0.385114
v -0.471387 -1.347613 -0.424603
v 0.471387 -1.347613 -0.424603
v -0.471387 -1.254115 -0.453359
v 0.471387 -1.254115 -0.453359
v -0.471387 -1.153229 -0.470939
v 0.471387 -1.153229 -0.470939
v -0.471387 -1.045421 -0.476897
v 0.471387 -1.045421 -0.476897
v -0.471387 -0.934893 -0.470026
v 0.471387 -0.934893 -0.470026
v -0.471387 -0.829555 -0.449430
v 0.471387 -0.829555 -0.449430
v -0.471387 -0.730391 -0.415133
v 0.471387 -0.730391 -0.415133
v -0.471387 -0.638382 -0.367156
v 0.471387 -0.638382 -0.367156
v -0.471387 -0.554510 -0.305524
v 0.471387 -0.554510 -0.305524
v -0.471387 -0.479756 -0.230261
v 0.471387 -0.479756 -0.230261
v -0.471387 -0.415105 -0.141389
v 0.471387 -0.415105 -0.141389
v -0.471387 -0.361536 -0.038931
v 0.471387 -0.361536 -0.038931
v -0.471387 -0.320032 0.077088
v 0.471387 -0.320032 0.077088
v -0.471387 -0.291576 0.206645
v 0.471387 -0.291576 0.206645
v -0.471387 -0.277149 0.349717
v 0.471387 -0.277149 0.349717
v -0.471387 -0.277734 0.506281
v 0.471387 -0.277734 0.506281
v -0.471387 0.328335 0.506281
v 0.471387 0.328335 0.506281
v -0.471387 0.333480 0.361077
v 0.471387 0.333480 0.361077
v -0.471387 0.348725 0.228500
v 0.471387 0.348725 0.228500
v -0.471387 0.373791 0.108549
v 0.471387 0.373791 0.108549
v -0.471387 0.408396 0.001224
v 0.471387 0.408396 0.001224
v -0.471387 0.452262 -0.093474
v 0.471387 0.452262 -0.093474
v -0.471387 0.505106 -0.175546
v 0.471387 0.505106 -0.175546
v -0.471387 0.566648 -0.244992
v 0.471387 0.566648 -0.244992
v -0.471387 0.636608 -0.301811
v 0.471387 0.636608 -0.301811
v -0.471387 0.714704 -0.346003
v 0.471387 0.714704 -0.346003
v -0.471387 0.800658 -0.377569
v 0.471387 0.800658 -0.377569
v -0.471387 0.894187 -0.396509
v 0.471387 0.894187 -0.396509
v -0.471387 0.995011 -0.402822
v 0.471387 0.995011 -0.402822
v -0.471387 1.097647 -0.396447
v 0.471387 1.097647 -0.396447
v -0.471387 1.193199 -0.377632
v 0.471387 1.193199 -0.377632
v -0.471387 1.281315 -0.346845
v 0.471387 1.281315 -0.346845
v -0.471387 1.361645 -0.304554
v 0.471387 1.361645 -0.304554
v -0.471387 1.433838 -0.251227
v 0.471387 1.433838 -0.251227
v -0.471387 1.497543 -0.187331
v 0.471387 1.497543 -0.187331
v -0.471387 1.552410 -0.113334
v 0.471387 1.552410 -0.113334
v -0.471387 1.598087 -0.029703
v 0.471387 1.598087 -0.029703
v -0.471387 1.634225 0.063094
v 0.471387 1.634225 0.063094
v -0.471387 1.660471 0.164588
v 0.471387 1.660471 0.164588
v -0.471387 1.676476 0.274314
v 0.471387 1.676476 0.274314
v -0.471387 1.681889 0.391802
v 0.471387 1.681889 0.391802
v -0.471387 1.680747 0.453469
v 0.471387 1.680747 0.453469
v -0.471387 1.677244 0.514200
v 0.471387 1.677244 0.514200
v -0.471387 1.671262 0.574464
v 0.471387 1.671262 0.574464
v -0.471387 1.662684 0.634728
v 0.471387 1.662684 0.634728
v -0.471387 1.651395 0.695460
v 0.471387 1.651395 0.695460
v -0.471387 1.637276 0.757127
v 0.471387 1.637276 0.757127
v -0.471387 1.620210 0.820197
v 0.471387 1.620210 0.820196
v -0.471387 1.600082 0.885137
v 0.471387 1.600082 0.885137
v -0.471387 1.576774 0.952416
v 0.471387 1.576774 0.952415
v -0.471387 1.550169 1.022500
v 0.471387 1.550169 1.022500
v -0.471387 1.520149 1.095858
v 0.471387 1.520149 1.095858
v -0.471387 1.486600 1.172957
v 0.471387 1.486600 1.172957
v -0.471387 2.112872 1.172957
v 0.471387 2.112872 1.172957
vn 1.0000 -0.0000 -0.0000
vn -1.0000 -0.0000 -0.0000
vn -0.0000 0.9134 0.4070
vn -0.0000 0.9278 0.3731
vn -0.0000 0.9416 0.3367
vn -0.0000 0.9545 0.2983
vn -0.0000 0.9660 0.2586
vn -0.0000 0.9759 0.2182
vn -0.0000 0.9840 0.1779
vn -0.0000 0.9904 0.1385
vn -0.0000 0.9949 0.1006
vn -0.0000 0.9979 0.0647
vn -0.0000 0.9995 0.0312
vn -0.0000 0.9999 -0.0168
vn -0.0000 0.9950 -0.1003
vn -0.0000 0.9784 -0.2069
vn -0.0000 0.9476 -0.3194
vn -0.0000 0.9002 -0.4355
vn -0.0000 0.8340 -0.5518
vn -0.0000 0.7482 -0.6635
vn -0.0000 0.6438 -0.7652
vn -0.0000 0.5240 -0.8517
vn -0.0000 0.3940 -0.9191
vn -0.0000 0.2598 -0.9657
vn -0.0000 0.1272 -0.9919
vn -0.0000 0.0166 -0.9999
vn -0.0000 -0.0615 -0.9981
vn -0.0000 -0.1324 -0.9912
vn -0.0000 -0.2137 -0.9769
vn -0.0000 -0.3039 -0.9527
vn -0.0000 -0.3997 -0.9167
vn -0.0000 -0.4963 -0.8682
vn -0.0000 -0.5882 -0.8087
vn -0.0000 -0.6708 -0.7417
vn -0.0000 -0.7409 -0.6716
vn -0.0000 -0.7978 -0.6029
vn -0.0000 -0.8422 -0.5391
vn -0.0000 0.0823 -0.9966
vn -0.0000 0.9054 -0.4246
vn -0.0000 0.8380 -0.5457
vn -0.0000 0.7572 -0.6532
vn -0.0000 0.6680 -0.7442
vn -0.0000 0.5753 -0.8180
vn -0.0000 0.4827 -0.8758
vn -0.0000 0.3929 -0.9196
vn -0.0000 0.3070 -0.9517
vn -0.0000 0.2252 -0.9743
vn -0.0000 0.1474 -0.9891
vn -0.0000 0.0727 -0.9974
vn -0.0000 -0.0127 -0.9999
vn -0.0000 -0.1248 -0.9922
vn -0.0000 -0.2524 -0.9676
vn -0.0000 -0.3799 -0.9250
vn -0.0000 -0.5032 -0.8642
vn -0.0000 -0.6181 -0.7861
vn -0.0000 -0.7211 -0.6929
vn -0.0000 -0.8092 -0.5875
vn -0.0000 -0.8807 -0.4736
vn -0.0000 -0.9350 -0.3547
vn -0.0000 -0.9721 -0.2344
vn -0.0000 -0.9933 -0.1155
vn -0.0000 -0.9999 -0.0161
vn -0.0000 -0.9988 0.0486
vn -0.0000 -0.9954 0.0956
vn -0.0000 -0.9901 0.1406
vn -0.0000 -0.9830 0.1836
vn -0.0000 -0.9745 0.2245
vn -0.0000 -0.9647 0.2633
vn -0.0000 -0.9539 0.3000
vn -0.0000 -0.9424 0.3346
vn -0.0000 -0.9301 0.3673
vn -0.0000 -0.9174 0.3981
vn -0.0000 -0.9042 0.4270
vn -0.0000 -0.5287 0.8488
vn -0.0000 0.8783 0.4781
vn -0.0000 0.8503 -0.5263
vn -0.0000 0.8708 -0.4916
vn -0.0000 0.8911 -0.4539
vn -0.0000 0.9106 -0.4132
vn -0.0000 0.9292 -0.3696
vn -0.0000 0.9464 -0.3230
vn -0.0000 0.9618 -0.2737
vn -0.0000 0.9750 -0.2220
vn -0.0000 0.9857 -0.1683
vn -0.0000 0.9936 -0.1130
vn -0.0000 0.9984 -0.0567
vn -0.0000 0.9999 0.0130
vn -0.0000 0.9937 0.1120
vn -0.0000 0.9731 0.2302
vn -0.0000 0.9356 0.3530
vn -0.0000 0.8793 0.4763
vn -0.0000 0.8034 0.5954
vn -0.0000 0.7094 0.7048
vn -0.0000 0.6004 0.7997
vn -0.0000 0.4812 0.8766
vn -0.0000 0.3571 0.9340
vn -0.0000 0.2333 0.9724
vn -0.0000 0.1136 0.9935
vn -0.0000 -0.0034 1.0000
vn -0.0000 -0.1272 0.9919
vn -0.0000 -0.2600 0.9656
vn -0.0000 -0.3957 0.9184
vn -0.0000 -0.5288 0.8487
vn -0.0000 -0.6528 0.7575
vn -0.0000 -0.7613 0.6484
vn -0.0000 -0.8497 0.5272
vn -0.0000 -0.9161 0.4010
vn -0.0000 -0.9611 0.2762
vn -0.0000 -0.9875 0.1577
vn -0.0000 -0.9988 0.0484
vn -0.0000 -0.7084 0.7058
vn -0.0000 0.6945 0.7195
vn -0.0000 0.9972 0.0749
vn -0.0000 0.9872 0.1596
vn -0.0000 0.9667 0.2561
vn -0.0000 0.9313 0.3643
vn -0.0000 0.8762 0.4820
vn -0.0000 0.7969 0.6041
vn -0.0000 0.6917 0.7222
vn -0.0000 0.5634 0.8262
vn -0.0000 0.4200 0.9075
vn -0.0000 0.2724 0.9622
vn -0.0000 0.1308 0.9914
vn -0.0000 0.0002 1.0000
vn -0.0000 -0.1279 0.9918
vn -0.0000 -0.2622 0.9650
vn -0.0000 -0.3989 0.9170
vn -0.0000 -0.5315 0.8470
vn -0.0000 -0.6530 0.7573
vn -0.0000 -0.7577 0.6526
vn -0.0000 -0.8425 0.5388
vn -0.0000 -0.9066 0.4220
vn -0.0000 -0.9517 0.3072
vn -0.0000 -0.9803 0.1976
vn -0.0000 -0.9954 0.0953
vn -0.0000 -0.9999 0.0138
vn -0.0000 -0.9993 -0.0381
vn -0.0000 -0.9969 -0.0782
vn -0.0000 -0.9928 -0.1199
vn -0.0000 -0.9868 -0.1619
vn -0.0000 -0.9792 -0.2030
vn -0.0000 -0.9702 -0.2422
vn -0.0000 -0.9604 -0.2787
vn -0.0000 -0.9502 -0.3117
vn -0.0000 -0.9400 -0.3412
vn -0.0000 -0.9303 -0.3668
vn -0.0000 -0.9213 -0.3889
vn -0.0000 -0.8364 0.5482
vn -0.0000 0.5370 0.8436
vt 0.120145 0.714972
vt 0.163203 0.715083
vt 0.132921 0.715577
vt 0.107842 0.713990
vt 0.095963 0.712625
vt 0.191617 0.711658
vt 0.084460 0.710866
vt 0.073282 0.708706
vt 0.062381 0.706136
vt 0.218035 0.705412
vt 0.051706 0.703147
vt 0.041208 0.699730
vt 0.030838 0.695877
vt 0.242323 0.696455
vt 0.020546 0.691579
vt 0.010283 0.686827
vt 0.264351 0.684895
vt 0.000000 0.681613
vt 0.003072 0.586569
vt 0.014608 0.592039
vt 0.025594 0.596954
vt 0.036099 0.601336
vt 0.046195 0.605203
vt 0.055952 0.608576
vt 0.065440 0.611476
vt 0.283988 0.670842
vt 0.074729 0.613921
vt 0.083891 0.615932
vt 0.301101 0.654406
vt 0.092994 0.617529
vt 0.102111 0.618733
vt 0.111310 0.619562
vt 0.315559 0.635696
vt 0.120663 0.620038
vt 0.138520 0.619793
vt 0.327232 0.614821
vt 0.155251 0.617902
vt 0.170783 0.614417
vt 0.185043 0.609387
vt 0.335987 0.591891
vt 0.197959 0.602866
vt 0.209458 0.594902
vt 0.219467 0.585547
vt 0.341693 0.567016
vt 0.227914 0.574853
vt 0.234727 0.562869
vt 0.344218 0.540304
vt 0.239831 0.549647
vt 0.243155 0.535239
vt 0.344284 0.521558
vt 0.244626 0.519694
vt 0.244162 0.504361
vt 0.343201 0.504095
vt 0.241747 0.490074
vt 0.340927 0.487831
vt 0.237378 0.476875
vt 0.337424 0.472677
vt 0.231054 0.464806
vt 0.332652 0.458548
vt 0.222774 0.453910
vt 0.326570 0.445358
vt 0.212537 0.444230
vt 0.200341 0.435808
vt 0.319140 0.433019
vt 0.186185 0.428686
vt 0.310321 0.421445
vt 0.170067 0.422908
vt 0.151985 0.418516
vt 0.131940 0.415552
vt 0.300073 0.410549
vt 0.109929 0.414059
vt 0.112902 0.322081
vt 0.288357 0.400245
vt 0.275132 0.390447
vt 0.260360 0.381068
vt 0.277136 0.375204
vt 0.292385 0.367340
vt 0.306130 0.357658
vt 0.318394 0.346341
vt 0.329198 0.333570
vt 0.136659 0.322937
vt 0.338566 0.319527
vt 0.158443 0.321450
vt 0.178244 0.317766
vt 0.196055 0.312037
vt 0.346519 0.304394
vt 0.211867 0.304410
vt 0.225671 0.295034
vt 0.353081 0.288353
vt 0.237460 0.284058
vt 0.358274 0.271585
vt 0.247225 0.271632
vt 0.254957 0.257904
vt 0.362121 0.254274
vt 0.260649 0.243023
vt 0.364643 0.236599
vt 0.264291 0.227138
vt 0.365865 0.218744
vt 0.265876 0.210397
vt 0.364981 0.188330
vt 0.265500 0.194007
vt 0.263327 0.178610
vt 0.360437 0.159545
vt 0.259422 0.164280
vt 0.253849 0.151089
vt 0.352409 0.132565
vt 0.003501 0.035161
vt 0.013521 0.135359
vt 0.000000 0.143491
vt 0.246674 0.139111
vt 0.026939 0.127988
vt 0.237962 0.128419
vt 0.040262 0.121374
vt 0.341078 0.107568
vt 0.227778 0.119086
vt 0.053496 0.115513
vt 0.066650 0.110404
vt 0.216187 0.111185
vt 0.079729 0.106041
vt 0.203255 0.104790
vt 0.092742 0.102422
vt 0.105695 0.099544
vt 0.189046 0.099973
vt 0.326622 0.084728
vt 0.118596 0.097402
vt 0.173625 0.096808
vt 0.131453 0.095995
vt 0.144271 0.095318
vt 0.157058 0.095368
vt 0.309220 0.064224
vt 0.289052 0.046230
vt 0.266296 0.030923
vt 0.016218 0.029414
vt 0.028912 0.024146
vt 0.041577 0.019367
vt 0.241131 0.018480
vt 0.054203 0.015088
vt 0.066785 0.011319
vt 0.213737 0.009076
vt 0.079315 0.008071
vt 0.091785 0.005353
vt 0.104187 0.003177
vt 0.184293 0.002888
vt 0.116515 0.001552
vt 0.128761 0.000490
vt 0.152976 0.000093
vt 0.140917 -0.000000
vt 0.611585 0.714972
vt 0.598808 0.715577
vt 0.568527 0.715083
vt 0.623887 0.713990
vt 0.635766 0.712625
vt 0.540112 0.711658
vt 0.647269 0.710866
vt 0.658447 0.708706
vt 0.669349 0.706136
vt 0.513694 0.705412
vt 0.680024 0.703147
vt 0.690521 0.699730
vt 0.700891 0.695877
vt 0.489406 0.696455
vt 0.711183 0.691579
vt 0.721446 0.686827
vt 0.467378 0.684895
vt 0.731729 0.681613
vt 0.728657 0.586569
vt 0.717121 0.592039
vt 0.706136 0.596954
vt 0.695630 0.601336
vt 0.685534 0.605203
vt 0.675777 0.608576
vt 0.666289 0.611476
vt 0.447741 0.670842
vt 0.657000 0.613921
vt 0.647838 0.615932
vt 0.430628 0.654406
vt 0.638735 0.617529
vt 0.629618 0.618733
vt 0.620419 0.619562
vt 0.416170 0.635696
vt 0.611066 0.620038
vt 0.593209 0.619793
vt 0.404498 0.614821
vt 0.576478 0.617902
vt 0.560947 0.614417
vt 0.546686 0.609388
vt 0.395743 0.591891
vt 0.533770 0.602866
vt 0.522271 0.594902
vt 0.512262 0.585547
vt 0.390037 0.567016
vt 0.503815 0.574853
vt 0.497003 0.562869
vt 0.387511 0.540304
vt 0.491898 0.549648
vt 0.488574 0.535239
vt 0.387445 0.521558
vt 0.487103 0.519694
vt 0.487567 0.504361
vt 0.388529 0.504095
vt 0.489982 0.490074
vt 0.390802 0.487831
vt 0.494351 0.476875
vt 0.394305 0.472677
vt 0.500675 0.464806
vt 0.399077 0.458548
vt 0.508955 0.453910
vt 0.405159 0.445358
vt 0.519192 0.444230
vt 0.531388 0.435808
vt 0.412589 0.433019
vt 0.545545 0.428686
vt 0.421408 0.421445
vt 0.561663 0.422908
vt 0.579744 0.418516
vt 0.599789 0.415552
vt 0.431656 0.410549
vt 0.621800 0.414059
vt 0.618828 0.322081
vt 0.443372 0.400245
vt 0.456597 0.390447
vt 0.471369 0.381068
vt 0.454593 0.375204
vt 0.439344 0.367340
vt 0.425599 0.357658
vt 0.413335 0.346341
vt 0.402531 0.333570
vt 0.595070 0.322937
vt 0.393163 0.319527
vt 0.573286 0.321450
vt 0.553485 0.317766
vt 0.535674 0.312037
vt 0.385210 0.304394
vt 0.519862 0.304410
vt 0.506058 0.295034
vt 0.378648 0.288353
vt 0.494269 0.284058
vt 0.373455 0.271585
vt 0.484504 0.271632
vt 0.476772 0.257904
vt 0.369608 0.254274
vt 0.471081 0.243023
vt 0.367086 0.236599
vt 0.467438 0.227138
vt 0.365865 0.218744
vt 0.465853 0.210397
vt 0.366748 0.188330
vt 0.466229 0.194007
vt 0.468402 0.178610
vt 0.371293 0.159545
vt 0.472308 0.164280
vt 0.477880 0.151089
vt 0.379320 0.132565
vt 0.728228 0.035161
vt 0.731729 0.143491
vt 0.718208 0.135359
vt 0.485055 0.139111
vt 0.704790 0.127988
vt 0.493767 0.128419
vt 0.691467 0.121374
vt 0.390652 0.107568
vt 0.503951 0.119086
vt 0.678233 0.115514
vt 0.665079 0.110404
vt 0.515542 0.111185
vt 0.652000 0.106041
vt 0.528475 0.104790
vt 0.638987 0.102422
vt 0.626034 0.099544
vt 0.542684 0.099973
vt 0.405108 0.084729
vt 0.613133 0.097402
vt 0.558104 0.096809
vt 0.600277 0.095995
vt 0.587458 0.095318
vt 0.574671 0.095368
vt 0.422509 0.064224
vt 0.442677 0.046230
vt 0.465433 0.030923
vt 0.715511 0.029414
vt 0.702817 0.024146
vt 0.690153 0.019367
vt 0.490598 0.018480
vt 0.677526 0.015088
vt 0.664944 0.011319
vt 0.517992 0.009076
vt 0.652414 0.008071
vt 0.639945 0.005353
vt 0.627542 0.003177
vt 0.547437 0.002889
vt 0.615214 0.001552
vt 0.602968 0.000490
vt 0.578753 0.000093
vt 0.590812 0.000000
vt 0.731729 0.596071
vt 0.731729 0.585810
vt 0.874881 0.585810
vt 0.874881 0.596071
vt 0.731729 0.575520
vt 0.874881 0.575520
vt 0.731729 0.565151
vt 0.874881 0.565151
vt 0.731729 0.554654
vt 0.874881 0.554654
vt 0.731729 0.543980
vt 0.874881 0.543980
vt 0.731729 0.533079
vt 0.874881 0.533079
vt 0.731729 0.521902
vt 0.874881 0.521902
vt 0.731729 0.510399
vt 0.874881 0.510399
vt 0.731729 0.498521
vt 0.874881 0.498521
vt 0.731729 0.486218
vt 0.874881 0.486218
vt 0.731729 0.473442
vt 0.874881 0.473442
vt 0.731729 0.443160
vt 0.874881 0.443160
vt 0.731729 0.414744
vt 0.874881 0.414744
vt 0.731729 0.388325
vt 0.874881 0.388325
vt 0.731729 0.364034
vt 0.874881 0.364034
vt 0.731729 0.342003
vt 0.874881 0.342003
vt 0.731729 0.322363
vt 0.874881 0.322363
vt 0.731729 0.305245
vt 0.874881 0.305245
vt 0.000000 0.959415
vt 0.000000 0.940961
vt 0.143152 0.940961
vt 0.143152 0.959415
vt 0.000000 0.920294
vt 0.143152 0.920294
vt 0.000000 0.897521
vt 0.143152 0.897521
vt 0.000000 0.872750
vt 0.143152 0.872750
vt 0.000000 0.846086
vt 0.143152 0.846086
vt 0.000000 0.827343
vt 0.143152 0.827344
vt 0.000000 0.809865
vt 0.143152 0.809865
vt 0.000000 0.793563
vt 0.143152 0.793563
vt 0.000000 0.778350
vt 0.143152 0.778350
vt 0.000000 0.764140
vt 0.143152 0.764140
vt 0.000000 0.750845
vt 0.143152 0.750845
vt 0.000000 0.738378
vt 0.143152 0.738378
vt 0.000000 0.726651
vt 0.143152 0.726651
vt 0.000000 0.715577
vt 0.143152 0.715577
vt 0.932925 0.715759
vt 0.944484 0.715759
vt 0.944484 0.858911
vt 0.932925 0.858911
vt 0.957559 0.715759
vt 0.957559 0.858911
vt 0.972188 0.715759
vt 0.972188 0.858911
vt 0.874881 0.715759
vt 0.891659 0.715759
vt 0.891659 0.858911
vt 0.874881 0.858911
vt 0.906910 0.715759
vt 0.906910 0.858911
vt 0.920658 0.715759
vt 0.920658 0.858911
vt 0.932925 0.715759
vt 0.932925 0.858911
vt 0.731729 0.888588
vt 0.731729 0.876008
vt 0.874881 0.876008
vt 0.874881 0.888588
vt 0.731729 0.862132
vt 0.874881 0.862132
vt 0.731729 0.847140
vt 0.874881 0.847140
vt 0.731729 0.831216
vt 0.874881 0.831216
vt 0.731729 0.814543
vt 0.874881 0.814543
vt 0.731729 0.797301
vt 0.874881 0.797301
vt 0.731729 0.779673
vt 0.874881 0.779673
vt 0.731729 0.761842
vt 0.874881 0.761842
vt 0.731729 0.731417
vt 0.874881 0.731417
vt 0.731729 0.702557
vt 0.874881 0.702557
vt 0.731729 0.675441
vt 0.874881 0.675441
vt 0.731729 0.650249
vt 0.874881 0.650249
vt 0.731729 0.627160
vt 0.874881 0.627160
vt 0.731729 0.606353
vt 0.874881 0.606353
vt 0.731729 0.305245
vt 0.731729 0.285351
vt 0.874881 0.285351
vt 0.874881 0.305245
vt 0.731729 0.262829
vt 0.874881 0.262829
vt 0.731729 0.237855
vt 0.874881 0.237855
vt 0.731729 0.210606
vt 0.874881 0.210606
vt 0.731729 0.181258
vt 0.874881 0.181258
vt 0.731729 0.149988
vt 0.874881 0.149988
vt 0.731729 0.137932
vt 0.874881 0.137932
vt 0.731729 0.125769
vt 0.874881 0.125769
vt 0.731729 0.113509
vt 0.874881 0.113509
vt 0.731729 0.101158
vt 0.874881 0.101158
vt 0.731729 0.088724
vt 0.874881 0.088724
vt 0.731729 0.076214
vt 0.874881 0.076214
vt 0.731729 0.063637
vt 0.874881 0.063637
vt 0.731729 0.051000
vt 0.874881 0.051000
vt 0.731729 0.038310
vt 0.874881 0.038310
vt 0.731729 0.025575
vt 0.874881 0.025575
vt 0.731729 0.012802
vt 0.874881 0.012802
vt 0.731729 0.000000
vt 0.874881 0.000000
vt 0.874881 0.286303
vt 0.983232 0.286303
vt 0.983232 0.429455
vt 0.874881 0.429455
vt 0.143152 0.953543
vt 0.143152 0.940020
vt 0.286304 0.940020
vt 0.286304 0.953543
vt 0.143152 0.926600
vt 0.286304 0.926600
vt 0.143152 0.913275
vt 0.286304 0.913275
vt 0.143152 0.900039
vt 0.286304 0.900039
vt 0.143152 0.886884
vt 0.286304 0.886884
vt 0.143152 0.873804
vt 0.286304 0.873804
vt 0.143152 0.860790
vt 0.286304 0.860790
vt 0.143152 0.847836
vt 0.286304 0.847836
vt 0.143152 0.834934
vt 0.286304 0.834934
vt 0.143152 0.822078
vt 0.286304 0.822078
vt 0.143152 0.809259
vt 0.286304 0.809259
vt 0.143152 0.796471
vt 0.286304 0.796471
vt 0.143152 0.779905
vt 0.286304 0.779905
vt 0.143152 0.764486
vt 0.286304 0.764486
vt 0.143152 0.750278
vt 0.286304 0.750278
vt 0.143152 0.737347
vt 0.286304 0.737347
vt 0.143152 0.725759
vt 0.286304 0.725759
vt 0.143152 0.715577
vt 0.286304 0.715577
vt 0.429455 0.871217
vt 0.429455 0.860585
vt 0.572607 0.860585
vt 0.572607 0.871217
vt 0.429455 0.848657
vt 0.572607 0.848657
vt 0.429455 0.835505
vt 0.572607 0.835505
vt 0.429455 0.821202
vt 0.572607 0.821202
vt 0.429455 0.805820
vt 0.572607 0.805820
vt 0.429455 0.789433
vt 0.572607 0.789433
vt 0.429455 0.772682
vt 0.572607 0.772682
vt 0.429455 0.756772
vt 0.572607 0.756772
vt 0.429455 0.741852
vt 0.572607 0.741852
vt 0.429455 0.728071
vt 0.572607 0.728071
vt 0.429455 0.715577
vt 0.572607 0.715577
vt 0.874881 0.000000
vt 0.886834 0.000000
vt 0.886834 0.143152
vt 0.874881 0.143152
vt 0.900779 0.000000
vt 0.900779 0.143152
vt 0.916704 0.000000
vt 0.916704 0.143152
vt 0.934600 0.000000
vt 0.934600 0.143152
vt 0.954454 0.000000
vt 0.954454 0.143152
vt 0.976258 0.000000
vt 0.976258 0.143152
vt 1.000000 0.000000
vt 1.000000 0.143152
vt 0.874881 0.572607
vt 0.966877 0.572607
vt 0.966877 0.715759
vt 0.896892 0.143152
vt 0.896892 0.286304
vt 0.874881 0.286304
vt 0.916936 0.143152
vt 0.916936 0.286304
vt 0.935016 0.143152
vt 0.935016 0.286304
vt 0.951133 0.143152
vt 0.951133 0.286304
vt 0.965287 0.143152
vt 0.965287 0.286304
vt 0.977481 0.143152
vt 0.977481 0.286304
vt 0.987715 0.143152
vt 0.987715 0.286304
vt 0.572607 0.715577
vt 0.583446 0.715577
vt 0.583446 0.858729
vt 0.572607 0.858729
vt 0.595470 0.715577
vt 0.595470 0.858729
vt 0.608639 0.715577
vt 0.608639 0.858729
vt 0.622909 0.715577
vt 0.622909 0.858729
vt 0.638238 0.715577
vt 0.638238 0.858729
vt 0.653793 0.715577
vt 0.653793 0.858729
vt 0.668224 0.715577
vt 0.668224 0.858729
vt 0.681481 0.715577
vt 0.681481 0.858729
vt 0.693511 0.715577
vt 0.693511 0.858729
vt 0.704264 0.715577
vt 0.704264 0.858729
vt 0.286304 0.931964
vt 0.286304 0.921814
vt 0.429455 0.921814
vt 0.429455 0.931964
vt 0.286304 0.910196
vt 0.429455 0.910196
vt 0.286304 0.897183
vt 0.429455 0.897183
vt 0.286304 0.882848
vt 0.429455 0.882848
vt 0.286304 0.867266
vt 0.429455 0.867266
vt 0.286304 0.850508
vt 0.429455 0.850508
vt 0.286304 0.832650
vt 0.429455 0.832650
vt 0.286304 0.823305
vt 0.429455 0.823305
vt 0.286304 0.814119
vt 0.429455 0.814119
vt 0.286304 0.805022
vt 0.429455 0.805022
vt 0.286304 0.795943
vt 0.429455 0.795943
vt 0.286304 0.786813
vt 0.429455 0.786813
vt 0.286304 0.777562
vt 0.429455 0.777562
vt 0.286304 0.768119
vt 0.429455 0.768119
vt 0.286304 0.758414
vt 0.429455 0.758414
vt 0.286304 0.748378
vt 0.429455 0.748378
vt 0.286304 0.737940
vt 0.429455 0.737940
vt 0.286304 0.727030
vt 0.429455 0.727030
vt 0.286304 0.715577
vt 0.429455 0.715577
vt 0.874881 0.429455
vt 0.969944 0.429455
vt 0.969944 0.572607
vt 0.731729 0.606353
vt 0.874881 0.606353
s 0
f 11/1/1 13/2/1 12/3/1
f 10/4/1 13/2/1 11/1/1
f 9/5/1 13/2/1 10/4/1
f 9/5/1 14/6/1 13/2/1
f 8/7/1 14/6/1 9/5/1
f 7/8/1 14/6/1 8/7/1
f 6/9/1 14/6/1 7/8/1
f 6/9/1 15/10/1 14/6/1
f 5/11/1 15/10/1 6/9/1
f 4/12/1 15/10/1 5/11/1
f 3/13/1 15/10/1 4/12/1
f 3/13/1 16/14/1 15/10/1
f 2/15/1 16/14/1 3/13/1
f 1/16/1 16/14/1 2/15/1
f 1/16/1 17/17/1 16/14/1
f 147/18/1 17/17/1 1/16/1
f 146/19/1 145/20/1 147/18/1
f 145/20/1 144/21/1 147/18/1
f 144/21/1 143/22/1 147/18/1
f 143/22/1 142/23/1 147/18/1
f 142/23/1 17/17/1 147/18/1
f 142/23/1 141/24/1 17/17/1
f 141/24/1 140/25/1 17/17/1
f 140/25/1 18/26/1 17/17/1
f 140/25/1 139/27/1 18/26/1
f 139/27/1 138/28/1 18/26/1
f 138/28/1 19/29/1 18/26/1
f 138/28/1 137/30/1 19/29/1
f 137/30/1 136/31/1 19/29/1
f 136/31/1 135/32/1 19/29/1
f 135/32/1 20/33/1 19/29/1
f 135/32/1 134/34/1 20/33/1
f 134/34/1 133/35/1 20/33/1
f 133/35/1 21/36/1 20/33/1
f 132/37/1 21/36/1 133/35/1
f 131/38/1 21/36/1 132/37/1
f 130/39/1 21/36/1 131/38/1
f 130/39/1 22/40/1 21/36/1
f 129/41/1 22/40/1 130/39/1
f 128/42/1 22/40/1 129/41/1
f 127/43/1 22/40/1 128/42/1
f 127/43/1 23/44/1 22/40/1
f 126/45/1 23/44/1 127/43/1
f 125/46/1 23/44/1 126/45/1
f 125/46/1 24/47/1 23/44/1
f 124/48/1 24/47/1 125/46/1
f 123/49/1 24/47/1 124/48/1
f 123/49/1 25/50/1 24/47/1
f 122/51/1 25/50/1 123/49/1
f 121/52/1 25/50/1 122/51/1
f 121/52/1 26/53/1 25/50/1
f 120/54/1 26/53/1 121/52/1
f 120/54/1 27/55/1 26/53/1
f 119/56/1 27/55/1 120/54/1
f 119/56/1 28/57/1 27/55/1
f 118/58/1 28/57/1 119/56/1
f 118/58/1 29/59/1 28/57/1
f 117/60/1 29/59/1 118/58/1
f 117/60/1 30/61/1 29/59/1
f 116/62/1 30/61/1 117/60/1
f 115/63/1 30/61/1 116/62/1
f 115/63/1 31/64/1 30/61/1
f 114/65/1 31/64/1 115/63/1
f 114/65/1 32/66/1 31/64/1
f 113/67/1 32/66/1 114/65/1
f 112/68/1 32/66/1 113/67/1
f 111/69/1 32/66/1 112/68/1
f 111/69/1 33/70/1 32/66/1
f 110/71/1 33/70/1 111/69/1
f 109/72/1 33/70/1 110/71/1
f 109/72/1 34/73/1 33/70/1
f 109/72/1 35/74/1 34/73/1
f 109/72/1 36/75/1 35/74/1
f 109/72/1 37/76/1 36/75/1
f 109/72/1 38/77/1 37/76/1
f 109/72/1 39/78/1 38/77/1
f 109/72/1 40/79/1 39/78/1
f 109/72/1 41/80/1 40/79/1
f 109/72/1 108/81/1 41/80/1
f 108/81/1 42/82/1 41/80/1
f 107/83/1 42/82/1 108/81/1
f 106/84/1 42/82/1 107/83/1
f 105/85/1 42/82/1 106/84/1
f 105/85/1 43/86/1 42/82/1
f 104/87/1 43/86/1 105/85/1
f 103/88/1 43/86/1 104/87/1
f 103/88/1 44/89/1 43/86/1
f 102/90/1 44/89/1 103/88/1
f 102/90/1 45/91/1 44/89/1
f 101/92/1 45/91/1 102/90/1
f 100/93/1 45/91/1 101/92/1
f 100/93/1 46/94/1 45/91/1
f 99/95/1 46/94/1 100/93/1
f 99/95/1 47/96/1 46/94/1
f 98/97/1 47/96/1 99/95/1
f 98/97/1 48/98/1 47/96/1
f 97/99/1 48/98/1 98/97/1
f 97/99/1 49/100/1 48/98/1
f 96/101/1 49/100/1 97/99/1
f 95/102/1 49/100/1 96/101/1
f 95/102/1 50/103/1 49/100/1
f 94/104/1 50/103/1 95/102/1
f 93/105/1 50/103/1 94/104/1
f 93/105/1 51/106/1 50/103/1
f 72/107/1 74/108/1 73/109/1
f 92/110/1 51/106/1 93/105/1
f 72/107/1 75/111/1 74/108/1
f 91/112/1 51/106/1 92/110/1
f 72/107/1 76/113/1 75/111/1
f 91/112/1 52/114/1 51/106/1
f 90/115/1 52/114/1 91/112/1
f 72/107/1 77/116/1 76/113/1
f 72/107/1 78/117/1 77/116/1
f 89/118/1 52/114/1 90/115/1
f 72/107/1 79/119/1 78/117/1
f 88/120/1 52/114/1 89/118/1
f 72/107/1 80/121/1 79/119/1
f 72/107/1 81/122/1 80/121/1
f 87/123/1 52/114/1 88/120/1
f 87/123/1 53/124/1 52/114/1
f 72/107/1 82/125/1 81/122/1
f 86/126/1 53/124/1 87/123/1
f 72/107/1 83/127/1 82/125/1
f 72/107/1 84/128/1 83/127/1
f 85/129/1 53/124/1 86/126/1
f 72/107/1 85/129/1 84/128/1
f 72/107/1 53/124/1 85/129/1
f 72/107/1 54/130/1 53/124/1
f 72/107/1 55/131/1 54/130/1
f 72/107/1 56/132/1 55/131/1
f 71/133/1 56/132/1 72/107/1
f 70/134/1 56/132/1 71/133/1
f 69/135/1 56/132/1 70/134/1
f 69/135/1 57/136/1 56/132/1
f 68/137/1 57/136/1 69/135/1
f 67/138/1 57/136/1 68/137/1
f 67/138/1 58/139/1 57/136/1
f 66/140/1 58/139/1 67/138/1
f 65/141/1 58/139/1 66/140/1
f 64/142/1 58/139/1 65/141/1
f 64/142/1 59/143/1 58/139/1
f 63/144/1 59/143/1 64/142/1
f 62/145/1 59/143/1 63/144/1
f 62/145/1 60/146/1 59/143/1
f 61/147/1 60/146/1 62/145/1
f 158/148/2 159/149/2 160/150/2
f 157/151/2 158/148/2 160/150/2
f 156/152/2 157/151/2 160/150/2
f 156/152/2 160/150/2 161/153/2
f 155/154/2 156/152/2 161/153/2
f 154/155/2 155/154/2 161/153/2
f 153/156/2 154/155/2 161/153/2
f 153/156/2 161/153/2 162/157/2
f 152/158/2 153/156/2 162/157/2
f 151/159/2 152/158/2 162/157/2
f 150/160/2 151/159/2 162/157/2
f 150/160/2 162/157/2 163/161/2
f 149/162/2 150/160/2 163/161/2
f 148/163/2 149/162/2 163/161/2
f 148/163/2 163/161/2 164/164/2
f 294/165/2 148/163/2 164/164/2
f 293/166/2 294/165/2 292/167/2
f 292/167/2 294/165/2 291/168/2
f 291/168/2 294/165/2 290/169/2
f 290/169/2 294/165/2 289/170/2
f 289/170/2 294/165/2 164/164/2
f 289/170/2 164/164/2 288/171/2
f 288/171/2 164/164/2 287/172/2
f 287/172/2 164/164/2 165/173/2
f 287/172/2 165/173/2 286/174/2
f 286/174/2 165/173/2 285/175/2
f 285/175/2 165/173/2 166/176/2
f 285/175/2 166/176/2 284/177/2
f 284/177/2 166/176/2 283/178/2
f 283/178/2 166/176/2 282/179/2
f 282/179/2 166/176/2 167/180/2
f 282/179/2 167/180/2 281/181/2
f 281/181/2 167/180/2 280/182/2
f 280/182/2 167/180/2 168/183/2
f 279/184/2 280/182/2 168/183/2
f 278/185/2 279/184/2 168/183/2
f 277/186/2 278/185/2 168/183/2
f 277/186/2 168/183/2 169/187/2
f 276/188/2 277/186/2 169/187/2
f 275/189/2 276/188/2 169/187/2
f 274/190/2 275/189/2 169/187/2
f 274/190/2 169/187/2 170/191/2
f 273/192/2 274/190/2 170/191/2
f 272/193/2 273/192/2 170/191/2
f 272/193/2 170/191/2 171/194/2
f 271/195/2 272/193/2 171/194/2
f 270/196/2 271/195/2 171/194/2
f 270/196/2 171/194/2 172/197/2
f 269/198/2 270/196/2 172/197/2
f 268/199/2 269/198/2 172/197/2
f 268/199/2 172/197/2 173/200/2
f 267/201/2 268/199/2 173/200/2
f 267/201/2 173/200/2 174/202/2
f 266/203/2 267/201/2 174/202/2
f 266/203/2 174/202/2 175/204/2
f 265/205/2 266/203/2 175/204/2
f 265/205/2 175/204/2 176/206/2
f 264/207/2 265/205/2 176/206/2
f 264/207/2 176/206/2 177/208/2
f 263/209/2 264/207/2 177/208/2
f 262/210/2 263/209/2 177/208/2
f 262/210/2 177/208/2 178/211/2
f 261/212/2 262/210/2 178/211/2
f 261/212/2 178/211/2 179/213/2
f 260/214/2 261/212/2 179/213/2
f 259/215/2 260/214/2 179/213/2
f 258/216/2 259/215/2 179/213/2
f 258/216/2 179/213/2 180/217/2
f 257/218/2 258/216/2 180/217/2
f 256/219/2 257/218/2 180/217/2
f 256/219/2 180/217/2 181/220/2
f 256/219/2 181/220/2 182/221/2
f 256/219/2 182/221/2 183/222/2
f 256/219/2 183/222/2 184/223/2
f 256/219/2 184/223/2 185/224/2
f 256/219/2 185/224/2 186/225/2
f 256/219/2 186/225/2 187/226/2
f 256/219/2 187/226/2 188/227/2
f 256/219/2 188/227/2 255/228/2
f 255/228/2 188/227/2 189/229/2
f 254/230/2 255/228/2 189/229/2
f 253/231/2 254/230/2 189/229/2
f 252/232/2 253/231/2 189/229/2
f 252/232/2 189/229/2 190/233/2
f 251/234/2 252/232/2 190/233/2
f 250/235/2 251/234/2 190/233/2
f 250/235/2 190/233/2 191/236/2
f 249/237/2 250/235/2 191/236/2
f 249/237/2 191/236/2 192/238/2
f 248/239/2 249/237/2 192/238/2
f 247/240/2 248/239/2 192/238/2
f 247/240/2 192/238/2 193/241/2
f 246/242/2 247/240/2 193/241/2
f 246/242/2 193/241/2 194/243/2
f 245/244/2 246/242/2 194/243/2
f 245/244/2 194/243/2 195/245/2
f 244/246/2 245/244/2 195/245/2
f 244/246/2 195/245/2 196/247/2
f 243/248/2 244/246/2 196/247/2
f 242/249/2 243/248/2 196/247/2
f 242/249/2 196/247/2 197/250/2
f 241/251/2 242/249/2 197/250/2
f 240/252/2 241/251/2 197/250/2
f 240/252/2 197/250/2 198/253/2
f 219/254/2 220/255/2 221/256/2
f 239/257/2 240/252/2 198/253/2
f 219/254/2 221/256/2 222/258/2
f 238/259/2 239/257/2 198/253/2
f 219/254/2 222/258/2 223/260/2
f 238/259/2 198/253/2 199/261/2
f 237/262/2 238/259/2 199/261/2
f 219/254/2 223/260/2 224/263/2
f 219/254/2 224/263/2 225/264/2
f 236/265/2 237/262/2 199/261/2
f 219/254/2 225/264/2 226/266/2
f 235/267/2 236/265/2 199/261/2
f 219/254/2 226/266/2 227/268/2
f 219/254/2 227/268/2 228/269/2
f 234/270/2 235/267/2 199/261/2
f 234/270/2 199/261/2 200/271/2
f 219/254/2 228/269/2 229/272/2
f 233/273/2 234/270/2 200/271/2
f 219/254/2 229/272/2 230/274/2
f 219/254/2 230/274/2 231/275/2
f 232/276/2 233/273/2 200/271/2
f 219/254/2 231/275/2 232/276/2
f 219/254/2 232/276/2 200/271/2
f 219/254/2 200/271/2 201/277/2
f 219/254/2 201/277/2 202/278/2
f 219/254/2 202/278/2 203/279/2
f 218/280/2 219/254/2 203/279/2
f 217/281/2 218/280/2 203/279/2
f 216/282/2 217/281/2 203/279/2
f 216/282/2 203/279/2 204/283/2
f 215/284/2 216/282/2 204/283/2
f 214/285/2 215/284/2 204/283/2
f 214/285/2 204/283/2 205/286/2
f 213/287/2 214/285/2 205/286/2
f 212/288/2 213/287/2 205/286/2
f 211/289/2 212/288/2 205/286/2
f 211/289/2 205/286/2 206/290/2
f 210/291/2 211/289/2 206/290/2
f 209/292/2 210/291/2 206/290/2
f 209/292/2 206/290/2 207/293/2
f 208/294/2 209/292/2 207/293/2
s 1
f 296/295/3 298/296/4 297/297/4 295/298/3
f 298/296/4 300/299/5 299/300/5 297/297/4
f 300/299/5 302/301/6 301/302/6 299/300/5
f 302/301/6 304/303/7 303/304/7 301/302/6
f 304/303/7 306/305/8 305/306/8 303/304/7
f 306/305/8 308/307/9 307/308/9 305/306/8
f 308/307/9 310/309/10 309/310/10 307/308/9
f 310/309/10 312/311/11 311/312/11 309/310/10
f 312/311/11 314/313/12 313/314/12 311/312/11
f 314/313/12 316/315/13 315/316/13 313/314/12
f 316/315/13 318/317/14 317/318/14 315/316/13
f 318/317/14 320/319/15 319/320/15 317/318/14
f 320/319/15 322/321/16 321/322/16 319/320/15
f 322/321/16 324/323/17 323/324/17 321/322/16
f 324/323/17 326/325/18 325/326/18 323/324/17
f 326/325/18 328/327/19 327/328/19 325/326/18
f 328/327/19 330/329/20 329/330/20 327/328/19
f 330/329/20 332/331/21 331/332/21 329/330/20
f 332/333/21 334/334/22 333/335/22 331/336/21
f 334/334/22 336/337/23 335/338/23 333/335/22
f 336/337/23 338/339/24 337/340/24 335/338/23
f 338/339/24 340/341/25 339/342/25 337/340/24
f 340/341/25 342/343/26 341/344/26 339/342/25
f 342/343/26 344/345/27 343/346/27 341/344/26
f 344/345/27 346/347/28 345/348/28 343/346/27
f 346/347/28 348/349/29 347/350/29 345/348/28
f 348/349/29 350/351/30 349/352/30 347/350/29
f 350/351/30 352/353/31 351/354/31 349/352/30
f 352/353/31 354/355/32 353/356/32 351/354/31
f 354/355/32 356/357/33 355/358/33 353/356/32
f 356/357/33 358/359/34 357/360/34 355/358/33
f 358/359/34 360/361/35 359/362/35 357/360/34
f 360/363/35 362/364/36 361/365/36 359/366/35
f 362/364/36 364/367/37 363/368/37 361/365/36
f 364/367/37 366/369/38 365/370/38 363/368/37
f 366/371/38 368/372/39 367/373/39 365/374/38
f 368/372/39 370/375/40 369/376/40 367/373/39
f 370/375/40 372/377/41 371/378/41 369/376/40
f 372/377/41 374/379/42 373/380/42 371/378/41
f 374/381/42 376/382/43 375/383/43 373/384/42
f 376/382/43 378/385/44 377/386/44 375/383/43
f 378/385/44 380/387/45 379/388/45 377/386/44
f 380/387/45 382/389/46 381/390/46 379/388/45
f 382/389/46 384/391/47 383/392/47 381/390/46
f 384/391/47 386/393/48 385/394/48 383/392/47
f 386/393/48 388/395/49 387/396/49 385/394/48
f 388/395/49 390/397/50 389/398/50 387/396/49
f 390/397/50 392/399/51 391/400/51 389/398/50
f 392/399/51 394/401/52 393/402/52 391/400/51
f 394/401/52 396/403/53 395/404/53 393/402/52
f 396/403/53 398/405/54 397/406/54 395/404/53
f 398/405/54 400/407/55 399/408/55 397/406/54
f 400/407/55 402/409/56 401/410/56 399/408/55
f 402/411/56 404/412/57 403/413/57 401/414/56
f 404/412/57 406/415/58 405/416/58 403/413/57
f 406/415/58 408/417/59 407/418/59 405/416/58
f 408/417/59 410/419/60 409/420/60 407/418/59
f 410/419/60 412/421/61 411/422/61 409/420/60
f 412/421/61 414/423/62 413/424/62 411/422/61
f 414/423/62 416/425/63 415/426/63 413/424/62
f 416/425/63 418/427/64 417/428/64 415/426/63
f 418/427/64 420/429/65 419/430/65 417/428/64
f 420/429/65 422/431/66 421/432/66 419/430/65
f 422/431/66 424/433/67 423/434/67 421/432/66
f 424/433/67 426/435/68 425/436/68 423/434/67
f 426/435/68 428/437/69 427/438/69 425/436/68
f 428/437/69 430/439/70 429/440/70 427/438/69
f 430/439/70 432/441/71 431/442/71 429/440/70
f 432/441/71 434/443/72 433/444/72 431/442/71
f 434/443/72 436/445/73 435/446/73 433/444/72
f 436/445/73 438/447/74 437/448/74 435/446/73
f 438/449/74 440/450/75 439/451/75 437/452/74
f 440/453/75 442/454/76 441/455/76 439/456/75
f 442/454/76 444/457/77 443/458/77 441/455/76
f 444/457/77 446/459/78 445/460/78 443/458/77
f 446/459/78 448/461/79 447/462/79 445/460/78
f 448/461/79 450/463/80 449/464/80 447/462/79
f 450/463/80 452/465/81 451/466/81 449/464/80
f 452/465/81 454/467/82 453/468/82 451/466/81
f 454/467/82 456/469/83 455/470/83 453/468/82
f 456/469/83 458/471/84 457/472/84 455/470/83
f 458/471/84 460/473/85 459/474/85 457/472/84
f 460/473/85 462/475/86 461/476/86 459/474/85
f 462/475/86 464/477/87 463/478/87 461/476/86
f 464/477/87 466/479/88 465/480/88 463/478/87
f 466/479/88 468/481/89 467/482/89 465/480/88
f 468/481/89 470/483/90 469/484/90 467/482/89
f 470/483/90 472/485/91 471/486/91 469/484/90
f 472/485/91 474/487/92 473/488/92 471/486/91
f 474/487/92 476/489/93 475/490/93 473/488/92
f 476/491/93 478/492/94 477/493/94 475/494/93
f 478/492/94 480/495/95 479/496/95 477/493/94
f 480/495/95 482/497/96 481/498/96 479/496/95
f 482/497/96 484/499/97 483/500/97 481/498/96
f 484/499/97 486/501/98 485/502/98 483/500/97
f 486/501/98 488/503/99 487/504/99 485/502/98
f 488/503/99 490/505/100 489/506/100 487/504/99
f 490/505/100 492/507/101 491/508/101 489/506/100
f 492/507/101 494/509/102 493/510/102 491/508/101
f 494/509/102 496/511/103 495/512/103 493/510/102
f 496/511/103 498/513/104 497/514/104 495/512/103
f 498/515/104 500/516/105 499/517/105 497/518/104
f 500/516/105 502/519/106 501/520/106 499/517/105
f 502/519/106 504/521/107 503/522/107 501/520/106
f 504/521/107 506/523/108 505/524/108 503/522/107
f 506/523/108 508/525/109 507/526/109 505/524/108
f 508/525/109 510/527/110 509/528/110 507/526/109
f 510/527/110 512/529/111 511/530/111 509/528/110
f 512/531/111 514/532/112 513/533/112 511/371/111
f 514/518/112 516/534/113 515/535/113 513/536/112
f 516/534/113 518/537/114 517/538/114 515/535/113
f 518/537/114 520/539/115 519/540/115 517/538/114
f 520/539/115 522/541/116 521/542/116 519/540/115
f 522/541/116 524/543/117 523/544/117 521/542/116
f 524/543/117 526/545/118 525/546/118 523/544/117
f 526/545/118 528/547/119 527/548/119 525/546/118
f 528/549/119 530/550/120 529/551/120 527/552/119
f 530/550/120 532/553/121 531/554/121 529/551/120
f 532/553/121 534/555/122 533/556/122 531/554/121
f 534/555/122 536/557/123 535/558/123 533/556/122
f 536/557/123 538/559/124 537/560/124 535/558/123
f 538/559/124 540/561/125 539/562/125 537/560/124
f 540/561/125 542/563/126 541/564/126 539/562/125
f 542/563/126 544/565/127 543/566/127 541/564/126
f 544/565/127 546/567/128 545/568/128 543/566/127
f 546/567/128 548/569/129 547/570/129 545/568/128
f 548/571/129 550/572/130 549/573/130 547/574/129
f 550/572/130 552/575/131 551/576/131 549/573/130
f 552/575/131 554/577/132 553/578/132 551/576/131
f 554/577/132 556/579/133 555/580/133 553/578/132
f 556/579/133 558/581/134 557/582/134 555/580/133
f 558/581/134 560/583/135 559/584/135 557/582/134
f 560/583/135 562/585/136 561/586/136 559/584/135
f 562/585/136 564/587/137 563/588/137 561/586/136
f 564/587/137 566/589/138 565/590/138 563/588/137
f 566/589/138 568/591/139 567/592/139 565/590/138
f 568/591/139 570/593/140 569/594/140 567/592/139
f 570/593/140 572/595/141 571/596/141 569/594/140
f 572/595/141 574/597/142 573/598/142 571/596/141
f 574/597/142 576/599/143 575/600/143 573/598/142
f 576/599/143 578/601/144 577/602/144 575/600/143
f 578/601/144 580/603/145 579/604/145 577/602/144
f 580/603/145 582/605/146 581/606/146 579/604/145
f 582/605/146 584/607/147 583/608/147 581/606/146
f 584/607/147 586/609/148 585/610/148 583/608/147
f 586/611/148 588/612/149 587/613/149 585/531/148
f 588/614/149 296/295/3 295/298/3 587/615/149
