# Blender 4.3.1
# www.blender.org
mtllib ufo.mtl
o Cube
v -0.385073 -0.172577 0.385073
v -0.385073 0.172577 0.385073
v -0.385073 -0.172577 -0.385073
v -0.385073 0.172577 -0.385073
v 0.385073 -0.172577 0.385073
v 0.385073 0.172577 0.385073
v 0.385073 -0.172577 -0.385073
v 0.385073 0.172577 -0.385073
v -0.513168 -0.172577 -0.171056
v -0.513168 -0.172577 0.171056
v -0.917905 -0.058215 0.917905
v -0.917905 0.058215 0.917905
v -0.513168 0.172577 0.171056
v -0.513168 0.172577 -0.171056
v -0.917905 0.058215 -0.917905
v -0.917905 -0.058215 -0.917905
v 0.171056 -0.172577 -0.513168
v -0.171056 -0.172577 -0.513168
v -0.171056 0.172577 -0.513168
v 0.171056 0.172577 -0.513168
v 0.917905 0.058215 -0.917905
v 0.917905 -0.058215 -0.917905
v 0.513168 -0.172577 0.171056
v 0.513168 -0.172577 -0.171056
v 0.513168 0.172577 -0.171056
v 0.513168 0.172577 0.171056
v 0.917905 0.058215 0.917905
v 0.917905 -0.058215 0.917905
v -0.171056 -0.172577 0.513168
v 0.171056 -0.172577 0.513168
v 0.171056 0.172577 0.513168
v -0.171056 0.172577 0.513168
v 0.420297 0.262621 -0.420297
v 0.187961 0.262555 -0.563884
v -0.420297 0.262621 -0.420297
v -0.563884 0.262555 -0.187961
v 0.410187 -0.058215 1.230560
v -0.410187 -0.058215 1.230560
v 0.410187 0.058215 1.230560
v -0.410187 0.058215 1.230560
v 1.230560 -0.058215 -0.410187
v 1.230560 -0.058215 0.410187
v 1.230560 0.058215 -0.410187
v 1.230560 0.058215 0.410187
v -0.410187 -0.058215 -1.230560
v 0.410187 -0.058215 -1.230560
v -0.410187 0.058215 -1.230560
v 0.410187 0.058215 -1.230560
v -1.230560 -0.058215 0.410187
v -1.230560 -0.058215 -0.410187
v -1.230560 0.058215 0.410187
v -1.230560 0.058215 -0.410187
v -0.548289 0.191155 -0.182763
v -0.408822 0.191669 -0.408822
v 0.182763 0.191155 -0.548289
v 0.408822 0.191669 -0.408822
v 0.548289 0.191155 0.182763
v 0.408822 0.191669 0.408822
v -0.182763 0.191155 0.548289
v -0.408822 0.191669 0.408822
v -0.548289 0.191155 0.182763
v -0.182763 0.191155 -0.548289
v 0.548289 0.191155 -0.182763
v 0.182763 0.191155 0.548289
v 0.416754 0.318215 -0.416754
v 0.186356 0.318519 -0.559067
v -0.416754 0.318215 -0.416754
v -0.559067 0.318519 -0.186356
v 0.563884 0.262555 0.187961
v 0.420297 0.262621 0.420297
v -0.187961 0.262555 0.563884
v -0.420297 0.262621 0.420297
v -0.563884 0.262555 0.187961
v -0.187961 0.262555 -0.563884
v 0.563884 0.262555 -0.187961
v 0.187961 0.262555 0.563884
v 0.343309 0.471871 -0.343309
v 0.153187 0.472766 -0.459562
v -0.343309 0.471871 -0.343309
v -0.459562 0.472765 -0.153187
v 0.559067 0.318519 0.186356
v 0.416754 0.318215 0.416754
v -0.186356 0.318519 0.559067
v -0.416754 0.318215 0.416754
v -0.559067 0.318519 0.186356
v -0.186356 0.318519 -0.559067
v 0.559067 0.318519 -0.186356
v 0.186356 0.318519 0.559067
v 0.459562 0.472766 0.153187
v 0.343309 0.471871 0.343309
v -0.153187 0.472765 0.459562
v -0.343309 0.471871 0.343309
v -0.459562 0.472765 0.153187
v -0.153187 0.472766 -0.459562
v 0.459562 0.472766 -0.153187
v 0.153187 0.472765 0.459562
v 0.273339 0.534925 0.273339
v 0.273339 0.534925 -0.273339
v -0.273339 0.534925 0.273339
v -0.273339 0.534925 -0.273339
v -0.513168 -0.188391 0.171056
v -0.385073 -0.188391 0.385073
v -0.171056 -0.188391 -0.513168
v -0.385073 -0.188391 -0.385073
v 0.513168 -0.188391 -0.171056
v 0.385073 -0.188391 -0.385073
v 0.171056 -0.188391 0.513168
v 0.385073 -0.188391 0.385073
v -0.513168 -0.188391 -0.171056
v 0.171056 -0.188391 -0.513168
v 0.513168 -0.188391 0.171056
v -0.171056 -0.188391 0.513168
v -0.243490 -0.205813 0.243490
v -0.243490 -0.205813 -0.243490
v 0.243490 -0.205813 0.243490
v 0.243490 -0.205813 -0.243490
v -0.513168 -0.172577 -0.000000
v -0.513168 0.172577 -0.000000
v 0.513168 -0.172577 -0.000000
v 0.513168 0.172577 -0.000000
v 1.287014 -0.058215 0.000000
v 1.287014 0.058215 0.000000
v -1.287014 -0.058215 0.000000
v -1.287014 0.058215 0.000000
v -0.548289 0.191155 -0.000000
v 0.548289 0.191155 -0.000000
v -0.563884 0.262555 -0.000000
v 0.563884 0.262555 -0.000000
v -0.559067 0.318519 -0.000000
v 0.559067 0.318519 -0.000000
v -0.459562 0.472765 0.000000
v 0.459562 0.472766 0.000000
v 0.273339 0.534925 0.000000
v -0.273339 0.534925 0.000000
v -0.513168 -0.188391 -0.000000
v 0.513168 -0.188391 -0.000000
v -0.243490 -0.205813 0.000000
v 0.243490 -0.205813 0.000000
v 0.000000 -0.172577 -0.513168
v 0.000000 0.172577 -0.513168
v 0.000000 -0.172577 0.513168
v 0.000000 0.172577 0.513168
v 0.000000 -0.058215 1.287014
v 0.000000 0.058215 1.287014
v 0.000000 -0.058215 -1.287014
v 0.000000 0.058215 -1.287014
v 0.000000 0.191155 -0.548289
v 0.000000 0.191155 0.548289
v 0.000000 0.262555 -0.563884
v 0.000000 0.262555 0.563884
v 0.000000 0.318519 -0.559067
v 0.000000 0.318519 0.559067
v -0.000000 0.472766 -0.459562
v 0.000000 0.472765 0.459562
v 0.000000 0.534925 -0.273339
v 0.000000 0.534925 0.273339
v 0.000000 -0.188391 -0.513168
v 0.000000 -0.188391 0.513168
v 0.000000 -0.205813 -0.243490
v 0.000000 -0.205813 0.243490
v 0.000000 -0.205813 0.000000
v 0.000000 0.534925 0.000000
vn -0.1313 0.9881 -0.0802
vn 0.0802 0.9881 -0.1313
vn 0.1313 0.9881 0.0802
vn -0.0802 0.9881 0.1313
vn -0.5136 -0.0000 -0.8581
vn 0.4676 -0.8840 -0.0000
vn -0.2505 -0.8769 -0.4103
vn 0.2505 -0.8769 -0.4103
vn 0.4103 -0.8769 0.2505
vn -0.0000 -0.8840 0.4676
vn -0.2505 -0.8769 0.4103
vn 0.4103 -0.8769 -0.2505
vn -0.4676 -0.8840 -0.0000
vn 0.2505 -0.8769 0.4103
vn 0.8581 -0.0000 -0.5136
vn -0.8581 -0.0000 0.5136
vn 0.5136 -0.0000 0.8581
vn 1.0000 -0.0000 -0.0000
vn 0.5136 -0.0000 -0.8581
vn -1.0000 -0.0000 -0.0000
vn -0.0000 -0.0000 1.0000
vn 0.8581 -0.0000 0.5136
vn -0.0802 -0.9881 0.1313
vn -0.5244 -0.0000 0.8515
vn 0.0802 -0.9881 0.1313
vn -0.0145 -0.9887 0.1493
vn 0.5244 -0.0000 0.8515
vn -0.1363 -0.0000 0.9907
vn 0.0802 0.9881 0.1313
vn -0.0145 0.9887 0.1493
vn 0.1313 -0.9881 0.0802
vn 0.8515 -0.0000 0.5244
vn 0.1313 -0.9881 -0.0802
vn 0.1493 -0.9887 0.0145
vn 0.8515 -0.0000 -0.5244
vn 0.9907 -0.0000 0.1363
vn 0.1313 0.9881 -0.0802
vn 0.1493 0.9887 0.0145
vn 0.0802 -0.9881 -0.1313
vn 0.5244 -0.0000 -0.8515
vn -0.0802 -0.9881 -0.1313
vn 0.0145 -0.9887 -0.1493
vn -0.5244 -0.0000 -0.8515
vn 0.1363 -0.0000 -0.9907
vn -0.0802 0.9881 -0.1313
vn 0.0145 0.9887 -0.1493
vn -0.1313 -0.9881 -0.0802
vn -0.8515 -0.0000 -0.5244
vn -0.1313 -0.9881 0.0802
vn -0.1493 -0.9887 -0.0145
vn -0.8515 -0.0000 0.5244
vn -0.9907 -0.0000 -0.1363
vn -0.1313 0.9881 0.0802
vn -0.1493 0.9887 -0.0145
vn -0.5130 -0.2180 0.8303
vn -0.5130 -0.2180 -0.8303
vn 0.9770 -0.2134 -0.0000
vn 0.8303 -0.2180 0.5130
vn -0.9770 -0.2134 -0.0000
vn 0.8303 -0.2180 -0.5130
vn 0.5130 -0.2180 -0.8303
vn -0.0000 -0.2134 0.9770
vn -0.8303 -0.2180 0.5130
vn -0.4103 -0.8769 -0.2505
vn -0.4103 -0.8769 0.2505
vn -0.0000 -0.8840 -0.4676
vn -0.5236 0.0877 0.8474
vn -0.5236 0.0877 -0.8474
vn 0.9963 0.0858 -0.0000
vn 0.8474 0.0877 0.5236
vn -0.9963 0.0858 -0.0000
vn 0.8474 0.0877 -0.5236
vn 0.5236 0.0877 -0.8474
vn -0.0000 0.0858 0.9963
vn -0.8474 0.0877 0.5236
vn 0.5130 -0.2180 0.8303
vn -0.8303 -0.2180 -0.5130
vn -0.0000 -0.2134 -0.9770
vn -0.4383 0.5508 -0.7103
vn 0.8403 0.5421 -0.0000
vn 0.7103 0.5508 0.4383
vn -0.8403 0.5421 -0.0000
vn 0.7103 0.5508 -0.4383
vn 0.4383 0.5508 -0.7103
vn -0.0000 0.5421 0.8403
vn -0.7103 0.5508 0.4383
vn -0.0000 0.5421 -0.8403
vn 0.5236 0.0877 0.8474
vn -0.8474 0.0877 -0.5236
vn -0.0000 0.0858 -0.9963
vn -0.3800 0.8433 0.3800
vn 0.3800 0.8433 0.3800
vn -0.0000 0.9486 0.3166
vn 0.3800 0.8433 -0.3800
vn 0.3166 0.9486 -0.0000
vn -0.0000 0.9486 -0.3166
vn -0.0000 1.0000 -0.0000
vn -0.3800 0.8433 -0.3800
vn -0.3166 0.9486 -0.0000
vn -0.4383 0.5508 0.7103
vn 0.4383 0.5508 0.7103
vn -0.7103 0.5508 -0.4383
vn 0.0613 -0.9962 0.0613
vn -0.0613 -0.9962 0.0613
vn -0.0000 -0.9979 0.0645
vn -0.0613 -0.9962 -0.0613
vn -0.0645 -0.9979 -0.0000
vn -0.0000 -0.9979 -0.0645
vn -0.0000 -1.0000 -0.0000
vn 0.0613 -0.9962 -0.0613
vn 0.0645 -0.9979 -0.0000
vn -0.0000 -0.0000 -1.0000
vn -0.5136 -0.0000 0.8581
vn -0.8581 -0.0000 -0.5136
vn -0.1493 0.9887 0.0145
vn -0.9907 -0.0000 0.1363
vn -0.1493 -0.9887 0.0145
vn 0.1493 0.9887 -0.0145
vn 0.9907 -0.0000 -0.1363
vn 0.1493 -0.9887 -0.0145
vn -0.0145 0.9887 -0.1493
vn -0.1363 -0.0000 -0.9907
vn -0.0145 -0.9887 -0.1493
vn 0.0145 0.9887 0.1493
vn 0.1363 -0.0000 0.9907
vn 0.0145 -0.9887 0.1493
vt 0.948673 0.378121
vt 0.819341 0.311408
vt 0.831594 0.265557
vt 0.976595 0.268154
vt 0.619433 0.968928
vt 0.683820 0.838422
vt 0.729882 0.849852
vt 0.729882 0.994876
vt 0.951718 0.859518
vt 0.822386 0.792806
vt 0.834639 0.746955
vt 0.979640 0.749552
vt 0.616389 0.487530
vt 0.680775 0.357024
vt 0.726838 0.368454
vt 0.726838 0.513478
vt 0.284806 0.564162
vt 0.308912 0.605954
vt 0.306106 0.606705
vt 0.282156 0.565690
vt 0.378427 0.842144
vt 0.344562 0.851539
vt 0.342692 0.844023
vt 0.375847 0.834731
vt 0.161122 0.842236
vt 0.108537 0.822155
vt 0.109855 0.813518
vt 0.163436 0.833932
vt 0.292377 0.859066
vt 0.238095 0.858229
vt 0.239146 0.849978
vt 0.291943 0.851477
vt 0.450614 0.808026
vt 0.409341 0.828640
vt 0.406674 0.821918
vt 0.448842 0.801089
vt 0.214442 0.953026
vt 0.176199 0.941907
vt 0.178513 0.933603
vt 0.216286 0.944255
vt 0.307454 0.958737
vt 0.253172 0.957900
vt 0.254223 0.949649
vt 0.307020 0.951148
vt 0.393504 0.941815
vt 0.359639 0.951210
vt 0.357768 0.943694
vt 0.390924 0.934402
vt 0.123613 0.921826
vt 0.124932 0.913188
vt 0.282899 0.714408
vt 0.240733 0.739189
vt 0.239955 0.736371
vt 0.280823 0.712300
vt 0.133309 0.562249
vt 0.175606 0.537448
vt 0.176378 0.540304
vt 0.135388 0.564363
vt 0.131398 0.712778
vt 0.107214 0.670916
vt 0.110026 0.670162
vt 0.134052 0.711245
vt 0.207351 0.739353
vt 0.173940 0.738807
vt 0.174739 0.735976
vt 0.207369 0.736268
vt 0.308310 0.672639
vt 0.305505 0.671819
vt 0.209036 0.537448
vt 0.242397 0.538157
vt 0.241591 0.540950
vt 0.209003 0.540532
vt 0.107141 0.637505
vt 0.107817 0.604087
vt 0.110628 0.604910
vt 0.110227 0.637533
vt 0.132472 0.713874
vt 0.772901 0.605431
vt 0.837287 0.735937
vt 0.726838 0.761885
vt 0.726838 0.616861
vt 0.042421 0.598946
vt 0.020266 0.598946
vt 0.020266 0.485489
vt 0.042421 0.485489
vt 0.831594 0.513964
vt 0.976595 0.516561
vt 0.948673 0.626528
vt 0.819341 0.559815
vt 0.796121 0.582623
vt 0.900424 0.688811
vt 0.042420 0.869973
vt 0.020266 0.869973
vt 0.020266 0.756517
vt 0.042420 0.756517
vt 0.042421 0.677731
vt 0.020266 0.677731
vt 0.477081 0.268154
vt 0.622082 0.265557
vt 0.634334 0.311408
vt 0.505002 0.378121
vt 0.553251 0.440404
vt 0.657555 0.334216
vt 0.634334 0.063001
vt 0.505002 0.129714
vt 0.477081 0.019747
vt 0.622082 0.017150
vt 0.057726 0.756517
vt 0.079880 0.756517
vt 0.079880 0.869973
vt 0.057726 0.869973
vt 0.726838 0.120047
vt 0.726838 0.265071
vt 0.616389 0.239123
vt 0.680775 0.108617
vt 0.657555 0.085809
vt 0.553251 0.191997
vt 0.057726 0.485489
vt 0.079880 0.485489
vt 0.079880 0.598946
vt 0.057726 0.598946
vt 0.057726 0.677731
vt 0.079880 0.677731
vt 0.775945 0.838422
vt 0.840332 0.968928
vt 0.903469 0.921802
vt 0.799166 0.815614
vt 0.772901 0.108617
vt 0.837287 0.239123
vt 0.057726 0.372033
vt 0.079880 0.372033
vt 0.831594 0.017150
vt 0.976595 0.019747
vt 0.948673 0.129714
vt 0.819341 0.063001
vt 0.796121 0.085809
vt 0.900424 0.191997
vt 0.057726 0.101006
vt 0.079880 0.101006
vt 0.079880 0.214462
vt 0.057726 0.214462
vt 0.057726 0.293247
vt 0.079880 0.293247
vt 0.480125 0.749552
vt 0.625126 0.746955
vt 0.637379 0.792806
vt 0.508047 0.859518
vt 0.556296 0.921802
vt 0.660599 0.815614
vt 0.634334 0.559815
vt 0.505002 0.626528
vt 0.477081 0.516561
vt 0.622082 0.513964
vt 0.042421 0.214462
vt 0.020266 0.214462
vt 0.020266 0.101006
vt 0.042421 0.101006
vt 0.616389 0.735937
vt 0.680775 0.605431
vt 0.657555 0.582623
vt 0.553251 0.688811
vt 0.020266 0.372033
vt 0.042421 0.372033
vt 0.042421 0.293248
vt 0.020266 0.293248
vt 0.772901 0.357024
vt 0.837287 0.487530
vt 0.900424 0.440404
vt 0.796121 0.334216
vt 0.255720 0.935726
vt 0.306303 0.937561
vt 0.114802 0.798188
vt 0.167848 0.819910
vt 0.339958 0.831294
vt 0.371502 0.821818
vt 0.401812 0.810548
vt 0.443596 0.788976
vt 0.355035 0.930965
vt 0.386579 0.921488
vt 0.291226 0.837890
vt 0.240643 0.836055
vt 0.182925 0.919581
vt 0.219580 0.929106
vt 0.465690 0.907697
vt 0.424418 0.928311
vt 0.421751 0.921589
vt 0.463919 0.900760
vt 0.199365 0.853355
vt 0.201209 0.844584
vt 0.256814 0.925657
vt 0.305829 0.927588
vt 0.120359 0.786790
vt 0.171191 0.809880
vt 0.337871 0.822034
vt 0.368250 0.811930
vt 0.398237 0.802347
vt 0.438633 0.779943
vt 0.352948 0.921705
vt 0.383327 0.911601
vt 0.290752 0.827917
vt 0.241737 0.825987
vt 0.186268 0.909551
vt 0.222200 0.917612
vt 0.129879 0.897859
vt 0.416889 0.910219
vt 0.458673 0.888647
vt 0.204504 0.829435
vt 0.141836 0.754037
vt 0.184542 0.774477
vt 0.331463 0.789443
vt 0.358309 0.780776
vt 0.384825 0.773246
vt 0.419033 0.754037
vt 0.346540 0.889114
vt 0.373386 0.880447
vt 0.289642 0.793819
vt 0.246186 0.790650
vt 0.199619 0.874148
vt 0.231035 0.881596
vt 0.304719 0.893490
vt 0.207123 0.817941
vt 0.215958 0.781925
vt 0.135436 0.886461
vt 0.413313 0.902018
vt 0.453710 0.879614
vt 0.413232 0.421092
vt 0.391400 0.383207
vt 0.429022 0.405442
vt 0.450874 0.443238
vt 0.390550 0.562029
vt 0.412742 0.524353
vt 0.450592 0.502566
vt 0.428382 0.540152
vt 0.413387 0.472724
vt 0.450987 0.472903
vt 0.293844 0.539306
vt 0.272100 0.501616
vt 0.309611 0.523733
vt 0.331274 0.561540
vt 0.360875 0.562029
vt 0.361127 0.524446
vt 0.272004 0.472052
vt 0.272381 0.442491
vt 0.310100 0.420731
vt 0.309502 0.472231
vt 0.361409 0.472477
vt 0.361621 0.420508
vt 0.294482 0.405009
vt 0.332122 0.383132
vt 0.361726 0.382925
vt 0.261263 0.890321
vt 0.156913 0.853708
vt 0.399902 0.872917
vt 0.434109 0.853708
vt 0.161381 0.684366
vt 0.162198 0.591655
vt 0.161760 0.637999
vt 0.254845 0.592493
vt 0.208530 0.592048
vt 0.305895 0.639265
vt 0.254030 0.685084
vt 0.254444 0.638800
vt 0.208117 0.638400
vt 0.207735 0.684752
vt 0.308974 0.639293
vt 0.283736 0.563069
s 0
f 52/1/1 14/2/1 4/3/1 15/4/1
f 48/5/2 20/6/2 8/7/2 21/8/2
f 44/9/3 26/10/3 6/11/3 27/12/3
f 40/13/4 32/14/4 2/15/4 12/16/4
f 3/17/5 18/18/5 103/19/5 104/20/5
f 120/21/6 25/22/6 63/23/6 126/24/6
f 19/25/7 4/26/7 54/27/7 62/28/7
f 8/29/8 20/30/8 55/31/8 56/32/8
f 6/33/9 26/34/9 57/35/9 58/36/9
f 142/37/10 31/38/10 64/39/10 148/40/10
f 2/41/11 32/42/11 59/43/11 60/44/11
f 25/22/12 8/29/12 56/32/12 63/23/12
f 118/45/13 13/46/13 61/47/13 125/48/13
f 31/38/14 6/49/14 58/50/14 64/39/14
f 7/51/15 24/52/15 105/53/15 106/54/15
f 1/55/16 10/56/16 101/57/16 102/58/16
f 5/59/17 30/60/17 107/61/17 108/62/17
f 119/63/18 23/64/18 111/65/18 136/66/18
f 17/67/19 7/51/19 106/54/19 110/68/19
f 117/69/20 9/70/20 109/71/20 135/72/20
f 141/73/21 29/74/21 112/75/21 158/76/21
f 23/64/22 5/77/22 108/62/22 111/65/22
f 29/78/23 38/79/23 11/80/23 1/81/23
f 38/82/24 40/83/24 12/84/24 11/85/24
f 5/86/25 28/87/25 37/88/25 30/89/25
f 141/90/26 143/91/26 38/79/26 29/78/26
f 28/92/27 27/93/27 39/94/27 37/95/27
f 143/96/28 144/97/28 40/83/28 38/82/28
f 27/98/29 6/99/29 31/100/29 39/101/29
f 144/102/30 142/103/30 32/14/30 40/13/30
f 23/104/31 42/105/31 28/106/31 5/107/31
f 42/108/32 44/109/32 27/110/32 28/111/32
f 7/112/33 22/113/33 41/114/33 24/115/33
f 119/116/34 121/117/34 42/105/34 23/104/34
f 22/118/35 21/119/35 43/120/35 41/121/35
f 121/122/36 122/123/36 44/109/36 42/108/36
f 21/8/37 8/7/37 25/124/37 43/125/37
f 122/126/38 120/127/38 26/10/38 44/9/38
f 17/128/39 46/129/39 22/113/39 7/112/39
f 46/130/40 48/131/40 21/119/40 22/118/40
f 3/132/41 16/133/41 45/134/41 18/135/41
f 139/136/42 145/137/42 46/129/42 17/128/42
f 16/138/43 15/139/43 47/140/43 45/141/43
f 145/142/44 146/143/44 48/131/44 46/130/44
f 15/144/45 4/145/45 19/146/45 47/147/45
f 146/148/46 140/149/46 20/6/46 48/5/46
f 9/150/47 50/151/47 16/152/47 3/153/47
f 50/154/48 52/155/48 15/156/48 16/157/48
f 1/81/49 11/80/49 49/158/49 10/159/49
f 117/160/50 123/161/50 50/151/50 9/150/50
f 11/85/51 12/84/51 51/162/51 49/163/51
f 123/164/52 124/165/52 52/155/52 50/154/52
f 12/16/53 2/15/53 13/166/53 51/167/53
f 124/168/54 118/169/54 14/2/54 52/1/54
f 60/44/55 59/43/55 71/170/55 72/171/55
f 62/28/56 54/27/56 35/172/56 74/173/56
f 126/24/57 63/23/57 75/174/57 128/175/57
f 58/36/58 57/35/58 69/176/58 70/177/58
f 125/48/59 61/47/59 73/178/59 127/179/59
f 63/23/60 56/32/60 33/180/60 75/174/60
f 56/32/61 55/31/61 34/181/61 33/180/61
f 148/40/62 64/39/62 76/182/62 150/183/62
f 61/47/63 60/44/63 72/171/63 73/178/63
f 4/184/64 14/185/64 53/186/64 54/187/64
f 13/46/65 2/41/65 60/44/65 61/47/65
f 140/188/66 19/25/66 62/28/66 147/189/66
f 72/171/67 71/170/67 83/190/67 84/191/67
f 74/173/68 35/172/68 67/192/68 86/193/68
f 128/175/69 75/174/69 87/194/69 130/195/69
f 70/177/70 69/176/70 81/196/70 82/197/70
f 127/179/71 73/178/71 85/198/71 129/199/71
f 75/174/72 33/180/72 65/200/72 87/194/72
f 33/180/73 34/181/73 66/201/73 65/200/73
f 150/183/74 76/182/74 88/202/74 152/203/74
f 73/178/75 72/171/75 84/191/75 85/198/75
f 64/39/76 58/50/76 70/204/76 76/182/76
f 54/187/77 53/186/77 36/205/77 35/206/77
f 147/189/78 62/28/78 74/173/78 149/207/78
f 86/193/79 67/192/79 79/208/79 94/209/79
f 130/195/80 87/194/80 95/210/80 132/211/80
f 82/197/81 81/196/81 89/212/81 90/213/81
f 129/199/82 85/198/82 93/214/82 131/215/82
f 87/194/83 65/200/83 77/216/83 95/210/83
f 65/200/84 66/201/84 78/217/84 77/216/84
f 152/203/85 88/202/85 96/218/85 154/219/85
f 85/198/86 84/191/86 92/220/86 93/214/86
f 151/221/87 86/193/87 94/209/87 153/222/87
f 76/182/88 70/204/88 82/223/88 88/202/88
f 35/206/89 36/205/89 68/224/89 67/225/89
f 149/207/90 74/173/90 86/193/90 151/221/90
f 99/226/91 93/227/91 92/228/91 91/229/91
f 89/230/92 97/231/92 96/232/92 90/233/92
f 156/234/93 99/226/93 91/229/93 154/235/93
f 77/236/94 78/237/94 98/238/94 95/239/94
f 132/240/95 133/241/95 97/231/95 89/230/95
f 153/242/96 94/243/96 100/244/96 155/245/96
f 162/246/97 134/247/97 99/226/97 156/234/97
f 94/243/98 79/248/98 80/249/98 100/244/98
f 134/247/99 131/250/99 93/227/99 99/226/99
f 84/191/100 83/190/100 91/251/100 92/220/100
f 88/202/101 82/223/101 90/252/101 96/218/101
f 67/225/102 68/224/102 80/253/102 79/254/102
f 115/255/103 111/65/103 108/62/103 107/61/103
f 101/57/104 113/256/104 112/75/104 102/58/104
f 160/257/105 115/255/105 107/61/105 158/76/105
f 104/20/106 103/19/106 114/258/106 109/71/106
f 135/72/107 137/259/107 113/256/107 101/57/107
f 157/260/108 110/68/108 116/261/108 159/262/108
f 161/263/109 138/264/109 115/255/109 160/257/109
f 110/68/110 106/54/110 105/53/110 116/261/110
f 138/264/111 136/66/111 111/65/111 115/255/111
f 139/265/112 17/67/112 110/68/112 157/260/112
f 29/74/113 1/55/113 102/58/113 112/75/113
f 9/70/114 3/266/114 104/20/114 109/71/114
f 116/261/111 105/53/111 136/66/111 138/264/111
f 159/262/109 116/261/109 138/264/109 161/263/109
f 109/71/107 114/258/107 137/259/107 135/72/107
f 100/244/99 80/249/99 131/250/99 134/247/99
f 155/245/97 100/244/97 134/247/97 162/246/97
f 95/239/95 98/238/95 133/241/95 132/240/95
f 68/224/82 129/199/82 131/215/82 80/253/82
f 81/196/80 130/195/80 132/211/80 89/212/80
f 36/205/71 127/179/71 129/199/71 68/224/71
f 69/176/69 128/175/69 130/195/69 81/196/69
f 53/186/59 125/48/59 127/179/59 36/205/59
f 57/35/57 126/24/57 128/175/57 69/176/57
f 51/167/115 13/166/115 118/169/115 124/168/115
f 49/163/116 51/162/116 124/165/116 123/164/116
f 10/159/117 49/158/117 123/161/117 117/160/117
f 43/125/118 25/124/118 120/127/118 122/126/118
f 41/121/119 43/120/119 122/123/119 121/122/119
f 24/115/120 41/114/120 121/117/120 119/116/120
f 10/56/20 117/69/20 135/72/20 101/57/20
f 24/52/18 119/63/18 136/66/18 105/53/18
f 14/185/13 118/45/13 125/48/13 53/186/13
f 26/34/6 120/21/6 126/24/6 57/35/6
f 98/238/97 155/245/97 162/246/97 133/241/97
f 114/258/109 159/262/109 161/263/109 137/259/109
f 18/18/112 139/265/112 157/260/112 103/19/112
f 137/259/109 161/263/109 160/257/109 113/256/109
f 103/19/108 157/260/108 159/262/108 114/258/108
f 113/256/105 160/257/105 158/76/105 112/75/105
f 133/241/97 162/246/97 156/234/97 97/231/97
f 78/237/96 153/242/96 155/245/96 98/238/96
f 97/231/93 156/234/93 154/235/93 96/232/93
f 34/181/90 149/207/90 151/221/90 66/201/90
f 66/201/87 151/221/87 153/222/87 78/217/87
f 83/190/85 152/203/85 154/219/85 91/251/85
f 55/31/78 147/189/78 149/207/78 34/181/78
f 71/170/74 150/183/74 152/203/74 83/190/74
f 20/30/66 140/188/66 147/189/66 55/31/66
f 59/43/62 148/40/62 150/183/62 71/170/62
f 47/147/121 19/146/121 140/149/121 146/148/121
f 45/141/122 47/140/122 146/143/122 145/142/122
f 18/135/123 45/134/123 145/137/123 139/136/123
f 39/101/124 31/100/124 142/103/124 144/102/124
f 37/95/125 39/94/125 144/97/125 143/96/125
f 30/89/126 37/88/126 143/91/126 141/90/126
f 30/60/21 141/73/21 158/76/21 107/61/21
f 32/42/10 142/37/10 148/40/10 59/43/10
